G04 #@! TF.GenerationSoftware,KiCad,Pcbnew,(5.1.5)-3*
G04 #@! TF.CreationDate,2021-01-06T13:28:44+01:00*
G04 #@! TF.ProjectId,keg01,6b656730-312e-46b6-9963-61645f706362,rev?*
G04 #@! TF.SameCoordinates,Original*
G04 #@! TF.FileFunction,Soldermask,Bot*
G04 #@! TF.FilePolarity,Negative*
%FSLAX46Y46*%
G04 Gerber Fmt 4.6, Leading zero omitted, Abs format (unit mm)*
G04 Created by KiCad (PCBNEW (5.1.5)-3) date 2021-01-06 13:28:44*
%MOMM*%
%LPD*%
G04 APERTURE LIST*
%ADD10C,0.100000*%
G04 APERTURE END LIST*
D10*
G36*
X196346552Y-96721331D02*
G01*
X196428627Y-96755328D01*
X196428629Y-96755329D01*
X196465813Y-96780175D01*
X196502495Y-96804685D01*
X196565315Y-96867505D01*
X196614672Y-96941373D01*
X196648669Y-97023448D01*
X196666000Y-97110579D01*
X196666000Y-97199421D01*
X196648669Y-97286552D01*
X196614672Y-97368627D01*
X196614671Y-97368629D01*
X196565314Y-97442496D01*
X196502496Y-97505314D01*
X196428629Y-97554671D01*
X196428628Y-97554672D01*
X196428627Y-97554672D01*
X196346552Y-97588669D01*
X196259421Y-97606000D01*
X196170579Y-97606000D01*
X196083448Y-97588669D01*
X196001373Y-97554672D01*
X196001372Y-97554672D01*
X196001371Y-97554671D01*
X195927504Y-97505314D01*
X195864686Y-97442496D01*
X195815329Y-97368629D01*
X195815328Y-97368627D01*
X195781331Y-97286552D01*
X195764000Y-97199421D01*
X195764000Y-97110579D01*
X195781331Y-97023448D01*
X195815328Y-96941373D01*
X195864685Y-96867505D01*
X195927505Y-96804685D01*
X195964187Y-96780175D01*
X196001371Y-96755329D01*
X196001373Y-96755328D01*
X196083448Y-96721331D01*
X196170579Y-96704000D01*
X196259421Y-96704000D01*
X196346552Y-96721331D01*
G37*
G36*
X195076552Y-96721331D02*
G01*
X195158627Y-96755328D01*
X195158629Y-96755329D01*
X195195813Y-96780175D01*
X195232495Y-96804685D01*
X195295315Y-96867505D01*
X195344672Y-96941373D01*
X195378669Y-97023448D01*
X195396000Y-97110579D01*
X195396000Y-97199421D01*
X195378669Y-97286552D01*
X195344672Y-97368627D01*
X195344671Y-97368629D01*
X195295314Y-97442496D01*
X195232496Y-97505314D01*
X195158629Y-97554671D01*
X195158628Y-97554672D01*
X195158627Y-97554672D01*
X195076552Y-97588669D01*
X194989421Y-97606000D01*
X194900579Y-97606000D01*
X194813448Y-97588669D01*
X194731373Y-97554672D01*
X194731372Y-97554672D01*
X194731371Y-97554671D01*
X194657504Y-97505314D01*
X194594686Y-97442496D01*
X194545329Y-97368629D01*
X194545328Y-97368627D01*
X194511331Y-97286552D01*
X194494000Y-97199421D01*
X194494000Y-97110579D01*
X194511331Y-97023448D01*
X194545328Y-96941373D01*
X194594685Y-96867505D01*
X194657505Y-96804685D01*
X194694187Y-96780175D01*
X194731371Y-96755329D01*
X194731373Y-96755328D01*
X194813448Y-96721331D01*
X194900579Y-96704000D01*
X194989421Y-96704000D01*
X195076552Y-96721331D01*
G37*
G36*
X97286552Y-96721331D02*
G01*
X97368627Y-96755328D01*
X97368629Y-96755329D01*
X97405813Y-96780175D01*
X97442495Y-96804685D01*
X97505315Y-96867505D01*
X97554672Y-96941373D01*
X97588669Y-97023448D01*
X97606000Y-97110579D01*
X97606000Y-97199421D01*
X97588669Y-97286552D01*
X97554672Y-97368627D01*
X97554671Y-97368629D01*
X97505314Y-97442496D01*
X97442496Y-97505314D01*
X97368629Y-97554671D01*
X97368628Y-97554672D01*
X97368627Y-97554672D01*
X97286552Y-97588669D01*
X97199421Y-97606000D01*
X97110579Y-97606000D01*
X97023448Y-97588669D01*
X96941373Y-97554672D01*
X96941372Y-97554672D01*
X96941371Y-97554671D01*
X96867504Y-97505314D01*
X96804686Y-97442496D01*
X96755329Y-97368629D01*
X96755328Y-97368627D01*
X96721331Y-97286552D01*
X96704000Y-97199421D01*
X96704000Y-97110579D01*
X96721331Y-97023448D01*
X96755328Y-96941373D01*
X96804685Y-96867505D01*
X96867505Y-96804685D01*
X96904187Y-96780175D01*
X96941371Y-96755329D01*
X96941373Y-96755328D01*
X97023448Y-96721331D01*
X97110579Y-96704000D01*
X97199421Y-96704000D01*
X97286552Y-96721331D01*
G37*
G36*
X98556552Y-96721331D02*
G01*
X98638627Y-96755328D01*
X98638629Y-96755329D01*
X98675813Y-96780175D01*
X98712495Y-96804685D01*
X98775315Y-96867505D01*
X98824672Y-96941373D01*
X98858669Y-97023448D01*
X98876000Y-97110579D01*
X98876000Y-97199421D01*
X98858669Y-97286552D01*
X98824672Y-97368627D01*
X98824671Y-97368629D01*
X98775314Y-97442496D01*
X98712496Y-97505314D01*
X98638629Y-97554671D01*
X98638628Y-97554672D01*
X98638627Y-97554672D01*
X98556552Y-97588669D01*
X98469421Y-97606000D01*
X98380579Y-97606000D01*
X98293448Y-97588669D01*
X98211373Y-97554672D01*
X98211372Y-97554672D01*
X98211371Y-97554671D01*
X98137504Y-97505314D01*
X98074686Y-97442496D01*
X98025329Y-97368629D01*
X98025328Y-97368627D01*
X97991331Y-97286552D01*
X97974000Y-97199421D01*
X97974000Y-97110579D01*
X97991331Y-97023448D01*
X98025328Y-96941373D01*
X98074685Y-96867505D01*
X98137505Y-96804685D01*
X98174187Y-96780175D01*
X98211371Y-96755329D01*
X98211373Y-96755328D01*
X98293448Y-96721331D01*
X98380579Y-96704000D01*
X98469421Y-96704000D01*
X98556552Y-96721331D01*
G37*
G36*
X115701552Y-96086331D02*
G01*
X115783627Y-96120328D01*
X115783629Y-96120329D01*
X115820813Y-96145175D01*
X115857495Y-96169685D01*
X115920315Y-96232505D01*
X115969672Y-96306373D01*
X116003669Y-96388448D01*
X116021000Y-96475579D01*
X116021000Y-96564421D01*
X116003669Y-96651552D01*
X115969672Y-96733627D01*
X115922193Y-96804685D01*
X115920314Y-96807496D01*
X115857496Y-96870314D01*
X115783629Y-96919671D01*
X115783628Y-96919672D01*
X115783627Y-96919672D01*
X115701552Y-96953669D01*
X115614421Y-96971000D01*
X115525579Y-96971000D01*
X115438448Y-96953669D01*
X115356373Y-96919672D01*
X115356372Y-96919672D01*
X115356371Y-96919671D01*
X115282504Y-96870314D01*
X115219686Y-96807496D01*
X115217808Y-96804685D01*
X115170328Y-96733627D01*
X115136331Y-96651552D01*
X115119000Y-96564421D01*
X115119000Y-96475579D01*
X115136331Y-96388448D01*
X115170328Y-96306373D01*
X115219685Y-96232505D01*
X115282505Y-96169685D01*
X115319187Y-96145175D01*
X115356371Y-96120329D01*
X115356373Y-96120328D01*
X115438448Y-96086331D01*
X115525579Y-96069000D01*
X115614421Y-96069000D01*
X115701552Y-96086331D01*
G37*
G36*
X126496552Y-96086331D02*
G01*
X126578627Y-96120328D01*
X126578629Y-96120329D01*
X126615813Y-96145175D01*
X126652495Y-96169685D01*
X126715315Y-96232505D01*
X126764672Y-96306373D01*
X126798669Y-96388448D01*
X126816000Y-96475579D01*
X126816000Y-96564421D01*
X126798669Y-96651552D01*
X126764672Y-96733627D01*
X126717193Y-96804685D01*
X126715314Y-96807496D01*
X126652496Y-96870314D01*
X126578629Y-96919671D01*
X126578628Y-96919672D01*
X126578627Y-96919672D01*
X126496552Y-96953669D01*
X126409421Y-96971000D01*
X126320579Y-96971000D01*
X126233448Y-96953669D01*
X126151373Y-96919672D01*
X126151372Y-96919672D01*
X126151371Y-96919671D01*
X126077504Y-96870314D01*
X126014686Y-96807496D01*
X126012808Y-96804685D01*
X125965328Y-96733627D01*
X125931331Y-96651552D01*
X125914000Y-96564421D01*
X125914000Y-96475579D01*
X125931331Y-96388448D01*
X125965328Y-96306373D01*
X126014685Y-96232505D01*
X126077505Y-96169685D01*
X126114187Y-96145175D01*
X126151371Y-96120329D01*
X126151373Y-96120328D01*
X126233448Y-96086331D01*
X126320579Y-96069000D01*
X126409421Y-96069000D01*
X126496552Y-96086331D01*
G37*
G36*
X97286552Y-95451331D02*
G01*
X97368627Y-95485328D01*
X97368629Y-95485329D01*
X97389759Y-95499448D01*
X97442495Y-95534685D01*
X97505315Y-95597505D01*
X97554672Y-95671373D01*
X97588669Y-95753448D01*
X97606000Y-95840579D01*
X97606000Y-95929421D01*
X97588669Y-96016552D01*
X97554672Y-96098627D01*
X97507193Y-96169685D01*
X97505314Y-96172496D01*
X97442496Y-96235314D01*
X97368629Y-96284671D01*
X97368628Y-96284672D01*
X97368627Y-96284672D01*
X97286552Y-96318669D01*
X97199421Y-96336000D01*
X97110579Y-96336000D01*
X97023448Y-96318669D01*
X96941373Y-96284672D01*
X96941372Y-96284672D01*
X96941371Y-96284671D01*
X96867504Y-96235314D01*
X96804686Y-96172496D01*
X96802808Y-96169685D01*
X96755328Y-96098627D01*
X96721331Y-96016552D01*
X96704000Y-95929421D01*
X96704000Y-95840579D01*
X96721331Y-95753448D01*
X96755328Y-95671373D01*
X96804685Y-95597505D01*
X96867505Y-95534685D01*
X96920241Y-95499448D01*
X96941371Y-95485329D01*
X96941373Y-95485328D01*
X97023448Y-95451331D01*
X97110579Y-95434000D01*
X97199421Y-95434000D01*
X97286552Y-95451331D01*
G37*
G36*
X196346552Y-95451331D02*
G01*
X196428627Y-95485328D01*
X196428629Y-95485329D01*
X196449759Y-95499448D01*
X196502495Y-95534685D01*
X196565315Y-95597505D01*
X196614672Y-95671373D01*
X196648669Y-95753448D01*
X196666000Y-95840579D01*
X196666000Y-95929421D01*
X196648669Y-96016552D01*
X196614672Y-96098627D01*
X196567193Y-96169685D01*
X196565314Y-96172496D01*
X196502496Y-96235314D01*
X196428629Y-96284671D01*
X196428628Y-96284672D01*
X196428627Y-96284672D01*
X196346552Y-96318669D01*
X196259421Y-96336000D01*
X196170579Y-96336000D01*
X196083448Y-96318669D01*
X196001373Y-96284672D01*
X196001372Y-96284672D01*
X196001371Y-96284671D01*
X195927504Y-96235314D01*
X195864686Y-96172496D01*
X195862808Y-96169685D01*
X195815328Y-96098627D01*
X195781331Y-96016552D01*
X195764000Y-95929421D01*
X195764000Y-95840579D01*
X195781331Y-95753448D01*
X195815328Y-95671373D01*
X195864685Y-95597505D01*
X195927505Y-95534685D01*
X195980241Y-95499448D01*
X196001371Y-95485329D01*
X196001373Y-95485328D01*
X196083448Y-95451331D01*
X196170579Y-95434000D01*
X196259421Y-95434000D01*
X196346552Y-95451331D01*
G37*
G36*
X143133552Y-95197331D02*
G01*
X143215627Y-95231328D01*
X143215629Y-95231329D01*
X143252813Y-95256175D01*
X143289495Y-95280685D01*
X143352315Y-95343505D01*
X143401672Y-95417373D01*
X143435669Y-95499448D01*
X143453000Y-95586579D01*
X143453000Y-95675421D01*
X143435669Y-95762552D01*
X143403349Y-95840579D01*
X143401671Y-95844629D01*
X143352314Y-95918496D01*
X143289496Y-95981314D01*
X143215629Y-96030671D01*
X143215628Y-96030672D01*
X143215627Y-96030672D01*
X143133552Y-96064669D01*
X143046421Y-96082000D01*
X142957579Y-96082000D01*
X142870448Y-96064669D01*
X142788373Y-96030672D01*
X142788372Y-96030672D01*
X142788371Y-96030671D01*
X142714504Y-95981314D01*
X142651686Y-95918496D01*
X142602329Y-95844629D01*
X142600651Y-95840579D01*
X142568331Y-95762552D01*
X142551000Y-95675421D01*
X142551000Y-95586579D01*
X142568331Y-95499448D01*
X142602328Y-95417373D01*
X142651685Y-95343505D01*
X142714505Y-95280685D01*
X142751187Y-95256175D01*
X142788371Y-95231329D01*
X142788373Y-95231328D01*
X142870448Y-95197331D01*
X142957579Y-95180000D01*
X143046421Y-95180000D01*
X143133552Y-95197331D01*
G37*
G36*
X191266552Y-94181331D02*
G01*
X191348627Y-94215328D01*
X191348629Y-94215329D01*
X191385813Y-94240175D01*
X191422495Y-94264685D01*
X191485315Y-94327505D01*
X191534672Y-94401373D01*
X191568669Y-94483448D01*
X191586000Y-94570579D01*
X191586000Y-94659421D01*
X191568669Y-94746552D01*
X191534672Y-94828627D01*
X191534671Y-94828629D01*
X191485314Y-94902496D01*
X191422496Y-94965314D01*
X191348629Y-95014671D01*
X191348628Y-95014672D01*
X191348627Y-95014672D01*
X191266552Y-95048669D01*
X191179421Y-95066000D01*
X191090579Y-95066000D01*
X191003448Y-95048669D01*
X190921373Y-95014672D01*
X190921372Y-95014672D01*
X190921371Y-95014671D01*
X190847504Y-94965314D01*
X190784686Y-94902496D01*
X190735329Y-94828629D01*
X190735328Y-94828627D01*
X190701331Y-94746552D01*
X190684000Y-94659421D01*
X190684000Y-94570579D01*
X190701331Y-94483448D01*
X190735328Y-94401373D01*
X190784685Y-94327505D01*
X190847505Y-94264685D01*
X190884187Y-94240175D01*
X190921371Y-94215329D01*
X190921373Y-94215328D01*
X191003448Y-94181331D01*
X191090579Y-94164000D01*
X191179421Y-94164000D01*
X191266552Y-94181331D01*
G37*
G36*
X136656552Y-93546331D02*
G01*
X136738627Y-93580328D01*
X136738629Y-93580329D01*
X136775813Y-93605175D01*
X136812495Y-93629685D01*
X136875315Y-93692505D01*
X136924672Y-93766373D01*
X136958669Y-93848448D01*
X136976000Y-93935579D01*
X136976000Y-94024421D01*
X136958669Y-94111552D01*
X136924672Y-94193627D01*
X136877193Y-94264685D01*
X136875314Y-94267496D01*
X136812496Y-94330314D01*
X136738629Y-94379671D01*
X136738628Y-94379672D01*
X136738627Y-94379672D01*
X136656552Y-94413669D01*
X136569421Y-94431000D01*
X136480579Y-94431000D01*
X136393448Y-94413669D01*
X136311373Y-94379672D01*
X136311372Y-94379672D01*
X136311371Y-94379671D01*
X136237504Y-94330314D01*
X136174686Y-94267496D01*
X136172808Y-94264685D01*
X136125328Y-94193627D01*
X136091331Y-94111552D01*
X136074000Y-94024421D01*
X136074000Y-93935579D01*
X136091331Y-93848448D01*
X136125328Y-93766373D01*
X136174685Y-93692505D01*
X136237505Y-93629685D01*
X136274187Y-93605175D01*
X136311371Y-93580329D01*
X136311373Y-93580328D01*
X136393448Y-93546331D01*
X136480579Y-93529000D01*
X136569421Y-93529000D01*
X136656552Y-93546331D01*
G37*
G36*
X139196552Y-93546331D02*
G01*
X139278627Y-93580328D01*
X139278629Y-93580329D01*
X139315813Y-93605175D01*
X139352495Y-93629685D01*
X139415315Y-93692505D01*
X139464672Y-93766373D01*
X139498669Y-93848448D01*
X139516000Y-93935579D01*
X139516000Y-94024421D01*
X139498669Y-94111552D01*
X139464672Y-94193627D01*
X139417193Y-94264685D01*
X139415314Y-94267496D01*
X139352496Y-94330314D01*
X139278629Y-94379671D01*
X139278628Y-94379672D01*
X139278627Y-94379672D01*
X139196552Y-94413669D01*
X139109421Y-94431000D01*
X139020579Y-94431000D01*
X138933448Y-94413669D01*
X138851373Y-94379672D01*
X138851372Y-94379672D01*
X138851371Y-94379671D01*
X138777504Y-94330314D01*
X138714686Y-94267496D01*
X138712808Y-94264685D01*
X138665328Y-94193627D01*
X138631331Y-94111552D01*
X138614000Y-94024421D01*
X138614000Y-93935579D01*
X138631331Y-93848448D01*
X138665328Y-93766373D01*
X138714685Y-93692505D01*
X138777505Y-93629685D01*
X138814187Y-93605175D01*
X138851371Y-93580329D01*
X138851373Y-93580328D01*
X138933448Y-93546331D01*
X139020579Y-93529000D01*
X139109421Y-93529000D01*
X139196552Y-93546331D01*
G37*
G36*
X115701552Y-92911331D02*
G01*
X115783627Y-92945328D01*
X115783629Y-92945329D01*
X115820813Y-92970175D01*
X115857495Y-92994685D01*
X115920315Y-93057505D01*
X115969672Y-93131373D01*
X116003669Y-93213448D01*
X116021000Y-93300579D01*
X116021000Y-93389421D01*
X116003669Y-93476552D01*
X115969672Y-93558627D01*
X115922193Y-93629685D01*
X115920314Y-93632496D01*
X115857496Y-93695314D01*
X115783629Y-93744671D01*
X115783628Y-93744672D01*
X115783627Y-93744672D01*
X115701552Y-93778669D01*
X115614421Y-93796000D01*
X115525579Y-93796000D01*
X115438448Y-93778669D01*
X115356373Y-93744672D01*
X115356372Y-93744672D01*
X115356371Y-93744671D01*
X115282504Y-93695314D01*
X115219686Y-93632496D01*
X115217808Y-93629685D01*
X115170328Y-93558627D01*
X115136331Y-93476552D01*
X115119000Y-93389421D01*
X115119000Y-93300579D01*
X115136331Y-93213448D01*
X115170328Y-93131373D01*
X115219685Y-93057505D01*
X115282505Y-92994685D01*
X115319187Y-92970175D01*
X115356371Y-92945329D01*
X115356373Y-92945328D01*
X115438448Y-92911331D01*
X115525579Y-92894000D01*
X115614421Y-92894000D01*
X115701552Y-92911331D01*
G37*
G36*
X171610721Y-91545174D02*
G01*
X171710995Y-91586709D01*
X171710996Y-91586710D01*
X171801242Y-91647010D01*
X171877990Y-91723758D01*
X171908345Y-91769188D01*
X171938291Y-91814005D01*
X171979826Y-91914279D01*
X172001000Y-92020730D01*
X172001000Y-92129270D01*
X171979826Y-92235721D01*
X171938291Y-92335995D01*
X171938290Y-92335996D01*
X171877990Y-92426242D01*
X171801242Y-92502990D01*
X171755812Y-92533345D01*
X171710995Y-92563291D01*
X171610721Y-92604826D01*
X171504270Y-92626000D01*
X171395730Y-92626000D01*
X171289279Y-92604826D01*
X171189005Y-92563291D01*
X171144188Y-92533345D01*
X171098758Y-92502990D01*
X171022010Y-92426242D01*
X170961710Y-92335996D01*
X170961709Y-92335995D01*
X170920174Y-92235721D01*
X170899000Y-92129270D01*
X170899000Y-92020730D01*
X170920174Y-91914279D01*
X170961709Y-91814005D01*
X170991655Y-91769188D01*
X171022010Y-91723758D01*
X171098758Y-91647010D01*
X171189004Y-91586710D01*
X171189005Y-91586709D01*
X171289279Y-91545174D01*
X171395730Y-91524000D01*
X171504270Y-91524000D01*
X171610721Y-91545174D01*
G37*
G36*
X106938552Y-91006331D02*
G01*
X107020627Y-91040328D01*
X107020629Y-91040329D01*
X107057813Y-91065175D01*
X107094495Y-91089685D01*
X107157315Y-91152505D01*
X107206672Y-91226373D01*
X107240669Y-91308448D01*
X107255903Y-91385037D01*
X107263016Y-91408486D01*
X107274567Y-91430096D01*
X107282695Y-91440000D01*
X107274567Y-91449903D01*
X107263016Y-91471513D01*
X107255903Y-91494963D01*
X107240669Y-91571552D01*
X107206672Y-91653627D01*
X107159811Y-91723760D01*
X107157314Y-91727496D01*
X107094496Y-91790314D01*
X107020629Y-91839671D01*
X107020628Y-91839672D01*
X107020627Y-91839672D01*
X106938552Y-91873669D01*
X106851421Y-91891000D01*
X106762579Y-91891000D01*
X106675448Y-91873669D01*
X106593373Y-91839672D01*
X106593372Y-91839672D01*
X106593371Y-91839671D01*
X106519504Y-91790314D01*
X106456686Y-91727496D01*
X106454190Y-91723760D01*
X106407328Y-91653627D01*
X106373331Y-91571552D01*
X106356000Y-91484421D01*
X106356000Y-91395579D01*
X106373331Y-91308448D01*
X106407328Y-91226373D01*
X106456685Y-91152505D01*
X106519505Y-91089685D01*
X106556187Y-91065175D01*
X106593371Y-91040329D01*
X106593373Y-91040328D01*
X106675448Y-91006331D01*
X106762579Y-90989000D01*
X106851421Y-90989000D01*
X106938552Y-91006331D01*
G37*
G36*
X108081552Y-91006331D02*
G01*
X108163627Y-91040328D01*
X108163629Y-91040329D01*
X108200813Y-91065175D01*
X108237495Y-91089685D01*
X108300315Y-91152505D01*
X108349672Y-91226373D01*
X108383669Y-91308448D01*
X108401000Y-91395579D01*
X108401000Y-91484421D01*
X108383669Y-91571552D01*
X108349672Y-91653627D01*
X108302811Y-91723760D01*
X108300314Y-91727496D01*
X108237496Y-91790314D01*
X108163629Y-91839671D01*
X108163628Y-91839672D01*
X108163627Y-91839672D01*
X108081552Y-91873669D01*
X107994421Y-91891000D01*
X107905579Y-91891000D01*
X107818448Y-91873669D01*
X107736373Y-91839672D01*
X107736372Y-91839672D01*
X107736371Y-91839671D01*
X107662504Y-91790314D01*
X107599686Y-91727496D01*
X107597190Y-91723760D01*
X107550328Y-91653627D01*
X107516331Y-91571552D01*
X107501097Y-91494963D01*
X107493984Y-91471514D01*
X107482433Y-91449904D01*
X107474305Y-91440000D01*
X107482433Y-91430097D01*
X107493984Y-91408487D01*
X107501097Y-91385037D01*
X107516331Y-91308448D01*
X107550328Y-91226373D01*
X107599685Y-91152505D01*
X107662505Y-91089685D01*
X107699187Y-91065175D01*
X107736371Y-91040329D01*
X107736373Y-91040328D01*
X107818448Y-91006331D01*
X107905579Y-90989000D01*
X107994421Y-90989000D01*
X108081552Y-91006331D01*
G37*
G36*
X104271552Y-90371331D02*
G01*
X104353627Y-90405328D01*
X104353629Y-90405329D01*
X104390813Y-90430175D01*
X104427495Y-90454685D01*
X104490315Y-90517505D01*
X104539672Y-90591373D01*
X104573669Y-90673448D01*
X104591000Y-90760579D01*
X104591000Y-90849421D01*
X104573669Y-90936552D01*
X104539672Y-91018627D01*
X104492193Y-91089685D01*
X104490314Y-91092496D01*
X104427496Y-91155314D01*
X104353629Y-91204671D01*
X104353628Y-91204672D01*
X104353627Y-91204672D01*
X104271552Y-91238669D01*
X104184421Y-91256000D01*
X104095579Y-91256000D01*
X104008448Y-91238669D01*
X103926373Y-91204672D01*
X103926372Y-91204672D01*
X103926371Y-91204671D01*
X103852504Y-91155314D01*
X103789686Y-91092496D01*
X103787808Y-91089685D01*
X103740328Y-91018627D01*
X103706331Y-90936552D01*
X103689000Y-90849421D01*
X103689000Y-90760579D01*
X103706331Y-90673448D01*
X103740328Y-90591373D01*
X103789685Y-90517505D01*
X103852505Y-90454685D01*
X103889187Y-90430175D01*
X103926371Y-90405329D01*
X103926373Y-90405328D01*
X104008448Y-90371331D01*
X104095579Y-90354000D01*
X104184421Y-90354000D01*
X104271552Y-90371331D01*
G37*
G36*
X171610721Y-89005174D02*
G01*
X171710995Y-89046709D01*
X171710996Y-89046710D01*
X171801242Y-89107010D01*
X171877990Y-89183758D01*
X171877991Y-89183760D01*
X171938291Y-89274005D01*
X171979826Y-89374279D01*
X172001000Y-89480730D01*
X172001000Y-89589270D01*
X171979826Y-89695721D01*
X171938291Y-89795995D01*
X171908345Y-89840812D01*
X171877990Y-89886242D01*
X171801242Y-89962990D01*
X171766805Y-89986000D01*
X171710995Y-90023291D01*
X171610721Y-90064826D01*
X171504270Y-90086000D01*
X171395730Y-90086000D01*
X171289279Y-90064826D01*
X171189005Y-90023291D01*
X171133195Y-89986000D01*
X171098758Y-89962990D01*
X171022010Y-89886242D01*
X170991655Y-89840812D01*
X170961709Y-89795995D01*
X170920174Y-89695721D01*
X170899000Y-89589270D01*
X170899000Y-89480730D01*
X170920174Y-89374279D01*
X170961709Y-89274005D01*
X171022009Y-89183760D01*
X171022010Y-89183758D01*
X171098758Y-89107010D01*
X171189004Y-89046710D01*
X171189005Y-89046709D01*
X171289279Y-89005174D01*
X171395730Y-88984000D01*
X171504270Y-88984000D01*
X171610721Y-89005174D01*
G37*
G36*
X146210721Y-89005174D02*
G01*
X146310995Y-89046709D01*
X146310996Y-89046710D01*
X146401242Y-89107010D01*
X146477990Y-89183758D01*
X146477991Y-89183760D01*
X146538291Y-89274005D01*
X146579826Y-89374279D01*
X146601000Y-89480730D01*
X146601000Y-89589270D01*
X146579826Y-89695721D01*
X146538291Y-89795995D01*
X146508345Y-89840812D01*
X146477990Y-89886242D01*
X146401242Y-89962990D01*
X146366805Y-89986000D01*
X146310995Y-90023291D01*
X146210721Y-90064826D01*
X146104270Y-90086000D01*
X145995730Y-90086000D01*
X145889279Y-90064826D01*
X145789005Y-90023291D01*
X145733195Y-89986000D01*
X145698758Y-89962990D01*
X145622010Y-89886242D01*
X145591655Y-89840812D01*
X145561709Y-89795995D01*
X145520174Y-89695721D01*
X145499000Y-89589270D01*
X145499000Y-89480730D01*
X145520174Y-89374279D01*
X145561709Y-89274005D01*
X145622009Y-89183760D01*
X145622010Y-89183758D01*
X145698758Y-89107010D01*
X145789004Y-89046710D01*
X145789005Y-89046709D01*
X145889279Y-89005174D01*
X145995730Y-88984000D01*
X146104270Y-88984000D01*
X146210721Y-89005174D01*
G37*
G36*
X135386552Y-89101331D02*
G01*
X135468627Y-89135328D01*
X135468629Y-89135329D01*
X135505813Y-89160175D01*
X135542495Y-89184685D01*
X135605315Y-89247505D01*
X135654672Y-89321373D01*
X135688669Y-89403448D01*
X135706000Y-89490579D01*
X135706000Y-89579421D01*
X135688669Y-89666552D01*
X135654672Y-89748627D01*
X135605315Y-89822495D01*
X135542495Y-89885315D01*
X135505813Y-89909825D01*
X135468629Y-89934671D01*
X135468628Y-89934672D01*
X135468627Y-89934672D01*
X135386552Y-89968669D01*
X135299421Y-89986000D01*
X135210579Y-89986000D01*
X135123448Y-89968669D01*
X135041373Y-89934672D01*
X135041372Y-89934672D01*
X135041371Y-89934671D01*
X135004187Y-89909825D01*
X134967505Y-89885315D01*
X134904685Y-89822495D01*
X134855328Y-89748627D01*
X134821331Y-89666552D01*
X134804000Y-89579421D01*
X134804000Y-89490579D01*
X134821331Y-89403448D01*
X134855328Y-89321373D01*
X134904685Y-89247505D01*
X134967505Y-89184685D01*
X135004187Y-89160175D01*
X135041371Y-89135329D01*
X135041373Y-89135328D01*
X135123448Y-89101331D01*
X135210579Y-89084000D01*
X135299421Y-89084000D01*
X135386552Y-89101331D01*
G37*
G36*
X116971552Y-87831331D02*
G01*
X117053627Y-87865328D01*
X117053629Y-87865329D01*
X117074759Y-87879448D01*
X117127495Y-87914685D01*
X117190315Y-87977505D01*
X117239672Y-88051373D01*
X117273669Y-88133448D01*
X117291000Y-88220579D01*
X117291000Y-88309421D01*
X117273669Y-88396552D01*
X117253738Y-88444668D01*
X117239671Y-88478629D01*
X117190314Y-88552496D01*
X117127496Y-88615314D01*
X117053629Y-88664671D01*
X117053628Y-88664672D01*
X117053627Y-88664672D01*
X116971552Y-88698669D01*
X116884421Y-88716000D01*
X116795579Y-88716000D01*
X116708448Y-88698669D01*
X116626373Y-88664672D01*
X116626372Y-88664672D01*
X116626371Y-88664671D01*
X116552504Y-88615314D01*
X116489686Y-88552496D01*
X116440329Y-88478629D01*
X116426262Y-88444668D01*
X116406331Y-88396552D01*
X116389000Y-88309421D01*
X116389000Y-88220579D01*
X116406331Y-88133448D01*
X116440328Y-88051373D01*
X116489685Y-87977505D01*
X116552505Y-87914685D01*
X116605241Y-87879448D01*
X116626371Y-87865329D01*
X116626373Y-87865328D01*
X116708448Y-87831331D01*
X116795579Y-87814000D01*
X116884421Y-87814000D01*
X116971552Y-87831331D01*
G37*
G36*
X111256552Y-87831331D02*
G01*
X111338627Y-87865328D01*
X111338629Y-87865329D01*
X111359759Y-87879448D01*
X111412495Y-87914685D01*
X111475315Y-87977505D01*
X111524672Y-88051373D01*
X111558669Y-88133448D01*
X111576000Y-88220579D01*
X111576000Y-88309421D01*
X111558669Y-88396552D01*
X111538738Y-88444668D01*
X111524671Y-88478629D01*
X111475314Y-88552496D01*
X111412496Y-88615314D01*
X111338629Y-88664671D01*
X111338628Y-88664672D01*
X111338627Y-88664672D01*
X111256552Y-88698669D01*
X111169421Y-88716000D01*
X111080579Y-88716000D01*
X110993448Y-88698669D01*
X110911373Y-88664672D01*
X110911372Y-88664672D01*
X110911371Y-88664671D01*
X110837504Y-88615314D01*
X110774686Y-88552496D01*
X110725329Y-88478629D01*
X110711262Y-88444668D01*
X110691331Y-88396552D01*
X110674000Y-88309421D01*
X110674000Y-88220579D01*
X110691331Y-88133448D01*
X110725328Y-88051373D01*
X110774685Y-87977505D01*
X110837505Y-87914685D01*
X110890241Y-87879448D01*
X110911371Y-87865329D01*
X110911373Y-87865328D01*
X110993448Y-87831331D01*
X111080579Y-87814000D01*
X111169421Y-87814000D01*
X111256552Y-87831331D01*
G37*
G36*
X193806552Y-87577331D02*
G01*
X193888627Y-87611328D01*
X193888629Y-87611329D01*
X193923384Y-87634552D01*
X193953444Y-87654637D01*
X193962496Y-87660686D01*
X194025314Y-87723504D01*
X194070077Y-87790495D01*
X194074672Y-87797373D01*
X194108669Y-87879448D01*
X194126000Y-87966579D01*
X194126000Y-88055421D01*
X194108669Y-88142552D01*
X194076349Y-88220579D01*
X194074671Y-88224629D01*
X194025314Y-88298496D01*
X193962496Y-88361314D01*
X193888629Y-88410671D01*
X193888628Y-88410672D01*
X193888627Y-88410672D01*
X193806552Y-88444669D01*
X193719421Y-88462000D01*
X193630579Y-88462000D01*
X193543448Y-88444669D01*
X193461373Y-88410672D01*
X193461372Y-88410672D01*
X193461371Y-88410671D01*
X193387504Y-88361314D01*
X193324686Y-88298496D01*
X193275329Y-88224629D01*
X193273651Y-88220579D01*
X193241331Y-88142552D01*
X193224000Y-88055421D01*
X193224000Y-87966579D01*
X193241331Y-87879448D01*
X193275328Y-87797373D01*
X193279924Y-87790495D01*
X193324686Y-87723504D01*
X193387504Y-87660686D01*
X193396557Y-87654637D01*
X193426616Y-87634552D01*
X193461371Y-87611329D01*
X193461373Y-87611328D01*
X193543448Y-87577331D01*
X193630579Y-87560000D01*
X193719421Y-87560000D01*
X193806552Y-87577331D01*
G37*
G36*
X105287552Y-87069331D02*
G01*
X105369627Y-87103328D01*
X105369629Y-87103329D01*
X105406813Y-87128175D01*
X105443495Y-87152685D01*
X105506315Y-87215505D01*
X105555672Y-87289373D01*
X105589669Y-87371448D01*
X105607000Y-87458579D01*
X105607000Y-87547421D01*
X105589669Y-87634552D01*
X105570429Y-87681000D01*
X105555671Y-87716629D01*
X105506314Y-87790496D01*
X105443496Y-87853314D01*
X105369629Y-87902671D01*
X105369628Y-87902672D01*
X105369627Y-87902672D01*
X105287552Y-87936669D01*
X105200421Y-87954000D01*
X105111579Y-87954000D01*
X105024448Y-87936669D01*
X104942373Y-87902672D01*
X104942372Y-87902672D01*
X104942371Y-87902671D01*
X104868504Y-87853314D01*
X104805686Y-87790496D01*
X104756329Y-87716629D01*
X104741571Y-87681000D01*
X104722331Y-87634552D01*
X104705000Y-87547421D01*
X104705000Y-87458579D01*
X104722331Y-87371448D01*
X104756328Y-87289373D01*
X104805685Y-87215505D01*
X104868505Y-87152685D01*
X104905187Y-87128175D01*
X104942371Y-87103329D01*
X104942373Y-87103328D01*
X105024448Y-87069331D01*
X105111579Y-87052000D01*
X105200421Y-87052000D01*
X105287552Y-87069331D01*
G37*
G36*
X124660098Y-86335362D02*
G01*
X124784941Y-86387074D01*
X124784943Y-86387075D01*
X124897299Y-86462149D01*
X124992851Y-86557701D01*
X125050353Y-86643758D01*
X125067926Y-86670059D01*
X125119638Y-86794902D01*
X125146000Y-86927434D01*
X125146000Y-87062566D01*
X125119638Y-87195098D01*
X125070986Y-87312553D01*
X125067925Y-87319943D01*
X124992851Y-87432299D01*
X124897299Y-87527851D01*
X124784943Y-87602925D01*
X124784942Y-87602926D01*
X124784941Y-87602926D01*
X124660098Y-87654638D01*
X124527566Y-87681000D01*
X124392434Y-87681000D01*
X124259902Y-87654638D01*
X124135059Y-87602926D01*
X124135058Y-87602926D01*
X124135057Y-87602925D01*
X124022701Y-87527851D01*
X123927149Y-87432299D01*
X123852075Y-87319943D01*
X123849014Y-87312553D01*
X123800362Y-87195098D01*
X123774000Y-87062566D01*
X123774000Y-86927434D01*
X123800362Y-86794902D01*
X123852074Y-86670059D01*
X123869648Y-86643758D01*
X123927149Y-86557701D01*
X124022701Y-86462149D01*
X124135057Y-86387075D01*
X124135059Y-86387074D01*
X124259902Y-86335362D01*
X124392434Y-86309000D01*
X124527566Y-86309000D01*
X124660098Y-86335362D01*
G37*
G36*
X122120098Y-86335362D02*
G01*
X122244941Y-86387074D01*
X122244943Y-86387075D01*
X122357299Y-86462149D01*
X122452851Y-86557701D01*
X122510353Y-86643758D01*
X122527926Y-86670059D01*
X122579638Y-86794902D01*
X122606000Y-86927434D01*
X122606000Y-87062566D01*
X122579638Y-87195098D01*
X122530986Y-87312553D01*
X122527925Y-87319943D01*
X122452851Y-87432299D01*
X122357299Y-87527851D01*
X122244943Y-87602925D01*
X122244942Y-87602926D01*
X122244941Y-87602926D01*
X122120098Y-87654638D01*
X121987566Y-87681000D01*
X121852434Y-87681000D01*
X121719902Y-87654638D01*
X121595059Y-87602926D01*
X121595058Y-87602926D01*
X121595057Y-87602925D01*
X121482701Y-87527851D01*
X121387149Y-87432299D01*
X121312075Y-87319943D01*
X121309014Y-87312553D01*
X121260362Y-87195098D01*
X121234000Y-87062566D01*
X121234000Y-86927434D01*
X121260362Y-86794902D01*
X121312074Y-86670059D01*
X121329648Y-86643758D01*
X121387149Y-86557701D01*
X121482701Y-86462149D01*
X121595057Y-86387075D01*
X121595059Y-86387074D01*
X121719902Y-86335362D01*
X121852434Y-86309000D01*
X121987566Y-86309000D01*
X122120098Y-86335362D01*
G37*
G36*
X119580098Y-86335362D02*
G01*
X119704941Y-86387074D01*
X119704943Y-86387075D01*
X119817299Y-86462149D01*
X119912851Y-86557701D01*
X119970353Y-86643758D01*
X119987926Y-86670059D01*
X120039638Y-86794902D01*
X120066000Y-86927434D01*
X120066000Y-87062566D01*
X120039638Y-87195098D01*
X119990986Y-87312553D01*
X119987925Y-87319943D01*
X119912851Y-87432299D01*
X119817299Y-87527851D01*
X119704943Y-87602925D01*
X119704942Y-87602926D01*
X119704941Y-87602926D01*
X119580098Y-87654638D01*
X119447566Y-87681000D01*
X119312434Y-87681000D01*
X119179902Y-87654638D01*
X119055059Y-87602926D01*
X119055058Y-87602926D01*
X119055057Y-87602925D01*
X118942701Y-87527851D01*
X118847149Y-87432299D01*
X118772075Y-87319943D01*
X118769014Y-87312553D01*
X118720362Y-87195098D01*
X118694000Y-87062566D01*
X118694000Y-86927434D01*
X118720362Y-86794902D01*
X118772074Y-86670059D01*
X118789648Y-86643758D01*
X118847149Y-86557701D01*
X118942701Y-86462149D01*
X119055057Y-86387075D01*
X119055059Y-86387074D01*
X119179902Y-86335362D01*
X119312434Y-86309000D01*
X119447566Y-86309000D01*
X119580098Y-86335362D01*
G37*
G36*
X171610721Y-86465174D02*
G01*
X171710995Y-86506709D01*
X171710996Y-86506710D01*
X171801242Y-86567010D01*
X171877990Y-86643758D01*
X171908345Y-86689188D01*
X171938291Y-86734005D01*
X171979826Y-86834279D01*
X172001000Y-86940730D01*
X172001000Y-87049270D01*
X171979826Y-87155721D01*
X171938291Y-87255995D01*
X171938290Y-87255996D01*
X171877990Y-87346242D01*
X171801242Y-87422990D01*
X171787310Y-87432299D01*
X171710995Y-87483291D01*
X171610721Y-87524826D01*
X171504270Y-87546000D01*
X171395730Y-87546000D01*
X171289279Y-87524826D01*
X171189005Y-87483291D01*
X171112690Y-87432299D01*
X171098758Y-87422990D01*
X171022010Y-87346242D01*
X170961710Y-87255996D01*
X170961709Y-87255995D01*
X170920174Y-87155721D01*
X170899000Y-87049270D01*
X170899000Y-86940730D01*
X170920174Y-86834279D01*
X170961709Y-86734005D01*
X170991655Y-86689188D01*
X171022010Y-86643758D01*
X171098758Y-86567010D01*
X171189004Y-86506710D01*
X171189005Y-86506709D01*
X171289279Y-86465174D01*
X171395730Y-86444000D01*
X171504270Y-86444000D01*
X171610721Y-86465174D01*
G37*
G36*
X146210721Y-86465174D02*
G01*
X146310995Y-86506709D01*
X146310996Y-86506710D01*
X146401242Y-86567010D01*
X146477990Y-86643758D01*
X146508345Y-86689188D01*
X146538291Y-86734005D01*
X146579826Y-86834279D01*
X146601000Y-86940730D01*
X146601000Y-87049270D01*
X146579826Y-87155721D01*
X146538291Y-87255995D01*
X146538290Y-87255996D01*
X146477990Y-87346242D01*
X146401242Y-87422990D01*
X146387310Y-87432299D01*
X146310995Y-87483291D01*
X146210721Y-87524826D01*
X146104270Y-87546000D01*
X145995730Y-87546000D01*
X145889279Y-87524826D01*
X145789005Y-87483291D01*
X145712690Y-87432299D01*
X145698758Y-87422990D01*
X145622010Y-87346242D01*
X145561710Y-87255996D01*
X145561709Y-87255995D01*
X145520174Y-87155721D01*
X145499000Y-87049270D01*
X145499000Y-86940730D01*
X145520174Y-86834279D01*
X145561709Y-86734005D01*
X145591655Y-86689188D01*
X145622010Y-86643758D01*
X145698758Y-86567010D01*
X145789004Y-86506710D01*
X145789005Y-86506709D01*
X145889279Y-86465174D01*
X145995730Y-86444000D01*
X146104270Y-86444000D01*
X146210721Y-86465174D01*
G37*
G36*
X130487213Y-84103758D02*
G01*
X130656579Y-84137447D01*
X130858689Y-84221164D01*
X130947620Y-84258000D01*
X130957042Y-84261903D01*
X131227451Y-84442585D01*
X131457415Y-84672549D01*
X131638097Y-84942958D01*
X131762553Y-85243421D01*
X131772083Y-85291331D01*
X131826000Y-85562389D01*
X131826000Y-85887611D01*
X131788663Y-86075314D01*
X131762553Y-86206579D01*
X131638097Y-86507042D01*
X131457415Y-86777451D01*
X131227451Y-87007415D01*
X130957042Y-87188097D01*
X130656579Y-87312553D01*
X130550256Y-87333702D01*
X130337611Y-87376000D01*
X130012389Y-87376000D01*
X129799744Y-87333702D01*
X129693421Y-87312553D01*
X129392958Y-87188097D01*
X129122549Y-87007415D01*
X128892585Y-86777451D01*
X128711903Y-86507042D01*
X128587447Y-86206579D01*
X128561337Y-86075314D01*
X128524000Y-85887611D01*
X128524000Y-85562389D01*
X128577917Y-85291331D01*
X128587447Y-85243421D01*
X128711903Y-84942958D01*
X128892585Y-84672549D01*
X129122549Y-84442585D01*
X129392958Y-84261903D01*
X129402381Y-84258000D01*
X129491311Y-84221164D01*
X129693421Y-84137447D01*
X129862787Y-84103758D01*
X130012389Y-84074000D01*
X130337611Y-84074000D01*
X130487213Y-84103758D01*
G37*
G36*
X183011552Y-85291331D02*
G01*
X183093627Y-85325328D01*
X183093629Y-85325329D01*
X183130813Y-85350175D01*
X183167495Y-85374685D01*
X183230315Y-85437505D01*
X183279672Y-85511373D01*
X183313669Y-85593448D01*
X183331000Y-85680579D01*
X183331000Y-85769421D01*
X183313669Y-85856552D01*
X183279672Y-85938627D01*
X183279671Y-85938629D01*
X183230314Y-86012496D01*
X183167496Y-86075314D01*
X183093629Y-86124671D01*
X183093628Y-86124672D01*
X183093627Y-86124672D01*
X183011552Y-86158669D01*
X182924421Y-86176000D01*
X182835579Y-86176000D01*
X182748448Y-86158669D01*
X182666373Y-86124672D01*
X182666372Y-86124672D01*
X182666371Y-86124671D01*
X182592504Y-86075314D01*
X182529686Y-86012496D01*
X182480329Y-85938629D01*
X182480328Y-85938627D01*
X182446331Y-85856552D01*
X182429000Y-85769421D01*
X182429000Y-85680579D01*
X182446331Y-85593448D01*
X182480328Y-85511373D01*
X182529685Y-85437505D01*
X182592505Y-85374685D01*
X182629187Y-85350175D01*
X182666371Y-85325329D01*
X182666373Y-85325328D01*
X182748448Y-85291331D01*
X182835579Y-85274000D01*
X182924421Y-85274000D01*
X183011552Y-85291331D01*
G37*
G36*
X184281552Y-85291331D02*
G01*
X184363627Y-85325328D01*
X184363629Y-85325329D01*
X184400813Y-85350175D01*
X184437495Y-85374685D01*
X184500315Y-85437505D01*
X184549672Y-85511373D01*
X184583669Y-85593448D01*
X184601000Y-85680579D01*
X184601000Y-85769421D01*
X184583669Y-85856552D01*
X184549672Y-85938627D01*
X184549671Y-85938629D01*
X184500314Y-86012496D01*
X184437496Y-86075314D01*
X184363629Y-86124671D01*
X184363628Y-86124672D01*
X184363627Y-86124672D01*
X184281552Y-86158669D01*
X184194421Y-86176000D01*
X184105579Y-86176000D01*
X184018448Y-86158669D01*
X183936373Y-86124672D01*
X183936372Y-86124672D01*
X183936371Y-86124671D01*
X183862504Y-86075314D01*
X183799686Y-86012496D01*
X183750329Y-85938629D01*
X183750328Y-85938627D01*
X183716331Y-85856552D01*
X183699000Y-85769421D01*
X183699000Y-85680579D01*
X183716331Y-85593448D01*
X183750328Y-85511373D01*
X183799685Y-85437505D01*
X183862505Y-85374685D01*
X183899187Y-85350175D01*
X183936371Y-85325329D01*
X183936373Y-85325328D01*
X184018448Y-85291331D01*
X184105579Y-85274000D01*
X184194421Y-85274000D01*
X184281552Y-85291331D01*
G37*
G36*
X180344552Y-85291331D02*
G01*
X180426627Y-85325328D01*
X180426629Y-85325329D01*
X180463813Y-85350175D01*
X180500495Y-85374685D01*
X180563315Y-85437505D01*
X180612672Y-85511373D01*
X180646669Y-85593448D01*
X180664000Y-85680579D01*
X180664000Y-85769421D01*
X180646669Y-85856552D01*
X180612672Y-85938627D01*
X180612671Y-85938629D01*
X180563314Y-86012496D01*
X180500496Y-86075314D01*
X180426629Y-86124671D01*
X180426628Y-86124672D01*
X180426627Y-86124672D01*
X180344552Y-86158669D01*
X180257421Y-86176000D01*
X180168579Y-86176000D01*
X180081448Y-86158669D01*
X179999373Y-86124672D01*
X179999372Y-86124672D01*
X179999371Y-86124671D01*
X179925504Y-86075314D01*
X179862686Y-86012496D01*
X179813329Y-85938629D01*
X179813328Y-85938627D01*
X179779331Y-85856552D01*
X179762000Y-85769421D01*
X179762000Y-85680579D01*
X179779331Y-85593448D01*
X179813328Y-85511373D01*
X179862685Y-85437505D01*
X179925505Y-85374685D01*
X179962187Y-85350175D01*
X179999371Y-85325329D01*
X179999373Y-85325328D01*
X180081448Y-85291331D01*
X180168579Y-85274000D01*
X180257421Y-85274000D01*
X180344552Y-85291331D01*
G37*
G36*
X186948552Y-85291331D02*
G01*
X187030627Y-85325328D01*
X187030629Y-85325329D01*
X187067813Y-85350175D01*
X187104495Y-85374685D01*
X187167315Y-85437505D01*
X187216672Y-85511373D01*
X187250669Y-85593448D01*
X187268000Y-85680579D01*
X187268000Y-85769421D01*
X187250669Y-85856552D01*
X187216672Y-85938627D01*
X187216671Y-85938629D01*
X187167314Y-86012496D01*
X187104496Y-86075314D01*
X187030629Y-86124671D01*
X187030628Y-86124672D01*
X187030627Y-86124672D01*
X186948552Y-86158669D01*
X186861421Y-86176000D01*
X186772579Y-86176000D01*
X186685448Y-86158669D01*
X186603373Y-86124672D01*
X186603372Y-86124672D01*
X186603371Y-86124671D01*
X186529504Y-86075314D01*
X186466686Y-86012496D01*
X186417329Y-85938629D01*
X186417328Y-85938627D01*
X186383331Y-85856552D01*
X186366000Y-85769421D01*
X186366000Y-85680579D01*
X186383331Y-85593448D01*
X186417328Y-85511373D01*
X186466685Y-85437505D01*
X186529505Y-85374685D01*
X186566187Y-85350175D01*
X186603371Y-85325329D01*
X186603373Y-85325328D01*
X186685448Y-85291331D01*
X186772579Y-85274000D01*
X186861421Y-85274000D01*
X186948552Y-85291331D01*
G37*
G36*
X141736552Y-85291331D02*
G01*
X141818627Y-85325328D01*
X141818629Y-85325329D01*
X141855813Y-85350175D01*
X141892495Y-85374685D01*
X141955315Y-85437505D01*
X142004672Y-85511373D01*
X142038669Y-85593448D01*
X142056000Y-85680579D01*
X142056000Y-85769421D01*
X142038669Y-85856552D01*
X142004672Y-85938627D01*
X142004671Y-85938629D01*
X141955314Y-86012496D01*
X141892496Y-86075314D01*
X141818629Y-86124671D01*
X141818628Y-86124672D01*
X141818627Y-86124672D01*
X141736552Y-86158669D01*
X141649421Y-86176000D01*
X141560579Y-86176000D01*
X141473448Y-86158669D01*
X141391373Y-86124672D01*
X141391372Y-86124672D01*
X141391371Y-86124671D01*
X141317504Y-86075314D01*
X141254686Y-86012496D01*
X141205329Y-85938629D01*
X141205328Y-85938627D01*
X141171331Y-85856552D01*
X141154000Y-85769421D01*
X141154000Y-85680579D01*
X141171331Y-85593448D01*
X141205328Y-85511373D01*
X141254685Y-85437505D01*
X141317505Y-85374685D01*
X141354187Y-85350175D01*
X141391371Y-85325329D01*
X141391373Y-85325328D01*
X141473448Y-85291331D01*
X141560579Y-85274000D01*
X141649421Y-85274000D01*
X141736552Y-85291331D01*
G37*
G36*
X105668552Y-83259331D02*
G01*
X105750627Y-83293328D01*
X105750629Y-83293329D01*
X105787813Y-83318175D01*
X105824495Y-83342685D01*
X105887315Y-83405505D01*
X105936672Y-83479373D01*
X105970669Y-83561448D01*
X105988000Y-83648579D01*
X105988000Y-83737421D01*
X105970669Y-83824552D01*
X105936672Y-83906627D01*
X105896527Y-83966709D01*
X105887314Y-83980496D01*
X105824496Y-84043314D01*
X105750629Y-84092671D01*
X105750628Y-84092672D01*
X105750627Y-84092672D01*
X105668552Y-84126669D01*
X105581421Y-84144000D01*
X105530585Y-84144000D01*
X105506199Y-84146402D01*
X105482750Y-84153515D01*
X105461139Y-84165066D01*
X105442197Y-84180611D01*
X105426652Y-84199553D01*
X105415101Y-84221164D01*
X105407988Y-84244613D01*
X105405586Y-84268999D01*
X105407988Y-84293385D01*
X105415101Y-84316834D01*
X105426652Y-84338445D01*
X105442197Y-84357387D01*
X105506315Y-84421505D01*
X105555672Y-84495373D01*
X105589669Y-84577448D01*
X105607000Y-84664579D01*
X105607000Y-84753421D01*
X105589669Y-84840552D01*
X105568234Y-84892299D01*
X105555671Y-84922629D01*
X105541865Y-84943291D01*
X105506315Y-84996495D01*
X105443495Y-85059315D01*
X105406813Y-85083825D01*
X105369629Y-85108671D01*
X105369628Y-85108672D01*
X105369627Y-85108672D01*
X105287552Y-85142669D01*
X105200421Y-85160000D01*
X105111579Y-85160000D01*
X105024448Y-85142669D01*
X104942373Y-85108672D01*
X104942372Y-85108672D01*
X104942371Y-85108671D01*
X104905187Y-85083825D01*
X104868505Y-85059315D01*
X104805685Y-84996495D01*
X104770135Y-84943291D01*
X104756329Y-84922629D01*
X104743766Y-84892299D01*
X104722331Y-84840552D01*
X104705000Y-84753421D01*
X104705000Y-84664579D01*
X104722331Y-84577448D01*
X104756328Y-84495373D01*
X104805685Y-84421505D01*
X104868505Y-84358685D01*
X104931139Y-84316834D01*
X104942371Y-84309329D01*
X104942373Y-84309328D01*
X105024448Y-84275331D01*
X105111579Y-84258000D01*
X105162415Y-84258000D01*
X105186801Y-84255598D01*
X105210250Y-84248485D01*
X105231861Y-84236934D01*
X105250803Y-84221389D01*
X105266348Y-84202447D01*
X105277899Y-84180836D01*
X105285012Y-84157387D01*
X105287414Y-84133001D01*
X105285012Y-84108615D01*
X105277899Y-84085166D01*
X105266348Y-84063555D01*
X105250803Y-84044613D01*
X105186685Y-83980495D01*
X105137328Y-83906627D01*
X105103331Y-83824552D01*
X105086000Y-83737421D01*
X105086000Y-83648579D01*
X105103331Y-83561448D01*
X105137328Y-83479373D01*
X105186685Y-83405505D01*
X105249505Y-83342685D01*
X105286187Y-83318175D01*
X105323371Y-83293329D01*
X105323373Y-83293328D01*
X105405448Y-83259331D01*
X105492579Y-83242000D01*
X105581421Y-83242000D01*
X105668552Y-83259331D01*
G37*
G36*
X125146000Y-85141000D02*
G01*
X123774000Y-85141000D01*
X123774000Y-83769000D01*
X125146000Y-83769000D01*
X125146000Y-85141000D01*
G37*
G36*
X122120098Y-83795362D02*
G01*
X122190568Y-83824552D01*
X122244943Y-83847075D01*
X122357299Y-83922149D01*
X122452851Y-84017701D01*
X122525661Y-84126668D01*
X122527926Y-84130059D01*
X122579638Y-84254902D01*
X122606000Y-84387434D01*
X122606000Y-84522566D01*
X122579638Y-84655098D01*
X122554413Y-84715995D01*
X122527925Y-84779943D01*
X122452851Y-84892299D01*
X122357299Y-84987851D01*
X122244943Y-85062925D01*
X122244942Y-85062926D01*
X122244941Y-85062926D01*
X122120098Y-85114638D01*
X121987566Y-85141000D01*
X121852434Y-85141000D01*
X121719902Y-85114638D01*
X121595059Y-85062926D01*
X121595058Y-85062926D01*
X121595057Y-85062925D01*
X121482701Y-84987851D01*
X121387149Y-84892299D01*
X121312075Y-84779943D01*
X121285587Y-84715995D01*
X121260362Y-84655098D01*
X121234000Y-84522566D01*
X121234000Y-84387434D01*
X121260362Y-84254902D01*
X121312074Y-84130059D01*
X121314340Y-84126668D01*
X121387149Y-84017701D01*
X121482701Y-83922149D01*
X121595057Y-83847075D01*
X121649432Y-83824552D01*
X121719902Y-83795362D01*
X121852434Y-83769000D01*
X121987566Y-83769000D01*
X122120098Y-83795362D01*
G37*
G36*
X119580098Y-83795362D02*
G01*
X119650568Y-83824552D01*
X119704943Y-83847075D01*
X119817299Y-83922149D01*
X119912851Y-84017701D01*
X119985661Y-84126668D01*
X119987926Y-84130059D01*
X120039638Y-84254902D01*
X120066000Y-84387434D01*
X120066000Y-84522566D01*
X120039638Y-84655098D01*
X120014413Y-84715995D01*
X119987925Y-84779943D01*
X119912851Y-84892299D01*
X119817299Y-84987851D01*
X119704943Y-85062925D01*
X119704942Y-85062926D01*
X119704941Y-85062926D01*
X119580098Y-85114638D01*
X119447566Y-85141000D01*
X119312434Y-85141000D01*
X119179902Y-85114638D01*
X119055059Y-85062926D01*
X119055058Y-85062926D01*
X119055057Y-85062925D01*
X118942701Y-84987851D01*
X118847149Y-84892299D01*
X118772075Y-84779943D01*
X118745587Y-84715995D01*
X118720362Y-84655098D01*
X118694000Y-84522566D01*
X118694000Y-84387434D01*
X118720362Y-84254902D01*
X118772074Y-84130059D01*
X118774340Y-84126668D01*
X118847149Y-84017701D01*
X118942701Y-83922149D01*
X119055057Y-83847075D01*
X119109432Y-83824552D01*
X119179902Y-83795362D01*
X119312434Y-83769000D01*
X119447566Y-83769000D01*
X119580098Y-83795362D01*
G37*
G36*
X171610721Y-83925174D02*
G01*
X171710995Y-83966709D01*
X171755812Y-83996655D01*
X171801242Y-84027010D01*
X171877990Y-84103758D01*
X171897529Y-84133001D01*
X171938291Y-84194005D01*
X171979826Y-84294279D01*
X172001000Y-84400730D01*
X172001000Y-84509270D01*
X171979826Y-84615721D01*
X171938291Y-84715995D01*
X171938290Y-84715996D01*
X171877990Y-84806242D01*
X171801242Y-84882990D01*
X171787310Y-84892299D01*
X171710995Y-84943291D01*
X171610721Y-84984826D01*
X171504270Y-85006000D01*
X171395730Y-85006000D01*
X171289279Y-84984826D01*
X171189005Y-84943291D01*
X171112690Y-84892299D01*
X171098758Y-84882990D01*
X171022010Y-84806242D01*
X170961710Y-84715996D01*
X170961709Y-84715995D01*
X170920174Y-84615721D01*
X170899000Y-84509270D01*
X170899000Y-84400730D01*
X170920174Y-84294279D01*
X170961709Y-84194005D01*
X171002471Y-84133001D01*
X171022010Y-84103758D01*
X171098758Y-84027010D01*
X171144188Y-83996655D01*
X171189005Y-83966709D01*
X171289279Y-83925174D01*
X171395730Y-83904000D01*
X171504270Y-83904000D01*
X171610721Y-83925174D01*
G37*
G36*
X146210721Y-83925174D02*
G01*
X146310995Y-83966709D01*
X146355812Y-83996655D01*
X146401242Y-84027010D01*
X146477990Y-84103758D01*
X146497529Y-84133001D01*
X146538291Y-84194005D01*
X146579826Y-84294279D01*
X146601000Y-84400730D01*
X146601000Y-84509270D01*
X146579826Y-84615721D01*
X146538291Y-84715995D01*
X146538290Y-84715996D01*
X146477990Y-84806242D01*
X146401242Y-84882990D01*
X146387310Y-84892299D01*
X146310995Y-84943291D01*
X146210721Y-84984826D01*
X146104270Y-85006000D01*
X145995730Y-85006000D01*
X145889279Y-84984826D01*
X145789005Y-84943291D01*
X145712690Y-84892299D01*
X145698758Y-84882990D01*
X145622010Y-84806242D01*
X145561710Y-84715996D01*
X145561709Y-84715995D01*
X145520174Y-84615721D01*
X145499000Y-84509270D01*
X145499000Y-84400730D01*
X145520174Y-84294279D01*
X145561709Y-84194005D01*
X145602471Y-84133001D01*
X145622010Y-84103758D01*
X145698758Y-84027010D01*
X145744188Y-83996655D01*
X145789005Y-83966709D01*
X145889279Y-83925174D01*
X145995730Y-83904000D01*
X146104270Y-83904000D01*
X146210721Y-83925174D01*
G37*
G36*
X107451903Y-82336433D02*
G01*
X107473513Y-82347984D01*
X107496963Y-82355097D01*
X107573552Y-82370331D01*
X107653121Y-82403290D01*
X107655629Y-82404329D01*
X107676759Y-82418448D01*
X107729495Y-82453685D01*
X107792315Y-82516505D01*
X107841672Y-82590373D01*
X107875669Y-82672448D01*
X107893000Y-82759579D01*
X107893000Y-82848421D01*
X107875669Y-82935552D01*
X107855738Y-82983668D01*
X107841671Y-83017629D01*
X107792314Y-83091496D01*
X107729496Y-83154314D01*
X107655629Y-83203671D01*
X107655628Y-83203672D01*
X107655627Y-83203672D01*
X107573552Y-83237669D01*
X107486421Y-83255000D01*
X107397579Y-83255000D01*
X107310448Y-83237669D01*
X107228373Y-83203672D01*
X107228372Y-83203672D01*
X107228371Y-83203671D01*
X107154504Y-83154314D01*
X107091686Y-83091496D01*
X107042329Y-83017629D01*
X107028262Y-82983668D01*
X107008331Y-82935552D01*
X106991000Y-82848421D01*
X106991000Y-82759579D01*
X107008331Y-82672448D01*
X107042328Y-82590373D01*
X107091685Y-82516505D01*
X107154505Y-82453685D01*
X107207241Y-82418448D01*
X107228371Y-82404329D01*
X107230879Y-82403290D01*
X107310448Y-82370331D01*
X107387037Y-82355097D01*
X107410486Y-82347984D01*
X107432096Y-82336433D01*
X107442000Y-82328305D01*
X107451903Y-82336433D01*
G37*
G36*
X136656552Y-82116331D02*
G01*
X136738627Y-82150328D01*
X136738629Y-82150329D01*
X136775813Y-82175175D01*
X136812495Y-82199685D01*
X136875315Y-82262505D01*
X136924672Y-82336373D01*
X136958669Y-82418448D01*
X136976000Y-82505579D01*
X136976000Y-82594421D01*
X136958669Y-82681552D01*
X136926349Y-82759579D01*
X136924671Y-82763629D01*
X136875314Y-82837496D01*
X136812496Y-82900314D01*
X136738629Y-82949671D01*
X136738628Y-82949672D01*
X136738627Y-82949672D01*
X136656552Y-82983669D01*
X136569421Y-83001000D01*
X136480579Y-83001000D01*
X136393448Y-82983669D01*
X136311373Y-82949672D01*
X136311372Y-82949672D01*
X136311371Y-82949671D01*
X136237504Y-82900314D01*
X136174686Y-82837496D01*
X136125329Y-82763629D01*
X136123651Y-82759579D01*
X136091331Y-82681552D01*
X136074000Y-82594421D01*
X136074000Y-82505579D01*
X136091331Y-82418448D01*
X136125328Y-82336373D01*
X136174685Y-82262505D01*
X136237505Y-82199685D01*
X136274187Y-82175175D01*
X136311371Y-82150329D01*
X136311373Y-82150328D01*
X136393448Y-82116331D01*
X136480579Y-82099000D01*
X136569421Y-82099000D01*
X136656552Y-82116331D01*
G37*
G36*
X119003552Y-81735331D02*
G01*
X119085627Y-81769328D01*
X119085629Y-81769329D01*
X119098254Y-81777765D01*
X119159491Y-81818682D01*
X119159496Y-81818686D01*
X119222314Y-81881504D01*
X119267077Y-81948495D01*
X119271672Y-81955373D01*
X119305669Y-82037448D01*
X119323000Y-82124579D01*
X119323000Y-82213421D01*
X119305669Y-82300552D01*
X119285738Y-82348668D01*
X119271671Y-82382629D01*
X119257865Y-82403291D01*
X119224193Y-82453685D01*
X119222314Y-82456496D01*
X119159496Y-82519314D01*
X119085629Y-82568671D01*
X119085628Y-82568672D01*
X119085627Y-82568672D01*
X119003552Y-82602669D01*
X118916421Y-82620000D01*
X118827579Y-82620000D01*
X118740448Y-82602669D01*
X118658373Y-82568672D01*
X118658372Y-82568672D01*
X118658371Y-82568671D01*
X118584504Y-82519314D01*
X118521686Y-82456496D01*
X118519808Y-82453685D01*
X118486135Y-82403291D01*
X118472329Y-82382629D01*
X118458262Y-82348668D01*
X118438331Y-82300552D01*
X118421000Y-82213421D01*
X118421000Y-82124579D01*
X118438331Y-82037448D01*
X118472328Y-81955373D01*
X118476924Y-81948495D01*
X118521686Y-81881504D01*
X118584508Y-81818682D01*
X118594129Y-81812253D01*
X118613071Y-81796708D01*
X118628615Y-81777765D01*
X118640166Y-81756154D01*
X118647279Y-81732705D01*
X118648421Y-81721110D01*
X118663487Y-81729163D01*
X118686936Y-81736276D01*
X118711322Y-81738677D01*
X118735705Y-81736275D01*
X118827579Y-81718000D01*
X118916421Y-81718000D01*
X119003552Y-81735331D01*
G37*
G36*
X146210721Y-81385174D02*
G01*
X146310995Y-81426709D01*
X146341918Y-81447371D01*
X146401242Y-81487010D01*
X146477990Y-81563758D01*
X146495053Y-81589295D01*
X146538291Y-81654005D01*
X146579826Y-81754279D01*
X146601000Y-81860730D01*
X146601000Y-81969270D01*
X146579826Y-82075721D01*
X146538291Y-82175995D01*
X146513284Y-82213420D01*
X146477990Y-82266242D01*
X146401242Y-82342990D01*
X146355812Y-82373345D01*
X146310995Y-82403291D01*
X146210721Y-82444826D01*
X146104270Y-82466000D01*
X145995730Y-82466000D01*
X145889279Y-82444826D01*
X145789005Y-82403291D01*
X145744188Y-82373345D01*
X145698758Y-82342990D01*
X145622010Y-82266242D01*
X145586716Y-82213420D01*
X145561709Y-82175995D01*
X145520174Y-82075721D01*
X145499000Y-81969270D01*
X145499000Y-81860730D01*
X145520174Y-81754279D01*
X145561709Y-81654005D01*
X145604947Y-81589295D01*
X145622010Y-81563758D01*
X145698758Y-81487010D01*
X145758082Y-81447371D01*
X145789005Y-81426709D01*
X145889279Y-81385174D01*
X145995730Y-81364000D01*
X146104270Y-81364000D01*
X146210721Y-81385174D01*
G37*
G36*
X171610721Y-81385174D02*
G01*
X171710995Y-81426709D01*
X171741918Y-81447371D01*
X171801242Y-81487010D01*
X171877990Y-81563758D01*
X171895053Y-81589295D01*
X171938291Y-81654005D01*
X171979826Y-81754279D01*
X172001000Y-81860730D01*
X172001000Y-81969270D01*
X171979826Y-82075721D01*
X171938291Y-82175995D01*
X171913284Y-82213420D01*
X171877990Y-82266242D01*
X171801242Y-82342990D01*
X171755812Y-82373345D01*
X171710995Y-82403291D01*
X171610721Y-82444826D01*
X171504270Y-82466000D01*
X171395730Y-82466000D01*
X171289279Y-82444826D01*
X171189005Y-82403291D01*
X171144188Y-82373345D01*
X171098758Y-82342990D01*
X171022010Y-82266242D01*
X170986716Y-82213420D01*
X170961709Y-82175995D01*
X170920174Y-82075721D01*
X170899000Y-81969270D01*
X170899000Y-81860730D01*
X170920174Y-81754279D01*
X170961709Y-81654005D01*
X171004947Y-81589295D01*
X171022010Y-81563758D01*
X171098758Y-81487010D01*
X171158082Y-81447371D01*
X171189005Y-81426709D01*
X171289279Y-81385174D01*
X171395730Y-81364000D01*
X171504270Y-81364000D01*
X171610721Y-81385174D01*
G37*
G36*
X141736552Y-81481331D02*
G01*
X141805153Y-81509747D01*
X141818629Y-81515329D01*
X141833539Y-81525292D01*
X141892495Y-81564685D01*
X141955315Y-81627505D01*
X142004672Y-81701373D01*
X142038669Y-81783448D01*
X142056000Y-81870579D01*
X142056000Y-81959421D01*
X142038669Y-82046552D01*
X142004672Y-82128627D01*
X141955315Y-82202495D01*
X141892495Y-82265315D01*
X141855813Y-82289825D01*
X141818629Y-82314671D01*
X141818628Y-82314672D01*
X141818627Y-82314672D01*
X141736552Y-82348669D01*
X141649421Y-82366000D01*
X141560579Y-82366000D01*
X141473448Y-82348669D01*
X141391373Y-82314672D01*
X141391372Y-82314672D01*
X141391371Y-82314671D01*
X141354187Y-82289825D01*
X141317505Y-82265315D01*
X141254685Y-82202495D01*
X141205328Y-82128627D01*
X141171331Y-82046552D01*
X141154000Y-81959421D01*
X141154000Y-81870579D01*
X141171331Y-81783448D01*
X141205328Y-81701373D01*
X141254685Y-81627505D01*
X141317505Y-81564685D01*
X141376461Y-81525292D01*
X141391371Y-81515329D01*
X141404847Y-81509747D01*
X141473448Y-81481331D01*
X141560579Y-81464000D01*
X141649421Y-81464000D01*
X141736552Y-81481331D01*
G37*
G36*
X107573552Y-81227331D02*
G01*
X107655627Y-81261328D01*
X107655629Y-81261329D01*
X107690384Y-81284552D01*
X107729495Y-81310685D01*
X107792315Y-81373505D01*
X107816825Y-81410187D01*
X107837077Y-81440495D01*
X107841672Y-81447373D01*
X107875669Y-81529448D01*
X107893000Y-81616579D01*
X107893000Y-81705421D01*
X107875669Y-81792552D01*
X107847428Y-81860730D01*
X107841671Y-81874629D01*
X107792314Y-81948496D01*
X107729496Y-82011314D01*
X107655629Y-82060671D01*
X107655628Y-82060672D01*
X107655627Y-82060672D01*
X107573552Y-82094669D01*
X107496963Y-82109903D01*
X107473514Y-82117016D01*
X107451904Y-82128567D01*
X107442000Y-82136695D01*
X107432097Y-82128567D01*
X107410487Y-82117016D01*
X107387037Y-82109903D01*
X107310448Y-82094669D01*
X107228373Y-82060672D01*
X107228372Y-82060672D01*
X107228371Y-82060671D01*
X107154504Y-82011314D01*
X107091686Y-81948496D01*
X107042329Y-81874629D01*
X107036572Y-81860730D01*
X107008331Y-81792552D01*
X106991000Y-81705421D01*
X106991000Y-81616579D01*
X107008331Y-81529448D01*
X107042328Y-81447373D01*
X107046924Y-81440495D01*
X107067175Y-81410187D01*
X107091685Y-81373505D01*
X107154505Y-81310685D01*
X107193616Y-81284552D01*
X107228371Y-81261329D01*
X107228373Y-81261328D01*
X107310448Y-81227331D01*
X107397579Y-81210000D01*
X107486421Y-81210000D01*
X107573552Y-81227331D01*
G37*
G36*
X127766552Y-80846331D02*
G01*
X127848627Y-80880328D01*
X127848629Y-80880329D01*
X127869759Y-80894448D01*
X127922495Y-80929685D01*
X127985315Y-80992505D01*
X128034672Y-81066373D01*
X128068669Y-81148448D01*
X128086000Y-81235579D01*
X128086000Y-81324421D01*
X128068669Y-81411552D01*
X128053831Y-81447373D01*
X128034671Y-81493629D01*
X128028199Y-81503315D01*
X127987193Y-81564685D01*
X127985314Y-81567496D01*
X127922496Y-81630314D01*
X127848629Y-81679671D01*
X127848628Y-81679672D01*
X127848627Y-81679672D01*
X127766552Y-81713669D01*
X127679421Y-81731000D01*
X127590579Y-81731000D01*
X127503448Y-81713669D01*
X127421373Y-81679672D01*
X127421372Y-81679672D01*
X127421371Y-81679671D01*
X127347504Y-81630314D01*
X127284686Y-81567496D01*
X127282808Y-81564685D01*
X127241801Y-81503315D01*
X127235329Y-81493629D01*
X127216169Y-81447373D01*
X127201331Y-81411552D01*
X127184000Y-81324421D01*
X127184000Y-81235579D01*
X127201331Y-81148448D01*
X127235328Y-81066373D01*
X127284685Y-80992505D01*
X127347505Y-80929685D01*
X127400241Y-80894448D01*
X127421371Y-80880329D01*
X127421373Y-80880328D01*
X127503448Y-80846331D01*
X127590579Y-80829000D01*
X127679421Y-80829000D01*
X127766552Y-80846331D01*
G37*
G36*
X118495552Y-80719331D02*
G01*
X118577627Y-80753328D01*
X118577629Y-80753329D01*
X118651496Y-80802686D01*
X118714314Y-80865504D01*
X118759077Y-80932495D01*
X118763672Y-80939373D01*
X118797669Y-81021448D01*
X118815000Y-81108579D01*
X118815000Y-81197421D01*
X118797669Y-81284552D01*
X118764760Y-81364000D01*
X118763671Y-81366629D01*
X118757199Y-81376315D01*
X118714315Y-81440495D01*
X118651492Y-81503318D01*
X118641871Y-81509747D01*
X118622929Y-81525292D01*
X118607385Y-81544235D01*
X118595834Y-81565846D01*
X118588721Y-81589295D01*
X118587579Y-81600890D01*
X118572513Y-81592837D01*
X118549064Y-81585724D01*
X118524678Y-81583323D01*
X118500295Y-81585725D01*
X118408421Y-81604000D01*
X118319579Y-81604000D01*
X118232448Y-81586669D01*
X118150373Y-81552672D01*
X118150372Y-81552672D01*
X118150371Y-81552671D01*
X118094484Y-81515328D01*
X118076505Y-81503315D01*
X118013685Y-81440495D01*
X117970801Y-81376315D01*
X117964329Y-81366629D01*
X117963240Y-81364000D01*
X117930331Y-81284552D01*
X117913000Y-81197421D01*
X117913000Y-81108579D01*
X117930331Y-81021448D01*
X117964328Y-80939373D01*
X117968924Y-80932495D01*
X118013686Y-80865504D01*
X118076504Y-80802686D01*
X118150371Y-80753329D01*
X118150373Y-80753328D01*
X118232448Y-80719331D01*
X118319579Y-80702000D01*
X118408421Y-80702000D01*
X118495552Y-80719331D01*
G37*
G36*
X106557552Y-80592331D02*
G01*
X106639627Y-80626328D01*
X106639629Y-80626329D01*
X106676813Y-80651175D01*
X106713495Y-80675685D01*
X106776315Y-80738505D01*
X106786219Y-80753328D01*
X106819200Y-80802686D01*
X106825672Y-80812373D01*
X106859669Y-80894448D01*
X106877000Y-80981579D01*
X106877000Y-81070421D01*
X106859669Y-81157552D01*
X106825672Y-81239627D01*
X106776315Y-81313495D01*
X106713495Y-81376315D01*
X106700235Y-81385175D01*
X106639629Y-81425671D01*
X106639628Y-81425672D01*
X106639627Y-81425672D01*
X106557552Y-81459669D01*
X106470421Y-81477000D01*
X106381579Y-81477000D01*
X106294448Y-81459669D01*
X106212373Y-81425672D01*
X106212372Y-81425672D01*
X106212371Y-81425671D01*
X106151765Y-81385175D01*
X106138505Y-81376315D01*
X106075685Y-81313495D01*
X106026328Y-81239627D01*
X105992331Y-81157552D01*
X105975000Y-81070421D01*
X105975000Y-80981579D01*
X105992331Y-80894448D01*
X106026328Y-80812373D01*
X106032801Y-80802686D01*
X106065781Y-80753328D01*
X106075685Y-80738505D01*
X106138505Y-80675685D01*
X106175187Y-80651175D01*
X106212371Y-80626329D01*
X106212373Y-80626328D01*
X106294448Y-80592331D01*
X106381579Y-80575000D01*
X106470421Y-80575000D01*
X106557552Y-80592331D01*
G37*
G36*
X116971552Y-80211331D02*
G01*
X117053627Y-80245328D01*
X117053629Y-80245329D01*
X117074759Y-80259448D01*
X117127495Y-80294685D01*
X117190315Y-80357505D01*
X117239672Y-80431373D01*
X117273669Y-80513448D01*
X117291000Y-80600579D01*
X117291000Y-80689421D01*
X117273669Y-80776552D01*
X117258831Y-80812373D01*
X117239671Y-80858629D01*
X117225172Y-80880328D01*
X117192193Y-80929685D01*
X117190314Y-80932496D01*
X117127496Y-80995314D01*
X117053629Y-81044671D01*
X117053628Y-81044672D01*
X117053627Y-81044672D01*
X116971552Y-81078669D01*
X116884421Y-81096000D01*
X116795579Y-81096000D01*
X116708448Y-81078669D01*
X116626373Y-81044672D01*
X116626372Y-81044672D01*
X116626371Y-81044671D01*
X116552504Y-80995314D01*
X116489686Y-80932496D01*
X116487808Y-80929685D01*
X116454828Y-80880328D01*
X116440329Y-80858629D01*
X116421169Y-80812373D01*
X116406331Y-80776552D01*
X116389000Y-80689421D01*
X116389000Y-80600579D01*
X116406331Y-80513448D01*
X116440328Y-80431373D01*
X116489685Y-80357505D01*
X116552505Y-80294685D01*
X116605241Y-80259448D01*
X116626371Y-80245329D01*
X116626373Y-80245328D01*
X116708448Y-80211331D01*
X116795579Y-80194000D01*
X116884421Y-80194000D01*
X116971552Y-80211331D01*
G37*
G36*
X110621552Y-80211331D02*
G01*
X110703627Y-80245328D01*
X110703629Y-80245329D01*
X110724759Y-80259448D01*
X110777495Y-80294685D01*
X110840315Y-80357505D01*
X110889672Y-80431373D01*
X110923669Y-80513448D01*
X110941000Y-80600579D01*
X110941000Y-80689421D01*
X110923669Y-80776552D01*
X110908831Y-80812373D01*
X110889671Y-80858629D01*
X110875172Y-80880328D01*
X110842193Y-80929685D01*
X110840314Y-80932496D01*
X110777496Y-80995314D01*
X110703629Y-81044671D01*
X110703628Y-81044672D01*
X110703627Y-81044672D01*
X110621552Y-81078669D01*
X110534421Y-81096000D01*
X110445579Y-81096000D01*
X110358448Y-81078669D01*
X110276373Y-81044672D01*
X110276372Y-81044672D01*
X110276371Y-81044671D01*
X110202504Y-80995314D01*
X110139686Y-80932496D01*
X110137808Y-80929685D01*
X110104828Y-80880328D01*
X110090329Y-80858629D01*
X110071169Y-80812373D01*
X110056331Y-80776552D01*
X110039000Y-80689421D01*
X110039000Y-80600579D01*
X110056331Y-80513448D01*
X110090328Y-80431373D01*
X110139685Y-80357505D01*
X110202505Y-80294685D01*
X110255241Y-80259448D01*
X110276371Y-80245329D01*
X110276373Y-80245328D01*
X110358448Y-80211331D01*
X110445579Y-80194000D01*
X110534421Y-80194000D01*
X110621552Y-80211331D01*
G37*
G36*
X140593552Y-78941331D02*
G01*
X140675627Y-78975328D01*
X140675629Y-78975329D01*
X140712813Y-79000175D01*
X140749495Y-79024685D01*
X140812315Y-79087505D01*
X140861672Y-79161373D01*
X140895669Y-79243448D01*
X140913000Y-79330579D01*
X140913000Y-79419421D01*
X140895669Y-79506552D01*
X140861672Y-79588627D01*
X140812315Y-79662495D01*
X140748197Y-79726613D01*
X140732652Y-79745555D01*
X140721101Y-79767166D01*
X140713988Y-79790615D01*
X140711586Y-79815001D01*
X140713988Y-79839387D01*
X140721101Y-79862836D01*
X140732652Y-79884447D01*
X140748197Y-79903389D01*
X140767139Y-79918934D01*
X140788750Y-79930485D01*
X140812199Y-79937598D01*
X140836585Y-79940000D01*
X140887421Y-79940000D01*
X140974552Y-79957331D01*
X141056627Y-79991328D01*
X141056629Y-79991329D01*
X141067861Y-79998834D01*
X141130495Y-80040685D01*
X141193315Y-80103505D01*
X141242672Y-80177373D01*
X141276669Y-80259448D01*
X141294000Y-80346579D01*
X141294000Y-80435421D01*
X141276669Y-80522552D01*
X141242672Y-80604627D01*
X141195193Y-80675685D01*
X141193314Y-80678496D01*
X141130496Y-80741314D01*
X141056629Y-80790671D01*
X141056628Y-80790672D01*
X141056627Y-80790672D01*
X140974552Y-80824669D01*
X140887421Y-80842000D01*
X140798579Y-80842000D01*
X140711448Y-80824669D01*
X140629373Y-80790672D01*
X140629372Y-80790672D01*
X140629371Y-80790671D01*
X140555504Y-80741314D01*
X140492686Y-80678496D01*
X140490808Y-80675685D01*
X140443328Y-80604627D01*
X140409331Y-80522552D01*
X140392000Y-80435421D01*
X140392000Y-80346579D01*
X140409331Y-80259448D01*
X140443328Y-80177373D01*
X140492685Y-80103505D01*
X140556803Y-80039387D01*
X140572348Y-80020445D01*
X140583899Y-79998834D01*
X140591012Y-79975385D01*
X140593414Y-79950999D01*
X140591012Y-79926613D01*
X140583899Y-79903164D01*
X140572348Y-79881553D01*
X140556803Y-79862611D01*
X140537861Y-79847066D01*
X140516250Y-79835515D01*
X140492801Y-79828402D01*
X140468415Y-79826000D01*
X140417579Y-79826000D01*
X140330448Y-79808669D01*
X140248373Y-79774672D01*
X140248372Y-79774672D01*
X140248371Y-79774671D01*
X140176448Y-79726613D01*
X140174505Y-79725315D01*
X140111685Y-79662495D01*
X140062328Y-79588627D01*
X140028331Y-79506552D01*
X140011000Y-79419421D01*
X140011000Y-79330579D01*
X140028331Y-79243448D01*
X140062328Y-79161373D01*
X140111685Y-79087505D01*
X140174505Y-79024685D01*
X140211187Y-79000175D01*
X140248371Y-78975329D01*
X140248373Y-78975328D01*
X140330448Y-78941331D01*
X140417579Y-78924000D01*
X140506421Y-78924000D01*
X140593552Y-78941331D01*
G37*
G36*
X171610721Y-78845174D02*
G01*
X171710995Y-78886709D01*
X171710996Y-78886710D01*
X171801242Y-78947010D01*
X171877990Y-79023758D01*
X171877991Y-79023760D01*
X171938291Y-79114005D01*
X171979826Y-79214279D01*
X172001000Y-79320730D01*
X172001000Y-79429270D01*
X171979826Y-79535721D01*
X171938291Y-79635995D01*
X171908345Y-79680812D01*
X171877990Y-79726242D01*
X171801242Y-79802990D01*
X171783266Y-79815001D01*
X171710995Y-79863291D01*
X171610721Y-79904826D01*
X171504270Y-79926000D01*
X171395730Y-79926000D01*
X171289279Y-79904826D01*
X171189005Y-79863291D01*
X171116734Y-79815001D01*
X171098758Y-79802990D01*
X171022010Y-79726242D01*
X170991655Y-79680812D01*
X170961709Y-79635995D01*
X170920174Y-79535721D01*
X170899000Y-79429270D01*
X170899000Y-79320730D01*
X170920174Y-79214279D01*
X170961709Y-79114005D01*
X171022009Y-79023760D01*
X171022010Y-79023758D01*
X171098758Y-78947010D01*
X171189004Y-78886710D01*
X171189005Y-78886709D01*
X171289279Y-78845174D01*
X171395730Y-78824000D01*
X171504270Y-78824000D01*
X171610721Y-78845174D01*
G37*
G36*
X137926552Y-78941331D02*
G01*
X138008627Y-78975328D01*
X138008629Y-78975329D01*
X138045813Y-79000175D01*
X138082495Y-79024685D01*
X138145315Y-79087505D01*
X138194672Y-79161373D01*
X138228669Y-79243448D01*
X138246000Y-79330579D01*
X138246000Y-79419421D01*
X138228669Y-79506552D01*
X138194672Y-79588627D01*
X138145315Y-79662495D01*
X138082495Y-79725315D01*
X138080552Y-79726613D01*
X138008629Y-79774671D01*
X138008628Y-79774672D01*
X138008627Y-79774672D01*
X137926552Y-79808669D01*
X137839421Y-79826000D01*
X137750579Y-79826000D01*
X137663448Y-79808669D01*
X137581373Y-79774672D01*
X137581372Y-79774672D01*
X137581371Y-79774671D01*
X137509448Y-79726613D01*
X137507505Y-79725315D01*
X137444685Y-79662495D01*
X137395328Y-79588627D01*
X137361331Y-79506552D01*
X137344000Y-79419421D01*
X137344000Y-79330579D01*
X137361331Y-79243448D01*
X137395328Y-79161373D01*
X137444685Y-79087505D01*
X137507505Y-79024685D01*
X137544187Y-79000175D01*
X137581371Y-78975329D01*
X137581373Y-78975328D01*
X137663448Y-78941331D01*
X137750579Y-78924000D01*
X137839421Y-78924000D01*
X137926552Y-78941331D01*
G37*
G36*
X124083552Y-75131331D02*
G01*
X124165627Y-75165328D01*
X124165629Y-75165329D01*
X124202813Y-75190175D01*
X124239495Y-75214685D01*
X124302315Y-75277505D01*
X124351672Y-75351373D01*
X124385669Y-75433448D01*
X124403000Y-75520579D01*
X124403000Y-75609421D01*
X124385669Y-75696552D01*
X124351672Y-75778627D01*
X124351671Y-75778629D01*
X124302314Y-75852496D01*
X124239496Y-75915314D01*
X124165629Y-75964671D01*
X124165628Y-75964672D01*
X124165627Y-75964672D01*
X124083552Y-75998669D01*
X123996421Y-76016000D01*
X123907579Y-76016000D01*
X123820448Y-75998669D01*
X123738373Y-75964672D01*
X123738372Y-75964672D01*
X123738371Y-75964671D01*
X123664504Y-75915314D01*
X123601686Y-75852496D01*
X123552329Y-75778629D01*
X123552328Y-75778627D01*
X123518331Y-75696552D01*
X123501000Y-75609421D01*
X123501000Y-75520579D01*
X123518331Y-75433448D01*
X123552328Y-75351373D01*
X123601685Y-75277505D01*
X123664505Y-75214685D01*
X123701187Y-75190175D01*
X123738371Y-75165329D01*
X123738373Y-75165328D01*
X123820448Y-75131331D01*
X123907579Y-75114000D01*
X123996421Y-75114000D01*
X124083552Y-75131331D01*
G37*
G36*
X110240552Y-75131331D02*
G01*
X110322627Y-75165328D01*
X110322629Y-75165329D01*
X110359813Y-75190175D01*
X110396495Y-75214685D01*
X110459315Y-75277505D01*
X110508672Y-75351373D01*
X110542669Y-75433448D01*
X110560000Y-75520579D01*
X110560000Y-75609421D01*
X110542669Y-75696552D01*
X110508672Y-75778627D01*
X110508671Y-75778629D01*
X110459314Y-75852496D01*
X110396496Y-75915314D01*
X110322629Y-75964671D01*
X110322628Y-75964672D01*
X110322627Y-75964672D01*
X110240552Y-75998669D01*
X110153421Y-76016000D01*
X110064579Y-76016000D01*
X109977448Y-75998669D01*
X109895373Y-75964672D01*
X109895372Y-75964672D01*
X109895371Y-75964671D01*
X109821504Y-75915314D01*
X109758686Y-75852496D01*
X109709329Y-75778629D01*
X109709328Y-75778627D01*
X109675331Y-75696552D01*
X109658000Y-75609421D01*
X109658000Y-75520579D01*
X109675331Y-75433448D01*
X109709328Y-75351373D01*
X109758685Y-75277505D01*
X109821505Y-75214685D01*
X109858187Y-75190175D01*
X109895371Y-75165329D01*
X109895373Y-75165328D01*
X109977448Y-75131331D01*
X110064579Y-75114000D01*
X110153421Y-75114000D01*
X110240552Y-75131331D01*
G37*
G36*
X196346552Y-75131331D02*
G01*
X196428627Y-75165328D01*
X196428629Y-75165329D01*
X196465813Y-75190175D01*
X196502495Y-75214685D01*
X196565315Y-75277505D01*
X196614672Y-75351373D01*
X196648669Y-75433448D01*
X196666000Y-75520579D01*
X196666000Y-75609421D01*
X196648669Y-75696552D01*
X196614672Y-75778627D01*
X196614671Y-75778629D01*
X196565314Y-75852496D01*
X196502496Y-75915314D01*
X196428629Y-75964671D01*
X196428628Y-75964672D01*
X196428627Y-75964672D01*
X196346552Y-75998669D01*
X196259421Y-76016000D01*
X196170579Y-76016000D01*
X196083448Y-75998669D01*
X196001373Y-75964672D01*
X196001372Y-75964672D01*
X196001371Y-75964671D01*
X195927504Y-75915314D01*
X195864686Y-75852496D01*
X195815329Y-75778629D01*
X195815328Y-75778627D01*
X195781331Y-75696552D01*
X195764000Y-75609421D01*
X195764000Y-75520579D01*
X195781331Y-75433448D01*
X195815328Y-75351373D01*
X195864685Y-75277505D01*
X195927505Y-75214685D01*
X195964187Y-75190175D01*
X196001371Y-75165329D01*
X196001373Y-75165328D01*
X196083448Y-75131331D01*
X196170579Y-75114000D01*
X196259421Y-75114000D01*
X196346552Y-75131331D01*
G37*
G36*
X97286552Y-75131331D02*
G01*
X97368627Y-75165328D01*
X97368629Y-75165329D01*
X97405813Y-75190175D01*
X97442495Y-75214685D01*
X97505315Y-75277505D01*
X97554672Y-75351373D01*
X97588669Y-75433448D01*
X97606000Y-75520579D01*
X97606000Y-75609421D01*
X97588669Y-75696552D01*
X97554672Y-75778627D01*
X97554671Y-75778629D01*
X97505314Y-75852496D01*
X97442496Y-75915314D01*
X97368629Y-75964671D01*
X97368628Y-75964672D01*
X97368627Y-75964672D01*
X97286552Y-75998669D01*
X97199421Y-76016000D01*
X97110579Y-76016000D01*
X97023448Y-75998669D01*
X96941373Y-75964672D01*
X96941372Y-75964672D01*
X96941371Y-75964671D01*
X96867504Y-75915314D01*
X96804686Y-75852496D01*
X96755329Y-75778629D01*
X96755328Y-75778627D01*
X96721331Y-75696552D01*
X96704000Y-75609421D01*
X96704000Y-75520579D01*
X96721331Y-75433448D01*
X96755328Y-75351373D01*
X96804685Y-75277505D01*
X96867505Y-75214685D01*
X96904187Y-75190175D01*
X96941371Y-75165329D01*
X96941373Y-75165328D01*
X97023448Y-75131331D01*
X97110579Y-75114000D01*
X97199421Y-75114000D01*
X97286552Y-75131331D01*
G37*
G36*
X196346552Y-73861331D02*
G01*
X196428627Y-73895328D01*
X196428629Y-73895329D01*
X196465813Y-73920175D01*
X196502495Y-73944685D01*
X196565315Y-74007505D01*
X196614672Y-74081373D01*
X196648669Y-74163448D01*
X196666000Y-74250579D01*
X196666000Y-74339421D01*
X196648669Y-74426552D01*
X196614672Y-74508627D01*
X196614671Y-74508629D01*
X196565314Y-74582496D01*
X196502496Y-74645314D01*
X196428629Y-74694671D01*
X196428628Y-74694672D01*
X196428627Y-74694672D01*
X196346552Y-74728669D01*
X196259421Y-74746000D01*
X196170579Y-74746000D01*
X196083448Y-74728669D01*
X196001373Y-74694672D01*
X196001372Y-74694672D01*
X196001371Y-74694671D01*
X195927504Y-74645314D01*
X195864686Y-74582496D01*
X195815329Y-74508629D01*
X195815328Y-74508627D01*
X195781331Y-74426552D01*
X195764000Y-74339421D01*
X195764000Y-74250579D01*
X195781331Y-74163448D01*
X195815328Y-74081373D01*
X195864685Y-74007505D01*
X195927505Y-73944685D01*
X195964187Y-73920175D01*
X196001371Y-73895329D01*
X196001373Y-73895328D01*
X196083448Y-73861331D01*
X196170579Y-73844000D01*
X196259421Y-73844000D01*
X196346552Y-73861331D01*
G37*
G36*
X195076552Y-73861331D02*
G01*
X195158627Y-73895328D01*
X195158629Y-73895329D01*
X195195813Y-73920175D01*
X195232495Y-73944685D01*
X195295315Y-74007505D01*
X195344672Y-74081373D01*
X195378669Y-74163448D01*
X195396000Y-74250579D01*
X195396000Y-74339421D01*
X195378669Y-74426552D01*
X195344672Y-74508627D01*
X195344671Y-74508629D01*
X195295314Y-74582496D01*
X195232496Y-74645314D01*
X195158629Y-74694671D01*
X195158628Y-74694672D01*
X195158627Y-74694672D01*
X195076552Y-74728669D01*
X194989421Y-74746000D01*
X194900579Y-74746000D01*
X194813448Y-74728669D01*
X194731373Y-74694672D01*
X194731372Y-74694672D01*
X194731371Y-74694671D01*
X194657504Y-74645314D01*
X194594686Y-74582496D01*
X194545329Y-74508629D01*
X194545328Y-74508627D01*
X194511331Y-74426552D01*
X194494000Y-74339421D01*
X194494000Y-74250579D01*
X194511331Y-74163448D01*
X194545328Y-74081373D01*
X194594685Y-74007505D01*
X194657505Y-73944685D01*
X194694187Y-73920175D01*
X194731371Y-73895329D01*
X194731373Y-73895328D01*
X194813448Y-73861331D01*
X194900579Y-73844000D01*
X194989421Y-73844000D01*
X195076552Y-73861331D01*
G37*
G36*
X97286552Y-73861331D02*
G01*
X97368627Y-73895328D01*
X97368629Y-73895329D01*
X97405813Y-73920175D01*
X97442495Y-73944685D01*
X97505315Y-74007505D01*
X97554672Y-74081373D01*
X97588669Y-74163448D01*
X97606000Y-74250579D01*
X97606000Y-74339421D01*
X97588669Y-74426552D01*
X97554672Y-74508627D01*
X97554671Y-74508629D01*
X97505314Y-74582496D01*
X97442496Y-74645314D01*
X97368629Y-74694671D01*
X97368628Y-74694672D01*
X97368627Y-74694672D01*
X97286552Y-74728669D01*
X97199421Y-74746000D01*
X97110579Y-74746000D01*
X97023448Y-74728669D01*
X96941373Y-74694672D01*
X96941372Y-74694672D01*
X96941371Y-74694671D01*
X96867504Y-74645314D01*
X96804686Y-74582496D01*
X96755329Y-74508629D01*
X96755328Y-74508627D01*
X96721331Y-74426552D01*
X96704000Y-74339421D01*
X96704000Y-74250579D01*
X96721331Y-74163448D01*
X96755328Y-74081373D01*
X96804685Y-74007505D01*
X96867505Y-73944685D01*
X96904187Y-73920175D01*
X96941371Y-73895329D01*
X96941373Y-73895328D01*
X97023448Y-73861331D01*
X97110579Y-73844000D01*
X97199421Y-73844000D01*
X97286552Y-73861331D01*
G37*
G36*
X98556552Y-73861331D02*
G01*
X98638627Y-73895328D01*
X98638629Y-73895329D01*
X98675813Y-73920175D01*
X98712495Y-73944685D01*
X98775315Y-74007505D01*
X98824672Y-74081373D01*
X98858669Y-74163448D01*
X98876000Y-74250579D01*
X98876000Y-74339421D01*
X98858669Y-74426552D01*
X98824672Y-74508627D01*
X98824671Y-74508629D01*
X98775314Y-74582496D01*
X98712496Y-74645314D01*
X98638629Y-74694671D01*
X98638628Y-74694672D01*
X98638627Y-74694672D01*
X98556552Y-74728669D01*
X98469421Y-74746000D01*
X98380579Y-74746000D01*
X98293448Y-74728669D01*
X98211373Y-74694672D01*
X98211372Y-74694672D01*
X98211371Y-74694671D01*
X98137504Y-74645314D01*
X98074686Y-74582496D01*
X98025329Y-74508629D01*
X98025328Y-74508627D01*
X97991331Y-74426552D01*
X97974000Y-74339421D01*
X97974000Y-74250579D01*
X97991331Y-74163448D01*
X98025328Y-74081373D01*
X98074685Y-74007505D01*
X98137505Y-73944685D01*
X98174187Y-73920175D01*
X98211371Y-73895329D01*
X98211373Y-73895328D01*
X98293448Y-73861331D01*
X98380579Y-73844000D01*
X98469421Y-73844000D01*
X98556552Y-73861331D01*
G37*
M02*
