M48
; DRILL file {KiCad (5.1.5)-3} date 6.1.2021 13:28:49
; FORMAT={-:-/ absolute / inch / decimal}
; #@! TF.CreationDate,2021-01-06T13:28:49+01:00
; #@! TF.GenerationSoftware,Kicad,Pcbnew,(5.1.5)-3
; #@! TF.FileFunction,Plated,1,2,PTH
FMAT,2
INCH
T1C0.0157
T2C0.0236
%
G90
G05
T1
X3.825Y-2.925
X3.825Y-2.975
X3.825Y-3.775
X3.825Y-3.825
X3.875Y-2.925
X3.875Y-3.825
X4.1Y-3.575
X4.14Y-3.335
X4.14Y-3.445
X4.155Y-3.295
X4.19Y-3.19
X4.205Y-3.6
X4.23Y-3.215
X4.23Y-3.26
X4.25Y-3.6
X4.335Y-2.975
X4.35Y-3.175
X4.375Y-3.475
X4.55Y-3.675
X4.55Y-3.8
X4.6Y-3.175
X4.6Y-3.475
X4.66Y-3.195
X4.68Y-3.235
X4.88Y-2.975
X4.975Y-3.8
X5.025Y-3.2
X5.325Y-3.525
X5.375Y-3.25
X5.375Y-3.7
X5.425Y-3.125
X5.475Y-3.7
X5.53Y-3.125
X5.545Y-3.165
X5.575Y-3.225
X5.575Y-3.375
X5.63Y-3.765
X7.095Y-3.375
X7.2Y-3.375
X7.25Y-3.375
X7.355Y-3.375
X7.525Y-3.725
X7.625Y-3.465
X7.675Y-2.925
X7.675Y-3.825
X7.725Y-2.925
X7.725Y-2.975
X7.725Y-3.775
X7.725Y-3.825
X5.75Y-3.225
X5.75Y-3.325
X5.75Y-3.425
X5.75Y-3.525
X6.75Y-3.125
X6.75Y-3.225
X6.75Y-3.325
X6.75Y-3.425
X6.75Y-3.525
X6.75Y-3.625
T2
X4.7Y-3.325
X4.7Y-3.425
X4.8Y-3.325
X4.8Y-3.425
X4.9Y-3.325
X4.9Y-3.425
T0
M30
