G04 #@! TF.GenerationSoftware,KiCad,Pcbnew,(5.1.5)-3*
G04 #@! TF.CreationDate,2021-01-06T13:28:44+01:00*
G04 #@! TF.ProjectId,keg01,6b656730-312e-46b6-9963-61645f706362,rev?*
G04 #@! TF.SameCoordinates,Original*
G04 #@! TF.FileFunction,Copper,L1,Top*
G04 #@! TF.FilePolarity,Positive*
%FSLAX46Y46*%
G04 Gerber Fmt 4.6, Leading zero omitted, Abs format (unit mm)*
G04 Created by KiCad (PCBNEW (5.1.5)-3) date 2021-01-06 13:28:44*
%MOMM*%
%LPD*%
G04 APERTURE LIST*
%ADD10C,0.300000*%
%ADD11R,3.810000X1.270000*%
%ADD12C,1.000000*%
%ADD13R,1.600000X1.000000*%
%ADD14R,1.000000X1.600000*%
%ADD15R,0.750000X0.800000*%
%ADD16R,0.800000X0.750000*%
%ADD17R,1.200000X0.900000*%
%ADD18R,0.700000X1.300000*%
%ADD19R,1.300000X0.700000*%
%ADD20R,1.100000X2.500000*%
%ADD21R,2.500000X1.100000*%
%ADD22R,1.270000X3.810000*%
%ADD23R,0.500000X0.900000*%
%ADD24R,0.900000X0.500000*%
%ADD25R,1.060000X0.650000*%
%ADD26C,1.270000*%
%ADD27R,1.270000X1.270000*%
%ADD28C,0.800000*%
%ADD29C,0.600000*%
%ADD30C,0.400000*%
%ADD31C,0.250000*%
G04 APERTURE END LIST*
D10*
X154392857Y-95698571D02*
X154678571Y-95698571D01*
X154821428Y-95770000D01*
X154964285Y-95912857D01*
X155035714Y-96198571D01*
X155035714Y-96698571D01*
X154964285Y-96984285D01*
X154821428Y-97127142D01*
X154678571Y-97198571D01*
X154392857Y-97198571D01*
X154250000Y-97127142D01*
X154107142Y-96984285D01*
X154035714Y-96698571D01*
X154035714Y-96198571D01*
X154107142Y-95912857D01*
X154250000Y-95770000D01*
X154392857Y-95698571D01*
X155678571Y-97198571D02*
X155678571Y-95698571D01*
X155678571Y-96412857D02*
X156535714Y-96412857D01*
X156535714Y-97198571D02*
X156535714Y-95698571D01*
X158321428Y-95841428D02*
X158392857Y-95770000D01*
X158535714Y-95698571D01*
X158892857Y-95698571D01*
X159035714Y-95770000D01*
X159107142Y-95841428D01*
X159178571Y-95984285D01*
X159178571Y-96127142D01*
X159107142Y-96341428D01*
X158250000Y-97198571D01*
X159178571Y-97198571D01*
X160607142Y-97198571D02*
X159750000Y-97198571D01*
X160178571Y-97198571D02*
X160178571Y-95698571D01*
X160035714Y-95912857D01*
X159892857Y-96055714D01*
X159750000Y-96127142D01*
X161535714Y-95698571D02*
X161678571Y-95698571D01*
X161821428Y-95770000D01*
X161892857Y-95841428D01*
X161964285Y-95984285D01*
X162035714Y-96270000D01*
X162035714Y-96627142D01*
X161964285Y-96912857D01*
X161892857Y-97055714D01*
X161821428Y-97127142D01*
X161678571Y-97198571D01*
X161535714Y-97198571D01*
X161392857Y-97127142D01*
X161321428Y-97055714D01*
X161250000Y-96912857D01*
X161178571Y-96627142D01*
X161178571Y-96270000D01*
X161250000Y-95984285D01*
X161321428Y-95841428D01*
X161392857Y-95770000D01*
X161535714Y-95698571D01*
X163464285Y-97198571D02*
X162607142Y-97198571D01*
X163035714Y-97198571D02*
X163035714Y-95698571D01*
X162892857Y-95912857D01*
X162750000Y-96055714D01*
X162607142Y-96127142D01*
X154928571Y-75608571D02*
X154928571Y-74108571D01*
X155785714Y-75608571D02*
X155142857Y-74751428D01*
X155785714Y-74108571D02*
X154928571Y-74965714D01*
X156428571Y-74822857D02*
X156928571Y-74822857D01*
X157142857Y-75608571D02*
X156428571Y-75608571D01*
X156428571Y-74108571D01*
X157142857Y-74108571D01*
X158571428Y-74180000D02*
X158428571Y-74108571D01*
X158214285Y-74108571D01*
X158000000Y-74180000D01*
X157857142Y-74322857D01*
X157785714Y-74465714D01*
X157714285Y-74751428D01*
X157714285Y-74965714D01*
X157785714Y-75251428D01*
X157857142Y-75394285D01*
X158000000Y-75537142D01*
X158214285Y-75608571D01*
X158357142Y-75608571D01*
X158571428Y-75537142D01*
X158642857Y-75465714D01*
X158642857Y-74965714D01*
X158357142Y-74965714D01*
X160714285Y-74108571D02*
X160857142Y-74108571D01*
X161000000Y-74180000D01*
X161071428Y-74251428D01*
X161142857Y-74394285D01*
X161214285Y-74680000D01*
X161214285Y-75037142D01*
X161142857Y-75322857D01*
X161071428Y-75465714D01*
X161000000Y-75537142D01*
X160857142Y-75608571D01*
X160714285Y-75608571D01*
X160571428Y-75537142D01*
X160500000Y-75465714D01*
X160428571Y-75322857D01*
X160357142Y-75037142D01*
X160357142Y-74680000D01*
X160428571Y-74394285D01*
X160500000Y-74251428D01*
X160571428Y-74180000D01*
X160714285Y-74108571D01*
X162642857Y-75608571D02*
X161785714Y-75608571D01*
X162214285Y-75608571D02*
X162214285Y-74108571D01*
X162071428Y-74322857D01*
X161928571Y-74465714D01*
X161785714Y-74537142D01*
D11*
X144145000Y-89535000D03*
X144145000Y-86995000D03*
X144145000Y-84455000D03*
X144145000Y-81915000D03*
X173355000Y-81915000D03*
X173355000Y-84455000D03*
X173355000Y-86995000D03*
X173355000Y-89535000D03*
X173355000Y-92075000D03*
X173355000Y-79375000D03*
D12*
X146050000Y-89535000D03*
X146050000Y-86995000D03*
X146050000Y-84455000D03*
X146050000Y-81915000D03*
X171450000Y-81915000D03*
X171450000Y-84455000D03*
X171450000Y-86995000D03*
X171450000Y-89535000D03*
X171450000Y-79375000D03*
X171450000Y-92075000D03*
D13*
X124460000Y-92480000D03*
X124460000Y-95480000D03*
D14*
X122150000Y-95250000D03*
X119150000Y-95250000D03*
D15*
X117475000Y-94730000D03*
X117475000Y-93230000D03*
X133985000Y-95365000D03*
X133985000Y-93865000D03*
D13*
X139065000Y-95480000D03*
X139065000Y-92480000D03*
X136525000Y-92480000D03*
X136525000Y-95480000D03*
X135890000Y-84225000D03*
X135890000Y-87225000D03*
X140970000Y-84225000D03*
X140970000Y-87225000D03*
D16*
X139585000Y-89535000D03*
X141085000Y-89535000D03*
D13*
X133985000Y-79605000D03*
X133985000Y-76605000D03*
X128905000Y-79605000D03*
X128905000Y-76605000D03*
D16*
X125845000Y-81915000D03*
X124345000Y-81915000D03*
D17*
X141605000Y-95630000D03*
X141605000Y-92330000D03*
D18*
X119700000Y-92710000D03*
X121600000Y-92710000D03*
D19*
X138430000Y-84775000D03*
X138430000Y-86675000D03*
X131445000Y-79055000D03*
X131445000Y-77155000D03*
D20*
X98425000Y-93410000D03*
X100425000Y-93410000D03*
X102425000Y-93410000D03*
X104425000Y-93410000D03*
X106425000Y-93410000D03*
X108425000Y-93410000D03*
X110425000Y-93410000D03*
X112425000Y-93410000D03*
X112425000Y-78010000D03*
X110425000Y-78010000D03*
X108425000Y-78010000D03*
X106425000Y-78010000D03*
X104425000Y-78010000D03*
X102425000Y-78010000D03*
X100425000Y-78010000D03*
X98425000Y-78010000D03*
D21*
X114125000Y-90720000D03*
X114125000Y-88720000D03*
X114125000Y-86720000D03*
X114125000Y-84720000D03*
X114125000Y-82720000D03*
X114125000Y-80720000D03*
D22*
X182245000Y-80645000D03*
X180340000Y-80645000D03*
X178435000Y-80645000D03*
X186055000Y-80645000D03*
X187960000Y-80645000D03*
X189865000Y-80645000D03*
X186055000Y-90805000D03*
X187960000Y-90805000D03*
X189865000Y-90805000D03*
X182245000Y-90805000D03*
X180340000Y-90805000D03*
X178435000Y-90805000D03*
D11*
X193675000Y-86614000D03*
X193675000Y-84709000D03*
D22*
X120015000Y-78105000D03*
X121920000Y-78105000D03*
X123825000Y-78105000D03*
X125730000Y-78105000D03*
D23*
X102755000Y-95885000D03*
X104255000Y-95885000D03*
X119495000Y-89535000D03*
X117995000Y-89535000D03*
X130060000Y-91440000D03*
X131560000Y-91440000D03*
X125845000Y-89535000D03*
X124345000Y-89535000D03*
X107835000Y-75565000D03*
X109335000Y-75565000D03*
X122670000Y-89535000D03*
X121170000Y-89535000D03*
X112510000Y-75565000D03*
X111010000Y-75565000D03*
X141490000Y-77470000D03*
X142990000Y-77470000D03*
X141490000Y-79375000D03*
X142990000Y-79375000D03*
D24*
X117475000Y-76720000D03*
X117475000Y-78220000D03*
D23*
X119900000Y-81915000D03*
X121400000Y-81915000D03*
D25*
X129710000Y-95565000D03*
X129710000Y-93665000D03*
X131910000Y-93665000D03*
X131910000Y-94615000D03*
X131910000Y-95565000D03*
D26*
X119380000Y-86995000D03*
X119380000Y-84455000D03*
X121920000Y-86995000D03*
X121920000Y-84455000D03*
D27*
X124460000Y-84455000D03*
D26*
X124460000Y-86995000D03*
D15*
X127635000Y-93865000D03*
X127635000Y-95365000D03*
D28*
X97155000Y-75565000D03*
X98425000Y-74295000D03*
X97155000Y-74295000D03*
X110490000Y-80645000D03*
X115570000Y-93345000D03*
X115570000Y-96520000D03*
X97155000Y-95885000D03*
X98425000Y-97155000D03*
X97155000Y-97155000D03*
X111125000Y-88265000D03*
X116840000Y-88265000D03*
X104140000Y-90805000D03*
X116840000Y-80645000D03*
X194945000Y-74295000D03*
X196215000Y-75565000D03*
X196215000Y-74295000D03*
X191135000Y-94615000D03*
X194945000Y-97155000D03*
X196215000Y-95885000D03*
X196215000Y-97155000D03*
X139065000Y-93980000D03*
X136525000Y-93980000D03*
X135255000Y-89535000D03*
X136525000Y-82550000D03*
X141605000Y-81915000D03*
X137795000Y-79375000D03*
X127635000Y-81280000D03*
X141605000Y-85725000D03*
X126365000Y-96520000D03*
X105156000Y-87503000D03*
X106807000Y-91440000D03*
X140462000Y-79375000D03*
X107950000Y-91440000D03*
X140843000Y-80391000D03*
X106426000Y-81026000D03*
X118364000Y-81153000D03*
X107442000Y-81661000D03*
X107442000Y-82804000D03*
X118872000Y-82169000D03*
X105537000Y-83693000D03*
X105156000Y-84709000D03*
X186817000Y-85725000D03*
X180213000Y-85725000D03*
X184150000Y-85725000D03*
X182880000Y-85725000D03*
X143002000Y-95631000D03*
X193675000Y-88011000D03*
X123952000Y-75565000D03*
X110109000Y-75565000D03*
D29*
X124460000Y-92583000D02*
X124460000Y-92480000D01*
X121600000Y-92710000D02*
X124230000Y-92710000D01*
X124230000Y-92710000D02*
X124460000Y-92480000D01*
X124460000Y-92480000D02*
X124690000Y-92480000D01*
X124690000Y-92480000D02*
X126174500Y-90995500D01*
X126174500Y-90995500D02*
X127127000Y-90043000D01*
X127127000Y-90043000D02*
X129413000Y-90043000D01*
X133072000Y-90043000D02*
X135890000Y-87225000D01*
X129413000Y-90043000D02*
X129413000Y-90043000D01*
X129413000Y-90043000D02*
X133072000Y-90043000D01*
X135890000Y-87225000D02*
X135980000Y-87225000D01*
X135980000Y-87225000D02*
X138430000Y-84775000D01*
X138430000Y-84775000D02*
X138430000Y-82423000D01*
X135612000Y-79605000D02*
X133985000Y-79605000D01*
X138430000Y-82423000D02*
X135612000Y-79605000D01*
X133985000Y-79605000D02*
X131995000Y-79605000D01*
X131995000Y-79605000D02*
X131445000Y-79055000D01*
D30*
X119495000Y-89535000D02*
X119495000Y-90285000D01*
X125845000Y-90539000D02*
X125845000Y-89535000D01*
X125857000Y-90551000D02*
X125845000Y-90539000D01*
X119761000Y-90551000D02*
X122682000Y-90551000D01*
X122682000Y-90551000D02*
X125857000Y-90551000D01*
X119495000Y-90285000D02*
X119761000Y-90551000D01*
X122670000Y-89535000D02*
X122670000Y-90551000D01*
X122670000Y-90551000D02*
X122682000Y-90551000D01*
X125845000Y-90539000D02*
X125845000Y-90666000D01*
X125845000Y-90666000D02*
X126174500Y-90995500D01*
D29*
X129710000Y-95565000D02*
X129710000Y-95420000D01*
X124865000Y-92480000D02*
X124460000Y-92480000D01*
X126250000Y-93865000D02*
X124865000Y-92480000D01*
X128155000Y-93865000D02*
X126250000Y-93865000D01*
X129710000Y-95420000D02*
X128155000Y-93865000D01*
X131910000Y-94615000D02*
X132715000Y-94615000D01*
X133465000Y-93865000D02*
X133985000Y-93865000D01*
X132715000Y-94615000D02*
X133465000Y-93865000D01*
X112510000Y-75565000D02*
X112510000Y-78625000D01*
X112510000Y-78625000D02*
X112425000Y-78710000D01*
X112425000Y-78710000D02*
X112425000Y-79345000D01*
X97155000Y-74295000D02*
X98425000Y-74295000D01*
X111125000Y-80645000D02*
X110490000Y-80645000D01*
X112425000Y-79345000D02*
X111125000Y-80645000D01*
X124460000Y-95480000D02*
X122380000Y-95480000D01*
X122380000Y-95480000D02*
X122150000Y-95250000D01*
X122150000Y-95250000D02*
X122150000Y-96925000D01*
X115685000Y-93230000D02*
X117475000Y-93230000D01*
X115570000Y-93345000D02*
X115685000Y-93230000D01*
X116205000Y-97155000D02*
X115570000Y-96520000D01*
X121920000Y-97155000D02*
X116205000Y-97155000D01*
X122150000Y-96925000D02*
X121920000Y-97155000D01*
X115570000Y-93345000D02*
X115570000Y-92710000D01*
X97155000Y-97155000D02*
X98425000Y-97155000D01*
X111125000Y-88265000D02*
X110490000Y-88265000D01*
X116840000Y-91440000D02*
X116840000Y-88265000D01*
X115570000Y-92710000D02*
X116840000Y-91440000D01*
X110490000Y-88265000D02*
X106680000Y-88265000D01*
X106680000Y-88265000D02*
X104140000Y-90805000D01*
X112510000Y-75565000D02*
X114935000Y-75565000D01*
X116840000Y-80010000D02*
X116840000Y-80645000D01*
X115570000Y-78740000D02*
X116840000Y-80010000D01*
X115570000Y-76200000D02*
X115570000Y-78740000D01*
X114935000Y-75565000D02*
X115570000Y-76200000D01*
X193675000Y-84709000D02*
X193675000Y-76835000D01*
X196215000Y-75565000D02*
X194945000Y-74295000D01*
X193675000Y-76835000D02*
X196215000Y-74295000D01*
X192405000Y-94615000D02*
X191135000Y-94615000D01*
X194945000Y-97155000D02*
X192405000Y-94615000D01*
X196215000Y-97155000D02*
X196215000Y-95885000D01*
X133985000Y-93865000D02*
X136410000Y-93865000D01*
X136410000Y-93865000D02*
X136525000Y-93980000D01*
X139585000Y-89535000D02*
X135255000Y-89535000D01*
X135890000Y-84225000D02*
X135890000Y-83185000D01*
X135890000Y-83185000D02*
X136525000Y-82550000D01*
X144145000Y-81915000D02*
X141605000Y-81915000D01*
X133985000Y-76605000D02*
X135025000Y-76605000D01*
X135025000Y-76605000D02*
X137795000Y-79375000D01*
X125845000Y-81915000D02*
X127000000Y-81915000D01*
X127000000Y-81915000D02*
X127635000Y-81280000D01*
X140970000Y-84225000D02*
X140970000Y-85090000D01*
X140970000Y-85090000D02*
X141605000Y-85725000D01*
X124460000Y-95480000D02*
X125960000Y-95480000D01*
X126365000Y-95885000D02*
X126365000Y-96520000D01*
X125960000Y-95480000D02*
X126365000Y-95885000D01*
D30*
X117995000Y-89535000D02*
X117995000Y-89142000D01*
X120650000Y-85725000D02*
X121920000Y-84455000D01*
X120650000Y-87757000D02*
X120650000Y-85725000D01*
X120015000Y-88392000D02*
X120650000Y-87757000D01*
X118745000Y-88392000D02*
X120015000Y-88392000D01*
X117995000Y-89142000D02*
X118745000Y-88392000D01*
X98425000Y-92456000D02*
X98425000Y-92710000D01*
X99822000Y-91059000D02*
X98425000Y-92456000D01*
X101600000Y-91059000D02*
X99822000Y-91059000D01*
X105156000Y-87503000D02*
X101600000Y-91059000D01*
X102425000Y-92710000D02*
X102425000Y-95555000D01*
X102425000Y-95555000D02*
X102755000Y-95885000D01*
X141490000Y-77470000D02*
X141490000Y-77712000D01*
X106425000Y-92457000D02*
X106425000Y-92710000D01*
X106807000Y-92075000D02*
X106425000Y-92457000D01*
X106807000Y-91440000D02*
X106807000Y-92075000D01*
X140462000Y-78740000D02*
X140462000Y-79375000D01*
X141490000Y-77712000D02*
X140462000Y-78740000D01*
X141490000Y-79375000D02*
X141490000Y-79744000D01*
X108425000Y-92677000D02*
X108425000Y-92710000D01*
X107950000Y-92202000D02*
X108425000Y-92677000D01*
X107950000Y-91440000D02*
X107950000Y-92202000D01*
X141490000Y-79744000D02*
X140843000Y-80391000D01*
X111010000Y-75565000D02*
X111010000Y-76442000D01*
X110425000Y-77027000D02*
X110425000Y-78710000D01*
X111010000Y-76442000D02*
X110425000Y-77027000D01*
X107835000Y-75565000D02*
X107835000Y-76466000D01*
X108425000Y-77056000D02*
X108425000Y-78710000D01*
X107835000Y-76466000D02*
X108425000Y-77056000D01*
X121920000Y-86995000D02*
X121920000Y-87884000D01*
X121170000Y-88634000D02*
X121170000Y-89535000D01*
X121920000Y-87884000D02*
X121170000Y-88634000D01*
X106425000Y-81025000D02*
X106425000Y-78710000D01*
X106426000Y-81026000D02*
X106425000Y-81025000D01*
X117475000Y-78220000D02*
X117475000Y-78232000D01*
X104140000Y-78995000D02*
X104425000Y-78710000D01*
X104140000Y-81153000D02*
X104140000Y-78995000D01*
X104902000Y-81915000D02*
X104140000Y-81153000D01*
X107061000Y-81915000D02*
X104902000Y-81915000D01*
X107315000Y-81661000D02*
X107061000Y-81915000D01*
X107442000Y-81661000D02*
X107315000Y-81661000D01*
X117475000Y-78232000D02*
X118364000Y-79121000D01*
X118364000Y-79121000D02*
X118364000Y-81153000D01*
X119900000Y-81915000D02*
X119126000Y-81915000D01*
X102743000Y-79028000D02*
X102425000Y-78710000D01*
X102743000Y-80899000D02*
X102743000Y-79028000D01*
X104521000Y-82677000D02*
X102743000Y-80899000D01*
X107315000Y-82677000D02*
X104521000Y-82677000D01*
X107442000Y-82804000D02*
X107315000Y-82677000D01*
X119126000Y-81915000D02*
X118872000Y-82169000D01*
X100425000Y-79851000D02*
X100425000Y-78710000D01*
X104140000Y-83566000D02*
X100425000Y-79851000D01*
X105410000Y-83566000D02*
X104140000Y-83566000D01*
X105537000Y-83693000D02*
X105410000Y-83566000D01*
X98425000Y-78710000D02*
X98425000Y-78994000D01*
X105156000Y-84709000D02*
X104775000Y-84328000D01*
X104775000Y-84328000D02*
X103759000Y-84328000D01*
X103759000Y-84328000D02*
X98425000Y-78994000D01*
X144145000Y-86995000D02*
X145542000Y-86995000D01*
X142990000Y-77712000D02*
X142990000Y-77470000D01*
X143764000Y-78486000D02*
X142990000Y-77712000D01*
X145796000Y-78486000D02*
X143764000Y-78486000D01*
X148209000Y-80899000D02*
X145796000Y-78486000D01*
X148209000Y-84328000D02*
X148209000Y-80899000D01*
X145542000Y-86995000D02*
X148209000Y-84328000D01*
X144145000Y-84455000D02*
X146177000Y-84455000D01*
X146177000Y-84455000D02*
X147320000Y-83312000D01*
X147320000Y-83312000D02*
X147320000Y-81280000D01*
X147320000Y-81280000D02*
X145415000Y-79375000D01*
X145415000Y-79375000D02*
X142990000Y-79375000D01*
D31*
X187960000Y-90805000D02*
X187960000Y-89535000D01*
X187960000Y-89535000D02*
X187960000Y-89408000D01*
D30*
X187960000Y-86868000D02*
X187960000Y-90805000D01*
X186817000Y-85725000D02*
X187960000Y-86868000D01*
X180340000Y-85852000D02*
X180340000Y-90805000D01*
X180213000Y-85725000D02*
X180340000Y-85852000D01*
D31*
X173355000Y-89535000D02*
X171450000Y-89535000D01*
X171450000Y-89535000D02*
X173355000Y-89535000D01*
D30*
X187960000Y-80645000D02*
X187960000Y-83185000D01*
X185420000Y-85725000D02*
X184150000Y-85725000D01*
X187960000Y-83185000D02*
X185420000Y-85725000D01*
X182880000Y-85725000D02*
X180340000Y-83185000D01*
X180340000Y-83185000D02*
X180340000Y-80645000D01*
X186055000Y-80645000D02*
X186055000Y-81915000D01*
X182245000Y-81915000D02*
X182245000Y-80645000D01*
X183515000Y-83185000D02*
X182245000Y-81915000D01*
X184785000Y-83185000D02*
X183515000Y-83185000D01*
X186055000Y-81915000D02*
X184785000Y-83185000D01*
X178435000Y-90805000D02*
X178435000Y-80645000D01*
X189865000Y-90805000D02*
X189865000Y-80645000D01*
X182245000Y-90805000D02*
X182245000Y-89535000D01*
X186055000Y-89535000D02*
X186055000Y-90805000D01*
X184785000Y-88265000D02*
X186055000Y-89535000D01*
X183515000Y-88265000D02*
X184785000Y-88265000D01*
X182245000Y-89535000D02*
X183515000Y-88265000D01*
X117475000Y-76720000D02*
X119241000Y-76720000D01*
X120015000Y-77494000D02*
X120015000Y-78105000D01*
X119241000Y-76720000D02*
X120015000Y-77494000D01*
X121920000Y-78105000D02*
X121920000Y-81026000D01*
X121400000Y-81546000D02*
X121400000Y-81915000D01*
X121920000Y-81026000D02*
X121400000Y-81546000D01*
X124345000Y-89535000D02*
X124345000Y-87110000D01*
X124345000Y-87110000D02*
X124460000Y-86995000D01*
X131560000Y-91440000D02*
X131560000Y-93315000D01*
X131560000Y-93315000D02*
X131910000Y-93665000D01*
D29*
X131910000Y-95565000D02*
X133785000Y-95565000D01*
X133785000Y-95565000D02*
X133870000Y-95480000D01*
X133870000Y-95480000D02*
X136525000Y-95480000D01*
X136525000Y-95480000D02*
X139065000Y-95480000D01*
X139065000Y-95480000D02*
X139470000Y-95480000D01*
X141605000Y-93345000D02*
X141605000Y-92330000D01*
X139470000Y-95480000D02*
X141605000Y-93345000D01*
D30*
X130060000Y-91440000D02*
X130060000Y-91579000D01*
X131125000Y-95565000D02*
X131910000Y-95565000D01*
X130810000Y-95250000D02*
X131125000Y-95565000D01*
X130810000Y-92329000D02*
X130810000Y-95250000D01*
X130060000Y-91579000D02*
X130810000Y-92329000D01*
D29*
X193675000Y-86614000D02*
X193675000Y-88011000D01*
X143001000Y-95630000D02*
X141605000Y-95630000D01*
X143002000Y-95631000D02*
X143001000Y-95630000D01*
X119700000Y-92710000D02*
X119700000Y-94700000D01*
X119700000Y-94700000D02*
X119150000Y-95250000D01*
X112425000Y-94240000D02*
X112425000Y-92710000D01*
D30*
X104255000Y-95885000D02*
X110780000Y-95885000D01*
X110780000Y-95885000D02*
X112425000Y-94240000D01*
X112425000Y-94240000D02*
X112425000Y-92710000D01*
D29*
X118630000Y-94730000D02*
X119150000Y-95250000D01*
X117475000Y-94730000D02*
X118630000Y-94730000D01*
X112915000Y-94730000D02*
X112425000Y-94240000D01*
X117475000Y-94730000D02*
X112915000Y-94730000D01*
X138430000Y-86675000D02*
X140420000Y-86675000D01*
X140420000Y-86675000D02*
X140970000Y-87225000D01*
X140970000Y-87225000D02*
X140970000Y-89420000D01*
X140970000Y-89420000D02*
X141085000Y-89535000D01*
X141085000Y-89535000D02*
X144145000Y-89535000D01*
X131445000Y-77155000D02*
X129455000Y-77155000D01*
X129455000Y-77155000D02*
X128905000Y-76605000D01*
X128905000Y-76605000D02*
X128802000Y-76605000D01*
X123825000Y-75692000D02*
X123825000Y-78105000D01*
X124333000Y-75184000D02*
X123825000Y-75692000D01*
X127381000Y-75184000D02*
X124333000Y-75184000D01*
X128802000Y-76605000D02*
X127381000Y-75184000D01*
X123825000Y-78105000D02*
X123825000Y-81395000D01*
X123825000Y-81395000D02*
X124345000Y-81915000D01*
D30*
X109335000Y-75565000D02*
X110109000Y-75565000D01*
X123952000Y-75565000D02*
X124333000Y-75184000D01*
G36*
X153721429Y-77025000D02*
G01*
X163778572Y-77025000D01*
X163778572Y-73750000D01*
X196760001Y-73750000D01*
X196760000Y-97700000D01*
X164600000Y-97700000D01*
X164600000Y-94665000D01*
X152900000Y-94665000D01*
X152900000Y-97700000D01*
X96610000Y-97700000D01*
X96610000Y-76760000D01*
X97171613Y-76760000D01*
X97171613Y-79260000D01*
X97185128Y-79397224D01*
X97225155Y-79529175D01*
X97290155Y-79650781D01*
X97377630Y-79757370D01*
X97484219Y-79844845D01*
X97605825Y-79909845D01*
X97737776Y-79949872D01*
X97875000Y-79963387D01*
X98121595Y-79963387D01*
X103091347Y-84933140D01*
X103119525Y-84967475D01*
X103153860Y-84995653D01*
X103153862Y-84995655D01*
X103179245Y-85016486D01*
X103256568Y-85079943D01*
X103412919Y-85163514D01*
X103582569Y-85214977D01*
X103714793Y-85228000D01*
X103714795Y-85228000D01*
X103758999Y-85232354D01*
X103803203Y-85228000D01*
X104180346Y-85228000D01*
X104181193Y-85230045D01*
X104301575Y-85410209D01*
X104454791Y-85563425D01*
X104634955Y-85683807D01*
X104835142Y-85766727D01*
X105047659Y-85809000D01*
X105264341Y-85809000D01*
X105476858Y-85766727D01*
X105677045Y-85683807D01*
X105857209Y-85563425D01*
X106010425Y-85410209D01*
X106130807Y-85230045D01*
X106213727Y-85029858D01*
X106256000Y-84817341D01*
X106256000Y-84600659D01*
X106244216Y-84541418D01*
X106391425Y-84394209D01*
X106511807Y-84214045D01*
X106594727Y-84013858D01*
X106637000Y-83801341D01*
X106637000Y-83584659D01*
X106635477Y-83577000D01*
X106659366Y-83577000D01*
X106740791Y-83658425D01*
X106920955Y-83778807D01*
X107121142Y-83861727D01*
X107333659Y-83904000D01*
X107550341Y-83904000D01*
X107762858Y-83861727D01*
X107963045Y-83778807D01*
X108143209Y-83658425D01*
X108296425Y-83505209D01*
X108416807Y-83325045D01*
X108499727Y-83124858D01*
X108542000Y-82912341D01*
X108542000Y-82695659D01*
X108499727Y-82483142D01*
X108416807Y-82282955D01*
X108383094Y-82232500D01*
X108416807Y-82182045D01*
X108499727Y-81981858D01*
X108542000Y-81769341D01*
X108542000Y-81552659D01*
X108499727Y-81340142D01*
X108416807Y-81139955D01*
X108296425Y-80959791D01*
X108143209Y-80806575D01*
X107963045Y-80686193D01*
X107762858Y-80603273D01*
X107550341Y-80561000D01*
X107424022Y-80561000D01*
X107400807Y-80504955D01*
X107325000Y-80391502D01*
X107325000Y-79866643D01*
X107365781Y-79844845D01*
X107425000Y-79796245D01*
X107484219Y-79844845D01*
X107605825Y-79909845D01*
X107737776Y-79949872D01*
X107875000Y-79963387D01*
X108975000Y-79963387D01*
X109112224Y-79949872D01*
X109244175Y-79909845D01*
X109365781Y-79844845D01*
X109425000Y-79796245D01*
X109484219Y-79844845D01*
X109605825Y-79909845D01*
X109737776Y-79949872D01*
X109875000Y-79963387D01*
X110975000Y-79963387D01*
X111112224Y-79949872D01*
X111244175Y-79909845D01*
X111365781Y-79844845D01*
X111472370Y-79757370D01*
X111497681Y-79726529D01*
X111540045Y-79761296D01*
X111644279Y-79817010D01*
X111757379Y-79851318D01*
X111875000Y-79862903D01*
X112175000Y-79860000D01*
X112324998Y-79710002D01*
X112324998Y-79736763D01*
X112290155Y-79779219D01*
X112225155Y-79900825D01*
X112185128Y-80032776D01*
X112171613Y-80170000D01*
X112171613Y-81270000D01*
X112185128Y-81407224D01*
X112225155Y-81539175D01*
X112290155Y-81660781D01*
X112338755Y-81720000D01*
X112290155Y-81779219D01*
X112225155Y-81900825D01*
X112185128Y-82032776D01*
X112171613Y-82170000D01*
X112171613Y-83270000D01*
X112185128Y-83407224D01*
X112225155Y-83539175D01*
X112290155Y-83660781D01*
X112338755Y-83720000D01*
X112290155Y-83779219D01*
X112225155Y-83900825D01*
X112185128Y-84032776D01*
X112171613Y-84170000D01*
X112171613Y-85270000D01*
X112185128Y-85407224D01*
X112225155Y-85539175D01*
X112290155Y-85660781D01*
X112338755Y-85720000D01*
X112290155Y-85779219D01*
X112225155Y-85900825D01*
X112185128Y-86032776D01*
X112171613Y-86170000D01*
X112171613Y-87270000D01*
X112185128Y-87407224D01*
X112225155Y-87539175D01*
X112290155Y-87660781D01*
X112338755Y-87720000D01*
X112290155Y-87779219D01*
X112225155Y-87900825D01*
X112185128Y-88032776D01*
X112171613Y-88170000D01*
X112171613Y-89270000D01*
X112185128Y-89407224D01*
X112225155Y-89539175D01*
X112290155Y-89660781D01*
X112338755Y-89720000D01*
X112290155Y-89779219D01*
X112225155Y-89900825D01*
X112185128Y-90032776D01*
X112171613Y-90170000D01*
X112171613Y-91270000D01*
X112185128Y-91407224D01*
X112200110Y-91456613D01*
X111875000Y-91456613D01*
X111737776Y-91470128D01*
X111605825Y-91510155D01*
X111484219Y-91575155D01*
X111425000Y-91623755D01*
X111365781Y-91575155D01*
X111244175Y-91510155D01*
X111112224Y-91470128D01*
X110975000Y-91456613D01*
X109875000Y-91456613D01*
X109737776Y-91470128D01*
X109605825Y-91510155D01*
X109484219Y-91575155D01*
X109425000Y-91623755D01*
X109365781Y-91575155D01*
X109244175Y-91510155D01*
X109112224Y-91470128D01*
X109050000Y-91464000D01*
X109050000Y-91331659D01*
X109007727Y-91119142D01*
X108924807Y-90918955D01*
X108804425Y-90738791D01*
X108651209Y-90585575D01*
X108471045Y-90465193D01*
X108270858Y-90382273D01*
X108058341Y-90340000D01*
X107841659Y-90340000D01*
X107629142Y-90382273D01*
X107428955Y-90465193D01*
X107378500Y-90498906D01*
X107328045Y-90465193D01*
X107127858Y-90382273D01*
X106915341Y-90340000D01*
X106698659Y-90340000D01*
X106486142Y-90382273D01*
X106285955Y-90465193D01*
X106105791Y-90585575D01*
X105952575Y-90738791D01*
X105832193Y-90918955D01*
X105749273Y-91119142D01*
X105707000Y-91331659D01*
X105707000Y-91479464D01*
X105605825Y-91510155D01*
X105484219Y-91575155D01*
X105425000Y-91623755D01*
X105365781Y-91575155D01*
X105244175Y-91510155D01*
X105112224Y-91470128D01*
X104975000Y-91456613D01*
X103875000Y-91456613D01*
X103737776Y-91470128D01*
X103605825Y-91510155D01*
X103484219Y-91575155D01*
X103425000Y-91623755D01*
X103365781Y-91575155D01*
X103244175Y-91510155D01*
X103112224Y-91470128D01*
X102975000Y-91456613D01*
X102475179Y-91456613D01*
X105344796Y-88586996D01*
X105476858Y-88560727D01*
X105677045Y-88477807D01*
X105857209Y-88357425D01*
X106010425Y-88204209D01*
X106130807Y-88024045D01*
X106213727Y-87823858D01*
X106256000Y-87611341D01*
X106256000Y-87394659D01*
X106213727Y-87182142D01*
X106130807Y-86981955D01*
X106010425Y-86801791D01*
X105857209Y-86648575D01*
X105677045Y-86528193D01*
X105476858Y-86445273D01*
X105264341Y-86403000D01*
X105047659Y-86403000D01*
X104835142Y-86445273D01*
X104634955Y-86528193D01*
X104454791Y-86648575D01*
X104301575Y-86801791D01*
X104181193Y-86981955D01*
X104098273Y-87182142D01*
X104072004Y-87314204D01*
X101227208Y-90159000D01*
X99866196Y-90159000D01*
X99821999Y-90154647D01*
X99777802Y-90159000D01*
X99777793Y-90159000D01*
X99645569Y-90172023D01*
X99475919Y-90223486D01*
X99319568Y-90307057D01*
X99182525Y-90419525D01*
X99154345Y-90453863D01*
X98151595Y-91456613D01*
X97875000Y-91456613D01*
X97737776Y-91470128D01*
X97605825Y-91510155D01*
X97484219Y-91575155D01*
X97377630Y-91662630D01*
X97290155Y-91769219D01*
X97225155Y-91890825D01*
X97185128Y-92022776D01*
X97171613Y-92160000D01*
X97171613Y-94660000D01*
X97185128Y-94797224D01*
X97225155Y-94929175D01*
X97290155Y-95050781D01*
X97377630Y-95157370D01*
X97484219Y-95244845D01*
X97605825Y-95309845D01*
X97737776Y-95349872D01*
X97875000Y-95363387D01*
X98975000Y-95363387D01*
X99112224Y-95349872D01*
X99244175Y-95309845D01*
X99365781Y-95244845D01*
X99425000Y-95196245D01*
X99484219Y-95244845D01*
X99605825Y-95309845D01*
X99737776Y-95349872D01*
X99875000Y-95363387D01*
X100975000Y-95363387D01*
X101112224Y-95349872D01*
X101244175Y-95309845D01*
X101365781Y-95244845D01*
X101425000Y-95196245D01*
X101484219Y-95244845D01*
X101525001Y-95266643D01*
X101525001Y-95510784D01*
X101520646Y-95555000D01*
X101538023Y-95731430D01*
X101589487Y-95901081D01*
X101673057Y-96057431D01*
X101757345Y-96160137D01*
X101757348Y-96160140D01*
X101785526Y-96194475D01*
X101801613Y-96207677D01*
X101801613Y-96335000D01*
X101815128Y-96472224D01*
X101855155Y-96604175D01*
X101920155Y-96725781D01*
X102007630Y-96832370D01*
X102114219Y-96919845D01*
X102235825Y-96984845D01*
X102367776Y-97024872D01*
X102505000Y-97038387D01*
X103005000Y-97038387D01*
X103142224Y-97024872D01*
X103274175Y-96984845D01*
X103395781Y-96919845D01*
X103502370Y-96832370D01*
X103505000Y-96829165D01*
X103507630Y-96832370D01*
X103614219Y-96919845D01*
X103735825Y-96984845D01*
X103867776Y-97024872D01*
X104005000Y-97038387D01*
X104505000Y-97038387D01*
X104642224Y-97024872D01*
X104774175Y-96984845D01*
X104895781Y-96919845D01*
X105002370Y-96832370D01*
X105041245Y-96785000D01*
X110735794Y-96785000D01*
X110780000Y-96789354D01*
X110824206Y-96785000D01*
X110824207Y-96785000D01*
X110956431Y-96771977D01*
X111126081Y-96720514D01*
X111282432Y-96636943D01*
X111419475Y-96524475D01*
X111447657Y-96490135D01*
X112366881Y-95570911D01*
X112530465Y-95658349D01*
X112718966Y-95715530D01*
X112915000Y-95734838D01*
X112964120Y-95730000D01*
X116737572Y-95730000D01*
X116830825Y-95779845D01*
X116962776Y-95819872D01*
X117100000Y-95833387D01*
X117850000Y-95833387D01*
X117946613Y-95823872D01*
X117946613Y-96050000D01*
X117960128Y-96187224D01*
X118000155Y-96319175D01*
X118065155Y-96440781D01*
X118152630Y-96547370D01*
X118259219Y-96634845D01*
X118380825Y-96699845D01*
X118512776Y-96739872D01*
X118650000Y-96753387D01*
X119650000Y-96753387D01*
X119787224Y-96739872D01*
X119919175Y-96699845D01*
X120040781Y-96634845D01*
X120147370Y-96547370D01*
X120234845Y-96440781D01*
X120299845Y-96319175D01*
X120339872Y-96187224D01*
X120353387Y-96050000D01*
X121047097Y-96050000D01*
X121058682Y-96167621D01*
X121092990Y-96280721D01*
X121148704Y-96384955D01*
X121223683Y-96476317D01*
X121315045Y-96551296D01*
X121419279Y-96607010D01*
X121532379Y-96641318D01*
X121650000Y-96652903D01*
X121900000Y-96650000D01*
X122050000Y-96500000D01*
X122050000Y-95350000D01*
X121200000Y-95350000D01*
X121050000Y-95500000D01*
X121047097Y-96050000D01*
X120353387Y-96050000D01*
X120353387Y-95460826D01*
X120372368Y-95441845D01*
X120410528Y-95410528D01*
X120535492Y-95258258D01*
X120628349Y-95084535D01*
X120685530Y-94896034D01*
X120693511Y-94815000D01*
X121049024Y-94815000D01*
X121050000Y-95000000D01*
X121200000Y-95150000D01*
X122050000Y-95150000D01*
X122050000Y-95130000D01*
X122250000Y-95130000D01*
X122250000Y-95150000D01*
X122270000Y-95150000D01*
X122270000Y-95350000D01*
X122250000Y-95350000D01*
X122250000Y-96500000D01*
X122400000Y-96650000D01*
X122650000Y-96652903D01*
X122767621Y-96641318D01*
X122880721Y-96607010D01*
X122984955Y-96551296D01*
X123076317Y-96476317D01*
X123151296Y-96384955D01*
X123176876Y-96337098D01*
X123233683Y-96406317D01*
X123325045Y-96481296D01*
X123429279Y-96537010D01*
X123542379Y-96571318D01*
X123660000Y-96582903D01*
X124210000Y-96580000D01*
X124360000Y-96430000D01*
X124360000Y-95580000D01*
X124560000Y-95580000D01*
X124560000Y-96430000D01*
X124710000Y-96580000D01*
X125260000Y-96582903D01*
X125377621Y-96571318D01*
X125490721Y-96537010D01*
X125594955Y-96481296D01*
X125686317Y-96406317D01*
X125761296Y-96314955D01*
X125817010Y-96210721D01*
X125851318Y-96097621D01*
X125862903Y-95980000D01*
X125860407Y-95765000D01*
X126657097Y-95765000D01*
X126668682Y-95882621D01*
X126702990Y-95995721D01*
X126758704Y-96099955D01*
X126833683Y-96191317D01*
X126925045Y-96266296D01*
X127029279Y-96322010D01*
X127142379Y-96356318D01*
X127260000Y-96367903D01*
X127385000Y-96365000D01*
X127535000Y-96215000D01*
X127535000Y-95465000D01*
X126810000Y-95465000D01*
X126660000Y-95615000D01*
X126657097Y-95765000D01*
X125860407Y-95765000D01*
X125860000Y-95730000D01*
X125710000Y-95580000D01*
X124560000Y-95580000D01*
X124360000Y-95580000D01*
X124340000Y-95580000D01*
X124340000Y-95380000D01*
X124360000Y-95380000D01*
X124360000Y-95360000D01*
X124560000Y-95360000D01*
X124560000Y-95380000D01*
X125710000Y-95380000D01*
X125860000Y-95230000D01*
X125862903Y-94980000D01*
X125851318Y-94862379D01*
X125823588Y-94770965D01*
X125865465Y-94793349D01*
X126053966Y-94850530D01*
X126250000Y-94869838D01*
X126299120Y-94865000D01*
X126666946Y-94865000D01*
X126657097Y-94965000D01*
X126660000Y-95115000D01*
X126810000Y-95265000D01*
X127535000Y-95265000D01*
X127535000Y-95245000D01*
X127735000Y-95245000D01*
X127735000Y-95265000D01*
X127755000Y-95265000D01*
X127755000Y-95465000D01*
X127735000Y-95465000D01*
X127735000Y-96215000D01*
X127885000Y-96365000D01*
X128010000Y-96367903D01*
X128127621Y-96356318D01*
X128240721Y-96322010D01*
X128344955Y-96266296D01*
X128436317Y-96191317D01*
X128511296Y-96099955D01*
X128511867Y-96098887D01*
X128530155Y-96159175D01*
X128595155Y-96280781D01*
X128682630Y-96387370D01*
X128789219Y-96474845D01*
X128910825Y-96539845D01*
X129042776Y-96579872D01*
X129180000Y-96593387D01*
X130240000Y-96593387D01*
X130377224Y-96579872D01*
X130509175Y-96539845D01*
X130630781Y-96474845D01*
X130737370Y-96387370D01*
X130742541Y-96381069D01*
X130778919Y-96400514D01*
X130948569Y-96451977D01*
X130963098Y-96453408D01*
X130989219Y-96474845D01*
X131110825Y-96539845D01*
X131242776Y-96579872D01*
X131380000Y-96593387D01*
X132440000Y-96593387D01*
X132577224Y-96579872D01*
X132626250Y-96565000D01*
X133735880Y-96565000D01*
X133785000Y-96569838D01*
X133834120Y-96565000D01*
X133981034Y-96550530D01*
X134169535Y-96493349D01*
X134194509Y-96480000D01*
X135230835Y-96480000D01*
X135334219Y-96564845D01*
X135455825Y-96629845D01*
X135587776Y-96669872D01*
X135725000Y-96683387D01*
X137325000Y-96683387D01*
X137462224Y-96669872D01*
X137594175Y-96629845D01*
X137715781Y-96564845D01*
X137795000Y-96499832D01*
X137874219Y-96564845D01*
X137995825Y-96629845D01*
X138127776Y-96669872D01*
X138265000Y-96683387D01*
X139865000Y-96683387D01*
X140002224Y-96669872D01*
X140134175Y-96629845D01*
X140255781Y-96564845D01*
X140362370Y-96477370D01*
X140399496Y-96432131D01*
X140420155Y-96470781D01*
X140507630Y-96577370D01*
X140614219Y-96664845D01*
X140735825Y-96729845D01*
X140867776Y-96769872D01*
X141005000Y-96783387D01*
X142205000Y-96783387D01*
X142342224Y-96769872D01*
X142474175Y-96729845D01*
X142595781Y-96664845D01*
X142605074Y-96657219D01*
X142681142Y-96688727D01*
X142893659Y-96731000D01*
X143110341Y-96731000D01*
X143322858Y-96688727D01*
X143523045Y-96605807D01*
X143703209Y-96485425D01*
X143856425Y-96332209D01*
X143976807Y-96152045D01*
X144059727Y-95951858D01*
X144102000Y-95739341D01*
X144102000Y-95522659D01*
X144059727Y-95310142D01*
X143976807Y-95109955D01*
X143856425Y-94929791D01*
X143703209Y-94776575D01*
X143523045Y-94656193D01*
X143322858Y-94573273D01*
X143110341Y-94531000D01*
X142893659Y-94531000D01*
X142681142Y-94573273D01*
X142606693Y-94604111D01*
X142595781Y-94595155D01*
X142474175Y-94530155D01*
X142342224Y-94490128D01*
X142205000Y-94476613D01*
X141887600Y-94476613D01*
X142277368Y-94086845D01*
X142315528Y-94055528D01*
X142440492Y-93903258D01*
X142533349Y-93729535D01*
X142551722Y-93668966D01*
X142590530Y-93541035D01*
X142608948Y-93354039D01*
X142702370Y-93277370D01*
X142789845Y-93170781D01*
X142854845Y-93049175D01*
X142894872Y-92917224D01*
X142908387Y-92780000D01*
X142908387Y-91880000D01*
X142894872Y-91742776D01*
X142854845Y-91610825D01*
X142789845Y-91489219D01*
X142702370Y-91382630D01*
X142595781Y-91295155D01*
X142474175Y-91230155D01*
X142342224Y-91190128D01*
X142205000Y-91176613D01*
X141005000Y-91176613D01*
X140867776Y-91190128D01*
X140735825Y-91230155D01*
X140614219Y-91295155D01*
X140507630Y-91382630D01*
X140420155Y-91489219D01*
X140355155Y-91610825D01*
X140350583Y-91625898D01*
X140291317Y-91553683D01*
X140199955Y-91478704D01*
X140095721Y-91422990D01*
X139982621Y-91388682D01*
X139865000Y-91377097D01*
X139315000Y-91380000D01*
X139165000Y-91530000D01*
X139165000Y-92380000D01*
X139185000Y-92380000D01*
X139185000Y-92580000D01*
X139165000Y-92580000D01*
X139165000Y-93430000D01*
X139315000Y-93580000D01*
X139865000Y-93582903D01*
X139962486Y-93573301D01*
X139259175Y-94276613D01*
X138265000Y-94276613D01*
X138127776Y-94290128D01*
X137995825Y-94330155D01*
X137874219Y-94395155D01*
X137795000Y-94460168D01*
X137715781Y-94395155D01*
X137594175Y-94330155D01*
X137462224Y-94290128D01*
X137325000Y-94276613D01*
X135725000Y-94276613D01*
X135587776Y-94290128D01*
X135455825Y-94330155D01*
X135334219Y-94395155D01*
X135230835Y-94480000D01*
X134921779Y-94480000D01*
X134951318Y-94382621D01*
X134962903Y-94265000D01*
X134960000Y-94115000D01*
X134810000Y-93965000D01*
X134085000Y-93965000D01*
X134085000Y-93985000D01*
X133885000Y-93985000D01*
X133885000Y-93965000D01*
X133865000Y-93965000D01*
X133865000Y-93765000D01*
X133885000Y-93765000D01*
X133885000Y-93015000D01*
X134085000Y-93015000D01*
X134085000Y-93765000D01*
X134810000Y-93765000D01*
X134960000Y-93615000D01*
X134962903Y-93465000D01*
X134951318Y-93347379D01*
X134917010Y-93234279D01*
X134861296Y-93130045D01*
X134786317Y-93038683D01*
X134714812Y-92980000D01*
X135122097Y-92980000D01*
X135133682Y-93097621D01*
X135167990Y-93210721D01*
X135223704Y-93314955D01*
X135298683Y-93406317D01*
X135390045Y-93481296D01*
X135494279Y-93537010D01*
X135607379Y-93571318D01*
X135725000Y-93582903D01*
X136275000Y-93580000D01*
X136425000Y-93430000D01*
X136425000Y-92580000D01*
X136625000Y-92580000D01*
X136625000Y-93430000D01*
X136775000Y-93580000D01*
X137325000Y-93582903D01*
X137442621Y-93571318D01*
X137555721Y-93537010D01*
X137659955Y-93481296D01*
X137751317Y-93406317D01*
X137795000Y-93353089D01*
X137838683Y-93406317D01*
X137930045Y-93481296D01*
X138034279Y-93537010D01*
X138147379Y-93571318D01*
X138265000Y-93582903D01*
X138815000Y-93580000D01*
X138965000Y-93430000D01*
X138965000Y-92580000D01*
X137815000Y-92580000D01*
X137795000Y-92600000D01*
X137775000Y-92580000D01*
X136625000Y-92580000D01*
X136425000Y-92580000D01*
X135275000Y-92580000D01*
X135125000Y-92730000D01*
X135122097Y-92980000D01*
X134714812Y-92980000D01*
X134694955Y-92963704D01*
X134590721Y-92907990D01*
X134477621Y-92873682D01*
X134360000Y-92862097D01*
X134235000Y-92865000D01*
X134085000Y-93015000D01*
X133885000Y-93015000D01*
X133735000Y-92865000D01*
X133610000Y-92862097D01*
X133492379Y-92873682D01*
X133379279Y-92907990D01*
X133275045Y-92963704D01*
X133183683Y-93038683D01*
X133108704Y-93130045D01*
X133108133Y-93131113D01*
X133089845Y-93070825D01*
X133024845Y-92949219D01*
X132937370Y-92842630D01*
X132830781Y-92755155D01*
X132709175Y-92690155D01*
X132577224Y-92650128D01*
X132460000Y-92638583D01*
X132460000Y-92158664D01*
X132499872Y-92027224D01*
X132504523Y-91980000D01*
X135122097Y-91980000D01*
X135125000Y-92230000D01*
X135275000Y-92380000D01*
X136425000Y-92380000D01*
X136425000Y-91530000D01*
X136625000Y-91530000D01*
X136625000Y-92380000D01*
X137775000Y-92380000D01*
X137795000Y-92360000D01*
X137815000Y-92380000D01*
X138965000Y-92380000D01*
X138965000Y-91530000D01*
X138815000Y-91380000D01*
X138265000Y-91377097D01*
X138147379Y-91388682D01*
X138034279Y-91422990D01*
X137930045Y-91478704D01*
X137838683Y-91553683D01*
X137795000Y-91606911D01*
X137751317Y-91553683D01*
X137659955Y-91478704D01*
X137555721Y-91422990D01*
X137442621Y-91388682D01*
X137325000Y-91377097D01*
X136775000Y-91380000D01*
X136625000Y-91530000D01*
X136425000Y-91530000D01*
X136275000Y-91380000D01*
X135725000Y-91377097D01*
X135607379Y-91388682D01*
X135494279Y-91422990D01*
X135390045Y-91478704D01*
X135298683Y-91553683D01*
X135223704Y-91645045D01*
X135167990Y-91749279D01*
X135133682Y-91862379D01*
X135122097Y-91980000D01*
X132504523Y-91980000D01*
X132513387Y-91890000D01*
X132513387Y-91043000D01*
X133022880Y-91043000D01*
X133072000Y-91047838D01*
X133121120Y-91043000D01*
X133268034Y-91028530D01*
X133456535Y-90971349D01*
X133630258Y-90878492D01*
X133782528Y-90753528D01*
X133813849Y-90715363D01*
X134619212Y-89910000D01*
X138582097Y-89910000D01*
X138593682Y-90027621D01*
X138627990Y-90140721D01*
X138683704Y-90244955D01*
X138758683Y-90336317D01*
X138850045Y-90411296D01*
X138954279Y-90467010D01*
X139067379Y-90501318D01*
X139185000Y-90512903D01*
X139335000Y-90510000D01*
X139485000Y-90360000D01*
X139485000Y-89635000D01*
X138735000Y-89635000D01*
X138585000Y-89785000D01*
X138582097Y-89910000D01*
X134619212Y-89910000D01*
X135369212Y-89160000D01*
X138582097Y-89160000D01*
X138585000Y-89285000D01*
X138735000Y-89435000D01*
X139485000Y-89435000D01*
X139485000Y-88710000D01*
X139335000Y-88560000D01*
X139185000Y-88557097D01*
X139067379Y-88568682D01*
X138954279Y-88602990D01*
X138850045Y-88658704D01*
X138758683Y-88733683D01*
X138683704Y-88825045D01*
X138627990Y-88929279D01*
X138593682Y-89042379D01*
X138582097Y-89160000D01*
X135369212Y-89160000D01*
X136100826Y-88428387D01*
X136690000Y-88428387D01*
X136827224Y-88414872D01*
X136959175Y-88374845D01*
X137080781Y-88309845D01*
X137187370Y-88222370D01*
X137274845Y-88115781D01*
X137339845Y-87994175D01*
X137379872Y-87862224D01*
X137393387Y-87725000D01*
X137393387Y-87612073D01*
X137510825Y-87674845D01*
X137642776Y-87714872D01*
X137780000Y-87728387D01*
X139080000Y-87728387D01*
X139217224Y-87714872D01*
X139348664Y-87675000D01*
X139466613Y-87675000D01*
X139466613Y-87725000D01*
X139480128Y-87862224D01*
X139520155Y-87994175D01*
X139585155Y-88115781D01*
X139672630Y-88222370D01*
X139779219Y-88309845D01*
X139900825Y-88374845D01*
X139970001Y-88395829D01*
X139970001Y-88557387D01*
X139835000Y-88560000D01*
X139685000Y-88710000D01*
X139685000Y-89435000D01*
X139705000Y-89435000D01*
X139705000Y-89635000D01*
X139685000Y-89635000D01*
X139685000Y-90360000D01*
X139835000Y-90510000D01*
X139985000Y-90512903D01*
X140102621Y-90501318D01*
X140215721Y-90467010D01*
X140242718Y-90452580D01*
X140294219Y-90494845D01*
X140415825Y-90559845D01*
X140547776Y-90599872D01*
X140685000Y-90613387D01*
X141485000Y-90613387D01*
X141622224Y-90599872D01*
X141674277Y-90584082D01*
X141742630Y-90667370D01*
X141849219Y-90754845D01*
X141970825Y-90819845D01*
X142102776Y-90859872D01*
X142240000Y-90873387D01*
X146050000Y-90873387D01*
X146187224Y-90859872D01*
X146319175Y-90819845D01*
X146440781Y-90754845D01*
X146547370Y-90667370D01*
X146596503Y-90607502D01*
X146618413Y-90598426D01*
X146814955Y-90467101D01*
X146982101Y-90299955D01*
X147113426Y-90103413D01*
X147203884Y-89885027D01*
X147250000Y-89653190D01*
X147250000Y-89416810D01*
X147203884Y-89184973D01*
X147113426Y-88966587D01*
X146982101Y-88770045D01*
X146814955Y-88602899D01*
X146618413Y-88471574D01*
X146596503Y-88462498D01*
X146547370Y-88402630D01*
X146440781Y-88315155D01*
X146346948Y-88265000D01*
X146440781Y-88214845D01*
X146547370Y-88127370D01*
X146596503Y-88067502D01*
X146618413Y-88058426D01*
X146814955Y-87927101D01*
X146982101Y-87759955D01*
X147113426Y-87563413D01*
X147203884Y-87345027D01*
X147250000Y-87113190D01*
X147250000Y-86876810D01*
X147203884Y-86644973D01*
X147192442Y-86617350D01*
X148814137Y-84995655D01*
X148848475Y-84967475D01*
X148960943Y-84830432D01*
X148980951Y-84793000D01*
X149044514Y-84674082D01*
X149095977Y-84504431D01*
X149113354Y-84328000D01*
X149109000Y-84283793D01*
X149109000Y-80943196D01*
X149113353Y-80898999D01*
X149109000Y-80854802D01*
X149109000Y-80854793D01*
X149095977Y-80722569D01*
X149044514Y-80552919D01*
X148960943Y-80396568D01*
X148848475Y-80259525D01*
X148814135Y-80231343D01*
X147839602Y-79256810D01*
X170250000Y-79256810D01*
X170250000Y-79493190D01*
X170296116Y-79725027D01*
X170386574Y-79943413D01*
X170517899Y-80139955D01*
X170685045Y-80307101D01*
X170881587Y-80438426D01*
X170903497Y-80447502D01*
X170952630Y-80507370D01*
X171059219Y-80594845D01*
X171153052Y-80645000D01*
X171059219Y-80695155D01*
X170952630Y-80782630D01*
X170903497Y-80842498D01*
X170881587Y-80851574D01*
X170685045Y-80982899D01*
X170517899Y-81150045D01*
X170386574Y-81346587D01*
X170296116Y-81564973D01*
X170250000Y-81796810D01*
X170250000Y-82033190D01*
X170296116Y-82265027D01*
X170386574Y-82483413D01*
X170517899Y-82679955D01*
X170685045Y-82847101D01*
X170881587Y-82978426D01*
X170903497Y-82987502D01*
X170952630Y-83047370D01*
X171059219Y-83134845D01*
X171153052Y-83185000D01*
X171059219Y-83235155D01*
X170952630Y-83322630D01*
X170903497Y-83382498D01*
X170881587Y-83391574D01*
X170685045Y-83522899D01*
X170517899Y-83690045D01*
X170386574Y-83886587D01*
X170296116Y-84104973D01*
X170250000Y-84336810D01*
X170250000Y-84573190D01*
X170296116Y-84805027D01*
X170386574Y-85023413D01*
X170517899Y-85219955D01*
X170685045Y-85387101D01*
X170881587Y-85518426D01*
X170903497Y-85527502D01*
X170952630Y-85587370D01*
X171059219Y-85674845D01*
X171153052Y-85725000D01*
X171059219Y-85775155D01*
X170952630Y-85862630D01*
X170903497Y-85922498D01*
X170881587Y-85931574D01*
X170685045Y-86062899D01*
X170517899Y-86230045D01*
X170386574Y-86426587D01*
X170296116Y-86644973D01*
X170250000Y-86876810D01*
X170250000Y-87113190D01*
X170296116Y-87345027D01*
X170386574Y-87563413D01*
X170517899Y-87759955D01*
X170685045Y-87927101D01*
X170881587Y-88058426D01*
X170903497Y-88067502D01*
X170952630Y-88127370D01*
X171059219Y-88214845D01*
X171153052Y-88265000D01*
X171059219Y-88315155D01*
X170952630Y-88402630D01*
X170903497Y-88462498D01*
X170881587Y-88471574D01*
X170685045Y-88602899D01*
X170517899Y-88770045D01*
X170386574Y-88966587D01*
X170296116Y-89184973D01*
X170250000Y-89416810D01*
X170250000Y-89653190D01*
X170296116Y-89885027D01*
X170386574Y-90103413D01*
X170517899Y-90299955D01*
X170685045Y-90467101D01*
X170881587Y-90598426D01*
X170903497Y-90607502D01*
X170952630Y-90667370D01*
X171059219Y-90754845D01*
X171153052Y-90805000D01*
X171059219Y-90855155D01*
X170952630Y-90942630D01*
X170903497Y-91002498D01*
X170881587Y-91011574D01*
X170685045Y-91142899D01*
X170517899Y-91310045D01*
X170386574Y-91506587D01*
X170296116Y-91724973D01*
X170250000Y-91956810D01*
X170250000Y-92193190D01*
X170296116Y-92425027D01*
X170386574Y-92643413D01*
X170517899Y-92839955D01*
X170685045Y-93007101D01*
X170881587Y-93138426D01*
X170903497Y-93147502D01*
X170952630Y-93207370D01*
X171059219Y-93294845D01*
X171180825Y-93359845D01*
X171312776Y-93399872D01*
X171450000Y-93413387D01*
X175260000Y-93413387D01*
X175397224Y-93399872D01*
X175529175Y-93359845D01*
X175650781Y-93294845D01*
X175757370Y-93207370D01*
X175844845Y-93100781D01*
X175909845Y-92979175D01*
X175949872Y-92847224D01*
X175963387Y-92710000D01*
X175963387Y-91440000D01*
X175949872Y-91302776D01*
X175909845Y-91170825D01*
X175844845Y-91049219D01*
X175757370Y-90942630D01*
X175650781Y-90855155D01*
X175556948Y-90805000D01*
X175650781Y-90754845D01*
X175757370Y-90667370D01*
X175844845Y-90560781D01*
X175909845Y-90439175D01*
X175949872Y-90307224D01*
X175963387Y-90170000D01*
X175963387Y-88900000D01*
X175949872Y-88762776D01*
X175909845Y-88630825D01*
X175844845Y-88509219D01*
X175757370Y-88402630D01*
X175650781Y-88315155D01*
X175556948Y-88265000D01*
X175650781Y-88214845D01*
X175757370Y-88127370D01*
X175844845Y-88020781D01*
X175909845Y-87899175D01*
X175949872Y-87767224D01*
X175963387Y-87630000D01*
X175963387Y-86360000D01*
X175949872Y-86222776D01*
X175909845Y-86090825D01*
X175844845Y-85969219D01*
X175757370Y-85862630D01*
X175650781Y-85775155D01*
X175556948Y-85725000D01*
X175650781Y-85674845D01*
X175757370Y-85587370D01*
X175844845Y-85480781D01*
X175909845Y-85359175D01*
X175949872Y-85227224D01*
X175963387Y-85090000D01*
X175963387Y-83820000D01*
X175949872Y-83682776D01*
X175909845Y-83550825D01*
X175844845Y-83429219D01*
X175757370Y-83322630D01*
X175650781Y-83235155D01*
X175556948Y-83185000D01*
X175650781Y-83134845D01*
X175757370Y-83047370D01*
X175844845Y-82940781D01*
X175909845Y-82819175D01*
X175949872Y-82687224D01*
X175963387Y-82550000D01*
X175963387Y-81280000D01*
X175949872Y-81142776D01*
X175909845Y-81010825D01*
X175844845Y-80889219D01*
X175757370Y-80782630D01*
X175650781Y-80695155D01*
X175556948Y-80645000D01*
X175650781Y-80594845D01*
X175757370Y-80507370D01*
X175844845Y-80400781D01*
X175909845Y-80279175D01*
X175949872Y-80147224D01*
X175963387Y-80010000D01*
X175963387Y-78740000D01*
X177096613Y-78740000D01*
X177096613Y-82550000D01*
X177110128Y-82687224D01*
X177150155Y-82819175D01*
X177215155Y-82940781D01*
X177302630Y-83047370D01*
X177409219Y-83134845D01*
X177530825Y-83199845D01*
X177535001Y-83201112D01*
X177535000Y-88248888D01*
X177530825Y-88250155D01*
X177409219Y-88315155D01*
X177302630Y-88402630D01*
X177215155Y-88509219D01*
X177150155Y-88630825D01*
X177110128Y-88762776D01*
X177096613Y-88900000D01*
X177096613Y-92710000D01*
X177110128Y-92847224D01*
X177150155Y-92979175D01*
X177215155Y-93100781D01*
X177302630Y-93207370D01*
X177409219Y-93294845D01*
X177530825Y-93359845D01*
X177662776Y-93399872D01*
X177800000Y-93413387D01*
X179070000Y-93413387D01*
X179207224Y-93399872D01*
X179339175Y-93359845D01*
X179387500Y-93334015D01*
X179435825Y-93359845D01*
X179567776Y-93399872D01*
X179705000Y-93413387D01*
X180975000Y-93413387D01*
X181112224Y-93399872D01*
X181244175Y-93359845D01*
X181292500Y-93334015D01*
X181340825Y-93359845D01*
X181472776Y-93399872D01*
X181610000Y-93413387D01*
X182880000Y-93413387D01*
X183017224Y-93399872D01*
X183149175Y-93359845D01*
X183270781Y-93294845D01*
X183377370Y-93207370D01*
X183464845Y-93100781D01*
X183529845Y-92979175D01*
X183569872Y-92847224D01*
X183583387Y-92710000D01*
X183583387Y-89469406D01*
X183887793Y-89165000D01*
X184412208Y-89165000D01*
X184716613Y-89469405D01*
X184716613Y-92710000D01*
X184730128Y-92847224D01*
X184770155Y-92979175D01*
X184835155Y-93100781D01*
X184922630Y-93207370D01*
X185029219Y-93294845D01*
X185150825Y-93359845D01*
X185282776Y-93399872D01*
X185420000Y-93413387D01*
X186690000Y-93413387D01*
X186827224Y-93399872D01*
X186959175Y-93359845D01*
X187007500Y-93334015D01*
X187055825Y-93359845D01*
X187187776Y-93399872D01*
X187325000Y-93413387D01*
X188595000Y-93413387D01*
X188732224Y-93399872D01*
X188864175Y-93359845D01*
X188912500Y-93334015D01*
X188960825Y-93359845D01*
X189092776Y-93399872D01*
X189230000Y-93413387D01*
X190500000Y-93413387D01*
X190637224Y-93399872D01*
X190769175Y-93359845D01*
X190890781Y-93294845D01*
X190997370Y-93207370D01*
X191084845Y-93100781D01*
X191149845Y-92979175D01*
X191189872Y-92847224D01*
X191203387Y-92710000D01*
X191203387Y-88900000D01*
X191189872Y-88762776D01*
X191149845Y-88630825D01*
X191084845Y-88509219D01*
X190997370Y-88402630D01*
X190890781Y-88315155D01*
X190769175Y-88250155D01*
X190765000Y-88248889D01*
X190765000Y-85979000D01*
X191066613Y-85979000D01*
X191066613Y-87249000D01*
X191080128Y-87386224D01*
X191120155Y-87518175D01*
X191185155Y-87639781D01*
X191272630Y-87746370D01*
X191379219Y-87833845D01*
X191500825Y-87898845D01*
X191632776Y-87938872D01*
X191770000Y-87952387D01*
X192575000Y-87952387D01*
X192575000Y-88119341D01*
X192617273Y-88331858D01*
X192700193Y-88532045D01*
X192820575Y-88712209D01*
X192973791Y-88865425D01*
X193153955Y-88985807D01*
X193354142Y-89068727D01*
X193566659Y-89111000D01*
X193783341Y-89111000D01*
X193995858Y-89068727D01*
X194196045Y-88985807D01*
X194376209Y-88865425D01*
X194529425Y-88712209D01*
X194649807Y-88532045D01*
X194732727Y-88331858D01*
X194775000Y-88119341D01*
X194775000Y-87952387D01*
X195580000Y-87952387D01*
X195717224Y-87938872D01*
X195849175Y-87898845D01*
X195970781Y-87833845D01*
X196077370Y-87746370D01*
X196164845Y-87639781D01*
X196229845Y-87518175D01*
X196269872Y-87386224D01*
X196283387Y-87249000D01*
X196283387Y-85979000D01*
X196269872Y-85841776D01*
X196229845Y-85709825D01*
X196164845Y-85588219D01*
X196141532Y-85559812D01*
X196171318Y-85461621D01*
X196182903Y-85344000D01*
X196180000Y-84959000D01*
X196030000Y-84809000D01*
X193775000Y-84809000D01*
X193775000Y-84829000D01*
X193575000Y-84829000D01*
X193575000Y-84809000D01*
X191320000Y-84809000D01*
X191170000Y-84959000D01*
X191167097Y-85344000D01*
X191178682Y-85461621D01*
X191208468Y-85559812D01*
X191185155Y-85588219D01*
X191120155Y-85709825D01*
X191080128Y-85841776D01*
X191066613Y-85979000D01*
X190765000Y-85979000D01*
X190765000Y-84074000D01*
X191167097Y-84074000D01*
X191170000Y-84459000D01*
X191320000Y-84609000D01*
X193575000Y-84609000D01*
X193575000Y-83624000D01*
X193775000Y-83624000D01*
X193775000Y-84609000D01*
X196030000Y-84609000D01*
X196180000Y-84459000D01*
X196182903Y-84074000D01*
X196171318Y-83956379D01*
X196137010Y-83843279D01*
X196081296Y-83739045D01*
X196006317Y-83647683D01*
X195914955Y-83572704D01*
X195810721Y-83516990D01*
X195697621Y-83482682D01*
X195580000Y-83471097D01*
X193925000Y-83474000D01*
X193775000Y-83624000D01*
X193575000Y-83624000D01*
X193425000Y-83474000D01*
X191770000Y-83471097D01*
X191652379Y-83482682D01*
X191539279Y-83516990D01*
X191435045Y-83572704D01*
X191343683Y-83647683D01*
X191268704Y-83739045D01*
X191212990Y-83843279D01*
X191178682Y-83956379D01*
X191167097Y-84074000D01*
X190765000Y-84074000D01*
X190765000Y-83201111D01*
X190769175Y-83199845D01*
X190890781Y-83134845D01*
X190997370Y-83047370D01*
X191084845Y-82940781D01*
X191149845Y-82819175D01*
X191189872Y-82687224D01*
X191203387Y-82550000D01*
X191203387Y-78740000D01*
X191189872Y-78602776D01*
X191149845Y-78470825D01*
X191084845Y-78349219D01*
X190997370Y-78242630D01*
X190890781Y-78155155D01*
X190769175Y-78090155D01*
X190637224Y-78050128D01*
X190500000Y-78036613D01*
X189230000Y-78036613D01*
X189092776Y-78050128D01*
X188960825Y-78090155D01*
X188912500Y-78115985D01*
X188864175Y-78090155D01*
X188732224Y-78050128D01*
X188595000Y-78036613D01*
X187325000Y-78036613D01*
X187187776Y-78050128D01*
X187055825Y-78090155D01*
X187007500Y-78115985D01*
X186959175Y-78090155D01*
X186827224Y-78050128D01*
X186690000Y-78036613D01*
X185420000Y-78036613D01*
X185282776Y-78050128D01*
X185150825Y-78090155D01*
X185029219Y-78155155D01*
X184922630Y-78242630D01*
X184835155Y-78349219D01*
X184770155Y-78470825D01*
X184730128Y-78602776D01*
X184716613Y-78740000D01*
X184716613Y-81980595D01*
X184412208Y-82285000D01*
X183887793Y-82285000D01*
X183583387Y-81980594D01*
X183583387Y-78740000D01*
X183569872Y-78602776D01*
X183529845Y-78470825D01*
X183464845Y-78349219D01*
X183377370Y-78242630D01*
X183270781Y-78155155D01*
X183149175Y-78090155D01*
X183017224Y-78050128D01*
X182880000Y-78036613D01*
X181610000Y-78036613D01*
X181472776Y-78050128D01*
X181340825Y-78090155D01*
X181292500Y-78115985D01*
X181244175Y-78090155D01*
X181112224Y-78050128D01*
X180975000Y-78036613D01*
X179705000Y-78036613D01*
X179567776Y-78050128D01*
X179435825Y-78090155D01*
X179387500Y-78115985D01*
X179339175Y-78090155D01*
X179207224Y-78050128D01*
X179070000Y-78036613D01*
X177800000Y-78036613D01*
X177662776Y-78050128D01*
X177530825Y-78090155D01*
X177409219Y-78155155D01*
X177302630Y-78242630D01*
X177215155Y-78349219D01*
X177150155Y-78470825D01*
X177110128Y-78602776D01*
X177096613Y-78740000D01*
X175963387Y-78740000D01*
X175949872Y-78602776D01*
X175909845Y-78470825D01*
X175844845Y-78349219D01*
X175757370Y-78242630D01*
X175650781Y-78155155D01*
X175529175Y-78090155D01*
X175397224Y-78050128D01*
X175260000Y-78036613D01*
X171450000Y-78036613D01*
X171312776Y-78050128D01*
X171180825Y-78090155D01*
X171059219Y-78155155D01*
X170952630Y-78242630D01*
X170903497Y-78302498D01*
X170881587Y-78311574D01*
X170685045Y-78442899D01*
X170517899Y-78610045D01*
X170386574Y-78806587D01*
X170296116Y-79024973D01*
X170250000Y-79256810D01*
X147839602Y-79256810D01*
X146463657Y-77880865D01*
X146435475Y-77846525D01*
X146298432Y-77734057D01*
X146142081Y-77650486D01*
X145972431Y-77599023D01*
X145840207Y-77586000D01*
X145840206Y-77586000D01*
X145796000Y-77581646D01*
X145751794Y-77586000D01*
X144136792Y-77586000D01*
X143943387Y-77392595D01*
X143943387Y-77020000D01*
X143929872Y-76882776D01*
X143889845Y-76750825D01*
X143824845Y-76629219D01*
X143737370Y-76522630D01*
X143630781Y-76435155D01*
X143509175Y-76370155D01*
X143377224Y-76330128D01*
X143240000Y-76316613D01*
X142740000Y-76316613D01*
X142602776Y-76330128D01*
X142470825Y-76370155D01*
X142349219Y-76435155D01*
X142242630Y-76522630D01*
X142240000Y-76525835D01*
X142237370Y-76522630D01*
X142130781Y-76435155D01*
X142009175Y-76370155D01*
X141877224Y-76330128D01*
X141740000Y-76316613D01*
X141240000Y-76316613D01*
X141102776Y-76330128D01*
X140970825Y-76370155D01*
X140849219Y-76435155D01*
X140742630Y-76522630D01*
X140655155Y-76629219D01*
X140590155Y-76750825D01*
X140550128Y-76882776D01*
X140536613Y-77020000D01*
X140536613Y-77392595D01*
X139856865Y-78072343D01*
X139822525Y-78100525D01*
X139710057Y-78237569D01*
X139626486Y-78393920D01*
X139583927Y-78534219D01*
X139575023Y-78563570D01*
X139557646Y-78740000D01*
X139558377Y-78747421D01*
X139487193Y-78853955D01*
X139404273Y-79054142D01*
X139362000Y-79266659D01*
X139362000Y-79483341D01*
X139404273Y-79695858D01*
X139487193Y-79896045D01*
X139607575Y-80076209D01*
X139754784Y-80223418D01*
X139743000Y-80282659D01*
X139743000Y-80499341D01*
X139785273Y-80711858D01*
X139868193Y-80912045D01*
X139988575Y-81092209D01*
X140141791Y-81245425D01*
X140321955Y-81365807D01*
X140522142Y-81448727D01*
X140734659Y-81491000D01*
X140951341Y-81491000D01*
X141163858Y-81448727D01*
X141364045Y-81365807D01*
X141544209Y-81245425D01*
X141658012Y-81131622D01*
X141648682Y-81162379D01*
X141637097Y-81280000D01*
X141640000Y-81665000D01*
X141790000Y-81815000D01*
X144045000Y-81815000D01*
X144045000Y-80830000D01*
X143895000Y-80680000D01*
X142240000Y-80677097D01*
X142122379Y-80688682D01*
X142009279Y-80722990D01*
X141905045Y-80778704D01*
X141856555Y-80818499D01*
X141900727Y-80711858D01*
X141926996Y-80579797D01*
X142058098Y-80448695D01*
X142130781Y-80409845D01*
X142237370Y-80322370D01*
X142240000Y-80319165D01*
X142242630Y-80322370D01*
X142349219Y-80409845D01*
X142470825Y-80474845D01*
X142602776Y-80514872D01*
X142740000Y-80528387D01*
X143240000Y-80528387D01*
X143377224Y-80514872D01*
X143509175Y-80474845D01*
X143630781Y-80409845D01*
X143737370Y-80322370D01*
X143776245Y-80275000D01*
X145042208Y-80275000D01*
X145445366Y-80678158D01*
X144395000Y-80680000D01*
X144245000Y-80830000D01*
X144245000Y-81815000D01*
X144265000Y-81815000D01*
X144265000Y-82015000D01*
X144245000Y-82015000D01*
X144245000Y-82035000D01*
X144045000Y-82035000D01*
X144045000Y-82015000D01*
X141790000Y-82015000D01*
X141640000Y-82165000D01*
X141637097Y-82550000D01*
X141648682Y-82667621D01*
X141682990Y-82780721D01*
X141738704Y-82884955D01*
X141813683Y-82976317D01*
X141905045Y-83051296D01*
X142009279Y-83107010D01*
X142094133Y-83132750D01*
X141989341Y-83164538D01*
X141887621Y-83133682D01*
X141770000Y-83122097D01*
X141220000Y-83125000D01*
X141070000Y-83275000D01*
X141070000Y-84125000D01*
X141090000Y-84125000D01*
X141090000Y-84325000D01*
X141070000Y-84325000D01*
X141070000Y-85175000D01*
X141220000Y-85325000D01*
X141580365Y-85326902D01*
X141590155Y-85359175D01*
X141655155Y-85480781D01*
X141742630Y-85587370D01*
X141849219Y-85674845D01*
X141943052Y-85725000D01*
X141849219Y-85775155D01*
X141742630Y-85862630D01*
X141655155Y-85969219D01*
X141627150Y-86021613D01*
X141180825Y-86021613D01*
X141161849Y-86002636D01*
X141130528Y-85964472D01*
X140978258Y-85839508D01*
X140804535Y-85746651D01*
X140616034Y-85689470D01*
X140469120Y-85675000D01*
X140420000Y-85670162D01*
X140370880Y-85675000D01*
X139513240Y-85675000D01*
X139577370Y-85622370D01*
X139664845Y-85515781D01*
X139729845Y-85394175D01*
X139769872Y-85262224D01*
X139778020Y-85179496D01*
X139835045Y-85226296D01*
X139939279Y-85282010D01*
X140052379Y-85316318D01*
X140170000Y-85327903D01*
X140720000Y-85325000D01*
X140870000Y-85175000D01*
X140870000Y-84325000D01*
X140850000Y-84325000D01*
X140850000Y-84125000D01*
X140870000Y-84125000D01*
X140870000Y-83275000D01*
X140720000Y-83125000D01*
X140170000Y-83122097D01*
X140052379Y-83133682D01*
X139939279Y-83167990D01*
X139835045Y-83223704D01*
X139743683Y-83298683D01*
X139668704Y-83390045D01*
X139612990Y-83494279D01*
X139578682Y-83607379D01*
X139567097Y-83725000D01*
X139569374Y-83921068D01*
X139470781Y-83840155D01*
X139430000Y-83818357D01*
X139430000Y-82472120D01*
X139434838Y-82423000D01*
X139415530Y-82226966D01*
X139358349Y-82038465D01*
X139265492Y-81864742D01*
X139243079Y-81837432D01*
X139140528Y-81712472D01*
X139102368Y-81681155D01*
X136353849Y-78932637D01*
X136322528Y-78894472D01*
X136170258Y-78769508D01*
X135996535Y-78676651D01*
X135808034Y-78619470D01*
X135712342Y-78610045D01*
X135612000Y-78600162D01*
X135562880Y-78605000D01*
X135279165Y-78605000D01*
X135175781Y-78520155D01*
X135054175Y-78455155D01*
X134922224Y-78415128D01*
X134785000Y-78401613D01*
X133185000Y-78401613D01*
X133047776Y-78415128D01*
X132915825Y-78455155D01*
X132794219Y-78520155D01*
X132775169Y-78535789D01*
X132744845Y-78435825D01*
X132679845Y-78314219D01*
X132592370Y-78207630D01*
X132485781Y-78120155D01*
X132457428Y-78105000D01*
X132485781Y-78089845D01*
X132592370Y-78002370D01*
X132679845Y-77895781D01*
X132744845Y-77774175D01*
X132784872Y-77642224D01*
X132793020Y-77559496D01*
X132850045Y-77606296D01*
X132954279Y-77662010D01*
X133067379Y-77696318D01*
X133185000Y-77707903D01*
X133735000Y-77705000D01*
X133885000Y-77555000D01*
X133885000Y-76705000D01*
X134085000Y-76705000D01*
X134085000Y-77555000D01*
X134235000Y-77705000D01*
X134785000Y-77707903D01*
X134902621Y-77696318D01*
X135015721Y-77662010D01*
X135119955Y-77606296D01*
X135211317Y-77531317D01*
X135286296Y-77439955D01*
X135342010Y-77335721D01*
X135376318Y-77222621D01*
X135387903Y-77105000D01*
X135385000Y-76855000D01*
X135235000Y-76705000D01*
X134085000Y-76705000D01*
X133885000Y-76705000D01*
X133865000Y-76705000D01*
X133865000Y-76505000D01*
X133885000Y-76505000D01*
X133885000Y-75655000D01*
X134085000Y-75655000D01*
X134085000Y-76505000D01*
X135235000Y-76505000D01*
X135385000Y-76355000D01*
X135387903Y-76105000D01*
X135376318Y-75987379D01*
X135342010Y-75874279D01*
X135286296Y-75770045D01*
X135211317Y-75678683D01*
X135119955Y-75603704D01*
X135015721Y-75547990D01*
X134902621Y-75513682D01*
X134785000Y-75502097D01*
X134235000Y-75505000D01*
X134085000Y-75655000D01*
X133885000Y-75655000D01*
X133735000Y-75505000D01*
X133185000Y-75502097D01*
X133067379Y-75513682D01*
X132954279Y-75547990D01*
X132850045Y-75603704D01*
X132758683Y-75678683D01*
X132683704Y-75770045D01*
X132627990Y-75874279D01*
X132593682Y-75987379D01*
X132582097Y-76105000D01*
X132584374Y-76301068D01*
X132485781Y-76220155D01*
X132364175Y-76155155D01*
X132232224Y-76115128D01*
X132095000Y-76101613D01*
X130795000Y-76101613D01*
X130657776Y-76115128D01*
X130526336Y-76155000D01*
X130408387Y-76155000D01*
X130408387Y-76105000D01*
X130394872Y-75967776D01*
X130354845Y-75835825D01*
X130289845Y-75714219D01*
X130202370Y-75607630D01*
X130095781Y-75520155D01*
X129974175Y-75455155D01*
X129842224Y-75415128D01*
X129705000Y-75401613D01*
X129012826Y-75401613D01*
X128122849Y-74511637D01*
X128091528Y-74473472D01*
X127939258Y-74348508D01*
X127765535Y-74255651D01*
X127577034Y-74198470D01*
X127430120Y-74184000D01*
X127381000Y-74179162D01*
X127331880Y-74184000D01*
X124382109Y-74184000D01*
X124332999Y-74179163D01*
X124283889Y-74184000D01*
X124283880Y-74184000D01*
X124136966Y-74198470D01*
X123948465Y-74255651D01*
X123774742Y-74348508D01*
X123622472Y-74473472D01*
X123591155Y-74511632D01*
X123570322Y-74532466D01*
X123430955Y-74590193D01*
X123250791Y-74710575D01*
X123097575Y-74863791D01*
X122977193Y-75043955D01*
X122894273Y-75244142D01*
X122853155Y-75450853D01*
X122839470Y-75495966D01*
X122833635Y-75555211D01*
X122824175Y-75550155D01*
X122692224Y-75510128D01*
X122555000Y-75496613D01*
X121285000Y-75496613D01*
X121147776Y-75510128D01*
X121015825Y-75550155D01*
X120967500Y-75575985D01*
X120919175Y-75550155D01*
X120787224Y-75510128D01*
X120650000Y-75496613D01*
X119380000Y-75496613D01*
X119242776Y-75510128D01*
X119110825Y-75550155D01*
X118989219Y-75615155D01*
X118882630Y-75702630D01*
X118795155Y-75809219D01*
X118789392Y-75820000D01*
X118193664Y-75820000D01*
X118062224Y-75780128D01*
X117925000Y-75766613D01*
X117025000Y-75766613D01*
X116887776Y-75780128D01*
X116755825Y-75820155D01*
X116634219Y-75885155D01*
X116527630Y-75972630D01*
X116440155Y-76079219D01*
X116375155Y-76200825D01*
X116335128Y-76332776D01*
X116321613Y-76470000D01*
X116321613Y-76970000D01*
X116335128Y-77107224D01*
X116375155Y-77239175D01*
X116440155Y-77360781D01*
X116527630Y-77467370D01*
X116530835Y-77470000D01*
X116527630Y-77472630D01*
X116440155Y-77579219D01*
X116375155Y-77700825D01*
X116335128Y-77832776D01*
X116321613Y-77970000D01*
X116321613Y-78470000D01*
X116335128Y-78607224D01*
X116375155Y-78739175D01*
X116440155Y-78860781D01*
X116527630Y-78967370D01*
X116634219Y-79054845D01*
X116755825Y-79119845D01*
X116887776Y-79159872D01*
X117025000Y-79173387D01*
X117143595Y-79173387D01*
X117464000Y-79493792D01*
X117464001Y-80519998D01*
X117389193Y-80631955D01*
X117306273Y-80832142D01*
X117264000Y-81044659D01*
X117264000Y-81261341D01*
X117306273Y-81473858D01*
X117389193Y-81674045D01*
X117509575Y-81854209D01*
X117662791Y-82007425D01*
X117772000Y-82080396D01*
X117772000Y-82277341D01*
X117814273Y-82489858D01*
X117897193Y-82690045D01*
X118017575Y-82870209D01*
X118170791Y-83023425D01*
X118350955Y-83143807D01*
X118551142Y-83226727D01*
X118757631Y-83267801D01*
X118747641Y-83271939D01*
X118528987Y-83418038D01*
X118343038Y-83603987D01*
X118196939Y-83822641D01*
X118096304Y-84065595D01*
X118045000Y-84323514D01*
X118045000Y-84586486D01*
X118096304Y-84844405D01*
X118196939Y-85087359D01*
X118343038Y-85306013D01*
X118528987Y-85491962D01*
X118747641Y-85638061D01*
X118957530Y-85725000D01*
X118747641Y-85811939D01*
X118528987Y-85958038D01*
X118343038Y-86143987D01*
X118196939Y-86362641D01*
X118096304Y-86605595D01*
X118045000Y-86863514D01*
X118045000Y-87126486D01*
X118096304Y-87384405D01*
X118196939Y-87627359D01*
X118218578Y-87659745D01*
X118139862Y-87724345D01*
X118139860Y-87724347D01*
X118105525Y-87752525D01*
X118077347Y-87786860D01*
X117389860Y-88474348D01*
X117366249Y-88493725D01*
X117354219Y-88500155D01*
X117247630Y-88587630D01*
X117160155Y-88694219D01*
X117095155Y-88815825D01*
X117055128Y-88947776D01*
X117041613Y-89085000D01*
X117041613Y-89985000D01*
X117055128Y-90122224D01*
X117095155Y-90254175D01*
X117160155Y-90375781D01*
X117247630Y-90482370D01*
X117354219Y-90569845D01*
X117475825Y-90634845D01*
X117607776Y-90674872D01*
X117745000Y-90688387D01*
X118245000Y-90688387D01*
X118382224Y-90674872D01*
X118514175Y-90634845D01*
X118635781Y-90569845D01*
X118639888Y-90566474D01*
X118649581Y-90598426D01*
X118659487Y-90631081D01*
X118743057Y-90787431D01*
X118827345Y-90890137D01*
X118827348Y-90890140D01*
X118855526Y-90924475D01*
X118889862Y-90952654D01*
X119093339Y-91156130D01*
X119121525Y-91190475D01*
X119258568Y-91302943D01*
X119358978Y-91356613D01*
X119350000Y-91356613D01*
X119212776Y-91370128D01*
X119080825Y-91410155D01*
X118959219Y-91475155D01*
X118852630Y-91562630D01*
X118765155Y-91669219D01*
X118700155Y-91790825D01*
X118660128Y-91922776D01*
X118646613Y-92060000D01*
X118646613Y-93360000D01*
X118660128Y-93497224D01*
X118700000Y-93628666D01*
X118700001Y-93732057D01*
X118630000Y-93725162D01*
X118580880Y-93730000D01*
X118443054Y-93730000D01*
X118452903Y-93630000D01*
X118450000Y-93480000D01*
X118300000Y-93330000D01*
X117575000Y-93330000D01*
X117575000Y-93350000D01*
X117375000Y-93350000D01*
X117375000Y-93330000D01*
X116650000Y-93330000D01*
X116500000Y-93480000D01*
X116497097Y-93630000D01*
X116506946Y-93730000D01*
X113678387Y-93730000D01*
X113678387Y-92830000D01*
X116497097Y-92830000D01*
X116500000Y-92980000D01*
X116650000Y-93130000D01*
X117375000Y-93130000D01*
X117375000Y-92380000D01*
X117575000Y-92380000D01*
X117575000Y-93130000D01*
X118300000Y-93130000D01*
X118450000Y-92980000D01*
X118452903Y-92830000D01*
X118441318Y-92712379D01*
X118407010Y-92599279D01*
X118351296Y-92495045D01*
X118276317Y-92403683D01*
X118184955Y-92328704D01*
X118080721Y-92272990D01*
X117967621Y-92238682D01*
X117850000Y-92227097D01*
X117725000Y-92230000D01*
X117575000Y-92380000D01*
X117375000Y-92380000D01*
X117225000Y-92230000D01*
X117100000Y-92227097D01*
X116982379Y-92238682D01*
X116869279Y-92272990D01*
X116765045Y-92328704D01*
X116673683Y-92403683D01*
X116598704Y-92495045D01*
X116542990Y-92599279D01*
X116508682Y-92712379D01*
X116497097Y-92830000D01*
X113678387Y-92830000D01*
X113678387Y-92160000D01*
X113664872Y-92022776D01*
X113649890Y-91973387D01*
X115375000Y-91973387D01*
X115512224Y-91959872D01*
X115644175Y-91919845D01*
X115765781Y-91854845D01*
X115872370Y-91767370D01*
X115959845Y-91660781D01*
X116024845Y-91539175D01*
X116064872Y-91407224D01*
X116078387Y-91270000D01*
X116078387Y-90170000D01*
X116064872Y-90032776D01*
X116024845Y-89900825D01*
X115959845Y-89779219D01*
X115911245Y-89720000D01*
X115959845Y-89660781D01*
X116024845Y-89539175D01*
X116064872Y-89407224D01*
X116078387Y-89270000D01*
X116078387Y-88170000D01*
X116064872Y-88032776D01*
X116024845Y-87900825D01*
X115959845Y-87779219D01*
X115911245Y-87720000D01*
X115959845Y-87660781D01*
X116024845Y-87539175D01*
X116064872Y-87407224D01*
X116078387Y-87270000D01*
X116078387Y-86170000D01*
X116064872Y-86032776D01*
X116024845Y-85900825D01*
X115959845Y-85779219D01*
X115911245Y-85720000D01*
X115959845Y-85660781D01*
X116024845Y-85539175D01*
X116064872Y-85407224D01*
X116078387Y-85270000D01*
X116078387Y-84170000D01*
X116064872Y-84032776D01*
X116024845Y-83900825D01*
X115959845Y-83779219D01*
X115911245Y-83720000D01*
X115959845Y-83660781D01*
X116024845Y-83539175D01*
X116064872Y-83407224D01*
X116078387Y-83270000D01*
X116078387Y-82170000D01*
X116064872Y-82032776D01*
X116024845Y-81900825D01*
X115959845Y-81779219D01*
X115911245Y-81720000D01*
X115959845Y-81660781D01*
X116024845Y-81539175D01*
X116064872Y-81407224D01*
X116078387Y-81270000D01*
X116078387Y-80170000D01*
X116064872Y-80032776D01*
X116024845Y-79900825D01*
X115959845Y-79779219D01*
X115872370Y-79672630D01*
X115765781Y-79585155D01*
X115644175Y-79520155D01*
X115512224Y-79480128D01*
X115375000Y-79466613D01*
X113539323Y-79466613D01*
X113566318Y-79377621D01*
X113577903Y-79260000D01*
X113575000Y-78260000D01*
X113425000Y-78110000D01*
X112525000Y-78110000D01*
X112525000Y-78130000D01*
X112325000Y-78130000D01*
X112325000Y-78110000D01*
X112305000Y-78110000D01*
X112305000Y-77910000D01*
X112325000Y-77910000D01*
X112325000Y-77890000D01*
X112525000Y-77890000D01*
X112525000Y-77910000D01*
X113425000Y-77910000D01*
X113575000Y-77760000D01*
X113577903Y-76760000D01*
X113566318Y-76642379D01*
X113532010Y-76529279D01*
X113476296Y-76425045D01*
X113401317Y-76333683D01*
X113310035Y-76258770D01*
X113317010Y-76245721D01*
X113351318Y-76132621D01*
X113362903Y-76015000D01*
X113360000Y-75815000D01*
X113210000Y-75665000D01*
X112560000Y-75665000D01*
X112560000Y-76275000D01*
X112525002Y-76309998D01*
X112525002Y-76160000D01*
X112460000Y-76160000D01*
X112460000Y-75665000D01*
X112390000Y-75665000D01*
X112390000Y-75465000D01*
X112460000Y-75465000D01*
X112460000Y-74665000D01*
X112560000Y-74665000D01*
X112560000Y-75465000D01*
X113210000Y-75465000D01*
X113360000Y-75315000D01*
X113362903Y-75115000D01*
X113351318Y-74997379D01*
X113317010Y-74884279D01*
X113261296Y-74780045D01*
X113186317Y-74688683D01*
X113094955Y-74613704D01*
X112990721Y-74557990D01*
X112877621Y-74523682D01*
X112760000Y-74512097D01*
X112710000Y-74515000D01*
X112560000Y-74665000D01*
X112460000Y-74665000D01*
X112310000Y-74515000D01*
X112260000Y-74512097D01*
X112142379Y-74523682D01*
X112029279Y-74557990D01*
X111925045Y-74613704D01*
X111833683Y-74688683D01*
X111824682Y-74699650D01*
X111757370Y-74617630D01*
X111650781Y-74530155D01*
X111529175Y-74465155D01*
X111397224Y-74425128D01*
X111260000Y-74411613D01*
X110760000Y-74411613D01*
X110622776Y-74425128D01*
X110490825Y-74465155D01*
X110416864Y-74504688D01*
X110217341Y-74465000D01*
X110000659Y-74465000D01*
X109893692Y-74486277D01*
X109854175Y-74465155D01*
X109722224Y-74425128D01*
X109585000Y-74411613D01*
X109085000Y-74411613D01*
X108947776Y-74425128D01*
X108815825Y-74465155D01*
X108694219Y-74530155D01*
X108587630Y-74617630D01*
X108585000Y-74620835D01*
X108582370Y-74617630D01*
X108475781Y-74530155D01*
X108354175Y-74465155D01*
X108222224Y-74425128D01*
X108085000Y-74411613D01*
X107585000Y-74411613D01*
X107447776Y-74425128D01*
X107315825Y-74465155D01*
X107194219Y-74530155D01*
X107087630Y-74617630D01*
X107000155Y-74724219D01*
X106935155Y-74845825D01*
X106895128Y-74977776D01*
X106881613Y-75115000D01*
X106881613Y-76015000D01*
X106885711Y-76056613D01*
X105875000Y-76056613D01*
X105737776Y-76070128D01*
X105605825Y-76110155D01*
X105484219Y-76175155D01*
X105425000Y-76223755D01*
X105365781Y-76175155D01*
X105244175Y-76110155D01*
X105112224Y-76070128D01*
X104975000Y-76056613D01*
X103875000Y-76056613D01*
X103737776Y-76070128D01*
X103605825Y-76110155D01*
X103484219Y-76175155D01*
X103425000Y-76223755D01*
X103365781Y-76175155D01*
X103244175Y-76110155D01*
X103112224Y-76070128D01*
X102975000Y-76056613D01*
X101875000Y-76056613D01*
X101737776Y-76070128D01*
X101605825Y-76110155D01*
X101484219Y-76175155D01*
X101425000Y-76223755D01*
X101365781Y-76175155D01*
X101244175Y-76110155D01*
X101112224Y-76070128D01*
X100975000Y-76056613D01*
X99875000Y-76056613D01*
X99737776Y-76070128D01*
X99605825Y-76110155D01*
X99484219Y-76175155D01*
X99425000Y-76223755D01*
X99365781Y-76175155D01*
X99244175Y-76110155D01*
X99112224Y-76070128D01*
X98975000Y-76056613D01*
X97875000Y-76056613D01*
X97737776Y-76070128D01*
X97605825Y-76110155D01*
X97484219Y-76175155D01*
X97377630Y-76262630D01*
X97290155Y-76369219D01*
X97225155Y-76490825D01*
X97185128Y-76622776D01*
X97171613Y-76760000D01*
X96610000Y-76760000D01*
X96610000Y-73750000D01*
X153721429Y-73750000D01*
X153721429Y-77025000D01*
G37*
X153721429Y-77025000D02*
X163778572Y-77025000D01*
X163778572Y-73750000D01*
X196760001Y-73750000D01*
X196760000Y-97700000D01*
X164600000Y-97700000D01*
X164600000Y-94665000D01*
X152900000Y-94665000D01*
X152900000Y-97700000D01*
X96610000Y-97700000D01*
X96610000Y-76760000D01*
X97171613Y-76760000D01*
X97171613Y-79260000D01*
X97185128Y-79397224D01*
X97225155Y-79529175D01*
X97290155Y-79650781D01*
X97377630Y-79757370D01*
X97484219Y-79844845D01*
X97605825Y-79909845D01*
X97737776Y-79949872D01*
X97875000Y-79963387D01*
X98121595Y-79963387D01*
X103091347Y-84933140D01*
X103119525Y-84967475D01*
X103153860Y-84995653D01*
X103153862Y-84995655D01*
X103179245Y-85016486D01*
X103256568Y-85079943D01*
X103412919Y-85163514D01*
X103582569Y-85214977D01*
X103714793Y-85228000D01*
X103714795Y-85228000D01*
X103758999Y-85232354D01*
X103803203Y-85228000D01*
X104180346Y-85228000D01*
X104181193Y-85230045D01*
X104301575Y-85410209D01*
X104454791Y-85563425D01*
X104634955Y-85683807D01*
X104835142Y-85766727D01*
X105047659Y-85809000D01*
X105264341Y-85809000D01*
X105476858Y-85766727D01*
X105677045Y-85683807D01*
X105857209Y-85563425D01*
X106010425Y-85410209D01*
X106130807Y-85230045D01*
X106213727Y-85029858D01*
X106256000Y-84817341D01*
X106256000Y-84600659D01*
X106244216Y-84541418D01*
X106391425Y-84394209D01*
X106511807Y-84214045D01*
X106594727Y-84013858D01*
X106637000Y-83801341D01*
X106637000Y-83584659D01*
X106635477Y-83577000D01*
X106659366Y-83577000D01*
X106740791Y-83658425D01*
X106920955Y-83778807D01*
X107121142Y-83861727D01*
X107333659Y-83904000D01*
X107550341Y-83904000D01*
X107762858Y-83861727D01*
X107963045Y-83778807D01*
X108143209Y-83658425D01*
X108296425Y-83505209D01*
X108416807Y-83325045D01*
X108499727Y-83124858D01*
X108542000Y-82912341D01*
X108542000Y-82695659D01*
X108499727Y-82483142D01*
X108416807Y-82282955D01*
X108383094Y-82232500D01*
X108416807Y-82182045D01*
X108499727Y-81981858D01*
X108542000Y-81769341D01*
X108542000Y-81552659D01*
X108499727Y-81340142D01*
X108416807Y-81139955D01*
X108296425Y-80959791D01*
X108143209Y-80806575D01*
X107963045Y-80686193D01*
X107762858Y-80603273D01*
X107550341Y-80561000D01*
X107424022Y-80561000D01*
X107400807Y-80504955D01*
X107325000Y-80391502D01*
X107325000Y-79866643D01*
X107365781Y-79844845D01*
X107425000Y-79796245D01*
X107484219Y-79844845D01*
X107605825Y-79909845D01*
X107737776Y-79949872D01*
X107875000Y-79963387D01*
X108975000Y-79963387D01*
X109112224Y-79949872D01*
X109244175Y-79909845D01*
X109365781Y-79844845D01*
X109425000Y-79796245D01*
X109484219Y-79844845D01*
X109605825Y-79909845D01*
X109737776Y-79949872D01*
X109875000Y-79963387D01*
X110975000Y-79963387D01*
X111112224Y-79949872D01*
X111244175Y-79909845D01*
X111365781Y-79844845D01*
X111472370Y-79757370D01*
X111497681Y-79726529D01*
X111540045Y-79761296D01*
X111644279Y-79817010D01*
X111757379Y-79851318D01*
X111875000Y-79862903D01*
X112175000Y-79860000D01*
X112324998Y-79710002D01*
X112324998Y-79736763D01*
X112290155Y-79779219D01*
X112225155Y-79900825D01*
X112185128Y-80032776D01*
X112171613Y-80170000D01*
X112171613Y-81270000D01*
X112185128Y-81407224D01*
X112225155Y-81539175D01*
X112290155Y-81660781D01*
X112338755Y-81720000D01*
X112290155Y-81779219D01*
X112225155Y-81900825D01*
X112185128Y-82032776D01*
X112171613Y-82170000D01*
X112171613Y-83270000D01*
X112185128Y-83407224D01*
X112225155Y-83539175D01*
X112290155Y-83660781D01*
X112338755Y-83720000D01*
X112290155Y-83779219D01*
X112225155Y-83900825D01*
X112185128Y-84032776D01*
X112171613Y-84170000D01*
X112171613Y-85270000D01*
X112185128Y-85407224D01*
X112225155Y-85539175D01*
X112290155Y-85660781D01*
X112338755Y-85720000D01*
X112290155Y-85779219D01*
X112225155Y-85900825D01*
X112185128Y-86032776D01*
X112171613Y-86170000D01*
X112171613Y-87270000D01*
X112185128Y-87407224D01*
X112225155Y-87539175D01*
X112290155Y-87660781D01*
X112338755Y-87720000D01*
X112290155Y-87779219D01*
X112225155Y-87900825D01*
X112185128Y-88032776D01*
X112171613Y-88170000D01*
X112171613Y-89270000D01*
X112185128Y-89407224D01*
X112225155Y-89539175D01*
X112290155Y-89660781D01*
X112338755Y-89720000D01*
X112290155Y-89779219D01*
X112225155Y-89900825D01*
X112185128Y-90032776D01*
X112171613Y-90170000D01*
X112171613Y-91270000D01*
X112185128Y-91407224D01*
X112200110Y-91456613D01*
X111875000Y-91456613D01*
X111737776Y-91470128D01*
X111605825Y-91510155D01*
X111484219Y-91575155D01*
X111425000Y-91623755D01*
X111365781Y-91575155D01*
X111244175Y-91510155D01*
X111112224Y-91470128D01*
X110975000Y-91456613D01*
X109875000Y-91456613D01*
X109737776Y-91470128D01*
X109605825Y-91510155D01*
X109484219Y-91575155D01*
X109425000Y-91623755D01*
X109365781Y-91575155D01*
X109244175Y-91510155D01*
X109112224Y-91470128D01*
X109050000Y-91464000D01*
X109050000Y-91331659D01*
X109007727Y-91119142D01*
X108924807Y-90918955D01*
X108804425Y-90738791D01*
X108651209Y-90585575D01*
X108471045Y-90465193D01*
X108270858Y-90382273D01*
X108058341Y-90340000D01*
X107841659Y-90340000D01*
X107629142Y-90382273D01*
X107428955Y-90465193D01*
X107378500Y-90498906D01*
X107328045Y-90465193D01*
X107127858Y-90382273D01*
X106915341Y-90340000D01*
X106698659Y-90340000D01*
X106486142Y-90382273D01*
X106285955Y-90465193D01*
X106105791Y-90585575D01*
X105952575Y-90738791D01*
X105832193Y-90918955D01*
X105749273Y-91119142D01*
X105707000Y-91331659D01*
X105707000Y-91479464D01*
X105605825Y-91510155D01*
X105484219Y-91575155D01*
X105425000Y-91623755D01*
X105365781Y-91575155D01*
X105244175Y-91510155D01*
X105112224Y-91470128D01*
X104975000Y-91456613D01*
X103875000Y-91456613D01*
X103737776Y-91470128D01*
X103605825Y-91510155D01*
X103484219Y-91575155D01*
X103425000Y-91623755D01*
X103365781Y-91575155D01*
X103244175Y-91510155D01*
X103112224Y-91470128D01*
X102975000Y-91456613D01*
X102475179Y-91456613D01*
X105344796Y-88586996D01*
X105476858Y-88560727D01*
X105677045Y-88477807D01*
X105857209Y-88357425D01*
X106010425Y-88204209D01*
X106130807Y-88024045D01*
X106213727Y-87823858D01*
X106256000Y-87611341D01*
X106256000Y-87394659D01*
X106213727Y-87182142D01*
X106130807Y-86981955D01*
X106010425Y-86801791D01*
X105857209Y-86648575D01*
X105677045Y-86528193D01*
X105476858Y-86445273D01*
X105264341Y-86403000D01*
X105047659Y-86403000D01*
X104835142Y-86445273D01*
X104634955Y-86528193D01*
X104454791Y-86648575D01*
X104301575Y-86801791D01*
X104181193Y-86981955D01*
X104098273Y-87182142D01*
X104072004Y-87314204D01*
X101227208Y-90159000D01*
X99866196Y-90159000D01*
X99821999Y-90154647D01*
X99777802Y-90159000D01*
X99777793Y-90159000D01*
X99645569Y-90172023D01*
X99475919Y-90223486D01*
X99319568Y-90307057D01*
X99182525Y-90419525D01*
X99154345Y-90453863D01*
X98151595Y-91456613D01*
X97875000Y-91456613D01*
X97737776Y-91470128D01*
X97605825Y-91510155D01*
X97484219Y-91575155D01*
X97377630Y-91662630D01*
X97290155Y-91769219D01*
X97225155Y-91890825D01*
X97185128Y-92022776D01*
X97171613Y-92160000D01*
X97171613Y-94660000D01*
X97185128Y-94797224D01*
X97225155Y-94929175D01*
X97290155Y-95050781D01*
X97377630Y-95157370D01*
X97484219Y-95244845D01*
X97605825Y-95309845D01*
X97737776Y-95349872D01*
X97875000Y-95363387D01*
X98975000Y-95363387D01*
X99112224Y-95349872D01*
X99244175Y-95309845D01*
X99365781Y-95244845D01*
X99425000Y-95196245D01*
X99484219Y-95244845D01*
X99605825Y-95309845D01*
X99737776Y-95349872D01*
X99875000Y-95363387D01*
X100975000Y-95363387D01*
X101112224Y-95349872D01*
X101244175Y-95309845D01*
X101365781Y-95244845D01*
X101425000Y-95196245D01*
X101484219Y-95244845D01*
X101525001Y-95266643D01*
X101525001Y-95510784D01*
X101520646Y-95555000D01*
X101538023Y-95731430D01*
X101589487Y-95901081D01*
X101673057Y-96057431D01*
X101757345Y-96160137D01*
X101757348Y-96160140D01*
X101785526Y-96194475D01*
X101801613Y-96207677D01*
X101801613Y-96335000D01*
X101815128Y-96472224D01*
X101855155Y-96604175D01*
X101920155Y-96725781D01*
X102007630Y-96832370D01*
X102114219Y-96919845D01*
X102235825Y-96984845D01*
X102367776Y-97024872D01*
X102505000Y-97038387D01*
X103005000Y-97038387D01*
X103142224Y-97024872D01*
X103274175Y-96984845D01*
X103395781Y-96919845D01*
X103502370Y-96832370D01*
X103505000Y-96829165D01*
X103507630Y-96832370D01*
X103614219Y-96919845D01*
X103735825Y-96984845D01*
X103867776Y-97024872D01*
X104005000Y-97038387D01*
X104505000Y-97038387D01*
X104642224Y-97024872D01*
X104774175Y-96984845D01*
X104895781Y-96919845D01*
X105002370Y-96832370D01*
X105041245Y-96785000D01*
X110735794Y-96785000D01*
X110780000Y-96789354D01*
X110824206Y-96785000D01*
X110824207Y-96785000D01*
X110956431Y-96771977D01*
X111126081Y-96720514D01*
X111282432Y-96636943D01*
X111419475Y-96524475D01*
X111447657Y-96490135D01*
X112366881Y-95570911D01*
X112530465Y-95658349D01*
X112718966Y-95715530D01*
X112915000Y-95734838D01*
X112964120Y-95730000D01*
X116737572Y-95730000D01*
X116830825Y-95779845D01*
X116962776Y-95819872D01*
X117100000Y-95833387D01*
X117850000Y-95833387D01*
X117946613Y-95823872D01*
X117946613Y-96050000D01*
X117960128Y-96187224D01*
X118000155Y-96319175D01*
X118065155Y-96440781D01*
X118152630Y-96547370D01*
X118259219Y-96634845D01*
X118380825Y-96699845D01*
X118512776Y-96739872D01*
X118650000Y-96753387D01*
X119650000Y-96753387D01*
X119787224Y-96739872D01*
X119919175Y-96699845D01*
X120040781Y-96634845D01*
X120147370Y-96547370D01*
X120234845Y-96440781D01*
X120299845Y-96319175D01*
X120339872Y-96187224D01*
X120353387Y-96050000D01*
X121047097Y-96050000D01*
X121058682Y-96167621D01*
X121092990Y-96280721D01*
X121148704Y-96384955D01*
X121223683Y-96476317D01*
X121315045Y-96551296D01*
X121419279Y-96607010D01*
X121532379Y-96641318D01*
X121650000Y-96652903D01*
X121900000Y-96650000D01*
X122050000Y-96500000D01*
X122050000Y-95350000D01*
X121200000Y-95350000D01*
X121050000Y-95500000D01*
X121047097Y-96050000D01*
X120353387Y-96050000D01*
X120353387Y-95460826D01*
X120372368Y-95441845D01*
X120410528Y-95410528D01*
X120535492Y-95258258D01*
X120628349Y-95084535D01*
X120685530Y-94896034D01*
X120693511Y-94815000D01*
X121049024Y-94815000D01*
X121050000Y-95000000D01*
X121200000Y-95150000D01*
X122050000Y-95150000D01*
X122050000Y-95130000D01*
X122250000Y-95130000D01*
X122250000Y-95150000D01*
X122270000Y-95150000D01*
X122270000Y-95350000D01*
X122250000Y-95350000D01*
X122250000Y-96500000D01*
X122400000Y-96650000D01*
X122650000Y-96652903D01*
X122767621Y-96641318D01*
X122880721Y-96607010D01*
X122984955Y-96551296D01*
X123076317Y-96476317D01*
X123151296Y-96384955D01*
X123176876Y-96337098D01*
X123233683Y-96406317D01*
X123325045Y-96481296D01*
X123429279Y-96537010D01*
X123542379Y-96571318D01*
X123660000Y-96582903D01*
X124210000Y-96580000D01*
X124360000Y-96430000D01*
X124360000Y-95580000D01*
X124560000Y-95580000D01*
X124560000Y-96430000D01*
X124710000Y-96580000D01*
X125260000Y-96582903D01*
X125377621Y-96571318D01*
X125490721Y-96537010D01*
X125594955Y-96481296D01*
X125686317Y-96406317D01*
X125761296Y-96314955D01*
X125817010Y-96210721D01*
X125851318Y-96097621D01*
X125862903Y-95980000D01*
X125860407Y-95765000D01*
X126657097Y-95765000D01*
X126668682Y-95882621D01*
X126702990Y-95995721D01*
X126758704Y-96099955D01*
X126833683Y-96191317D01*
X126925045Y-96266296D01*
X127029279Y-96322010D01*
X127142379Y-96356318D01*
X127260000Y-96367903D01*
X127385000Y-96365000D01*
X127535000Y-96215000D01*
X127535000Y-95465000D01*
X126810000Y-95465000D01*
X126660000Y-95615000D01*
X126657097Y-95765000D01*
X125860407Y-95765000D01*
X125860000Y-95730000D01*
X125710000Y-95580000D01*
X124560000Y-95580000D01*
X124360000Y-95580000D01*
X124340000Y-95580000D01*
X124340000Y-95380000D01*
X124360000Y-95380000D01*
X124360000Y-95360000D01*
X124560000Y-95360000D01*
X124560000Y-95380000D01*
X125710000Y-95380000D01*
X125860000Y-95230000D01*
X125862903Y-94980000D01*
X125851318Y-94862379D01*
X125823588Y-94770965D01*
X125865465Y-94793349D01*
X126053966Y-94850530D01*
X126250000Y-94869838D01*
X126299120Y-94865000D01*
X126666946Y-94865000D01*
X126657097Y-94965000D01*
X126660000Y-95115000D01*
X126810000Y-95265000D01*
X127535000Y-95265000D01*
X127535000Y-95245000D01*
X127735000Y-95245000D01*
X127735000Y-95265000D01*
X127755000Y-95265000D01*
X127755000Y-95465000D01*
X127735000Y-95465000D01*
X127735000Y-96215000D01*
X127885000Y-96365000D01*
X128010000Y-96367903D01*
X128127621Y-96356318D01*
X128240721Y-96322010D01*
X128344955Y-96266296D01*
X128436317Y-96191317D01*
X128511296Y-96099955D01*
X128511867Y-96098887D01*
X128530155Y-96159175D01*
X128595155Y-96280781D01*
X128682630Y-96387370D01*
X128789219Y-96474845D01*
X128910825Y-96539845D01*
X129042776Y-96579872D01*
X129180000Y-96593387D01*
X130240000Y-96593387D01*
X130377224Y-96579872D01*
X130509175Y-96539845D01*
X130630781Y-96474845D01*
X130737370Y-96387370D01*
X130742541Y-96381069D01*
X130778919Y-96400514D01*
X130948569Y-96451977D01*
X130963098Y-96453408D01*
X130989219Y-96474845D01*
X131110825Y-96539845D01*
X131242776Y-96579872D01*
X131380000Y-96593387D01*
X132440000Y-96593387D01*
X132577224Y-96579872D01*
X132626250Y-96565000D01*
X133735880Y-96565000D01*
X133785000Y-96569838D01*
X133834120Y-96565000D01*
X133981034Y-96550530D01*
X134169535Y-96493349D01*
X134194509Y-96480000D01*
X135230835Y-96480000D01*
X135334219Y-96564845D01*
X135455825Y-96629845D01*
X135587776Y-96669872D01*
X135725000Y-96683387D01*
X137325000Y-96683387D01*
X137462224Y-96669872D01*
X137594175Y-96629845D01*
X137715781Y-96564845D01*
X137795000Y-96499832D01*
X137874219Y-96564845D01*
X137995825Y-96629845D01*
X138127776Y-96669872D01*
X138265000Y-96683387D01*
X139865000Y-96683387D01*
X140002224Y-96669872D01*
X140134175Y-96629845D01*
X140255781Y-96564845D01*
X140362370Y-96477370D01*
X140399496Y-96432131D01*
X140420155Y-96470781D01*
X140507630Y-96577370D01*
X140614219Y-96664845D01*
X140735825Y-96729845D01*
X140867776Y-96769872D01*
X141005000Y-96783387D01*
X142205000Y-96783387D01*
X142342224Y-96769872D01*
X142474175Y-96729845D01*
X142595781Y-96664845D01*
X142605074Y-96657219D01*
X142681142Y-96688727D01*
X142893659Y-96731000D01*
X143110341Y-96731000D01*
X143322858Y-96688727D01*
X143523045Y-96605807D01*
X143703209Y-96485425D01*
X143856425Y-96332209D01*
X143976807Y-96152045D01*
X144059727Y-95951858D01*
X144102000Y-95739341D01*
X144102000Y-95522659D01*
X144059727Y-95310142D01*
X143976807Y-95109955D01*
X143856425Y-94929791D01*
X143703209Y-94776575D01*
X143523045Y-94656193D01*
X143322858Y-94573273D01*
X143110341Y-94531000D01*
X142893659Y-94531000D01*
X142681142Y-94573273D01*
X142606693Y-94604111D01*
X142595781Y-94595155D01*
X142474175Y-94530155D01*
X142342224Y-94490128D01*
X142205000Y-94476613D01*
X141887600Y-94476613D01*
X142277368Y-94086845D01*
X142315528Y-94055528D01*
X142440492Y-93903258D01*
X142533349Y-93729535D01*
X142551722Y-93668966D01*
X142590530Y-93541035D01*
X142608948Y-93354039D01*
X142702370Y-93277370D01*
X142789845Y-93170781D01*
X142854845Y-93049175D01*
X142894872Y-92917224D01*
X142908387Y-92780000D01*
X142908387Y-91880000D01*
X142894872Y-91742776D01*
X142854845Y-91610825D01*
X142789845Y-91489219D01*
X142702370Y-91382630D01*
X142595781Y-91295155D01*
X142474175Y-91230155D01*
X142342224Y-91190128D01*
X142205000Y-91176613D01*
X141005000Y-91176613D01*
X140867776Y-91190128D01*
X140735825Y-91230155D01*
X140614219Y-91295155D01*
X140507630Y-91382630D01*
X140420155Y-91489219D01*
X140355155Y-91610825D01*
X140350583Y-91625898D01*
X140291317Y-91553683D01*
X140199955Y-91478704D01*
X140095721Y-91422990D01*
X139982621Y-91388682D01*
X139865000Y-91377097D01*
X139315000Y-91380000D01*
X139165000Y-91530000D01*
X139165000Y-92380000D01*
X139185000Y-92380000D01*
X139185000Y-92580000D01*
X139165000Y-92580000D01*
X139165000Y-93430000D01*
X139315000Y-93580000D01*
X139865000Y-93582903D01*
X139962486Y-93573301D01*
X139259175Y-94276613D01*
X138265000Y-94276613D01*
X138127776Y-94290128D01*
X137995825Y-94330155D01*
X137874219Y-94395155D01*
X137795000Y-94460168D01*
X137715781Y-94395155D01*
X137594175Y-94330155D01*
X137462224Y-94290128D01*
X137325000Y-94276613D01*
X135725000Y-94276613D01*
X135587776Y-94290128D01*
X135455825Y-94330155D01*
X135334219Y-94395155D01*
X135230835Y-94480000D01*
X134921779Y-94480000D01*
X134951318Y-94382621D01*
X134962903Y-94265000D01*
X134960000Y-94115000D01*
X134810000Y-93965000D01*
X134085000Y-93965000D01*
X134085000Y-93985000D01*
X133885000Y-93985000D01*
X133885000Y-93965000D01*
X133865000Y-93965000D01*
X133865000Y-93765000D01*
X133885000Y-93765000D01*
X133885000Y-93015000D01*
X134085000Y-93015000D01*
X134085000Y-93765000D01*
X134810000Y-93765000D01*
X134960000Y-93615000D01*
X134962903Y-93465000D01*
X134951318Y-93347379D01*
X134917010Y-93234279D01*
X134861296Y-93130045D01*
X134786317Y-93038683D01*
X134714812Y-92980000D01*
X135122097Y-92980000D01*
X135133682Y-93097621D01*
X135167990Y-93210721D01*
X135223704Y-93314955D01*
X135298683Y-93406317D01*
X135390045Y-93481296D01*
X135494279Y-93537010D01*
X135607379Y-93571318D01*
X135725000Y-93582903D01*
X136275000Y-93580000D01*
X136425000Y-93430000D01*
X136425000Y-92580000D01*
X136625000Y-92580000D01*
X136625000Y-93430000D01*
X136775000Y-93580000D01*
X137325000Y-93582903D01*
X137442621Y-93571318D01*
X137555721Y-93537010D01*
X137659955Y-93481296D01*
X137751317Y-93406317D01*
X137795000Y-93353089D01*
X137838683Y-93406317D01*
X137930045Y-93481296D01*
X138034279Y-93537010D01*
X138147379Y-93571318D01*
X138265000Y-93582903D01*
X138815000Y-93580000D01*
X138965000Y-93430000D01*
X138965000Y-92580000D01*
X137815000Y-92580000D01*
X137795000Y-92600000D01*
X137775000Y-92580000D01*
X136625000Y-92580000D01*
X136425000Y-92580000D01*
X135275000Y-92580000D01*
X135125000Y-92730000D01*
X135122097Y-92980000D01*
X134714812Y-92980000D01*
X134694955Y-92963704D01*
X134590721Y-92907990D01*
X134477621Y-92873682D01*
X134360000Y-92862097D01*
X134235000Y-92865000D01*
X134085000Y-93015000D01*
X133885000Y-93015000D01*
X133735000Y-92865000D01*
X133610000Y-92862097D01*
X133492379Y-92873682D01*
X133379279Y-92907990D01*
X133275045Y-92963704D01*
X133183683Y-93038683D01*
X133108704Y-93130045D01*
X133108133Y-93131113D01*
X133089845Y-93070825D01*
X133024845Y-92949219D01*
X132937370Y-92842630D01*
X132830781Y-92755155D01*
X132709175Y-92690155D01*
X132577224Y-92650128D01*
X132460000Y-92638583D01*
X132460000Y-92158664D01*
X132499872Y-92027224D01*
X132504523Y-91980000D01*
X135122097Y-91980000D01*
X135125000Y-92230000D01*
X135275000Y-92380000D01*
X136425000Y-92380000D01*
X136425000Y-91530000D01*
X136625000Y-91530000D01*
X136625000Y-92380000D01*
X137775000Y-92380000D01*
X137795000Y-92360000D01*
X137815000Y-92380000D01*
X138965000Y-92380000D01*
X138965000Y-91530000D01*
X138815000Y-91380000D01*
X138265000Y-91377097D01*
X138147379Y-91388682D01*
X138034279Y-91422990D01*
X137930045Y-91478704D01*
X137838683Y-91553683D01*
X137795000Y-91606911D01*
X137751317Y-91553683D01*
X137659955Y-91478704D01*
X137555721Y-91422990D01*
X137442621Y-91388682D01*
X137325000Y-91377097D01*
X136775000Y-91380000D01*
X136625000Y-91530000D01*
X136425000Y-91530000D01*
X136275000Y-91380000D01*
X135725000Y-91377097D01*
X135607379Y-91388682D01*
X135494279Y-91422990D01*
X135390045Y-91478704D01*
X135298683Y-91553683D01*
X135223704Y-91645045D01*
X135167990Y-91749279D01*
X135133682Y-91862379D01*
X135122097Y-91980000D01*
X132504523Y-91980000D01*
X132513387Y-91890000D01*
X132513387Y-91043000D01*
X133022880Y-91043000D01*
X133072000Y-91047838D01*
X133121120Y-91043000D01*
X133268034Y-91028530D01*
X133456535Y-90971349D01*
X133630258Y-90878492D01*
X133782528Y-90753528D01*
X133813849Y-90715363D01*
X134619212Y-89910000D01*
X138582097Y-89910000D01*
X138593682Y-90027621D01*
X138627990Y-90140721D01*
X138683704Y-90244955D01*
X138758683Y-90336317D01*
X138850045Y-90411296D01*
X138954279Y-90467010D01*
X139067379Y-90501318D01*
X139185000Y-90512903D01*
X139335000Y-90510000D01*
X139485000Y-90360000D01*
X139485000Y-89635000D01*
X138735000Y-89635000D01*
X138585000Y-89785000D01*
X138582097Y-89910000D01*
X134619212Y-89910000D01*
X135369212Y-89160000D01*
X138582097Y-89160000D01*
X138585000Y-89285000D01*
X138735000Y-89435000D01*
X139485000Y-89435000D01*
X139485000Y-88710000D01*
X139335000Y-88560000D01*
X139185000Y-88557097D01*
X139067379Y-88568682D01*
X138954279Y-88602990D01*
X138850045Y-88658704D01*
X138758683Y-88733683D01*
X138683704Y-88825045D01*
X138627990Y-88929279D01*
X138593682Y-89042379D01*
X138582097Y-89160000D01*
X135369212Y-89160000D01*
X136100826Y-88428387D01*
X136690000Y-88428387D01*
X136827224Y-88414872D01*
X136959175Y-88374845D01*
X137080781Y-88309845D01*
X137187370Y-88222370D01*
X137274845Y-88115781D01*
X137339845Y-87994175D01*
X137379872Y-87862224D01*
X137393387Y-87725000D01*
X137393387Y-87612073D01*
X137510825Y-87674845D01*
X137642776Y-87714872D01*
X137780000Y-87728387D01*
X139080000Y-87728387D01*
X139217224Y-87714872D01*
X139348664Y-87675000D01*
X139466613Y-87675000D01*
X139466613Y-87725000D01*
X139480128Y-87862224D01*
X139520155Y-87994175D01*
X139585155Y-88115781D01*
X139672630Y-88222370D01*
X139779219Y-88309845D01*
X139900825Y-88374845D01*
X139970001Y-88395829D01*
X139970001Y-88557387D01*
X139835000Y-88560000D01*
X139685000Y-88710000D01*
X139685000Y-89435000D01*
X139705000Y-89435000D01*
X139705000Y-89635000D01*
X139685000Y-89635000D01*
X139685000Y-90360000D01*
X139835000Y-90510000D01*
X139985000Y-90512903D01*
X140102621Y-90501318D01*
X140215721Y-90467010D01*
X140242718Y-90452580D01*
X140294219Y-90494845D01*
X140415825Y-90559845D01*
X140547776Y-90599872D01*
X140685000Y-90613387D01*
X141485000Y-90613387D01*
X141622224Y-90599872D01*
X141674277Y-90584082D01*
X141742630Y-90667370D01*
X141849219Y-90754845D01*
X141970825Y-90819845D01*
X142102776Y-90859872D01*
X142240000Y-90873387D01*
X146050000Y-90873387D01*
X146187224Y-90859872D01*
X146319175Y-90819845D01*
X146440781Y-90754845D01*
X146547370Y-90667370D01*
X146596503Y-90607502D01*
X146618413Y-90598426D01*
X146814955Y-90467101D01*
X146982101Y-90299955D01*
X147113426Y-90103413D01*
X147203884Y-89885027D01*
X147250000Y-89653190D01*
X147250000Y-89416810D01*
X147203884Y-89184973D01*
X147113426Y-88966587D01*
X146982101Y-88770045D01*
X146814955Y-88602899D01*
X146618413Y-88471574D01*
X146596503Y-88462498D01*
X146547370Y-88402630D01*
X146440781Y-88315155D01*
X146346948Y-88265000D01*
X146440781Y-88214845D01*
X146547370Y-88127370D01*
X146596503Y-88067502D01*
X146618413Y-88058426D01*
X146814955Y-87927101D01*
X146982101Y-87759955D01*
X147113426Y-87563413D01*
X147203884Y-87345027D01*
X147250000Y-87113190D01*
X147250000Y-86876810D01*
X147203884Y-86644973D01*
X147192442Y-86617350D01*
X148814137Y-84995655D01*
X148848475Y-84967475D01*
X148960943Y-84830432D01*
X148980951Y-84793000D01*
X149044514Y-84674082D01*
X149095977Y-84504431D01*
X149113354Y-84328000D01*
X149109000Y-84283793D01*
X149109000Y-80943196D01*
X149113353Y-80898999D01*
X149109000Y-80854802D01*
X149109000Y-80854793D01*
X149095977Y-80722569D01*
X149044514Y-80552919D01*
X148960943Y-80396568D01*
X148848475Y-80259525D01*
X148814135Y-80231343D01*
X147839602Y-79256810D01*
X170250000Y-79256810D01*
X170250000Y-79493190D01*
X170296116Y-79725027D01*
X170386574Y-79943413D01*
X170517899Y-80139955D01*
X170685045Y-80307101D01*
X170881587Y-80438426D01*
X170903497Y-80447502D01*
X170952630Y-80507370D01*
X171059219Y-80594845D01*
X171153052Y-80645000D01*
X171059219Y-80695155D01*
X170952630Y-80782630D01*
X170903497Y-80842498D01*
X170881587Y-80851574D01*
X170685045Y-80982899D01*
X170517899Y-81150045D01*
X170386574Y-81346587D01*
X170296116Y-81564973D01*
X170250000Y-81796810D01*
X170250000Y-82033190D01*
X170296116Y-82265027D01*
X170386574Y-82483413D01*
X170517899Y-82679955D01*
X170685045Y-82847101D01*
X170881587Y-82978426D01*
X170903497Y-82987502D01*
X170952630Y-83047370D01*
X171059219Y-83134845D01*
X171153052Y-83185000D01*
X171059219Y-83235155D01*
X170952630Y-83322630D01*
X170903497Y-83382498D01*
X170881587Y-83391574D01*
X170685045Y-83522899D01*
X170517899Y-83690045D01*
X170386574Y-83886587D01*
X170296116Y-84104973D01*
X170250000Y-84336810D01*
X170250000Y-84573190D01*
X170296116Y-84805027D01*
X170386574Y-85023413D01*
X170517899Y-85219955D01*
X170685045Y-85387101D01*
X170881587Y-85518426D01*
X170903497Y-85527502D01*
X170952630Y-85587370D01*
X171059219Y-85674845D01*
X171153052Y-85725000D01*
X171059219Y-85775155D01*
X170952630Y-85862630D01*
X170903497Y-85922498D01*
X170881587Y-85931574D01*
X170685045Y-86062899D01*
X170517899Y-86230045D01*
X170386574Y-86426587D01*
X170296116Y-86644973D01*
X170250000Y-86876810D01*
X170250000Y-87113190D01*
X170296116Y-87345027D01*
X170386574Y-87563413D01*
X170517899Y-87759955D01*
X170685045Y-87927101D01*
X170881587Y-88058426D01*
X170903497Y-88067502D01*
X170952630Y-88127370D01*
X171059219Y-88214845D01*
X171153052Y-88265000D01*
X171059219Y-88315155D01*
X170952630Y-88402630D01*
X170903497Y-88462498D01*
X170881587Y-88471574D01*
X170685045Y-88602899D01*
X170517899Y-88770045D01*
X170386574Y-88966587D01*
X170296116Y-89184973D01*
X170250000Y-89416810D01*
X170250000Y-89653190D01*
X170296116Y-89885027D01*
X170386574Y-90103413D01*
X170517899Y-90299955D01*
X170685045Y-90467101D01*
X170881587Y-90598426D01*
X170903497Y-90607502D01*
X170952630Y-90667370D01*
X171059219Y-90754845D01*
X171153052Y-90805000D01*
X171059219Y-90855155D01*
X170952630Y-90942630D01*
X170903497Y-91002498D01*
X170881587Y-91011574D01*
X170685045Y-91142899D01*
X170517899Y-91310045D01*
X170386574Y-91506587D01*
X170296116Y-91724973D01*
X170250000Y-91956810D01*
X170250000Y-92193190D01*
X170296116Y-92425027D01*
X170386574Y-92643413D01*
X170517899Y-92839955D01*
X170685045Y-93007101D01*
X170881587Y-93138426D01*
X170903497Y-93147502D01*
X170952630Y-93207370D01*
X171059219Y-93294845D01*
X171180825Y-93359845D01*
X171312776Y-93399872D01*
X171450000Y-93413387D01*
X175260000Y-93413387D01*
X175397224Y-93399872D01*
X175529175Y-93359845D01*
X175650781Y-93294845D01*
X175757370Y-93207370D01*
X175844845Y-93100781D01*
X175909845Y-92979175D01*
X175949872Y-92847224D01*
X175963387Y-92710000D01*
X175963387Y-91440000D01*
X175949872Y-91302776D01*
X175909845Y-91170825D01*
X175844845Y-91049219D01*
X175757370Y-90942630D01*
X175650781Y-90855155D01*
X175556948Y-90805000D01*
X175650781Y-90754845D01*
X175757370Y-90667370D01*
X175844845Y-90560781D01*
X175909845Y-90439175D01*
X175949872Y-90307224D01*
X175963387Y-90170000D01*
X175963387Y-88900000D01*
X175949872Y-88762776D01*
X175909845Y-88630825D01*
X175844845Y-88509219D01*
X175757370Y-88402630D01*
X175650781Y-88315155D01*
X175556948Y-88265000D01*
X175650781Y-88214845D01*
X175757370Y-88127370D01*
X175844845Y-88020781D01*
X175909845Y-87899175D01*
X175949872Y-87767224D01*
X175963387Y-87630000D01*
X175963387Y-86360000D01*
X175949872Y-86222776D01*
X175909845Y-86090825D01*
X175844845Y-85969219D01*
X175757370Y-85862630D01*
X175650781Y-85775155D01*
X175556948Y-85725000D01*
X175650781Y-85674845D01*
X175757370Y-85587370D01*
X175844845Y-85480781D01*
X175909845Y-85359175D01*
X175949872Y-85227224D01*
X175963387Y-85090000D01*
X175963387Y-83820000D01*
X175949872Y-83682776D01*
X175909845Y-83550825D01*
X175844845Y-83429219D01*
X175757370Y-83322630D01*
X175650781Y-83235155D01*
X175556948Y-83185000D01*
X175650781Y-83134845D01*
X175757370Y-83047370D01*
X175844845Y-82940781D01*
X175909845Y-82819175D01*
X175949872Y-82687224D01*
X175963387Y-82550000D01*
X175963387Y-81280000D01*
X175949872Y-81142776D01*
X175909845Y-81010825D01*
X175844845Y-80889219D01*
X175757370Y-80782630D01*
X175650781Y-80695155D01*
X175556948Y-80645000D01*
X175650781Y-80594845D01*
X175757370Y-80507370D01*
X175844845Y-80400781D01*
X175909845Y-80279175D01*
X175949872Y-80147224D01*
X175963387Y-80010000D01*
X175963387Y-78740000D01*
X177096613Y-78740000D01*
X177096613Y-82550000D01*
X177110128Y-82687224D01*
X177150155Y-82819175D01*
X177215155Y-82940781D01*
X177302630Y-83047370D01*
X177409219Y-83134845D01*
X177530825Y-83199845D01*
X177535001Y-83201112D01*
X177535000Y-88248888D01*
X177530825Y-88250155D01*
X177409219Y-88315155D01*
X177302630Y-88402630D01*
X177215155Y-88509219D01*
X177150155Y-88630825D01*
X177110128Y-88762776D01*
X177096613Y-88900000D01*
X177096613Y-92710000D01*
X177110128Y-92847224D01*
X177150155Y-92979175D01*
X177215155Y-93100781D01*
X177302630Y-93207370D01*
X177409219Y-93294845D01*
X177530825Y-93359845D01*
X177662776Y-93399872D01*
X177800000Y-93413387D01*
X179070000Y-93413387D01*
X179207224Y-93399872D01*
X179339175Y-93359845D01*
X179387500Y-93334015D01*
X179435825Y-93359845D01*
X179567776Y-93399872D01*
X179705000Y-93413387D01*
X180975000Y-93413387D01*
X181112224Y-93399872D01*
X181244175Y-93359845D01*
X181292500Y-93334015D01*
X181340825Y-93359845D01*
X181472776Y-93399872D01*
X181610000Y-93413387D01*
X182880000Y-93413387D01*
X183017224Y-93399872D01*
X183149175Y-93359845D01*
X183270781Y-93294845D01*
X183377370Y-93207370D01*
X183464845Y-93100781D01*
X183529845Y-92979175D01*
X183569872Y-92847224D01*
X183583387Y-92710000D01*
X183583387Y-89469406D01*
X183887793Y-89165000D01*
X184412208Y-89165000D01*
X184716613Y-89469405D01*
X184716613Y-92710000D01*
X184730128Y-92847224D01*
X184770155Y-92979175D01*
X184835155Y-93100781D01*
X184922630Y-93207370D01*
X185029219Y-93294845D01*
X185150825Y-93359845D01*
X185282776Y-93399872D01*
X185420000Y-93413387D01*
X186690000Y-93413387D01*
X186827224Y-93399872D01*
X186959175Y-93359845D01*
X187007500Y-93334015D01*
X187055825Y-93359845D01*
X187187776Y-93399872D01*
X187325000Y-93413387D01*
X188595000Y-93413387D01*
X188732224Y-93399872D01*
X188864175Y-93359845D01*
X188912500Y-93334015D01*
X188960825Y-93359845D01*
X189092776Y-93399872D01*
X189230000Y-93413387D01*
X190500000Y-93413387D01*
X190637224Y-93399872D01*
X190769175Y-93359845D01*
X190890781Y-93294845D01*
X190997370Y-93207370D01*
X191084845Y-93100781D01*
X191149845Y-92979175D01*
X191189872Y-92847224D01*
X191203387Y-92710000D01*
X191203387Y-88900000D01*
X191189872Y-88762776D01*
X191149845Y-88630825D01*
X191084845Y-88509219D01*
X190997370Y-88402630D01*
X190890781Y-88315155D01*
X190769175Y-88250155D01*
X190765000Y-88248889D01*
X190765000Y-85979000D01*
X191066613Y-85979000D01*
X191066613Y-87249000D01*
X191080128Y-87386224D01*
X191120155Y-87518175D01*
X191185155Y-87639781D01*
X191272630Y-87746370D01*
X191379219Y-87833845D01*
X191500825Y-87898845D01*
X191632776Y-87938872D01*
X191770000Y-87952387D01*
X192575000Y-87952387D01*
X192575000Y-88119341D01*
X192617273Y-88331858D01*
X192700193Y-88532045D01*
X192820575Y-88712209D01*
X192973791Y-88865425D01*
X193153955Y-88985807D01*
X193354142Y-89068727D01*
X193566659Y-89111000D01*
X193783341Y-89111000D01*
X193995858Y-89068727D01*
X194196045Y-88985807D01*
X194376209Y-88865425D01*
X194529425Y-88712209D01*
X194649807Y-88532045D01*
X194732727Y-88331858D01*
X194775000Y-88119341D01*
X194775000Y-87952387D01*
X195580000Y-87952387D01*
X195717224Y-87938872D01*
X195849175Y-87898845D01*
X195970781Y-87833845D01*
X196077370Y-87746370D01*
X196164845Y-87639781D01*
X196229845Y-87518175D01*
X196269872Y-87386224D01*
X196283387Y-87249000D01*
X196283387Y-85979000D01*
X196269872Y-85841776D01*
X196229845Y-85709825D01*
X196164845Y-85588219D01*
X196141532Y-85559812D01*
X196171318Y-85461621D01*
X196182903Y-85344000D01*
X196180000Y-84959000D01*
X196030000Y-84809000D01*
X193775000Y-84809000D01*
X193775000Y-84829000D01*
X193575000Y-84829000D01*
X193575000Y-84809000D01*
X191320000Y-84809000D01*
X191170000Y-84959000D01*
X191167097Y-85344000D01*
X191178682Y-85461621D01*
X191208468Y-85559812D01*
X191185155Y-85588219D01*
X191120155Y-85709825D01*
X191080128Y-85841776D01*
X191066613Y-85979000D01*
X190765000Y-85979000D01*
X190765000Y-84074000D01*
X191167097Y-84074000D01*
X191170000Y-84459000D01*
X191320000Y-84609000D01*
X193575000Y-84609000D01*
X193575000Y-83624000D01*
X193775000Y-83624000D01*
X193775000Y-84609000D01*
X196030000Y-84609000D01*
X196180000Y-84459000D01*
X196182903Y-84074000D01*
X196171318Y-83956379D01*
X196137010Y-83843279D01*
X196081296Y-83739045D01*
X196006317Y-83647683D01*
X195914955Y-83572704D01*
X195810721Y-83516990D01*
X195697621Y-83482682D01*
X195580000Y-83471097D01*
X193925000Y-83474000D01*
X193775000Y-83624000D01*
X193575000Y-83624000D01*
X193425000Y-83474000D01*
X191770000Y-83471097D01*
X191652379Y-83482682D01*
X191539279Y-83516990D01*
X191435045Y-83572704D01*
X191343683Y-83647683D01*
X191268704Y-83739045D01*
X191212990Y-83843279D01*
X191178682Y-83956379D01*
X191167097Y-84074000D01*
X190765000Y-84074000D01*
X190765000Y-83201111D01*
X190769175Y-83199845D01*
X190890781Y-83134845D01*
X190997370Y-83047370D01*
X191084845Y-82940781D01*
X191149845Y-82819175D01*
X191189872Y-82687224D01*
X191203387Y-82550000D01*
X191203387Y-78740000D01*
X191189872Y-78602776D01*
X191149845Y-78470825D01*
X191084845Y-78349219D01*
X190997370Y-78242630D01*
X190890781Y-78155155D01*
X190769175Y-78090155D01*
X190637224Y-78050128D01*
X190500000Y-78036613D01*
X189230000Y-78036613D01*
X189092776Y-78050128D01*
X188960825Y-78090155D01*
X188912500Y-78115985D01*
X188864175Y-78090155D01*
X188732224Y-78050128D01*
X188595000Y-78036613D01*
X187325000Y-78036613D01*
X187187776Y-78050128D01*
X187055825Y-78090155D01*
X187007500Y-78115985D01*
X186959175Y-78090155D01*
X186827224Y-78050128D01*
X186690000Y-78036613D01*
X185420000Y-78036613D01*
X185282776Y-78050128D01*
X185150825Y-78090155D01*
X185029219Y-78155155D01*
X184922630Y-78242630D01*
X184835155Y-78349219D01*
X184770155Y-78470825D01*
X184730128Y-78602776D01*
X184716613Y-78740000D01*
X184716613Y-81980595D01*
X184412208Y-82285000D01*
X183887793Y-82285000D01*
X183583387Y-81980594D01*
X183583387Y-78740000D01*
X183569872Y-78602776D01*
X183529845Y-78470825D01*
X183464845Y-78349219D01*
X183377370Y-78242630D01*
X183270781Y-78155155D01*
X183149175Y-78090155D01*
X183017224Y-78050128D01*
X182880000Y-78036613D01*
X181610000Y-78036613D01*
X181472776Y-78050128D01*
X181340825Y-78090155D01*
X181292500Y-78115985D01*
X181244175Y-78090155D01*
X181112224Y-78050128D01*
X180975000Y-78036613D01*
X179705000Y-78036613D01*
X179567776Y-78050128D01*
X179435825Y-78090155D01*
X179387500Y-78115985D01*
X179339175Y-78090155D01*
X179207224Y-78050128D01*
X179070000Y-78036613D01*
X177800000Y-78036613D01*
X177662776Y-78050128D01*
X177530825Y-78090155D01*
X177409219Y-78155155D01*
X177302630Y-78242630D01*
X177215155Y-78349219D01*
X177150155Y-78470825D01*
X177110128Y-78602776D01*
X177096613Y-78740000D01*
X175963387Y-78740000D01*
X175949872Y-78602776D01*
X175909845Y-78470825D01*
X175844845Y-78349219D01*
X175757370Y-78242630D01*
X175650781Y-78155155D01*
X175529175Y-78090155D01*
X175397224Y-78050128D01*
X175260000Y-78036613D01*
X171450000Y-78036613D01*
X171312776Y-78050128D01*
X171180825Y-78090155D01*
X171059219Y-78155155D01*
X170952630Y-78242630D01*
X170903497Y-78302498D01*
X170881587Y-78311574D01*
X170685045Y-78442899D01*
X170517899Y-78610045D01*
X170386574Y-78806587D01*
X170296116Y-79024973D01*
X170250000Y-79256810D01*
X147839602Y-79256810D01*
X146463657Y-77880865D01*
X146435475Y-77846525D01*
X146298432Y-77734057D01*
X146142081Y-77650486D01*
X145972431Y-77599023D01*
X145840207Y-77586000D01*
X145840206Y-77586000D01*
X145796000Y-77581646D01*
X145751794Y-77586000D01*
X144136792Y-77586000D01*
X143943387Y-77392595D01*
X143943387Y-77020000D01*
X143929872Y-76882776D01*
X143889845Y-76750825D01*
X143824845Y-76629219D01*
X143737370Y-76522630D01*
X143630781Y-76435155D01*
X143509175Y-76370155D01*
X143377224Y-76330128D01*
X143240000Y-76316613D01*
X142740000Y-76316613D01*
X142602776Y-76330128D01*
X142470825Y-76370155D01*
X142349219Y-76435155D01*
X142242630Y-76522630D01*
X142240000Y-76525835D01*
X142237370Y-76522630D01*
X142130781Y-76435155D01*
X142009175Y-76370155D01*
X141877224Y-76330128D01*
X141740000Y-76316613D01*
X141240000Y-76316613D01*
X141102776Y-76330128D01*
X140970825Y-76370155D01*
X140849219Y-76435155D01*
X140742630Y-76522630D01*
X140655155Y-76629219D01*
X140590155Y-76750825D01*
X140550128Y-76882776D01*
X140536613Y-77020000D01*
X140536613Y-77392595D01*
X139856865Y-78072343D01*
X139822525Y-78100525D01*
X139710057Y-78237569D01*
X139626486Y-78393920D01*
X139583927Y-78534219D01*
X139575023Y-78563570D01*
X139557646Y-78740000D01*
X139558377Y-78747421D01*
X139487193Y-78853955D01*
X139404273Y-79054142D01*
X139362000Y-79266659D01*
X139362000Y-79483341D01*
X139404273Y-79695858D01*
X139487193Y-79896045D01*
X139607575Y-80076209D01*
X139754784Y-80223418D01*
X139743000Y-80282659D01*
X139743000Y-80499341D01*
X139785273Y-80711858D01*
X139868193Y-80912045D01*
X139988575Y-81092209D01*
X140141791Y-81245425D01*
X140321955Y-81365807D01*
X140522142Y-81448727D01*
X140734659Y-81491000D01*
X140951341Y-81491000D01*
X141163858Y-81448727D01*
X141364045Y-81365807D01*
X141544209Y-81245425D01*
X141658012Y-81131622D01*
X141648682Y-81162379D01*
X141637097Y-81280000D01*
X141640000Y-81665000D01*
X141790000Y-81815000D01*
X144045000Y-81815000D01*
X144045000Y-80830000D01*
X143895000Y-80680000D01*
X142240000Y-80677097D01*
X142122379Y-80688682D01*
X142009279Y-80722990D01*
X141905045Y-80778704D01*
X141856555Y-80818499D01*
X141900727Y-80711858D01*
X141926996Y-80579797D01*
X142058098Y-80448695D01*
X142130781Y-80409845D01*
X142237370Y-80322370D01*
X142240000Y-80319165D01*
X142242630Y-80322370D01*
X142349219Y-80409845D01*
X142470825Y-80474845D01*
X142602776Y-80514872D01*
X142740000Y-80528387D01*
X143240000Y-80528387D01*
X143377224Y-80514872D01*
X143509175Y-80474845D01*
X143630781Y-80409845D01*
X143737370Y-80322370D01*
X143776245Y-80275000D01*
X145042208Y-80275000D01*
X145445366Y-80678158D01*
X144395000Y-80680000D01*
X144245000Y-80830000D01*
X144245000Y-81815000D01*
X144265000Y-81815000D01*
X144265000Y-82015000D01*
X144245000Y-82015000D01*
X144245000Y-82035000D01*
X144045000Y-82035000D01*
X144045000Y-82015000D01*
X141790000Y-82015000D01*
X141640000Y-82165000D01*
X141637097Y-82550000D01*
X141648682Y-82667621D01*
X141682990Y-82780721D01*
X141738704Y-82884955D01*
X141813683Y-82976317D01*
X141905045Y-83051296D01*
X142009279Y-83107010D01*
X142094133Y-83132750D01*
X141989341Y-83164538D01*
X141887621Y-83133682D01*
X141770000Y-83122097D01*
X141220000Y-83125000D01*
X141070000Y-83275000D01*
X141070000Y-84125000D01*
X141090000Y-84125000D01*
X141090000Y-84325000D01*
X141070000Y-84325000D01*
X141070000Y-85175000D01*
X141220000Y-85325000D01*
X141580365Y-85326902D01*
X141590155Y-85359175D01*
X141655155Y-85480781D01*
X141742630Y-85587370D01*
X141849219Y-85674845D01*
X141943052Y-85725000D01*
X141849219Y-85775155D01*
X141742630Y-85862630D01*
X141655155Y-85969219D01*
X141627150Y-86021613D01*
X141180825Y-86021613D01*
X141161849Y-86002636D01*
X141130528Y-85964472D01*
X140978258Y-85839508D01*
X140804535Y-85746651D01*
X140616034Y-85689470D01*
X140469120Y-85675000D01*
X140420000Y-85670162D01*
X140370880Y-85675000D01*
X139513240Y-85675000D01*
X139577370Y-85622370D01*
X139664845Y-85515781D01*
X139729845Y-85394175D01*
X139769872Y-85262224D01*
X139778020Y-85179496D01*
X139835045Y-85226296D01*
X139939279Y-85282010D01*
X140052379Y-85316318D01*
X140170000Y-85327903D01*
X140720000Y-85325000D01*
X140870000Y-85175000D01*
X140870000Y-84325000D01*
X140850000Y-84325000D01*
X140850000Y-84125000D01*
X140870000Y-84125000D01*
X140870000Y-83275000D01*
X140720000Y-83125000D01*
X140170000Y-83122097D01*
X140052379Y-83133682D01*
X139939279Y-83167990D01*
X139835045Y-83223704D01*
X139743683Y-83298683D01*
X139668704Y-83390045D01*
X139612990Y-83494279D01*
X139578682Y-83607379D01*
X139567097Y-83725000D01*
X139569374Y-83921068D01*
X139470781Y-83840155D01*
X139430000Y-83818357D01*
X139430000Y-82472120D01*
X139434838Y-82423000D01*
X139415530Y-82226966D01*
X139358349Y-82038465D01*
X139265492Y-81864742D01*
X139243079Y-81837432D01*
X139140528Y-81712472D01*
X139102368Y-81681155D01*
X136353849Y-78932637D01*
X136322528Y-78894472D01*
X136170258Y-78769508D01*
X135996535Y-78676651D01*
X135808034Y-78619470D01*
X135712342Y-78610045D01*
X135612000Y-78600162D01*
X135562880Y-78605000D01*
X135279165Y-78605000D01*
X135175781Y-78520155D01*
X135054175Y-78455155D01*
X134922224Y-78415128D01*
X134785000Y-78401613D01*
X133185000Y-78401613D01*
X133047776Y-78415128D01*
X132915825Y-78455155D01*
X132794219Y-78520155D01*
X132775169Y-78535789D01*
X132744845Y-78435825D01*
X132679845Y-78314219D01*
X132592370Y-78207630D01*
X132485781Y-78120155D01*
X132457428Y-78105000D01*
X132485781Y-78089845D01*
X132592370Y-78002370D01*
X132679845Y-77895781D01*
X132744845Y-77774175D01*
X132784872Y-77642224D01*
X132793020Y-77559496D01*
X132850045Y-77606296D01*
X132954279Y-77662010D01*
X133067379Y-77696318D01*
X133185000Y-77707903D01*
X133735000Y-77705000D01*
X133885000Y-77555000D01*
X133885000Y-76705000D01*
X134085000Y-76705000D01*
X134085000Y-77555000D01*
X134235000Y-77705000D01*
X134785000Y-77707903D01*
X134902621Y-77696318D01*
X135015721Y-77662010D01*
X135119955Y-77606296D01*
X135211317Y-77531317D01*
X135286296Y-77439955D01*
X135342010Y-77335721D01*
X135376318Y-77222621D01*
X135387903Y-77105000D01*
X135385000Y-76855000D01*
X135235000Y-76705000D01*
X134085000Y-76705000D01*
X133885000Y-76705000D01*
X133865000Y-76705000D01*
X133865000Y-76505000D01*
X133885000Y-76505000D01*
X133885000Y-75655000D01*
X134085000Y-75655000D01*
X134085000Y-76505000D01*
X135235000Y-76505000D01*
X135385000Y-76355000D01*
X135387903Y-76105000D01*
X135376318Y-75987379D01*
X135342010Y-75874279D01*
X135286296Y-75770045D01*
X135211317Y-75678683D01*
X135119955Y-75603704D01*
X135015721Y-75547990D01*
X134902621Y-75513682D01*
X134785000Y-75502097D01*
X134235000Y-75505000D01*
X134085000Y-75655000D01*
X133885000Y-75655000D01*
X133735000Y-75505000D01*
X133185000Y-75502097D01*
X133067379Y-75513682D01*
X132954279Y-75547990D01*
X132850045Y-75603704D01*
X132758683Y-75678683D01*
X132683704Y-75770045D01*
X132627990Y-75874279D01*
X132593682Y-75987379D01*
X132582097Y-76105000D01*
X132584374Y-76301068D01*
X132485781Y-76220155D01*
X132364175Y-76155155D01*
X132232224Y-76115128D01*
X132095000Y-76101613D01*
X130795000Y-76101613D01*
X130657776Y-76115128D01*
X130526336Y-76155000D01*
X130408387Y-76155000D01*
X130408387Y-76105000D01*
X130394872Y-75967776D01*
X130354845Y-75835825D01*
X130289845Y-75714219D01*
X130202370Y-75607630D01*
X130095781Y-75520155D01*
X129974175Y-75455155D01*
X129842224Y-75415128D01*
X129705000Y-75401613D01*
X129012826Y-75401613D01*
X128122849Y-74511637D01*
X128091528Y-74473472D01*
X127939258Y-74348508D01*
X127765535Y-74255651D01*
X127577034Y-74198470D01*
X127430120Y-74184000D01*
X127381000Y-74179162D01*
X127331880Y-74184000D01*
X124382109Y-74184000D01*
X124332999Y-74179163D01*
X124283889Y-74184000D01*
X124283880Y-74184000D01*
X124136966Y-74198470D01*
X123948465Y-74255651D01*
X123774742Y-74348508D01*
X123622472Y-74473472D01*
X123591155Y-74511632D01*
X123570322Y-74532466D01*
X123430955Y-74590193D01*
X123250791Y-74710575D01*
X123097575Y-74863791D01*
X122977193Y-75043955D01*
X122894273Y-75244142D01*
X122853155Y-75450853D01*
X122839470Y-75495966D01*
X122833635Y-75555211D01*
X122824175Y-75550155D01*
X122692224Y-75510128D01*
X122555000Y-75496613D01*
X121285000Y-75496613D01*
X121147776Y-75510128D01*
X121015825Y-75550155D01*
X120967500Y-75575985D01*
X120919175Y-75550155D01*
X120787224Y-75510128D01*
X120650000Y-75496613D01*
X119380000Y-75496613D01*
X119242776Y-75510128D01*
X119110825Y-75550155D01*
X118989219Y-75615155D01*
X118882630Y-75702630D01*
X118795155Y-75809219D01*
X118789392Y-75820000D01*
X118193664Y-75820000D01*
X118062224Y-75780128D01*
X117925000Y-75766613D01*
X117025000Y-75766613D01*
X116887776Y-75780128D01*
X116755825Y-75820155D01*
X116634219Y-75885155D01*
X116527630Y-75972630D01*
X116440155Y-76079219D01*
X116375155Y-76200825D01*
X116335128Y-76332776D01*
X116321613Y-76470000D01*
X116321613Y-76970000D01*
X116335128Y-77107224D01*
X116375155Y-77239175D01*
X116440155Y-77360781D01*
X116527630Y-77467370D01*
X116530835Y-77470000D01*
X116527630Y-77472630D01*
X116440155Y-77579219D01*
X116375155Y-77700825D01*
X116335128Y-77832776D01*
X116321613Y-77970000D01*
X116321613Y-78470000D01*
X116335128Y-78607224D01*
X116375155Y-78739175D01*
X116440155Y-78860781D01*
X116527630Y-78967370D01*
X116634219Y-79054845D01*
X116755825Y-79119845D01*
X116887776Y-79159872D01*
X117025000Y-79173387D01*
X117143595Y-79173387D01*
X117464000Y-79493792D01*
X117464001Y-80519998D01*
X117389193Y-80631955D01*
X117306273Y-80832142D01*
X117264000Y-81044659D01*
X117264000Y-81261341D01*
X117306273Y-81473858D01*
X117389193Y-81674045D01*
X117509575Y-81854209D01*
X117662791Y-82007425D01*
X117772000Y-82080396D01*
X117772000Y-82277341D01*
X117814273Y-82489858D01*
X117897193Y-82690045D01*
X118017575Y-82870209D01*
X118170791Y-83023425D01*
X118350955Y-83143807D01*
X118551142Y-83226727D01*
X118757631Y-83267801D01*
X118747641Y-83271939D01*
X118528987Y-83418038D01*
X118343038Y-83603987D01*
X118196939Y-83822641D01*
X118096304Y-84065595D01*
X118045000Y-84323514D01*
X118045000Y-84586486D01*
X118096304Y-84844405D01*
X118196939Y-85087359D01*
X118343038Y-85306013D01*
X118528987Y-85491962D01*
X118747641Y-85638061D01*
X118957530Y-85725000D01*
X118747641Y-85811939D01*
X118528987Y-85958038D01*
X118343038Y-86143987D01*
X118196939Y-86362641D01*
X118096304Y-86605595D01*
X118045000Y-86863514D01*
X118045000Y-87126486D01*
X118096304Y-87384405D01*
X118196939Y-87627359D01*
X118218578Y-87659745D01*
X118139862Y-87724345D01*
X118139860Y-87724347D01*
X118105525Y-87752525D01*
X118077347Y-87786860D01*
X117389860Y-88474348D01*
X117366249Y-88493725D01*
X117354219Y-88500155D01*
X117247630Y-88587630D01*
X117160155Y-88694219D01*
X117095155Y-88815825D01*
X117055128Y-88947776D01*
X117041613Y-89085000D01*
X117041613Y-89985000D01*
X117055128Y-90122224D01*
X117095155Y-90254175D01*
X117160155Y-90375781D01*
X117247630Y-90482370D01*
X117354219Y-90569845D01*
X117475825Y-90634845D01*
X117607776Y-90674872D01*
X117745000Y-90688387D01*
X118245000Y-90688387D01*
X118382224Y-90674872D01*
X118514175Y-90634845D01*
X118635781Y-90569845D01*
X118639888Y-90566474D01*
X118649581Y-90598426D01*
X118659487Y-90631081D01*
X118743057Y-90787431D01*
X118827345Y-90890137D01*
X118827348Y-90890140D01*
X118855526Y-90924475D01*
X118889862Y-90952654D01*
X119093339Y-91156130D01*
X119121525Y-91190475D01*
X119258568Y-91302943D01*
X119358978Y-91356613D01*
X119350000Y-91356613D01*
X119212776Y-91370128D01*
X119080825Y-91410155D01*
X118959219Y-91475155D01*
X118852630Y-91562630D01*
X118765155Y-91669219D01*
X118700155Y-91790825D01*
X118660128Y-91922776D01*
X118646613Y-92060000D01*
X118646613Y-93360000D01*
X118660128Y-93497224D01*
X118700000Y-93628666D01*
X118700001Y-93732057D01*
X118630000Y-93725162D01*
X118580880Y-93730000D01*
X118443054Y-93730000D01*
X118452903Y-93630000D01*
X118450000Y-93480000D01*
X118300000Y-93330000D01*
X117575000Y-93330000D01*
X117575000Y-93350000D01*
X117375000Y-93350000D01*
X117375000Y-93330000D01*
X116650000Y-93330000D01*
X116500000Y-93480000D01*
X116497097Y-93630000D01*
X116506946Y-93730000D01*
X113678387Y-93730000D01*
X113678387Y-92830000D01*
X116497097Y-92830000D01*
X116500000Y-92980000D01*
X116650000Y-93130000D01*
X117375000Y-93130000D01*
X117375000Y-92380000D01*
X117575000Y-92380000D01*
X117575000Y-93130000D01*
X118300000Y-93130000D01*
X118450000Y-92980000D01*
X118452903Y-92830000D01*
X118441318Y-92712379D01*
X118407010Y-92599279D01*
X118351296Y-92495045D01*
X118276317Y-92403683D01*
X118184955Y-92328704D01*
X118080721Y-92272990D01*
X117967621Y-92238682D01*
X117850000Y-92227097D01*
X117725000Y-92230000D01*
X117575000Y-92380000D01*
X117375000Y-92380000D01*
X117225000Y-92230000D01*
X117100000Y-92227097D01*
X116982379Y-92238682D01*
X116869279Y-92272990D01*
X116765045Y-92328704D01*
X116673683Y-92403683D01*
X116598704Y-92495045D01*
X116542990Y-92599279D01*
X116508682Y-92712379D01*
X116497097Y-92830000D01*
X113678387Y-92830000D01*
X113678387Y-92160000D01*
X113664872Y-92022776D01*
X113649890Y-91973387D01*
X115375000Y-91973387D01*
X115512224Y-91959872D01*
X115644175Y-91919845D01*
X115765781Y-91854845D01*
X115872370Y-91767370D01*
X115959845Y-91660781D01*
X116024845Y-91539175D01*
X116064872Y-91407224D01*
X116078387Y-91270000D01*
X116078387Y-90170000D01*
X116064872Y-90032776D01*
X116024845Y-89900825D01*
X115959845Y-89779219D01*
X115911245Y-89720000D01*
X115959845Y-89660781D01*
X116024845Y-89539175D01*
X116064872Y-89407224D01*
X116078387Y-89270000D01*
X116078387Y-88170000D01*
X116064872Y-88032776D01*
X116024845Y-87900825D01*
X115959845Y-87779219D01*
X115911245Y-87720000D01*
X115959845Y-87660781D01*
X116024845Y-87539175D01*
X116064872Y-87407224D01*
X116078387Y-87270000D01*
X116078387Y-86170000D01*
X116064872Y-86032776D01*
X116024845Y-85900825D01*
X115959845Y-85779219D01*
X115911245Y-85720000D01*
X115959845Y-85660781D01*
X116024845Y-85539175D01*
X116064872Y-85407224D01*
X116078387Y-85270000D01*
X116078387Y-84170000D01*
X116064872Y-84032776D01*
X116024845Y-83900825D01*
X115959845Y-83779219D01*
X115911245Y-83720000D01*
X115959845Y-83660781D01*
X116024845Y-83539175D01*
X116064872Y-83407224D01*
X116078387Y-83270000D01*
X116078387Y-82170000D01*
X116064872Y-82032776D01*
X116024845Y-81900825D01*
X115959845Y-81779219D01*
X115911245Y-81720000D01*
X115959845Y-81660781D01*
X116024845Y-81539175D01*
X116064872Y-81407224D01*
X116078387Y-81270000D01*
X116078387Y-80170000D01*
X116064872Y-80032776D01*
X116024845Y-79900825D01*
X115959845Y-79779219D01*
X115872370Y-79672630D01*
X115765781Y-79585155D01*
X115644175Y-79520155D01*
X115512224Y-79480128D01*
X115375000Y-79466613D01*
X113539323Y-79466613D01*
X113566318Y-79377621D01*
X113577903Y-79260000D01*
X113575000Y-78260000D01*
X113425000Y-78110000D01*
X112525000Y-78110000D01*
X112525000Y-78130000D01*
X112325000Y-78130000D01*
X112325000Y-78110000D01*
X112305000Y-78110000D01*
X112305000Y-77910000D01*
X112325000Y-77910000D01*
X112325000Y-77890000D01*
X112525000Y-77890000D01*
X112525000Y-77910000D01*
X113425000Y-77910000D01*
X113575000Y-77760000D01*
X113577903Y-76760000D01*
X113566318Y-76642379D01*
X113532010Y-76529279D01*
X113476296Y-76425045D01*
X113401317Y-76333683D01*
X113310035Y-76258770D01*
X113317010Y-76245721D01*
X113351318Y-76132621D01*
X113362903Y-76015000D01*
X113360000Y-75815000D01*
X113210000Y-75665000D01*
X112560000Y-75665000D01*
X112560000Y-76275000D01*
X112525002Y-76309998D01*
X112525002Y-76160000D01*
X112460000Y-76160000D01*
X112460000Y-75665000D01*
X112390000Y-75665000D01*
X112390000Y-75465000D01*
X112460000Y-75465000D01*
X112460000Y-74665000D01*
X112560000Y-74665000D01*
X112560000Y-75465000D01*
X113210000Y-75465000D01*
X113360000Y-75315000D01*
X113362903Y-75115000D01*
X113351318Y-74997379D01*
X113317010Y-74884279D01*
X113261296Y-74780045D01*
X113186317Y-74688683D01*
X113094955Y-74613704D01*
X112990721Y-74557990D01*
X112877621Y-74523682D01*
X112760000Y-74512097D01*
X112710000Y-74515000D01*
X112560000Y-74665000D01*
X112460000Y-74665000D01*
X112310000Y-74515000D01*
X112260000Y-74512097D01*
X112142379Y-74523682D01*
X112029279Y-74557990D01*
X111925045Y-74613704D01*
X111833683Y-74688683D01*
X111824682Y-74699650D01*
X111757370Y-74617630D01*
X111650781Y-74530155D01*
X111529175Y-74465155D01*
X111397224Y-74425128D01*
X111260000Y-74411613D01*
X110760000Y-74411613D01*
X110622776Y-74425128D01*
X110490825Y-74465155D01*
X110416864Y-74504688D01*
X110217341Y-74465000D01*
X110000659Y-74465000D01*
X109893692Y-74486277D01*
X109854175Y-74465155D01*
X109722224Y-74425128D01*
X109585000Y-74411613D01*
X109085000Y-74411613D01*
X108947776Y-74425128D01*
X108815825Y-74465155D01*
X108694219Y-74530155D01*
X108587630Y-74617630D01*
X108585000Y-74620835D01*
X108582370Y-74617630D01*
X108475781Y-74530155D01*
X108354175Y-74465155D01*
X108222224Y-74425128D01*
X108085000Y-74411613D01*
X107585000Y-74411613D01*
X107447776Y-74425128D01*
X107315825Y-74465155D01*
X107194219Y-74530155D01*
X107087630Y-74617630D01*
X107000155Y-74724219D01*
X106935155Y-74845825D01*
X106895128Y-74977776D01*
X106881613Y-75115000D01*
X106881613Y-76015000D01*
X106885711Y-76056613D01*
X105875000Y-76056613D01*
X105737776Y-76070128D01*
X105605825Y-76110155D01*
X105484219Y-76175155D01*
X105425000Y-76223755D01*
X105365781Y-76175155D01*
X105244175Y-76110155D01*
X105112224Y-76070128D01*
X104975000Y-76056613D01*
X103875000Y-76056613D01*
X103737776Y-76070128D01*
X103605825Y-76110155D01*
X103484219Y-76175155D01*
X103425000Y-76223755D01*
X103365781Y-76175155D01*
X103244175Y-76110155D01*
X103112224Y-76070128D01*
X102975000Y-76056613D01*
X101875000Y-76056613D01*
X101737776Y-76070128D01*
X101605825Y-76110155D01*
X101484219Y-76175155D01*
X101425000Y-76223755D01*
X101365781Y-76175155D01*
X101244175Y-76110155D01*
X101112224Y-76070128D01*
X100975000Y-76056613D01*
X99875000Y-76056613D01*
X99737776Y-76070128D01*
X99605825Y-76110155D01*
X99484219Y-76175155D01*
X99425000Y-76223755D01*
X99365781Y-76175155D01*
X99244175Y-76110155D01*
X99112224Y-76070128D01*
X98975000Y-76056613D01*
X97875000Y-76056613D01*
X97737776Y-76070128D01*
X97605825Y-76110155D01*
X97484219Y-76175155D01*
X97377630Y-76262630D01*
X97290155Y-76369219D01*
X97225155Y-76490825D01*
X97185128Y-76622776D01*
X97171613Y-76760000D01*
X96610000Y-76760000D01*
X96610000Y-73750000D01*
X153721429Y-73750000D01*
X153721429Y-77025000D01*
G36*
X127401613Y-76618826D02*
G01*
X127401613Y-77105000D01*
X127415128Y-77242224D01*
X127455155Y-77374175D01*
X127520155Y-77495781D01*
X127607630Y-77602370D01*
X127714219Y-77689845D01*
X127835825Y-77754845D01*
X127967776Y-77794872D01*
X128105000Y-77808387D01*
X128694174Y-77808387D01*
X128713155Y-77827368D01*
X128744472Y-77865528D01*
X128896742Y-77990492D01*
X129070465Y-78083349D01*
X129258966Y-78140530D01*
X129405880Y-78155000D01*
X129405881Y-78155000D01*
X129454999Y-78159838D01*
X129504117Y-78155000D01*
X130361760Y-78155000D01*
X130297630Y-78207630D01*
X130210155Y-78314219D01*
X130145155Y-78435825D01*
X130105128Y-78567776D01*
X130096980Y-78650504D01*
X130039955Y-78603704D01*
X129935721Y-78547990D01*
X129822621Y-78513682D01*
X129705000Y-78502097D01*
X129155000Y-78505000D01*
X129005000Y-78655000D01*
X129005000Y-79505000D01*
X129025000Y-79505000D01*
X129025000Y-79705000D01*
X129005000Y-79705000D01*
X129005000Y-80555000D01*
X129155000Y-80705000D01*
X129705000Y-80707903D01*
X129822621Y-80696318D01*
X129935721Y-80662010D01*
X130039955Y-80606296D01*
X130131317Y-80531317D01*
X130206296Y-80439955D01*
X130262010Y-80335721D01*
X130296318Y-80222621D01*
X130307903Y-80105000D01*
X130305626Y-79908932D01*
X130404219Y-79989845D01*
X130525825Y-80054845D01*
X130657776Y-80094872D01*
X130795000Y-80108387D01*
X131084174Y-80108387D01*
X131253155Y-80277368D01*
X131284472Y-80315528D01*
X131436742Y-80440492D01*
X131610465Y-80533349D01*
X131798966Y-80590530D01*
X131945880Y-80605000D01*
X131945881Y-80605000D01*
X131994999Y-80609838D01*
X132044117Y-80605000D01*
X132690835Y-80605000D01*
X132794219Y-80689845D01*
X132915825Y-80754845D01*
X133047776Y-80794872D01*
X133185000Y-80808387D01*
X134785000Y-80808387D01*
X134922224Y-80794872D01*
X135054175Y-80754845D01*
X135175781Y-80689845D01*
X135234469Y-80641681D01*
X137430001Y-82837214D01*
X137430000Y-83818357D01*
X137389219Y-83840155D01*
X137290626Y-83921068D01*
X137292903Y-83725000D01*
X137281318Y-83607379D01*
X137247010Y-83494279D01*
X137191296Y-83390045D01*
X137116317Y-83298683D01*
X137024955Y-83223704D01*
X136920721Y-83167990D01*
X136807621Y-83133682D01*
X136690000Y-83122097D01*
X136140000Y-83125000D01*
X135990000Y-83275000D01*
X135990000Y-84125000D01*
X136010000Y-84125000D01*
X136010000Y-84325000D01*
X135990000Y-84325000D01*
X135990000Y-85175000D01*
X136140000Y-85325000D01*
X136464077Y-85326711D01*
X135769175Y-86021613D01*
X135090000Y-86021613D01*
X134952776Y-86035128D01*
X134820825Y-86075155D01*
X134699219Y-86140155D01*
X134592630Y-86227630D01*
X134505155Y-86334219D01*
X134440155Y-86455825D01*
X134400128Y-86587776D01*
X134386613Y-86725000D01*
X134386613Y-87314174D01*
X132657788Y-89043000D01*
X127176117Y-89043000D01*
X127126999Y-89038162D01*
X127077881Y-89043000D01*
X127077880Y-89043000D01*
X126930966Y-89057470D01*
X126798387Y-89097687D01*
X126798387Y-89085000D01*
X126784872Y-88947776D01*
X126744845Y-88815825D01*
X126679845Y-88694219D01*
X126592370Y-88587630D01*
X126485781Y-88500155D01*
X126364175Y-88435155D01*
X126232224Y-88395128D01*
X126095000Y-88381613D01*
X125595000Y-88381613D01*
X125457776Y-88395128D01*
X125325825Y-88435155D01*
X125245000Y-88478357D01*
X125245000Y-88076070D01*
X125311013Y-88031962D01*
X125496962Y-87846013D01*
X125643061Y-87627359D01*
X125743696Y-87384405D01*
X125795000Y-87126486D01*
X125795000Y-86863514D01*
X125743696Y-86605595D01*
X125643061Y-86362641D01*
X125496962Y-86143987D01*
X125311013Y-85958038D01*
X125092359Y-85811939D01*
X124849405Y-85711304D01*
X124743577Y-85690253D01*
X125095000Y-85692903D01*
X125212621Y-85681318D01*
X125325721Y-85647010D01*
X125429955Y-85591296D01*
X125521317Y-85516317D01*
X125535963Y-85498470D01*
X127875000Y-85498470D01*
X127875000Y-85951530D01*
X127963387Y-86395885D01*
X128136766Y-86814459D01*
X128388473Y-87191165D01*
X128708835Y-87511527D01*
X129085541Y-87763234D01*
X129504115Y-87936613D01*
X129948470Y-88025000D01*
X130401530Y-88025000D01*
X130845885Y-87936613D01*
X131264459Y-87763234D01*
X131641165Y-87511527D01*
X131961527Y-87191165D01*
X132213234Y-86814459D01*
X132386613Y-86395885D01*
X132475000Y-85951530D01*
X132475000Y-85498470D01*
X132386613Y-85054115D01*
X132250290Y-84725000D01*
X134487097Y-84725000D01*
X134498682Y-84842621D01*
X134532990Y-84955721D01*
X134588704Y-85059955D01*
X134663683Y-85151317D01*
X134755045Y-85226296D01*
X134859279Y-85282010D01*
X134972379Y-85316318D01*
X135090000Y-85327903D01*
X135640000Y-85325000D01*
X135790000Y-85175000D01*
X135790000Y-84325000D01*
X134640000Y-84325000D01*
X134490000Y-84475000D01*
X134487097Y-84725000D01*
X132250290Y-84725000D01*
X132213234Y-84635541D01*
X131961527Y-84258835D01*
X131641165Y-83938473D01*
X131321681Y-83725000D01*
X134487097Y-83725000D01*
X134490000Y-83975000D01*
X134640000Y-84125000D01*
X135790000Y-84125000D01*
X135790000Y-83275000D01*
X135640000Y-83125000D01*
X135090000Y-83122097D01*
X134972379Y-83133682D01*
X134859279Y-83167990D01*
X134755045Y-83223704D01*
X134663683Y-83298683D01*
X134588704Y-83390045D01*
X134532990Y-83494279D01*
X134498682Y-83607379D01*
X134487097Y-83725000D01*
X131321681Y-83725000D01*
X131264459Y-83686766D01*
X130845885Y-83513387D01*
X130401530Y-83425000D01*
X129948470Y-83425000D01*
X129504115Y-83513387D01*
X129085541Y-83686766D01*
X128708835Y-83938473D01*
X128388473Y-84258835D01*
X128136766Y-84635541D01*
X127963387Y-85054115D01*
X127875000Y-85498470D01*
X125535963Y-85498470D01*
X125596296Y-85424955D01*
X125652010Y-85320721D01*
X125686318Y-85207621D01*
X125697903Y-85090000D01*
X125695000Y-84705000D01*
X125545000Y-84555000D01*
X124560000Y-84555000D01*
X124560000Y-84575000D01*
X124360000Y-84575000D01*
X124360000Y-84555000D01*
X124340000Y-84555000D01*
X124340000Y-84355000D01*
X124360000Y-84355000D01*
X124360000Y-83370000D01*
X124560000Y-83370000D01*
X124560000Y-84355000D01*
X125545000Y-84355000D01*
X125695000Y-84205000D01*
X125697903Y-83820000D01*
X125686318Y-83702379D01*
X125652010Y-83589279D01*
X125596296Y-83485045D01*
X125521317Y-83393683D01*
X125429955Y-83318704D01*
X125325721Y-83262990D01*
X125212621Y-83228682D01*
X125095000Y-83217097D01*
X124710000Y-83220000D01*
X124560000Y-83370000D01*
X124360000Y-83370000D01*
X124210000Y-83220000D01*
X124025000Y-83218605D01*
X124025000Y-82993387D01*
X124745000Y-82993387D01*
X124882224Y-82979872D01*
X125014175Y-82939845D01*
X125135781Y-82874845D01*
X125187282Y-82832580D01*
X125214279Y-82847010D01*
X125327379Y-82881318D01*
X125445000Y-82892903D01*
X125595000Y-82890000D01*
X125745000Y-82740000D01*
X125745000Y-82015000D01*
X125945000Y-82015000D01*
X125945000Y-82740000D01*
X126095000Y-82890000D01*
X126245000Y-82892903D01*
X126362621Y-82881318D01*
X126475721Y-82847010D01*
X126579955Y-82791296D01*
X126671317Y-82716317D01*
X126746296Y-82624955D01*
X126802010Y-82520721D01*
X126836318Y-82407621D01*
X126847903Y-82290000D01*
X126845000Y-82165000D01*
X126695000Y-82015000D01*
X125945000Y-82015000D01*
X125745000Y-82015000D01*
X125725000Y-82015000D01*
X125725000Y-81815000D01*
X125745000Y-81815000D01*
X125745000Y-81090000D01*
X125945000Y-81090000D01*
X125945000Y-81815000D01*
X126695000Y-81815000D01*
X126845000Y-81665000D01*
X126847903Y-81540000D01*
X126836318Y-81422379D01*
X126802010Y-81309279D01*
X126746296Y-81205045D01*
X126671317Y-81113683D01*
X126579955Y-81038704D01*
X126475721Y-80982990D01*
X126362621Y-80948682D01*
X126245000Y-80937097D01*
X126095000Y-80940000D01*
X125945000Y-81090000D01*
X125745000Y-81090000D01*
X125595000Y-80940000D01*
X125445000Y-80937097D01*
X125327379Y-80948682D01*
X125214279Y-80982990D01*
X125187282Y-80997420D01*
X125135781Y-80955155D01*
X125014175Y-80890155D01*
X124882224Y-80850128D01*
X124825000Y-80844492D01*
X124825000Y-80608625D01*
X124850781Y-80594845D01*
X124879188Y-80571532D01*
X124977379Y-80601318D01*
X125095000Y-80612903D01*
X125480000Y-80610000D01*
X125630000Y-80460000D01*
X125630000Y-78205000D01*
X125830000Y-78205000D01*
X125830000Y-80460000D01*
X125980000Y-80610000D01*
X126365000Y-80612903D01*
X126482621Y-80601318D01*
X126595721Y-80567010D01*
X126699955Y-80511296D01*
X126791317Y-80436317D01*
X126866296Y-80344955D01*
X126922010Y-80240721D01*
X126956318Y-80127621D01*
X126958546Y-80105000D01*
X127502097Y-80105000D01*
X127513682Y-80222621D01*
X127547990Y-80335721D01*
X127603704Y-80439955D01*
X127678683Y-80531317D01*
X127770045Y-80606296D01*
X127874279Y-80662010D01*
X127987379Y-80696318D01*
X128105000Y-80707903D01*
X128655000Y-80705000D01*
X128805000Y-80555000D01*
X128805000Y-79705000D01*
X127655000Y-79705000D01*
X127505000Y-79855000D01*
X127502097Y-80105000D01*
X126958546Y-80105000D01*
X126967903Y-80010000D01*
X126966316Y-79105000D01*
X127502097Y-79105000D01*
X127505000Y-79355000D01*
X127655000Y-79505000D01*
X128805000Y-79505000D01*
X128805000Y-78655000D01*
X128655000Y-78505000D01*
X128105000Y-78502097D01*
X127987379Y-78513682D01*
X127874279Y-78547990D01*
X127770045Y-78603704D01*
X127678683Y-78678683D01*
X127603704Y-78770045D01*
X127547990Y-78874279D01*
X127513682Y-78987379D01*
X127502097Y-79105000D01*
X126966316Y-79105000D01*
X126965000Y-78355000D01*
X126815000Y-78205000D01*
X125830000Y-78205000D01*
X125630000Y-78205000D01*
X125610000Y-78205000D01*
X125610000Y-78005000D01*
X125630000Y-78005000D01*
X125630000Y-77985000D01*
X125830000Y-77985000D01*
X125830000Y-78005000D01*
X126815000Y-78005000D01*
X126965000Y-77855000D01*
X126967903Y-76200000D01*
X126966327Y-76184000D01*
X126966788Y-76184000D01*
X127401613Y-76618826D01*
G37*
X127401613Y-76618826D02*
X127401613Y-77105000D01*
X127415128Y-77242224D01*
X127455155Y-77374175D01*
X127520155Y-77495781D01*
X127607630Y-77602370D01*
X127714219Y-77689845D01*
X127835825Y-77754845D01*
X127967776Y-77794872D01*
X128105000Y-77808387D01*
X128694174Y-77808387D01*
X128713155Y-77827368D01*
X128744472Y-77865528D01*
X128896742Y-77990492D01*
X129070465Y-78083349D01*
X129258966Y-78140530D01*
X129405880Y-78155000D01*
X129405881Y-78155000D01*
X129454999Y-78159838D01*
X129504117Y-78155000D01*
X130361760Y-78155000D01*
X130297630Y-78207630D01*
X130210155Y-78314219D01*
X130145155Y-78435825D01*
X130105128Y-78567776D01*
X130096980Y-78650504D01*
X130039955Y-78603704D01*
X129935721Y-78547990D01*
X129822621Y-78513682D01*
X129705000Y-78502097D01*
X129155000Y-78505000D01*
X129005000Y-78655000D01*
X129005000Y-79505000D01*
X129025000Y-79505000D01*
X129025000Y-79705000D01*
X129005000Y-79705000D01*
X129005000Y-80555000D01*
X129155000Y-80705000D01*
X129705000Y-80707903D01*
X129822621Y-80696318D01*
X129935721Y-80662010D01*
X130039955Y-80606296D01*
X130131317Y-80531317D01*
X130206296Y-80439955D01*
X130262010Y-80335721D01*
X130296318Y-80222621D01*
X130307903Y-80105000D01*
X130305626Y-79908932D01*
X130404219Y-79989845D01*
X130525825Y-80054845D01*
X130657776Y-80094872D01*
X130795000Y-80108387D01*
X131084174Y-80108387D01*
X131253155Y-80277368D01*
X131284472Y-80315528D01*
X131436742Y-80440492D01*
X131610465Y-80533349D01*
X131798966Y-80590530D01*
X131945880Y-80605000D01*
X131945881Y-80605000D01*
X131994999Y-80609838D01*
X132044117Y-80605000D01*
X132690835Y-80605000D01*
X132794219Y-80689845D01*
X132915825Y-80754845D01*
X133047776Y-80794872D01*
X133185000Y-80808387D01*
X134785000Y-80808387D01*
X134922224Y-80794872D01*
X135054175Y-80754845D01*
X135175781Y-80689845D01*
X135234469Y-80641681D01*
X137430001Y-82837214D01*
X137430000Y-83818357D01*
X137389219Y-83840155D01*
X137290626Y-83921068D01*
X137292903Y-83725000D01*
X137281318Y-83607379D01*
X137247010Y-83494279D01*
X137191296Y-83390045D01*
X137116317Y-83298683D01*
X137024955Y-83223704D01*
X136920721Y-83167990D01*
X136807621Y-83133682D01*
X136690000Y-83122097D01*
X136140000Y-83125000D01*
X135990000Y-83275000D01*
X135990000Y-84125000D01*
X136010000Y-84125000D01*
X136010000Y-84325000D01*
X135990000Y-84325000D01*
X135990000Y-85175000D01*
X136140000Y-85325000D01*
X136464077Y-85326711D01*
X135769175Y-86021613D01*
X135090000Y-86021613D01*
X134952776Y-86035128D01*
X134820825Y-86075155D01*
X134699219Y-86140155D01*
X134592630Y-86227630D01*
X134505155Y-86334219D01*
X134440155Y-86455825D01*
X134400128Y-86587776D01*
X134386613Y-86725000D01*
X134386613Y-87314174D01*
X132657788Y-89043000D01*
X127176117Y-89043000D01*
X127126999Y-89038162D01*
X127077881Y-89043000D01*
X127077880Y-89043000D01*
X126930966Y-89057470D01*
X126798387Y-89097687D01*
X126798387Y-89085000D01*
X126784872Y-88947776D01*
X126744845Y-88815825D01*
X126679845Y-88694219D01*
X126592370Y-88587630D01*
X126485781Y-88500155D01*
X126364175Y-88435155D01*
X126232224Y-88395128D01*
X126095000Y-88381613D01*
X125595000Y-88381613D01*
X125457776Y-88395128D01*
X125325825Y-88435155D01*
X125245000Y-88478357D01*
X125245000Y-88076070D01*
X125311013Y-88031962D01*
X125496962Y-87846013D01*
X125643061Y-87627359D01*
X125743696Y-87384405D01*
X125795000Y-87126486D01*
X125795000Y-86863514D01*
X125743696Y-86605595D01*
X125643061Y-86362641D01*
X125496962Y-86143987D01*
X125311013Y-85958038D01*
X125092359Y-85811939D01*
X124849405Y-85711304D01*
X124743577Y-85690253D01*
X125095000Y-85692903D01*
X125212621Y-85681318D01*
X125325721Y-85647010D01*
X125429955Y-85591296D01*
X125521317Y-85516317D01*
X125535963Y-85498470D01*
X127875000Y-85498470D01*
X127875000Y-85951530D01*
X127963387Y-86395885D01*
X128136766Y-86814459D01*
X128388473Y-87191165D01*
X128708835Y-87511527D01*
X129085541Y-87763234D01*
X129504115Y-87936613D01*
X129948470Y-88025000D01*
X130401530Y-88025000D01*
X130845885Y-87936613D01*
X131264459Y-87763234D01*
X131641165Y-87511527D01*
X131961527Y-87191165D01*
X132213234Y-86814459D01*
X132386613Y-86395885D01*
X132475000Y-85951530D01*
X132475000Y-85498470D01*
X132386613Y-85054115D01*
X132250290Y-84725000D01*
X134487097Y-84725000D01*
X134498682Y-84842621D01*
X134532990Y-84955721D01*
X134588704Y-85059955D01*
X134663683Y-85151317D01*
X134755045Y-85226296D01*
X134859279Y-85282010D01*
X134972379Y-85316318D01*
X135090000Y-85327903D01*
X135640000Y-85325000D01*
X135790000Y-85175000D01*
X135790000Y-84325000D01*
X134640000Y-84325000D01*
X134490000Y-84475000D01*
X134487097Y-84725000D01*
X132250290Y-84725000D01*
X132213234Y-84635541D01*
X131961527Y-84258835D01*
X131641165Y-83938473D01*
X131321681Y-83725000D01*
X134487097Y-83725000D01*
X134490000Y-83975000D01*
X134640000Y-84125000D01*
X135790000Y-84125000D01*
X135790000Y-83275000D01*
X135640000Y-83125000D01*
X135090000Y-83122097D01*
X134972379Y-83133682D01*
X134859279Y-83167990D01*
X134755045Y-83223704D01*
X134663683Y-83298683D01*
X134588704Y-83390045D01*
X134532990Y-83494279D01*
X134498682Y-83607379D01*
X134487097Y-83725000D01*
X131321681Y-83725000D01*
X131264459Y-83686766D01*
X130845885Y-83513387D01*
X130401530Y-83425000D01*
X129948470Y-83425000D01*
X129504115Y-83513387D01*
X129085541Y-83686766D01*
X128708835Y-83938473D01*
X128388473Y-84258835D01*
X128136766Y-84635541D01*
X127963387Y-85054115D01*
X127875000Y-85498470D01*
X125535963Y-85498470D01*
X125596296Y-85424955D01*
X125652010Y-85320721D01*
X125686318Y-85207621D01*
X125697903Y-85090000D01*
X125695000Y-84705000D01*
X125545000Y-84555000D01*
X124560000Y-84555000D01*
X124560000Y-84575000D01*
X124360000Y-84575000D01*
X124360000Y-84555000D01*
X124340000Y-84555000D01*
X124340000Y-84355000D01*
X124360000Y-84355000D01*
X124360000Y-83370000D01*
X124560000Y-83370000D01*
X124560000Y-84355000D01*
X125545000Y-84355000D01*
X125695000Y-84205000D01*
X125697903Y-83820000D01*
X125686318Y-83702379D01*
X125652010Y-83589279D01*
X125596296Y-83485045D01*
X125521317Y-83393683D01*
X125429955Y-83318704D01*
X125325721Y-83262990D01*
X125212621Y-83228682D01*
X125095000Y-83217097D01*
X124710000Y-83220000D01*
X124560000Y-83370000D01*
X124360000Y-83370000D01*
X124210000Y-83220000D01*
X124025000Y-83218605D01*
X124025000Y-82993387D01*
X124745000Y-82993387D01*
X124882224Y-82979872D01*
X125014175Y-82939845D01*
X125135781Y-82874845D01*
X125187282Y-82832580D01*
X125214279Y-82847010D01*
X125327379Y-82881318D01*
X125445000Y-82892903D01*
X125595000Y-82890000D01*
X125745000Y-82740000D01*
X125745000Y-82015000D01*
X125945000Y-82015000D01*
X125945000Y-82740000D01*
X126095000Y-82890000D01*
X126245000Y-82892903D01*
X126362621Y-82881318D01*
X126475721Y-82847010D01*
X126579955Y-82791296D01*
X126671317Y-82716317D01*
X126746296Y-82624955D01*
X126802010Y-82520721D01*
X126836318Y-82407621D01*
X126847903Y-82290000D01*
X126845000Y-82165000D01*
X126695000Y-82015000D01*
X125945000Y-82015000D01*
X125745000Y-82015000D01*
X125725000Y-82015000D01*
X125725000Y-81815000D01*
X125745000Y-81815000D01*
X125745000Y-81090000D01*
X125945000Y-81090000D01*
X125945000Y-81815000D01*
X126695000Y-81815000D01*
X126845000Y-81665000D01*
X126847903Y-81540000D01*
X126836318Y-81422379D01*
X126802010Y-81309279D01*
X126746296Y-81205045D01*
X126671317Y-81113683D01*
X126579955Y-81038704D01*
X126475721Y-80982990D01*
X126362621Y-80948682D01*
X126245000Y-80937097D01*
X126095000Y-80940000D01*
X125945000Y-81090000D01*
X125745000Y-81090000D01*
X125595000Y-80940000D01*
X125445000Y-80937097D01*
X125327379Y-80948682D01*
X125214279Y-80982990D01*
X125187282Y-80997420D01*
X125135781Y-80955155D01*
X125014175Y-80890155D01*
X124882224Y-80850128D01*
X124825000Y-80844492D01*
X124825000Y-80608625D01*
X124850781Y-80594845D01*
X124879188Y-80571532D01*
X124977379Y-80601318D01*
X125095000Y-80612903D01*
X125480000Y-80610000D01*
X125630000Y-80460000D01*
X125630000Y-78205000D01*
X125830000Y-78205000D01*
X125830000Y-80460000D01*
X125980000Y-80610000D01*
X126365000Y-80612903D01*
X126482621Y-80601318D01*
X126595721Y-80567010D01*
X126699955Y-80511296D01*
X126791317Y-80436317D01*
X126866296Y-80344955D01*
X126922010Y-80240721D01*
X126956318Y-80127621D01*
X126958546Y-80105000D01*
X127502097Y-80105000D01*
X127513682Y-80222621D01*
X127547990Y-80335721D01*
X127603704Y-80439955D01*
X127678683Y-80531317D01*
X127770045Y-80606296D01*
X127874279Y-80662010D01*
X127987379Y-80696318D01*
X128105000Y-80707903D01*
X128655000Y-80705000D01*
X128805000Y-80555000D01*
X128805000Y-79705000D01*
X127655000Y-79705000D01*
X127505000Y-79855000D01*
X127502097Y-80105000D01*
X126958546Y-80105000D01*
X126967903Y-80010000D01*
X126966316Y-79105000D01*
X127502097Y-79105000D01*
X127505000Y-79355000D01*
X127655000Y-79505000D01*
X128805000Y-79505000D01*
X128805000Y-78655000D01*
X128655000Y-78505000D01*
X128105000Y-78502097D01*
X127987379Y-78513682D01*
X127874279Y-78547990D01*
X127770045Y-78603704D01*
X127678683Y-78678683D01*
X127603704Y-78770045D01*
X127547990Y-78874279D01*
X127513682Y-78987379D01*
X127502097Y-79105000D01*
X126966316Y-79105000D01*
X126965000Y-78355000D01*
X126815000Y-78205000D01*
X125830000Y-78205000D01*
X125630000Y-78205000D01*
X125610000Y-78205000D01*
X125610000Y-78005000D01*
X125630000Y-78005000D01*
X125630000Y-77985000D01*
X125830000Y-77985000D01*
X125830000Y-78005000D01*
X126815000Y-78005000D01*
X126965000Y-77855000D01*
X126967903Y-76200000D01*
X126966327Y-76184000D01*
X126966788Y-76184000D01*
X127401613Y-76618826D01*
M02*
