G04 #@! TF.GenerationSoftware,KiCad,Pcbnew,(5.1.5)-3*
G04 #@! TF.CreationDate,2021-01-06T13:28:44+01:00*
G04 #@! TF.ProjectId,keg01,6b656730-312e-46b6-9963-61645f706362,rev?*
G04 #@! TF.SameCoordinates,Original*
G04 #@! TF.FileFunction,Copper,L2,Bot*
G04 #@! TF.FilePolarity,Positive*
%FSLAX46Y46*%
G04 Gerber Fmt 4.6, Leading zero omitted, Abs format (unit mm)*
G04 Created by KiCad (PCBNEW (5.1.5)-3) date 2021-01-06 13:28:44*
%MOMM*%
%LPD*%
G04 APERTURE LIST*
%ADD10C,1.000000*%
%ADD11C,1.270000*%
%ADD12R,1.270000X1.270000*%
%ADD13C,0.800000*%
%ADD14C,0.600000*%
%ADD15C,0.400000*%
G04 APERTURE END LIST*
D10*
X146050000Y-89535000D03*
X146050000Y-86995000D03*
X146050000Y-84455000D03*
X146050000Y-81915000D03*
X171450000Y-81915000D03*
X171450000Y-84455000D03*
X171450000Y-86995000D03*
X171450000Y-89535000D03*
X171450000Y-79375000D03*
X171450000Y-92075000D03*
D11*
X119380000Y-86995000D03*
X119380000Y-84455000D03*
X121920000Y-86995000D03*
X121920000Y-84455000D03*
D12*
X124460000Y-84455000D03*
D11*
X124460000Y-86995000D03*
D13*
X97155000Y-75565000D03*
X98425000Y-74295000D03*
X97155000Y-74295000D03*
X110490000Y-80645000D03*
X115570000Y-93345000D03*
X115570000Y-96520000D03*
X97155000Y-95885000D03*
X98425000Y-97155000D03*
X97155000Y-97155000D03*
X111125000Y-88265000D03*
X116840000Y-88265000D03*
X104140000Y-90805000D03*
X116840000Y-80645000D03*
X194945000Y-74295000D03*
X196215000Y-75565000D03*
X196215000Y-74295000D03*
X191135000Y-94615000D03*
X194945000Y-97155000D03*
X196215000Y-95885000D03*
X196215000Y-97155000D03*
X139065000Y-93980000D03*
X136525000Y-93980000D03*
X135255000Y-89535000D03*
X136525000Y-82550000D03*
X141605000Y-81915000D03*
X137795000Y-79375000D03*
X127635000Y-81280000D03*
X141605000Y-85725000D03*
X126365000Y-96520000D03*
X105156000Y-87503000D03*
X106807000Y-91440000D03*
X140462000Y-79375000D03*
X107950000Y-91440000D03*
X140843000Y-80391000D03*
X106426000Y-81026000D03*
X118364000Y-81153000D03*
X107442000Y-81661000D03*
X107442000Y-82804000D03*
X118872000Y-82169000D03*
X105537000Y-83693000D03*
X105156000Y-84709000D03*
X186817000Y-85725000D03*
X180213000Y-85725000D03*
X184150000Y-85725000D03*
X182880000Y-85725000D03*
X143002000Y-95631000D03*
X193675000Y-88011000D03*
X123952000Y-75565000D03*
X110109000Y-75565000D03*
D14*
X98425000Y-74295000D02*
X97155000Y-75565000D01*
X99060000Y-76200000D02*
X97155000Y-74295000D01*
X104775000Y-76200000D02*
X99060000Y-76200000D01*
X109220000Y-80645000D02*
X104775000Y-76200000D01*
X110490000Y-80645000D02*
X109220000Y-80645000D01*
X115570000Y-96520000D02*
X115570000Y-93345000D01*
X98425000Y-97155000D02*
X97155000Y-95885000D01*
X103505000Y-90805000D02*
X97155000Y-97155000D01*
X104140000Y-90805000D02*
X103505000Y-90805000D01*
X116840000Y-88265000D02*
X111125000Y-88265000D01*
X116840000Y-80645000D02*
X115570000Y-80645000D01*
X196215000Y-74295000D02*
X196215000Y-75565000D01*
X196215000Y-75565000D02*
X196215000Y-97155000D01*
X196215000Y-95885000D02*
X194945000Y-97155000D01*
X136525000Y-93980000D02*
X139065000Y-93980000D01*
D15*
X121920000Y-84455000D02*
X120650000Y-85725000D01*
X106172000Y-86487000D02*
X105156000Y-87503000D01*
X120650000Y-85725000D02*
X120650000Y-87630000D01*
X120650000Y-87630000D02*
X120015000Y-88265000D01*
X120015000Y-88265000D02*
X118745000Y-88265000D01*
X118745000Y-88265000D02*
X116967000Y-86487000D01*
X116967000Y-86487000D02*
X106172000Y-86487000D01*
X106807000Y-91186000D02*
X106807000Y-91440000D01*
X107569000Y-90424000D02*
X106807000Y-91186000D01*
X111379000Y-90424000D02*
X107569000Y-90424000D01*
X112395000Y-91440000D02*
X111379000Y-90424000D01*
X134874000Y-91440000D02*
X112395000Y-91440000D01*
X139573000Y-86741000D02*
X134874000Y-91440000D01*
X139573000Y-80264000D02*
X139573000Y-86741000D01*
X140462000Y-79375000D02*
X139573000Y-80264000D01*
X108204000Y-91186000D02*
X107950000Y-91440000D01*
X110998000Y-91186000D02*
X108204000Y-91186000D01*
X112014000Y-92202000D02*
X110998000Y-91186000D01*
X135128000Y-92202000D02*
X112014000Y-92202000D01*
X140335000Y-86995000D02*
X135128000Y-92202000D01*
X140335000Y-80899000D02*
X140335000Y-86995000D01*
X140843000Y-80391000D02*
X140335000Y-80899000D01*
X121920000Y-86995000D02*
X122936000Y-85979000D01*
X106426000Y-82423000D02*
X106426000Y-81026000D01*
X122936000Y-85979000D02*
X123190000Y-85725000D01*
X123190000Y-85725000D02*
X123190000Y-84201000D01*
X123190000Y-84201000D02*
X123190000Y-83820000D01*
X123190000Y-83820000D02*
X122428000Y-83058000D01*
X122428000Y-83058000D02*
X119126000Y-83058000D01*
X119126000Y-83058000D02*
X118364000Y-83820000D01*
X118364000Y-83820000D02*
X107061000Y-83820000D01*
X107061000Y-83820000D02*
X106426000Y-83185000D01*
X106426000Y-83185000D02*
X106426000Y-82423000D01*
X118364000Y-81153000D02*
X117221000Y-82296000D01*
X117221000Y-82296000D02*
X108331000Y-82296000D01*
X108331000Y-82296000D02*
X107696000Y-81661000D01*
X107696000Y-81661000D02*
X107442000Y-81661000D01*
X107696000Y-83058000D02*
X107442000Y-82804000D01*
X108839000Y-83058000D02*
X107696000Y-83058000D01*
X118872000Y-82169000D02*
X117983000Y-83058000D01*
X117983000Y-83058000D02*
X108839000Y-83058000D01*
X119380000Y-84455000D02*
X118999000Y-84455000D01*
X106553000Y-84709000D02*
X105537000Y-83693000D01*
X118745000Y-84709000D02*
X106553000Y-84709000D01*
X118999000Y-84455000D02*
X118745000Y-84709000D01*
X117983000Y-85598000D02*
X119380000Y-86995000D01*
X106045000Y-85598000D02*
X117983000Y-85598000D01*
X106045000Y-85598000D02*
X105156000Y-84709000D01*
X171450000Y-84455000D02*
X172720000Y-84455000D01*
X185674000Y-85725000D02*
X186817000Y-85725000D01*
X183896000Y-83947000D02*
X185674000Y-85725000D01*
X180594000Y-83947000D02*
X183896000Y-83947000D01*
X178943000Y-85598000D02*
X180594000Y-83947000D01*
X173863000Y-85598000D02*
X178943000Y-85598000D01*
X172720000Y-84455000D02*
X173863000Y-85598000D01*
X171450000Y-86995000D02*
X173355000Y-86995000D01*
X179451000Y-86487000D02*
X180213000Y-85725000D01*
X177165000Y-86487000D02*
X179451000Y-86487000D01*
X173355000Y-86995000D02*
X173863000Y-86487000D01*
X173863000Y-86487000D02*
X177165000Y-86487000D01*
X171450000Y-89535000D02*
X172085000Y-89535000D01*
X183261000Y-84836000D02*
X184150000Y-85725000D01*
X182626000Y-84836000D02*
X183261000Y-84836000D01*
X172085000Y-89535000D02*
X174244000Y-87376000D01*
X174244000Y-87376000D02*
X179959000Y-87376000D01*
X179959000Y-87376000D02*
X182499000Y-84836000D01*
X182499000Y-84836000D02*
X182626000Y-84836000D01*
X184150000Y-85725000D02*
X184150000Y-85598000D01*
X171450000Y-92075000D02*
X171450000Y-91440000D01*
X180340000Y-88265000D02*
X182880000Y-85725000D01*
X179705000Y-88265000D02*
X180340000Y-88265000D01*
X171450000Y-91440000D02*
X174625000Y-88265000D01*
X174625000Y-88265000D02*
X179070000Y-88265000D01*
X179070000Y-88265000D02*
X179705000Y-88265000D01*
D14*
X143637000Y-96266000D02*
X143002000Y-95631000D01*
X192024000Y-96266000D02*
X143637000Y-96266000D01*
X193675000Y-94615000D02*
X192024000Y-96266000D01*
X193675000Y-88011000D02*
X193675000Y-94615000D01*
D15*
X110109000Y-75565000D02*
X123952000Y-75565000D01*
G36*
X196760000Y-97700000D02*
G01*
X96610000Y-97700000D01*
X96610000Y-95522659D01*
X141902000Y-95522659D01*
X141902000Y-95739341D01*
X141944273Y-95951858D01*
X142027193Y-96152045D01*
X142147575Y-96332209D01*
X142300791Y-96485425D01*
X142480955Y-96605807D01*
X142620322Y-96663535D01*
X142895155Y-96938368D01*
X142926472Y-96976528D01*
X143078741Y-97101491D01*
X143078742Y-97101492D01*
X143252465Y-97194349D01*
X143440966Y-97251530D01*
X143637000Y-97270838D01*
X143686120Y-97266000D01*
X191974880Y-97266000D01*
X192024000Y-97270838D01*
X192073120Y-97266000D01*
X192220034Y-97251530D01*
X192408535Y-97194349D01*
X192582258Y-97101492D01*
X192734528Y-96976528D01*
X192765849Y-96938363D01*
X194347374Y-95356840D01*
X194385528Y-95325528D01*
X194510492Y-95173258D01*
X194603349Y-94999535D01*
X194660530Y-94811034D01*
X194675000Y-94664120D01*
X194679838Y-94615000D01*
X194675000Y-94565880D01*
X194675000Y-88471224D01*
X194732727Y-88331858D01*
X194775000Y-88119341D01*
X194775000Y-87902659D01*
X194732727Y-87690142D01*
X194649807Y-87489955D01*
X194529425Y-87309791D01*
X194376209Y-87156575D01*
X194196045Y-87036193D01*
X193995858Y-86953273D01*
X193783341Y-86911000D01*
X193566659Y-86911000D01*
X193354142Y-86953273D01*
X193153955Y-87036193D01*
X192973791Y-87156575D01*
X192820575Y-87309791D01*
X192700193Y-87489955D01*
X192617273Y-87690142D01*
X192575000Y-87902659D01*
X192575000Y-88119341D01*
X192617273Y-88331858D01*
X192675000Y-88471224D01*
X192675001Y-94200785D01*
X191609788Y-95266000D01*
X144051213Y-95266000D01*
X144034535Y-95249322D01*
X143976807Y-95109955D01*
X143856425Y-94929791D01*
X143703209Y-94776575D01*
X143523045Y-94656193D01*
X143322858Y-94573273D01*
X143110341Y-94531000D01*
X142893659Y-94531000D01*
X142681142Y-94573273D01*
X142480955Y-94656193D01*
X142300791Y-94776575D01*
X142147575Y-94929791D01*
X142027193Y-95109955D01*
X141944273Y-95310142D01*
X141902000Y-95522659D01*
X96610000Y-95522659D01*
X96610000Y-91331659D01*
X105707000Y-91331659D01*
X105707000Y-91548341D01*
X105749273Y-91760858D01*
X105832193Y-91961045D01*
X105952575Y-92141209D01*
X106105791Y-92294425D01*
X106285955Y-92414807D01*
X106486142Y-92497727D01*
X106698659Y-92540000D01*
X106915341Y-92540000D01*
X107127858Y-92497727D01*
X107328045Y-92414807D01*
X107378500Y-92381094D01*
X107428955Y-92414807D01*
X107629142Y-92497727D01*
X107841659Y-92540000D01*
X108058341Y-92540000D01*
X108270858Y-92497727D01*
X108471045Y-92414807D01*
X108651209Y-92294425D01*
X108804425Y-92141209D01*
X108841315Y-92086000D01*
X110625208Y-92086000D01*
X111346347Y-92807140D01*
X111374525Y-92841475D01*
X111408860Y-92869653D01*
X111408862Y-92869655D01*
X111458649Y-92910514D01*
X111511568Y-92953943D01*
X111667919Y-93037514D01*
X111837569Y-93088977D01*
X112014000Y-93106354D01*
X112058206Y-93102000D01*
X135083794Y-93102000D01*
X135128000Y-93106354D01*
X135172206Y-93102000D01*
X135172207Y-93102000D01*
X135304431Y-93088977D01*
X135474081Y-93037514D01*
X135630432Y-92953943D01*
X135767475Y-92841475D01*
X135795657Y-92807135D01*
X139185982Y-89416810D01*
X144850000Y-89416810D01*
X144850000Y-89653190D01*
X144896116Y-89885027D01*
X144986574Y-90103413D01*
X145117899Y-90299955D01*
X145285045Y-90467101D01*
X145481587Y-90598426D01*
X145699973Y-90688884D01*
X145931810Y-90735000D01*
X146168190Y-90735000D01*
X146400027Y-90688884D01*
X146618413Y-90598426D01*
X146814955Y-90467101D01*
X146982101Y-90299955D01*
X147113426Y-90103413D01*
X147203884Y-89885027D01*
X147250000Y-89653190D01*
X147250000Y-89416810D01*
X147203884Y-89184973D01*
X147113426Y-88966587D01*
X146982101Y-88770045D01*
X146814955Y-88602899D01*
X146618413Y-88471574D01*
X146400027Y-88381116D01*
X146168190Y-88335000D01*
X145931810Y-88335000D01*
X145699973Y-88381116D01*
X145481587Y-88471574D01*
X145285045Y-88602899D01*
X145117899Y-88770045D01*
X144986574Y-88966587D01*
X144896116Y-89184973D01*
X144850000Y-89416810D01*
X139185982Y-89416810D01*
X140940140Y-87662653D01*
X140974475Y-87634475D01*
X141086943Y-87497432D01*
X141170514Y-87341081D01*
X141221977Y-87171431D01*
X141235000Y-87039207D01*
X141239354Y-86995001D01*
X141235000Y-86950794D01*
X141235000Y-86876810D01*
X144850000Y-86876810D01*
X144850000Y-87113190D01*
X144896116Y-87345027D01*
X144986574Y-87563413D01*
X145117899Y-87759955D01*
X145285045Y-87927101D01*
X145481587Y-88058426D01*
X145699973Y-88148884D01*
X145931810Y-88195000D01*
X146168190Y-88195000D01*
X146400027Y-88148884D01*
X146618413Y-88058426D01*
X146814955Y-87927101D01*
X146982101Y-87759955D01*
X147113426Y-87563413D01*
X147203884Y-87345027D01*
X147250000Y-87113190D01*
X147250000Y-86876810D01*
X147203884Y-86644973D01*
X147113426Y-86426587D01*
X146982101Y-86230045D01*
X146814955Y-86062899D01*
X146618413Y-85931574D01*
X146400027Y-85841116D01*
X146168190Y-85795000D01*
X145931810Y-85795000D01*
X145699973Y-85841116D01*
X145481587Y-85931574D01*
X145285045Y-86062899D01*
X145117899Y-86230045D01*
X144986574Y-86426587D01*
X144896116Y-86644973D01*
X144850000Y-86876810D01*
X141235000Y-86876810D01*
X141235000Y-84336810D01*
X144850000Y-84336810D01*
X144850000Y-84573190D01*
X144896116Y-84805027D01*
X144986574Y-85023413D01*
X145117899Y-85219955D01*
X145285045Y-85387101D01*
X145481587Y-85518426D01*
X145699973Y-85608884D01*
X145931810Y-85655000D01*
X146168190Y-85655000D01*
X146400027Y-85608884D01*
X146618413Y-85518426D01*
X146814955Y-85387101D01*
X146982101Y-85219955D01*
X147113426Y-85023413D01*
X147203884Y-84805027D01*
X147250000Y-84573190D01*
X147250000Y-84336810D01*
X170250000Y-84336810D01*
X170250000Y-84573190D01*
X170296116Y-84805027D01*
X170386574Y-85023413D01*
X170517899Y-85219955D01*
X170615000Y-85317056D01*
X170615000Y-86132944D01*
X170517899Y-86230045D01*
X170386574Y-86426587D01*
X170296116Y-86644973D01*
X170250000Y-86876810D01*
X170250000Y-87113190D01*
X170296116Y-87345027D01*
X170386574Y-87563413D01*
X170517899Y-87759955D01*
X170615000Y-87857056D01*
X170615000Y-88672944D01*
X170517899Y-88770045D01*
X170386574Y-88966587D01*
X170296116Y-89184973D01*
X170250000Y-89416810D01*
X170250000Y-89653190D01*
X170296116Y-89885027D01*
X170386574Y-90103413D01*
X170517899Y-90299955D01*
X170685045Y-90467101D01*
X170881587Y-90598426D01*
X170978599Y-90638609D01*
X170844861Y-90772347D01*
X170810526Y-90800525D01*
X170782348Y-90834860D01*
X170782345Y-90834863D01*
X170698057Y-90937569D01*
X170614488Y-91093918D01*
X170614487Y-91093919D01*
X170563023Y-91263569D01*
X170562875Y-91265069D01*
X170517899Y-91310045D01*
X170386574Y-91506587D01*
X170296116Y-91724973D01*
X170250000Y-91956810D01*
X170250000Y-92193190D01*
X170296116Y-92425027D01*
X170386574Y-92643413D01*
X170517899Y-92839955D01*
X170685045Y-93007101D01*
X170881587Y-93138426D01*
X171099973Y-93228884D01*
X171331810Y-93275000D01*
X171568190Y-93275000D01*
X171800027Y-93228884D01*
X172018413Y-93138426D01*
X172214955Y-93007101D01*
X172382101Y-92839955D01*
X172513426Y-92643413D01*
X172603884Y-92425027D01*
X172650000Y-92193190D01*
X172650000Y-91956810D01*
X172603884Y-91724973D01*
X172555245Y-91607547D01*
X174997793Y-89165000D01*
X180295794Y-89165000D01*
X180340000Y-89169354D01*
X180384206Y-89165000D01*
X180384207Y-89165000D01*
X180516431Y-89151977D01*
X180686081Y-89100514D01*
X180842432Y-89016943D01*
X180979475Y-88904475D01*
X181007657Y-88870135D01*
X183068796Y-86808996D01*
X183200858Y-86782727D01*
X183401045Y-86699807D01*
X183515000Y-86623665D01*
X183628955Y-86699807D01*
X183829142Y-86782727D01*
X184041659Y-86825000D01*
X184258341Y-86825000D01*
X184470858Y-86782727D01*
X184671045Y-86699807D01*
X184851209Y-86579425D01*
X185004425Y-86426209D01*
X185041726Y-86370385D01*
X185132978Y-86445273D01*
X185171568Y-86476943D01*
X185327918Y-86560514D01*
X185497569Y-86611977D01*
X185674000Y-86629354D01*
X185718207Y-86625000D01*
X186183999Y-86625000D01*
X186295955Y-86699807D01*
X186496142Y-86782727D01*
X186708659Y-86825000D01*
X186925341Y-86825000D01*
X187137858Y-86782727D01*
X187338045Y-86699807D01*
X187518209Y-86579425D01*
X187671425Y-86426209D01*
X187791807Y-86246045D01*
X187874727Y-86045858D01*
X187917000Y-85833341D01*
X187917000Y-85616659D01*
X187874727Y-85404142D01*
X187791807Y-85203955D01*
X187671425Y-85023791D01*
X187518209Y-84870575D01*
X187338045Y-84750193D01*
X187137858Y-84667273D01*
X186925341Y-84625000D01*
X186708659Y-84625000D01*
X186496142Y-84667273D01*
X186295955Y-84750193D01*
X186183999Y-84825000D01*
X186046792Y-84825000D01*
X184563657Y-83341865D01*
X184535475Y-83307525D01*
X184398432Y-83195057D01*
X184242081Y-83111486D01*
X184072431Y-83060023D01*
X183940207Y-83047000D01*
X183940206Y-83047000D01*
X183896000Y-83042646D01*
X183851794Y-83047000D01*
X180638207Y-83047000D01*
X180594000Y-83042646D01*
X180417569Y-83060023D01*
X180247918Y-83111486D01*
X180114168Y-83182977D01*
X180091568Y-83195057D01*
X179954525Y-83307525D01*
X179926343Y-83341865D01*
X178570208Y-84698000D01*
X174235793Y-84698000D01*
X173387657Y-83849865D01*
X173359475Y-83815525D01*
X173222432Y-83703057D01*
X173066081Y-83619486D01*
X172896431Y-83568023D01*
X172764207Y-83555000D01*
X172764206Y-83555000D01*
X172720000Y-83550646D01*
X172675794Y-83555000D01*
X172247056Y-83555000D01*
X172214955Y-83522899D01*
X172018413Y-83391574D01*
X171800027Y-83301116D01*
X171568190Y-83255000D01*
X171331810Y-83255000D01*
X171099973Y-83301116D01*
X170881587Y-83391574D01*
X170685045Y-83522899D01*
X170517899Y-83690045D01*
X170386574Y-83886587D01*
X170296116Y-84104973D01*
X170250000Y-84336810D01*
X147250000Y-84336810D01*
X147203884Y-84104973D01*
X147113426Y-83886587D01*
X146982101Y-83690045D01*
X146814955Y-83522899D01*
X146618413Y-83391574D01*
X146400027Y-83301116D01*
X146168190Y-83255000D01*
X145931810Y-83255000D01*
X145699973Y-83301116D01*
X145481587Y-83391574D01*
X145285045Y-83522899D01*
X145117899Y-83690045D01*
X144986574Y-83886587D01*
X144896116Y-84104973D01*
X144850000Y-84336810D01*
X141235000Y-84336810D01*
X141235000Y-82657514D01*
X145448907Y-82657514D01*
X145483874Y-82864335D01*
X145679958Y-82956540D01*
X145890263Y-83008719D01*
X146106706Y-83018867D01*
X146320970Y-82986593D01*
X146524821Y-82913139D01*
X146616126Y-82864335D01*
X146651093Y-82657514D01*
X146050000Y-82056421D01*
X145448907Y-82657514D01*
X141235000Y-82657514D01*
X141235000Y-81971706D01*
X144946133Y-81971706D01*
X144978407Y-82185970D01*
X145051861Y-82389821D01*
X145100665Y-82481126D01*
X145307486Y-82516093D01*
X145908579Y-81915000D01*
X146191421Y-81915000D01*
X146792514Y-82516093D01*
X146999335Y-82481126D01*
X147091540Y-82285042D01*
X147143719Y-82074737D01*
X147153867Y-81858294D01*
X147144606Y-81796810D01*
X170250000Y-81796810D01*
X170250000Y-82033190D01*
X170296116Y-82265027D01*
X170386574Y-82483413D01*
X170517899Y-82679955D01*
X170685045Y-82847101D01*
X170881587Y-82978426D01*
X171099973Y-83068884D01*
X171331810Y-83115000D01*
X171568190Y-83115000D01*
X171800027Y-83068884D01*
X172018413Y-82978426D01*
X172214955Y-82847101D01*
X172382101Y-82679955D01*
X172513426Y-82483413D01*
X172603884Y-82265027D01*
X172650000Y-82033190D01*
X172650000Y-81796810D01*
X172603884Y-81564973D01*
X172513426Y-81346587D01*
X172382101Y-81150045D01*
X172214955Y-80982899D01*
X172018413Y-80851574D01*
X171800027Y-80761116D01*
X171568190Y-80715000D01*
X171331810Y-80715000D01*
X171099973Y-80761116D01*
X170881587Y-80851574D01*
X170685045Y-80982899D01*
X170517899Y-81150045D01*
X170386574Y-81346587D01*
X170296116Y-81564973D01*
X170250000Y-81796810D01*
X147144606Y-81796810D01*
X147121593Y-81644030D01*
X147048139Y-81440179D01*
X146999335Y-81348874D01*
X146792514Y-81313907D01*
X146191421Y-81915000D01*
X145908579Y-81915000D01*
X145307486Y-81313907D01*
X145100665Y-81348874D01*
X145008460Y-81544958D01*
X144956281Y-81755263D01*
X144946133Y-81971706D01*
X141235000Y-81971706D01*
X141235000Y-81419259D01*
X141364045Y-81365807D01*
X141544209Y-81245425D01*
X141617148Y-81172486D01*
X145448907Y-81172486D01*
X146050000Y-81773579D01*
X146651093Y-81172486D01*
X146616126Y-80965665D01*
X146420042Y-80873460D01*
X146209737Y-80821281D01*
X145993294Y-80811133D01*
X145779030Y-80843407D01*
X145575179Y-80916861D01*
X145483874Y-80965665D01*
X145448907Y-81172486D01*
X141617148Y-81172486D01*
X141697425Y-81092209D01*
X141817807Y-80912045D01*
X141900727Y-80711858D01*
X141943000Y-80499341D01*
X141943000Y-80282659D01*
X141900727Y-80070142D01*
X141817807Y-79869955D01*
X141697425Y-79689791D01*
X141550216Y-79542582D01*
X141562000Y-79483341D01*
X141562000Y-79266659D01*
X141560041Y-79256810D01*
X170250000Y-79256810D01*
X170250000Y-79493190D01*
X170296116Y-79725027D01*
X170386574Y-79943413D01*
X170517899Y-80139955D01*
X170685045Y-80307101D01*
X170881587Y-80438426D01*
X171099973Y-80528884D01*
X171331810Y-80575000D01*
X171568190Y-80575000D01*
X171800027Y-80528884D01*
X172018413Y-80438426D01*
X172214955Y-80307101D01*
X172382101Y-80139955D01*
X172513426Y-79943413D01*
X172603884Y-79725027D01*
X172650000Y-79493190D01*
X172650000Y-79256810D01*
X172603884Y-79024973D01*
X172513426Y-78806587D01*
X172382101Y-78610045D01*
X172214955Y-78442899D01*
X172018413Y-78311574D01*
X171800027Y-78221116D01*
X171568190Y-78175000D01*
X171331810Y-78175000D01*
X171099973Y-78221116D01*
X170881587Y-78311574D01*
X170685045Y-78442899D01*
X170517899Y-78610045D01*
X170386574Y-78806587D01*
X170296116Y-79024973D01*
X170250000Y-79256810D01*
X141560041Y-79256810D01*
X141519727Y-79054142D01*
X141436807Y-78853955D01*
X141316425Y-78673791D01*
X141163209Y-78520575D01*
X140983045Y-78400193D01*
X140782858Y-78317273D01*
X140570341Y-78275000D01*
X140353659Y-78275000D01*
X140141142Y-78317273D01*
X139940955Y-78400193D01*
X139760791Y-78520575D01*
X139607575Y-78673791D01*
X139487193Y-78853955D01*
X139404273Y-79054142D01*
X139378004Y-79186204D01*
X138967865Y-79596343D01*
X138933525Y-79624525D01*
X138821057Y-79761569D01*
X138737486Y-79917920D01*
X138708940Y-80012023D01*
X138686023Y-80087570D01*
X138668646Y-80264000D01*
X138673000Y-80308207D01*
X138673001Y-86368207D01*
X134501208Y-90540000D01*
X112767793Y-90540000D01*
X112046657Y-89818865D01*
X112018475Y-89784525D01*
X111881432Y-89672057D01*
X111725081Y-89588486D01*
X111555431Y-89537023D01*
X111423207Y-89524000D01*
X111423206Y-89524000D01*
X111379000Y-89519646D01*
X111334794Y-89524000D01*
X107613207Y-89524000D01*
X107569000Y-89519646D01*
X107392569Y-89537023D01*
X107222918Y-89588486D01*
X107101866Y-89653190D01*
X107066568Y-89672057D01*
X106929525Y-89784525D01*
X106901343Y-89818865D01*
X106201865Y-90518343D01*
X106181948Y-90534689D01*
X106105791Y-90585575D01*
X105952575Y-90738791D01*
X105832193Y-90918955D01*
X105749273Y-91119142D01*
X105707000Y-91331659D01*
X96610000Y-91331659D01*
X96610000Y-84600659D01*
X104056000Y-84600659D01*
X104056000Y-84817341D01*
X104098273Y-85029858D01*
X104181193Y-85230045D01*
X104301575Y-85410209D01*
X104454791Y-85563425D01*
X104634955Y-85683807D01*
X104835142Y-85766727D01*
X104967204Y-85792996D01*
X105280208Y-86106000D01*
X104967204Y-86419004D01*
X104835142Y-86445273D01*
X104634955Y-86528193D01*
X104454791Y-86648575D01*
X104301575Y-86801791D01*
X104181193Y-86981955D01*
X104098273Y-87182142D01*
X104056000Y-87394659D01*
X104056000Y-87611341D01*
X104098273Y-87823858D01*
X104181193Y-88024045D01*
X104301575Y-88204209D01*
X104454791Y-88357425D01*
X104634955Y-88477807D01*
X104835142Y-88560727D01*
X105047659Y-88603000D01*
X105264341Y-88603000D01*
X105476858Y-88560727D01*
X105677045Y-88477807D01*
X105857209Y-88357425D01*
X106010425Y-88204209D01*
X106130807Y-88024045D01*
X106213727Y-87823858D01*
X106239996Y-87691796D01*
X106544793Y-87387000D01*
X116594208Y-87387000D01*
X118077343Y-88870135D01*
X118105525Y-88904475D01*
X118139863Y-88932655D01*
X118242568Y-89016943D01*
X118398918Y-89100514D01*
X118568569Y-89151977D01*
X118745000Y-89169354D01*
X118789207Y-89165000D01*
X119970794Y-89165000D01*
X120015000Y-89169354D01*
X120059206Y-89165000D01*
X120059207Y-89165000D01*
X120191431Y-89151977D01*
X120361081Y-89100514D01*
X120517432Y-89016943D01*
X120654475Y-88904475D01*
X120682657Y-88870135D01*
X121255135Y-88297657D01*
X121289475Y-88269475D01*
X121344998Y-88201819D01*
X121530595Y-88278696D01*
X121788514Y-88330000D01*
X122051486Y-88330000D01*
X122309405Y-88278696D01*
X122552359Y-88178061D01*
X122771013Y-88031962D01*
X122956962Y-87846013D01*
X123103061Y-87627359D01*
X123190000Y-87417470D01*
X123276939Y-87627359D01*
X123423038Y-87846013D01*
X123608987Y-88031962D01*
X123827641Y-88178061D01*
X124070595Y-88278696D01*
X124328514Y-88330000D01*
X124591486Y-88330000D01*
X124849405Y-88278696D01*
X125092359Y-88178061D01*
X125311013Y-88031962D01*
X125496962Y-87846013D01*
X125643061Y-87627359D01*
X125743696Y-87384405D01*
X125795000Y-87126486D01*
X125795000Y-86863514D01*
X125743696Y-86605595D01*
X125643061Y-86362641D01*
X125496962Y-86143987D01*
X125311013Y-85958038D01*
X125092359Y-85811939D01*
X124849405Y-85711304D01*
X124743577Y-85690253D01*
X125095000Y-85692903D01*
X125212621Y-85681318D01*
X125325721Y-85647010D01*
X125429955Y-85591296D01*
X125521317Y-85516317D01*
X125535963Y-85498470D01*
X127875000Y-85498470D01*
X127875000Y-85951530D01*
X127963387Y-86395885D01*
X128136766Y-86814459D01*
X128388473Y-87191165D01*
X128708835Y-87511527D01*
X129085541Y-87763234D01*
X129504115Y-87936613D01*
X129948470Y-88025000D01*
X130401530Y-88025000D01*
X130845885Y-87936613D01*
X131264459Y-87763234D01*
X131641165Y-87511527D01*
X131961527Y-87191165D01*
X132213234Y-86814459D01*
X132386613Y-86395885D01*
X132475000Y-85951530D01*
X132475000Y-85498470D01*
X132386613Y-85054115D01*
X132213234Y-84635541D01*
X131961527Y-84258835D01*
X131641165Y-83938473D01*
X131264459Y-83686766D01*
X130845885Y-83513387D01*
X130401530Y-83425000D01*
X129948470Y-83425000D01*
X129504115Y-83513387D01*
X129085541Y-83686766D01*
X128708835Y-83938473D01*
X128388473Y-84258835D01*
X128136766Y-84635541D01*
X127963387Y-85054115D01*
X127875000Y-85498470D01*
X125535963Y-85498470D01*
X125596296Y-85424955D01*
X125652010Y-85320721D01*
X125686318Y-85207621D01*
X125697903Y-85090000D01*
X125695000Y-84705000D01*
X125545000Y-84555000D01*
X124560000Y-84555000D01*
X124560000Y-84575000D01*
X124360000Y-84575000D01*
X124360000Y-84555000D01*
X124340000Y-84555000D01*
X124340000Y-84355000D01*
X124360000Y-84355000D01*
X124360000Y-83370000D01*
X124560000Y-83370000D01*
X124560000Y-84355000D01*
X125545000Y-84355000D01*
X125695000Y-84205000D01*
X125697903Y-83820000D01*
X125686318Y-83702379D01*
X125652010Y-83589279D01*
X125596296Y-83485045D01*
X125521317Y-83393683D01*
X125429955Y-83318704D01*
X125325721Y-83262990D01*
X125212621Y-83228682D01*
X125095000Y-83217097D01*
X124710000Y-83220000D01*
X124560000Y-83370000D01*
X124360000Y-83370000D01*
X124210000Y-83220000D01*
X123859704Y-83217359D01*
X123829475Y-83180525D01*
X123795135Y-83152343D01*
X123095655Y-82452863D01*
X123067475Y-82418525D01*
X122930432Y-82306057D01*
X122774081Y-82222486D01*
X122604431Y-82171023D01*
X122472207Y-82158000D01*
X122472206Y-82158000D01*
X122428000Y-82153646D01*
X122383794Y-82158000D01*
X119972000Y-82158000D01*
X119972000Y-82060659D01*
X119929727Y-81848142D01*
X119846807Y-81647955D01*
X119726425Y-81467791D01*
X119573209Y-81314575D01*
X119464000Y-81241604D01*
X119464000Y-81044659D01*
X119421727Y-80832142D01*
X119338807Y-80631955D01*
X119218425Y-80451791D01*
X119065209Y-80298575D01*
X118885045Y-80178193D01*
X118684858Y-80095273D01*
X118472341Y-80053000D01*
X118255659Y-80053000D01*
X118043142Y-80095273D01*
X117842955Y-80178193D01*
X117662791Y-80298575D01*
X117509575Y-80451791D01*
X117389193Y-80631955D01*
X117306273Y-80832142D01*
X117280004Y-80964204D01*
X116848208Y-81396000D01*
X108703792Y-81396000D01*
X108363657Y-81055865D01*
X108347311Y-81035948D01*
X108296425Y-80959791D01*
X108143209Y-80806575D01*
X107963045Y-80686193D01*
X107762858Y-80603273D01*
X107550341Y-80561000D01*
X107424022Y-80561000D01*
X107400807Y-80504955D01*
X107280425Y-80324791D01*
X107127209Y-80171575D01*
X106947045Y-80051193D01*
X106746858Y-79968273D01*
X106534341Y-79926000D01*
X106317659Y-79926000D01*
X106105142Y-79968273D01*
X105904955Y-80051193D01*
X105724791Y-80171575D01*
X105571575Y-80324791D01*
X105451193Y-80504955D01*
X105368273Y-80705142D01*
X105326000Y-80917659D01*
X105326000Y-81134341D01*
X105368273Y-81346858D01*
X105451193Y-81547045D01*
X105526001Y-81659002D01*
X105526000Y-82378792D01*
X105526000Y-82593000D01*
X105428659Y-82593000D01*
X105216142Y-82635273D01*
X105015955Y-82718193D01*
X104835791Y-82838575D01*
X104682575Y-82991791D01*
X104562193Y-83171955D01*
X104479273Y-83372142D01*
X104437000Y-83584659D01*
X104437000Y-83801341D01*
X104448784Y-83860582D01*
X104301575Y-84007791D01*
X104181193Y-84187955D01*
X104098273Y-84388142D01*
X104056000Y-84600659D01*
X96610000Y-84600659D01*
X96610000Y-75456659D01*
X109009000Y-75456659D01*
X109009000Y-75673341D01*
X109051273Y-75885858D01*
X109134193Y-76086045D01*
X109254575Y-76266209D01*
X109407791Y-76419425D01*
X109587955Y-76539807D01*
X109788142Y-76622727D01*
X110000659Y-76665000D01*
X110217341Y-76665000D01*
X110429858Y-76622727D01*
X110630045Y-76539807D01*
X110742001Y-76465000D01*
X123318999Y-76465000D01*
X123430955Y-76539807D01*
X123631142Y-76622727D01*
X123843659Y-76665000D01*
X124060341Y-76665000D01*
X124272858Y-76622727D01*
X124473045Y-76539807D01*
X124653209Y-76419425D01*
X124806425Y-76266209D01*
X124926807Y-76086045D01*
X125009727Y-75885858D01*
X125052000Y-75673341D01*
X125052000Y-75456659D01*
X125009727Y-75244142D01*
X124926807Y-75043955D01*
X124806425Y-74863791D01*
X124653209Y-74710575D01*
X124473045Y-74590193D01*
X124272858Y-74507273D01*
X124060341Y-74465000D01*
X123843659Y-74465000D01*
X123631142Y-74507273D01*
X123430955Y-74590193D01*
X123318999Y-74665000D01*
X110742001Y-74665000D01*
X110630045Y-74590193D01*
X110429858Y-74507273D01*
X110217341Y-74465000D01*
X110000659Y-74465000D01*
X109788142Y-74507273D01*
X109587955Y-74590193D01*
X109407791Y-74710575D01*
X109254575Y-74863791D01*
X109134193Y-75043955D01*
X109051273Y-75244142D01*
X109009000Y-75456659D01*
X96610000Y-75456659D01*
X96610000Y-73750000D01*
X196760001Y-73750000D01*
X196760000Y-97700000D01*
G37*
X196760000Y-97700000D02*
X96610000Y-97700000D01*
X96610000Y-95522659D01*
X141902000Y-95522659D01*
X141902000Y-95739341D01*
X141944273Y-95951858D01*
X142027193Y-96152045D01*
X142147575Y-96332209D01*
X142300791Y-96485425D01*
X142480955Y-96605807D01*
X142620322Y-96663535D01*
X142895155Y-96938368D01*
X142926472Y-96976528D01*
X143078741Y-97101491D01*
X143078742Y-97101492D01*
X143252465Y-97194349D01*
X143440966Y-97251530D01*
X143637000Y-97270838D01*
X143686120Y-97266000D01*
X191974880Y-97266000D01*
X192024000Y-97270838D01*
X192073120Y-97266000D01*
X192220034Y-97251530D01*
X192408535Y-97194349D01*
X192582258Y-97101492D01*
X192734528Y-96976528D01*
X192765849Y-96938363D01*
X194347374Y-95356840D01*
X194385528Y-95325528D01*
X194510492Y-95173258D01*
X194603349Y-94999535D01*
X194660530Y-94811034D01*
X194675000Y-94664120D01*
X194679838Y-94615000D01*
X194675000Y-94565880D01*
X194675000Y-88471224D01*
X194732727Y-88331858D01*
X194775000Y-88119341D01*
X194775000Y-87902659D01*
X194732727Y-87690142D01*
X194649807Y-87489955D01*
X194529425Y-87309791D01*
X194376209Y-87156575D01*
X194196045Y-87036193D01*
X193995858Y-86953273D01*
X193783341Y-86911000D01*
X193566659Y-86911000D01*
X193354142Y-86953273D01*
X193153955Y-87036193D01*
X192973791Y-87156575D01*
X192820575Y-87309791D01*
X192700193Y-87489955D01*
X192617273Y-87690142D01*
X192575000Y-87902659D01*
X192575000Y-88119341D01*
X192617273Y-88331858D01*
X192675000Y-88471224D01*
X192675001Y-94200785D01*
X191609788Y-95266000D01*
X144051213Y-95266000D01*
X144034535Y-95249322D01*
X143976807Y-95109955D01*
X143856425Y-94929791D01*
X143703209Y-94776575D01*
X143523045Y-94656193D01*
X143322858Y-94573273D01*
X143110341Y-94531000D01*
X142893659Y-94531000D01*
X142681142Y-94573273D01*
X142480955Y-94656193D01*
X142300791Y-94776575D01*
X142147575Y-94929791D01*
X142027193Y-95109955D01*
X141944273Y-95310142D01*
X141902000Y-95522659D01*
X96610000Y-95522659D01*
X96610000Y-91331659D01*
X105707000Y-91331659D01*
X105707000Y-91548341D01*
X105749273Y-91760858D01*
X105832193Y-91961045D01*
X105952575Y-92141209D01*
X106105791Y-92294425D01*
X106285955Y-92414807D01*
X106486142Y-92497727D01*
X106698659Y-92540000D01*
X106915341Y-92540000D01*
X107127858Y-92497727D01*
X107328045Y-92414807D01*
X107378500Y-92381094D01*
X107428955Y-92414807D01*
X107629142Y-92497727D01*
X107841659Y-92540000D01*
X108058341Y-92540000D01*
X108270858Y-92497727D01*
X108471045Y-92414807D01*
X108651209Y-92294425D01*
X108804425Y-92141209D01*
X108841315Y-92086000D01*
X110625208Y-92086000D01*
X111346347Y-92807140D01*
X111374525Y-92841475D01*
X111408860Y-92869653D01*
X111408862Y-92869655D01*
X111458649Y-92910514D01*
X111511568Y-92953943D01*
X111667919Y-93037514D01*
X111837569Y-93088977D01*
X112014000Y-93106354D01*
X112058206Y-93102000D01*
X135083794Y-93102000D01*
X135128000Y-93106354D01*
X135172206Y-93102000D01*
X135172207Y-93102000D01*
X135304431Y-93088977D01*
X135474081Y-93037514D01*
X135630432Y-92953943D01*
X135767475Y-92841475D01*
X135795657Y-92807135D01*
X139185982Y-89416810D01*
X144850000Y-89416810D01*
X144850000Y-89653190D01*
X144896116Y-89885027D01*
X144986574Y-90103413D01*
X145117899Y-90299955D01*
X145285045Y-90467101D01*
X145481587Y-90598426D01*
X145699973Y-90688884D01*
X145931810Y-90735000D01*
X146168190Y-90735000D01*
X146400027Y-90688884D01*
X146618413Y-90598426D01*
X146814955Y-90467101D01*
X146982101Y-90299955D01*
X147113426Y-90103413D01*
X147203884Y-89885027D01*
X147250000Y-89653190D01*
X147250000Y-89416810D01*
X147203884Y-89184973D01*
X147113426Y-88966587D01*
X146982101Y-88770045D01*
X146814955Y-88602899D01*
X146618413Y-88471574D01*
X146400027Y-88381116D01*
X146168190Y-88335000D01*
X145931810Y-88335000D01*
X145699973Y-88381116D01*
X145481587Y-88471574D01*
X145285045Y-88602899D01*
X145117899Y-88770045D01*
X144986574Y-88966587D01*
X144896116Y-89184973D01*
X144850000Y-89416810D01*
X139185982Y-89416810D01*
X140940140Y-87662653D01*
X140974475Y-87634475D01*
X141086943Y-87497432D01*
X141170514Y-87341081D01*
X141221977Y-87171431D01*
X141235000Y-87039207D01*
X141239354Y-86995001D01*
X141235000Y-86950794D01*
X141235000Y-86876810D01*
X144850000Y-86876810D01*
X144850000Y-87113190D01*
X144896116Y-87345027D01*
X144986574Y-87563413D01*
X145117899Y-87759955D01*
X145285045Y-87927101D01*
X145481587Y-88058426D01*
X145699973Y-88148884D01*
X145931810Y-88195000D01*
X146168190Y-88195000D01*
X146400027Y-88148884D01*
X146618413Y-88058426D01*
X146814955Y-87927101D01*
X146982101Y-87759955D01*
X147113426Y-87563413D01*
X147203884Y-87345027D01*
X147250000Y-87113190D01*
X147250000Y-86876810D01*
X147203884Y-86644973D01*
X147113426Y-86426587D01*
X146982101Y-86230045D01*
X146814955Y-86062899D01*
X146618413Y-85931574D01*
X146400027Y-85841116D01*
X146168190Y-85795000D01*
X145931810Y-85795000D01*
X145699973Y-85841116D01*
X145481587Y-85931574D01*
X145285045Y-86062899D01*
X145117899Y-86230045D01*
X144986574Y-86426587D01*
X144896116Y-86644973D01*
X144850000Y-86876810D01*
X141235000Y-86876810D01*
X141235000Y-84336810D01*
X144850000Y-84336810D01*
X144850000Y-84573190D01*
X144896116Y-84805027D01*
X144986574Y-85023413D01*
X145117899Y-85219955D01*
X145285045Y-85387101D01*
X145481587Y-85518426D01*
X145699973Y-85608884D01*
X145931810Y-85655000D01*
X146168190Y-85655000D01*
X146400027Y-85608884D01*
X146618413Y-85518426D01*
X146814955Y-85387101D01*
X146982101Y-85219955D01*
X147113426Y-85023413D01*
X147203884Y-84805027D01*
X147250000Y-84573190D01*
X147250000Y-84336810D01*
X170250000Y-84336810D01*
X170250000Y-84573190D01*
X170296116Y-84805027D01*
X170386574Y-85023413D01*
X170517899Y-85219955D01*
X170615000Y-85317056D01*
X170615000Y-86132944D01*
X170517899Y-86230045D01*
X170386574Y-86426587D01*
X170296116Y-86644973D01*
X170250000Y-86876810D01*
X170250000Y-87113190D01*
X170296116Y-87345027D01*
X170386574Y-87563413D01*
X170517899Y-87759955D01*
X170615000Y-87857056D01*
X170615000Y-88672944D01*
X170517899Y-88770045D01*
X170386574Y-88966587D01*
X170296116Y-89184973D01*
X170250000Y-89416810D01*
X170250000Y-89653190D01*
X170296116Y-89885027D01*
X170386574Y-90103413D01*
X170517899Y-90299955D01*
X170685045Y-90467101D01*
X170881587Y-90598426D01*
X170978599Y-90638609D01*
X170844861Y-90772347D01*
X170810526Y-90800525D01*
X170782348Y-90834860D01*
X170782345Y-90834863D01*
X170698057Y-90937569D01*
X170614488Y-91093918D01*
X170614487Y-91093919D01*
X170563023Y-91263569D01*
X170562875Y-91265069D01*
X170517899Y-91310045D01*
X170386574Y-91506587D01*
X170296116Y-91724973D01*
X170250000Y-91956810D01*
X170250000Y-92193190D01*
X170296116Y-92425027D01*
X170386574Y-92643413D01*
X170517899Y-92839955D01*
X170685045Y-93007101D01*
X170881587Y-93138426D01*
X171099973Y-93228884D01*
X171331810Y-93275000D01*
X171568190Y-93275000D01*
X171800027Y-93228884D01*
X172018413Y-93138426D01*
X172214955Y-93007101D01*
X172382101Y-92839955D01*
X172513426Y-92643413D01*
X172603884Y-92425027D01*
X172650000Y-92193190D01*
X172650000Y-91956810D01*
X172603884Y-91724973D01*
X172555245Y-91607547D01*
X174997793Y-89165000D01*
X180295794Y-89165000D01*
X180340000Y-89169354D01*
X180384206Y-89165000D01*
X180384207Y-89165000D01*
X180516431Y-89151977D01*
X180686081Y-89100514D01*
X180842432Y-89016943D01*
X180979475Y-88904475D01*
X181007657Y-88870135D01*
X183068796Y-86808996D01*
X183200858Y-86782727D01*
X183401045Y-86699807D01*
X183515000Y-86623665D01*
X183628955Y-86699807D01*
X183829142Y-86782727D01*
X184041659Y-86825000D01*
X184258341Y-86825000D01*
X184470858Y-86782727D01*
X184671045Y-86699807D01*
X184851209Y-86579425D01*
X185004425Y-86426209D01*
X185041726Y-86370385D01*
X185132978Y-86445273D01*
X185171568Y-86476943D01*
X185327918Y-86560514D01*
X185497569Y-86611977D01*
X185674000Y-86629354D01*
X185718207Y-86625000D01*
X186183999Y-86625000D01*
X186295955Y-86699807D01*
X186496142Y-86782727D01*
X186708659Y-86825000D01*
X186925341Y-86825000D01*
X187137858Y-86782727D01*
X187338045Y-86699807D01*
X187518209Y-86579425D01*
X187671425Y-86426209D01*
X187791807Y-86246045D01*
X187874727Y-86045858D01*
X187917000Y-85833341D01*
X187917000Y-85616659D01*
X187874727Y-85404142D01*
X187791807Y-85203955D01*
X187671425Y-85023791D01*
X187518209Y-84870575D01*
X187338045Y-84750193D01*
X187137858Y-84667273D01*
X186925341Y-84625000D01*
X186708659Y-84625000D01*
X186496142Y-84667273D01*
X186295955Y-84750193D01*
X186183999Y-84825000D01*
X186046792Y-84825000D01*
X184563657Y-83341865D01*
X184535475Y-83307525D01*
X184398432Y-83195057D01*
X184242081Y-83111486D01*
X184072431Y-83060023D01*
X183940207Y-83047000D01*
X183940206Y-83047000D01*
X183896000Y-83042646D01*
X183851794Y-83047000D01*
X180638207Y-83047000D01*
X180594000Y-83042646D01*
X180417569Y-83060023D01*
X180247918Y-83111486D01*
X180114168Y-83182977D01*
X180091568Y-83195057D01*
X179954525Y-83307525D01*
X179926343Y-83341865D01*
X178570208Y-84698000D01*
X174235793Y-84698000D01*
X173387657Y-83849865D01*
X173359475Y-83815525D01*
X173222432Y-83703057D01*
X173066081Y-83619486D01*
X172896431Y-83568023D01*
X172764207Y-83555000D01*
X172764206Y-83555000D01*
X172720000Y-83550646D01*
X172675794Y-83555000D01*
X172247056Y-83555000D01*
X172214955Y-83522899D01*
X172018413Y-83391574D01*
X171800027Y-83301116D01*
X171568190Y-83255000D01*
X171331810Y-83255000D01*
X171099973Y-83301116D01*
X170881587Y-83391574D01*
X170685045Y-83522899D01*
X170517899Y-83690045D01*
X170386574Y-83886587D01*
X170296116Y-84104973D01*
X170250000Y-84336810D01*
X147250000Y-84336810D01*
X147203884Y-84104973D01*
X147113426Y-83886587D01*
X146982101Y-83690045D01*
X146814955Y-83522899D01*
X146618413Y-83391574D01*
X146400027Y-83301116D01*
X146168190Y-83255000D01*
X145931810Y-83255000D01*
X145699973Y-83301116D01*
X145481587Y-83391574D01*
X145285045Y-83522899D01*
X145117899Y-83690045D01*
X144986574Y-83886587D01*
X144896116Y-84104973D01*
X144850000Y-84336810D01*
X141235000Y-84336810D01*
X141235000Y-82657514D01*
X145448907Y-82657514D01*
X145483874Y-82864335D01*
X145679958Y-82956540D01*
X145890263Y-83008719D01*
X146106706Y-83018867D01*
X146320970Y-82986593D01*
X146524821Y-82913139D01*
X146616126Y-82864335D01*
X146651093Y-82657514D01*
X146050000Y-82056421D01*
X145448907Y-82657514D01*
X141235000Y-82657514D01*
X141235000Y-81971706D01*
X144946133Y-81971706D01*
X144978407Y-82185970D01*
X145051861Y-82389821D01*
X145100665Y-82481126D01*
X145307486Y-82516093D01*
X145908579Y-81915000D01*
X146191421Y-81915000D01*
X146792514Y-82516093D01*
X146999335Y-82481126D01*
X147091540Y-82285042D01*
X147143719Y-82074737D01*
X147153867Y-81858294D01*
X147144606Y-81796810D01*
X170250000Y-81796810D01*
X170250000Y-82033190D01*
X170296116Y-82265027D01*
X170386574Y-82483413D01*
X170517899Y-82679955D01*
X170685045Y-82847101D01*
X170881587Y-82978426D01*
X171099973Y-83068884D01*
X171331810Y-83115000D01*
X171568190Y-83115000D01*
X171800027Y-83068884D01*
X172018413Y-82978426D01*
X172214955Y-82847101D01*
X172382101Y-82679955D01*
X172513426Y-82483413D01*
X172603884Y-82265027D01*
X172650000Y-82033190D01*
X172650000Y-81796810D01*
X172603884Y-81564973D01*
X172513426Y-81346587D01*
X172382101Y-81150045D01*
X172214955Y-80982899D01*
X172018413Y-80851574D01*
X171800027Y-80761116D01*
X171568190Y-80715000D01*
X171331810Y-80715000D01*
X171099973Y-80761116D01*
X170881587Y-80851574D01*
X170685045Y-80982899D01*
X170517899Y-81150045D01*
X170386574Y-81346587D01*
X170296116Y-81564973D01*
X170250000Y-81796810D01*
X147144606Y-81796810D01*
X147121593Y-81644030D01*
X147048139Y-81440179D01*
X146999335Y-81348874D01*
X146792514Y-81313907D01*
X146191421Y-81915000D01*
X145908579Y-81915000D01*
X145307486Y-81313907D01*
X145100665Y-81348874D01*
X145008460Y-81544958D01*
X144956281Y-81755263D01*
X144946133Y-81971706D01*
X141235000Y-81971706D01*
X141235000Y-81419259D01*
X141364045Y-81365807D01*
X141544209Y-81245425D01*
X141617148Y-81172486D01*
X145448907Y-81172486D01*
X146050000Y-81773579D01*
X146651093Y-81172486D01*
X146616126Y-80965665D01*
X146420042Y-80873460D01*
X146209737Y-80821281D01*
X145993294Y-80811133D01*
X145779030Y-80843407D01*
X145575179Y-80916861D01*
X145483874Y-80965665D01*
X145448907Y-81172486D01*
X141617148Y-81172486D01*
X141697425Y-81092209D01*
X141817807Y-80912045D01*
X141900727Y-80711858D01*
X141943000Y-80499341D01*
X141943000Y-80282659D01*
X141900727Y-80070142D01*
X141817807Y-79869955D01*
X141697425Y-79689791D01*
X141550216Y-79542582D01*
X141562000Y-79483341D01*
X141562000Y-79266659D01*
X141560041Y-79256810D01*
X170250000Y-79256810D01*
X170250000Y-79493190D01*
X170296116Y-79725027D01*
X170386574Y-79943413D01*
X170517899Y-80139955D01*
X170685045Y-80307101D01*
X170881587Y-80438426D01*
X171099973Y-80528884D01*
X171331810Y-80575000D01*
X171568190Y-80575000D01*
X171800027Y-80528884D01*
X172018413Y-80438426D01*
X172214955Y-80307101D01*
X172382101Y-80139955D01*
X172513426Y-79943413D01*
X172603884Y-79725027D01*
X172650000Y-79493190D01*
X172650000Y-79256810D01*
X172603884Y-79024973D01*
X172513426Y-78806587D01*
X172382101Y-78610045D01*
X172214955Y-78442899D01*
X172018413Y-78311574D01*
X171800027Y-78221116D01*
X171568190Y-78175000D01*
X171331810Y-78175000D01*
X171099973Y-78221116D01*
X170881587Y-78311574D01*
X170685045Y-78442899D01*
X170517899Y-78610045D01*
X170386574Y-78806587D01*
X170296116Y-79024973D01*
X170250000Y-79256810D01*
X141560041Y-79256810D01*
X141519727Y-79054142D01*
X141436807Y-78853955D01*
X141316425Y-78673791D01*
X141163209Y-78520575D01*
X140983045Y-78400193D01*
X140782858Y-78317273D01*
X140570341Y-78275000D01*
X140353659Y-78275000D01*
X140141142Y-78317273D01*
X139940955Y-78400193D01*
X139760791Y-78520575D01*
X139607575Y-78673791D01*
X139487193Y-78853955D01*
X139404273Y-79054142D01*
X139378004Y-79186204D01*
X138967865Y-79596343D01*
X138933525Y-79624525D01*
X138821057Y-79761569D01*
X138737486Y-79917920D01*
X138708940Y-80012023D01*
X138686023Y-80087570D01*
X138668646Y-80264000D01*
X138673000Y-80308207D01*
X138673001Y-86368207D01*
X134501208Y-90540000D01*
X112767793Y-90540000D01*
X112046657Y-89818865D01*
X112018475Y-89784525D01*
X111881432Y-89672057D01*
X111725081Y-89588486D01*
X111555431Y-89537023D01*
X111423207Y-89524000D01*
X111423206Y-89524000D01*
X111379000Y-89519646D01*
X111334794Y-89524000D01*
X107613207Y-89524000D01*
X107569000Y-89519646D01*
X107392569Y-89537023D01*
X107222918Y-89588486D01*
X107101866Y-89653190D01*
X107066568Y-89672057D01*
X106929525Y-89784525D01*
X106901343Y-89818865D01*
X106201865Y-90518343D01*
X106181948Y-90534689D01*
X106105791Y-90585575D01*
X105952575Y-90738791D01*
X105832193Y-90918955D01*
X105749273Y-91119142D01*
X105707000Y-91331659D01*
X96610000Y-91331659D01*
X96610000Y-84600659D01*
X104056000Y-84600659D01*
X104056000Y-84817341D01*
X104098273Y-85029858D01*
X104181193Y-85230045D01*
X104301575Y-85410209D01*
X104454791Y-85563425D01*
X104634955Y-85683807D01*
X104835142Y-85766727D01*
X104967204Y-85792996D01*
X105280208Y-86106000D01*
X104967204Y-86419004D01*
X104835142Y-86445273D01*
X104634955Y-86528193D01*
X104454791Y-86648575D01*
X104301575Y-86801791D01*
X104181193Y-86981955D01*
X104098273Y-87182142D01*
X104056000Y-87394659D01*
X104056000Y-87611341D01*
X104098273Y-87823858D01*
X104181193Y-88024045D01*
X104301575Y-88204209D01*
X104454791Y-88357425D01*
X104634955Y-88477807D01*
X104835142Y-88560727D01*
X105047659Y-88603000D01*
X105264341Y-88603000D01*
X105476858Y-88560727D01*
X105677045Y-88477807D01*
X105857209Y-88357425D01*
X106010425Y-88204209D01*
X106130807Y-88024045D01*
X106213727Y-87823858D01*
X106239996Y-87691796D01*
X106544793Y-87387000D01*
X116594208Y-87387000D01*
X118077343Y-88870135D01*
X118105525Y-88904475D01*
X118139863Y-88932655D01*
X118242568Y-89016943D01*
X118398918Y-89100514D01*
X118568569Y-89151977D01*
X118745000Y-89169354D01*
X118789207Y-89165000D01*
X119970794Y-89165000D01*
X120015000Y-89169354D01*
X120059206Y-89165000D01*
X120059207Y-89165000D01*
X120191431Y-89151977D01*
X120361081Y-89100514D01*
X120517432Y-89016943D01*
X120654475Y-88904475D01*
X120682657Y-88870135D01*
X121255135Y-88297657D01*
X121289475Y-88269475D01*
X121344998Y-88201819D01*
X121530595Y-88278696D01*
X121788514Y-88330000D01*
X122051486Y-88330000D01*
X122309405Y-88278696D01*
X122552359Y-88178061D01*
X122771013Y-88031962D01*
X122956962Y-87846013D01*
X123103061Y-87627359D01*
X123190000Y-87417470D01*
X123276939Y-87627359D01*
X123423038Y-87846013D01*
X123608987Y-88031962D01*
X123827641Y-88178061D01*
X124070595Y-88278696D01*
X124328514Y-88330000D01*
X124591486Y-88330000D01*
X124849405Y-88278696D01*
X125092359Y-88178061D01*
X125311013Y-88031962D01*
X125496962Y-87846013D01*
X125643061Y-87627359D01*
X125743696Y-87384405D01*
X125795000Y-87126486D01*
X125795000Y-86863514D01*
X125743696Y-86605595D01*
X125643061Y-86362641D01*
X125496962Y-86143987D01*
X125311013Y-85958038D01*
X125092359Y-85811939D01*
X124849405Y-85711304D01*
X124743577Y-85690253D01*
X125095000Y-85692903D01*
X125212621Y-85681318D01*
X125325721Y-85647010D01*
X125429955Y-85591296D01*
X125521317Y-85516317D01*
X125535963Y-85498470D01*
X127875000Y-85498470D01*
X127875000Y-85951530D01*
X127963387Y-86395885D01*
X128136766Y-86814459D01*
X128388473Y-87191165D01*
X128708835Y-87511527D01*
X129085541Y-87763234D01*
X129504115Y-87936613D01*
X129948470Y-88025000D01*
X130401530Y-88025000D01*
X130845885Y-87936613D01*
X131264459Y-87763234D01*
X131641165Y-87511527D01*
X131961527Y-87191165D01*
X132213234Y-86814459D01*
X132386613Y-86395885D01*
X132475000Y-85951530D01*
X132475000Y-85498470D01*
X132386613Y-85054115D01*
X132213234Y-84635541D01*
X131961527Y-84258835D01*
X131641165Y-83938473D01*
X131264459Y-83686766D01*
X130845885Y-83513387D01*
X130401530Y-83425000D01*
X129948470Y-83425000D01*
X129504115Y-83513387D01*
X129085541Y-83686766D01*
X128708835Y-83938473D01*
X128388473Y-84258835D01*
X128136766Y-84635541D01*
X127963387Y-85054115D01*
X127875000Y-85498470D01*
X125535963Y-85498470D01*
X125596296Y-85424955D01*
X125652010Y-85320721D01*
X125686318Y-85207621D01*
X125697903Y-85090000D01*
X125695000Y-84705000D01*
X125545000Y-84555000D01*
X124560000Y-84555000D01*
X124560000Y-84575000D01*
X124360000Y-84575000D01*
X124360000Y-84555000D01*
X124340000Y-84555000D01*
X124340000Y-84355000D01*
X124360000Y-84355000D01*
X124360000Y-83370000D01*
X124560000Y-83370000D01*
X124560000Y-84355000D01*
X125545000Y-84355000D01*
X125695000Y-84205000D01*
X125697903Y-83820000D01*
X125686318Y-83702379D01*
X125652010Y-83589279D01*
X125596296Y-83485045D01*
X125521317Y-83393683D01*
X125429955Y-83318704D01*
X125325721Y-83262990D01*
X125212621Y-83228682D01*
X125095000Y-83217097D01*
X124710000Y-83220000D01*
X124560000Y-83370000D01*
X124360000Y-83370000D01*
X124210000Y-83220000D01*
X123859704Y-83217359D01*
X123829475Y-83180525D01*
X123795135Y-83152343D01*
X123095655Y-82452863D01*
X123067475Y-82418525D01*
X122930432Y-82306057D01*
X122774081Y-82222486D01*
X122604431Y-82171023D01*
X122472207Y-82158000D01*
X122472206Y-82158000D01*
X122428000Y-82153646D01*
X122383794Y-82158000D01*
X119972000Y-82158000D01*
X119972000Y-82060659D01*
X119929727Y-81848142D01*
X119846807Y-81647955D01*
X119726425Y-81467791D01*
X119573209Y-81314575D01*
X119464000Y-81241604D01*
X119464000Y-81044659D01*
X119421727Y-80832142D01*
X119338807Y-80631955D01*
X119218425Y-80451791D01*
X119065209Y-80298575D01*
X118885045Y-80178193D01*
X118684858Y-80095273D01*
X118472341Y-80053000D01*
X118255659Y-80053000D01*
X118043142Y-80095273D01*
X117842955Y-80178193D01*
X117662791Y-80298575D01*
X117509575Y-80451791D01*
X117389193Y-80631955D01*
X117306273Y-80832142D01*
X117280004Y-80964204D01*
X116848208Y-81396000D01*
X108703792Y-81396000D01*
X108363657Y-81055865D01*
X108347311Y-81035948D01*
X108296425Y-80959791D01*
X108143209Y-80806575D01*
X107963045Y-80686193D01*
X107762858Y-80603273D01*
X107550341Y-80561000D01*
X107424022Y-80561000D01*
X107400807Y-80504955D01*
X107280425Y-80324791D01*
X107127209Y-80171575D01*
X106947045Y-80051193D01*
X106746858Y-79968273D01*
X106534341Y-79926000D01*
X106317659Y-79926000D01*
X106105142Y-79968273D01*
X105904955Y-80051193D01*
X105724791Y-80171575D01*
X105571575Y-80324791D01*
X105451193Y-80504955D01*
X105368273Y-80705142D01*
X105326000Y-80917659D01*
X105326000Y-81134341D01*
X105368273Y-81346858D01*
X105451193Y-81547045D01*
X105526001Y-81659002D01*
X105526000Y-82378792D01*
X105526000Y-82593000D01*
X105428659Y-82593000D01*
X105216142Y-82635273D01*
X105015955Y-82718193D01*
X104835791Y-82838575D01*
X104682575Y-82991791D01*
X104562193Y-83171955D01*
X104479273Y-83372142D01*
X104437000Y-83584659D01*
X104437000Y-83801341D01*
X104448784Y-83860582D01*
X104301575Y-84007791D01*
X104181193Y-84187955D01*
X104098273Y-84388142D01*
X104056000Y-84600659D01*
X96610000Y-84600659D01*
X96610000Y-75456659D01*
X109009000Y-75456659D01*
X109009000Y-75673341D01*
X109051273Y-75885858D01*
X109134193Y-76086045D01*
X109254575Y-76266209D01*
X109407791Y-76419425D01*
X109587955Y-76539807D01*
X109788142Y-76622727D01*
X110000659Y-76665000D01*
X110217341Y-76665000D01*
X110429858Y-76622727D01*
X110630045Y-76539807D01*
X110742001Y-76465000D01*
X123318999Y-76465000D01*
X123430955Y-76539807D01*
X123631142Y-76622727D01*
X123843659Y-76665000D01*
X124060341Y-76665000D01*
X124272858Y-76622727D01*
X124473045Y-76539807D01*
X124653209Y-76419425D01*
X124806425Y-76266209D01*
X124926807Y-76086045D01*
X125009727Y-75885858D01*
X125052000Y-75673341D01*
X125052000Y-75456659D01*
X125009727Y-75244142D01*
X124926807Y-75043955D01*
X124806425Y-74863791D01*
X124653209Y-74710575D01*
X124473045Y-74590193D01*
X124272858Y-74507273D01*
X124060341Y-74465000D01*
X123843659Y-74465000D01*
X123631142Y-74507273D01*
X123430955Y-74590193D01*
X123318999Y-74665000D01*
X110742001Y-74665000D01*
X110630045Y-74590193D01*
X110429858Y-74507273D01*
X110217341Y-74465000D01*
X110000659Y-74465000D01*
X109788142Y-74507273D01*
X109587955Y-74590193D01*
X109407791Y-74710575D01*
X109254575Y-74863791D01*
X109134193Y-75043955D01*
X109051273Y-75244142D01*
X109009000Y-75456659D01*
X96610000Y-75456659D01*
X96610000Y-73750000D01*
X196760001Y-73750000D01*
X196760000Y-97700000D01*
M02*
