G04 #@! TF.GenerationSoftware,KiCad,Pcbnew,(5.1.5)-3*
G04 #@! TF.CreationDate,2021-03-25T13:03:32+01:00*
G04 #@! TF.ProjectId,splitter,73706c69-7474-4657-922e-6b696361645f,rev?*
G04 #@! TF.SameCoordinates,Original*
G04 #@! TF.FileFunction,Soldermask,Top*
G04 #@! TF.FilePolarity,Negative*
%FSLAX46Y46*%
G04 Gerber Fmt 4.6, Leading zero omitted, Abs format (unit mm)*
G04 Created by KiCad (PCBNEW (5.1.5)-3) date 2021-03-25 13:03:32*
%MOMM*%
%LPD*%
G04 APERTURE LIST*
%ADD10C,0.100000*%
G04 APERTURE END LIST*
D10*
G36*
X189916000Y-95936000D02*
G01*
X188544000Y-95936000D01*
X188544000Y-92024000D01*
X189916000Y-92024000D01*
X189916000Y-95936000D01*
G37*
G36*
X186106000Y-95936000D02*
G01*
X184734000Y-95936000D01*
X184734000Y-92024000D01*
X186106000Y-92024000D01*
X186106000Y-95936000D01*
G37*
G36*
X184201000Y-95936000D02*
G01*
X182829000Y-95936000D01*
X182829000Y-92024000D01*
X184201000Y-92024000D01*
X184201000Y-95936000D01*
G37*
G36*
X182296000Y-95936000D02*
G01*
X180924000Y-95936000D01*
X180924000Y-92024000D01*
X182296000Y-92024000D01*
X182296000Y-95936000D01*
G37*
G36*
X193726000Y-95936000D02*
G01*
X192354000Y-95936000D01*
X192354000Y-92024000D01*
X193726000Y-92024000D01*
X193726000Y-95936000D01*
G37*
G36*
X191821000Y-95936000D02*
G01*
X190449000Y-95936000D01*
X190449000Y-92024000D01*
X191821000Y-92024000D01*
X191821000Y-95936000D01*
G37*
G36*
X179121000Y-93396000D02*
G01*
X175209000Y-93396000D01*
X175209000Y-92024000D01*
X179121000Y-92024000D01*
X179121000Y-93396000D01*
G37*
G36*
X180217552Y-92022331D02*
G01*
X180299627Y-92056328D01*
X180299629Y-92056329D01*
X180336813Y-92081175D01*
X180373495Y-92105685D01*
X180436315Y-92168505D01*
X180485672Y-92242373D01*
X180519669Y-92324448D01*
X180537000Y-92411579D01*
X180537000Y-92500421D01*
X180519669Y-92587552D01*
X180485672Y-92669627D01*
X180485671Y-92669629D01*
X180436314Y-92743496D01*
X180373496Y-92806314D01*
X180299629Y-92855671D01*
X180299628Y-92855672D01*
X180299627Y-92855672D01*
X180217552Y-92889669D01*
X180130421Y-92907000D01*
X180041579Y-92907000D01*
X179954448Y-92889669D01*
X179872373Y-92855672D01*
X179872372Y-92855672D01*
X179872371Y-92855671D01*
X179798504Y-92806314D01*
X179735686Y-92743496D01*
X179686329Y-92669629D01*
X179686328Y-92669627D01*
X179652331Y-92587552D01*
X179635000Y-92500421D01*
X179635000Y-92411579D01*
X179652331Y-92324448D01*
X179686328Y-92242373D01*
X179735685Y-92168505D01*
X179798505Y-92105685D01*
X179835187Y-92081175D01*
X179872371Y-92056329D01*
X179872373Y-92056328D01*
X179954448Y-92022331D01*
X180041579Y-92005000D01*
X180130421Y-92005000D01*
X180217552Y-92022331D01*
G37*
G36*
X179121000Y-91491000D02*
G01*
X175209000Y-91491000D01*
X175209000Y-90119000D01*
X179121000Y-90119000D01*
X179121000Y-91491000D01*
G37*
G36*
X180730903Y-90337433D02*
G01*
X180752513Y-90348984D01*
X180775963Y-90356097D01*
X180852552Y-90371331D01*
X180934627Y-90405328D01*
X180934629Y-90405329D01*
X180971813Y-90430175D01*
X181008495Y-90454685D01*
X181071315Y-90517505D01*
X181120672Y-90591373D01*
X181154669Y-90673448D01*
X181172000Y-90760579D01*
X181172000Y-90849421D01*
X181154669Y-90936552D01*
X181120672Y-91018627D01*
X181120671Y-91018629D01*
X181071314Y-91092496D01*
X181008496Y-91155314D01*
X180934629Y-91204671D01*
X180934628Y-91204672D01*
X180934627Y-91204672D01*
X180852552Y-91238669D01*
X180765421Y-91256000D01*
X180676579Y-91256000D01*
X180589448Y-91238669D01*
X180507373Y-91204672D01*
X180507372Y-91204672D01*
X180507371Y-91204671D01*
X180433504Y-91155314D01*
X180370686Y-91092496D01*
X180321329Y-91018629D01*
X180321328Y-91018627D01*
X180287331Y-90936552D01*
X180270000Y-90849421D01*
X180270000Y-90760579D01*
X180287331Y-90673448D01*
X180321328Y-90591373D01*
X180370685Y-90517505D01*
X180433505Y-90454685D01*
X180470187Y-90430175D01*
X180507371Y-90405329D01*
X180507373Y-90405328D01*
X180589448Y-90371331D01*
X180666037Y-90356097D01*
X180689486Y-90348984D01*
X180711096Y-90337433D01*
X180721000Y-90329305D01*
X180730903Y-90337433D01*
G37*
G36*
X185170552Y-89482331D02*
G01*
X185252627Y-89516328D01*
X185252629Y-89516329D01*
X185273759Y-89530448D01*
X185326495Y-89565685D01*
X185389315Y-89628505D01*
X185438672Y-89702373D01*
X185472669Y-89784448D01*
X185490000Y-89871579D01*
X185490000Y-89960421D01*
X185472669Y-90047552D01*
X185445559Y-90113000D01*
X185438671Y-90129629D01*
X185389314Y-90203496D01*
X185326496Y-90266314D01*
X185252629Y-90315671D01*
X185252628Y-90315672D01*
X185252627Y-90315672D01*
X185170552Y-90349669D01*
X185083421Y-90367000D01*
X184994579Y-90367000D01*
X184907448Y-90349669D01*
X184825373Y-90315672D01*
X184825372Y-90315672D01*
X184825371Y-90315671D01*
X184751504Y-90266314D01*
X184688686Y-90203496D01*
X184639329Y-90129629D01*
X184632441Y-90113000D01*
X184605331Y-90047552D01*
X184588000Y-89960421D01*
X184588000Y-89871579D01*
X184605331Y-89784448D01*
X184639328Y-89702373D01*
X184688685Y-89628505D01*
X184751505Y-89565685D01*
X184804241Y-89530448D01*
X184825371Y-89516329D01*
X184825373Y-89516328D01*
X184907448Y-89482331D01*
X184994579Y-89465000D01*
X185083421Y-89465000D01*
X185170552Y-89482331D01*
G37*
G36*
X190377552Y-89355331D02*
G01*
X190459627Y-89389328D01*
X190459629Y-89389329D01*
X190533496Y-89438686D01*
X190596314Y-89501504D01*
X190639200Y-89565686D01*
X190645672Y-89575373D01*
X190679669Y-89657448D01*
X190697000Y-89744579D01*
X190697000Y-89833421D01*
X190679669Y-89920552D01*
X190645672Y-90002627D01*
X190645671Y-90002629D01*
X190596314Y-90076496D01*
X190533496Y-90139314D01*
X190459629Y-90188671D01*
X190459628Y-90188672D01*
X190459627Y-90188672D01*
X190377552Y-90222669D01*
X190290421Y-90240000D01*
X190201579Y-90240000D01*
X190114448Y-90222669D01*
X190032373Y-90188672D01*
X190032372Y-90188672D01*
X190032371Y-90188671D01*
X189958504Y-90139314D01*
X189895686Y-90076496D01*
X189846329Y-90002629D01*
X189846328Y-90002627D01*
X189812331Y-89920552D01*
X189795000Y-89833421D01*
X189795000Y-89744579D01*
X189812331Y-89657448D01*
X189846328Y-89575373D01*
X189852801Y-89565686D01*
X189895686Y-89501504D01*
X189958504Y-89438686D01*
X190032371Y-89389329D01*
X190032373Y-89389328D01*
X190114448Y-89355331D01*
X190201579Y-89338000D01*
X190290421Y-89338000D01*
X190377552Y-89355331D01*
G37*
G36*
X180852552Y-89228331D02*
G01*
X180934627Y-89262328D01*
X180934629Y-89262329D01*
X181008496Y-89311686D01*
X181071314Y-89374504D01*
X181114200Y-89438686D01*
X181120672Y-89448373D01*
X181154669Y-89530448D01*
X181172000Y-89617579D01*
X181172000Y-89706421D01*
X181154669Y-89793552D01*
X181122349Y-89871579D01*
X181120671Y-89875629D01*
X181071314Y-89949496D01*
X181008496Y-90012314D01*
X180934629Y-90061671D01*
X180934628Y-90061672D01*
X180934627Y-90061672D01*
X180852552Y-90095669D01*
X180775963Y-90110903D01*
X180752514Y-90118016D01*
X180730904Y-90129567D01*
X180721000Y-90137695D01*
X180711097Y-90129567D01*
X180689487Y-90118016D01*
X180666037Y-90110903D01*
X180589448Y-90095669D01*
X180507373Y-90061672D01*
X180507372Y-90061672D01*
X180507371Y-90061671D01*
X180433504Y-90012314D01*
X180370686Y-89949496D01*
X180321329Y-89875629D01*
X180319651Y-89871579D01*
X180287331Y-89793552D01*
X180270000Y-89706421D01*
X180270000Y-89617579D01*
X180287331Y-89530448D01*
X180321328Y-89448373D01*
X180327801Y-89438686D01*
X180370686Y-89374504D01*
X180433504Y-89311686D01*
X180507371Y-89262329D01*
X180507373Y-89262328D01*
X180589448Y-89228331D01*
X180676579Y-89211000D01*
X180765421Y-89211000D01*
X180852552Y-89228331D01*
G37*
G36*
X182757552Y-89228331D02*
G01*
X182839627Y-89262328D01*
X182839629Y-89262329D01*
X182913496Y-89311686D01*
X182976314Y-89374504D01*
X183019200Y-89438686D01*
X183025672Y-89448373D01*
X183059669Y-89530448D01*
X183077000Y-89617579D01*
X183077000Y-89706421D01*
X183059669Y-89793552D01*
X183027349Y-89871579D01*
X183025671Y-89875629D01*
X182976314Y-89949496D01*
X182913496Y-90012314D01*
X182839629Y-90061671D01*
X182839628Y-90061672D01*
X182839627Y-90061672D01*
X182757552Y-90095669D01*
X182670421Y-90113000D01*
X182581579Y-90113000D01*
X182494448Y-90095669D01*
X182412373Y-90061672D01*
X182412372Y-90061672D01*
X182412371Y-90061671D01*
X182338504Y-90012314D01*
X182275686Y-89949496D01*
X182226329Y-89875629D01*
X182224651Y-89871579D01*
X182192331Y-89793552D01*
X182175000Y-89706421D01*
X182175000Y-89617579D01*
X182192331Y-89530448D01*
X182226328Y-89448373D01*
X182232801Y-89438686D01*
X182275686Y-89374504D01*
X182338504Y-89311686D01*
X182412371Y-89262329D01*
X182412373Y-89262328D01*
X182494448Y-89228331D01*
X182581579Y-89211000D01*
X182670421Y-89211000D01*
X182757552Y-89228331D01*
G37*
G36*
X179121000Y-89586000D02*
G01*
X175209000Y-89586000D01*
X175209000Y-88214000D01*
X179121000Y-88214000D01*
X179121000Y-89586000D01*
G37*
G36*
X187456552Y-88466331D02*
G01*
X187538627Y-88500328D01*
X187538629Y-88500329D01*
X187575813Y-88525175D01*
X187612495Y-88549685D01*
X187675315Y-88612505D01*
X187724672Y-88686373D01*
X187758669Y-88768448D01*
X187776000Y-88855579D01*
X187776000Y-88944421D01*
X187758669Y-89031552D01*
X187724672Y-89113627D01*
X187724671Y-89113629D01*
X187675314Y-89187496D01*
X187612496Y-89250314D01*
X187538629Y-89299671D01*
X187538628Y-89299672D01*
X187538627Y-89299672D01*
X187456552Y-89333669D01*
X187369421Y-89351000D01*
X187280579Y-89351000D01*
X187193448Y-89333669D01*
X187111373Y-89299672D01*
X187111372Y-89299672D01*
X187111371Y-89299671D01*
X187037504Y-89250314D01*
X186974686Y-89187496D01*
X186925329Y-89113629D01*
X186925328Y-89113627D01*
X186891331Y-89031552D01*
X186874000Y-88944421D01*
X186874000Y-88855579D01*
X186891331Y-88768448D01*
X186925328Y-88686373D01*
X186974685Y-88612505D01*
X187037505Y-88549685D01*
X187074187Y-88525175D01*
X187111371Y-88500329D01*
X187111373Y-88500328D01*
X187193448Y-88466331D01*
X187280579Y-88449000D01*
X187369421Y-88449000D01*
X187456552Y-88466331D01*
G37*
G36*
X180217552Y-87450331D02*
G01*
X180299627Y-87484328D01*
X180299629Y-87484329D01*
X180336813Y-87509175D01*
X180373495Y-87533685D01*
X180436315Y-87596505D01*
X180485672Y-87670373D01*
X180519669Y-87752448D01*
X180537000Y-87839579D01*
X180537000Y-87928421D01*
X180519669Y-88015552D01*
X180485672Y-88097627D01*
X180485671Y-88097629D01*
X180436314Y-88171496D01*
X180373496Y-88234314D01*
X180299629Y-88283671D01*
X180299628Y-88283672D01*
X180299627Y-88283672D01*
X180217552Y-88317669D01*
X180130421Y-88335000D01*
X180041579Y-88335000D01*
X179954448Y-88317669D01*
X179872373Y-88283672D01*
X179872372Y-88283672D01*
X179872371Y-88283671D01*
X179798504Y-88234314D01*
X179735686Y-88171496D01*
X179686329Y-88097629D01*
X179686328Y-88097627D01*
X179652331Y-88015552D01*
X179635000Y-87928421D01*
X179635000Y-87839579D01*
X179652331Y-87752448D01*
X179686328Y-87670373D01*
X179735685Y-87596505D01*
X179798505Y-87533685D01*
X179835187Y-87509175D01*
X179872371Y-87484329D01*
X179872373Y-87484328D01*
X179954448Y-87450331D01*
X180041579Y-87433000D01*
X180130421Y-87433000D01*
X180217552Y-87450331D01*
G37*
G36*
X184201000Y-87681000D02*
G01*
X182829000Y-87681000D01*
X182829000Y-83769000D01*
X184201000Y-83769000D01*
X184201000Y-87681000D01*
G37*
G36*
X186106000Y-87681000D02*
G01*
X184734000Y-87681000D01*
X184734000Y-83769000D01*
X186106000Y-83769000D01*
X186106000Y-87681000D01*
G37*
G36*
X179121000Y-87681000D02*
G01*
X175209000Y-87681000D01*
X175209000Y-86309000D01*
X179121000Y-86309000D01*
X179121000Y-87681000D01*
G37*
G36*
X182296000Y-87681000D02*
G01*
X180924000Y-87681000D01*
X180924000Y-83769000D01*
X182296000Y-83769000D01*
X182296000Y-87681000D01*
G37*
G36*
X189916000Y-87681000D02*
G01*
X188544000Y-87681000D01*
X188544000Y-83769000D01*
X189916000Y-83769000D01*
X189916000Y-87681000D01*
G37*
G36*
X193726000Y-87681000D02*
G01*
X192354000Y-87681000D01*
X192354000Y-83769000D01*
X193726000Y-83769000D01*
X193726000Y-87681000D01*
G37*
G36*
X191821000Y-87681000D02*
G01*
X190449000Y-87681000D01*
X190449000Y-83769000D01*
X191821000Y-83769000D01*
X191821000Y-87681000D01*
G37*
M02*
