G04 #@! TF.GenerationSoftware,KiCad,Pcbnew,(5.1.5)-3*
G04 #@! TF.CreationDate,2021-01-06T13:38:42+01:00*
G04 #@! TF.ProjectId,prog,70726f67-2e6b-4696-9361-645f70636258,rev?*
G04 #@! TF.SameCoordinates,Original*
G04 #@! TF.FileFunction,Soldermask,Bot*
G04 #@! TF.FilePolarity,Negative*
%FSLAX46Y46*%
G04 Gerber Fmt 4.6, Leading zero omitted, Abs format (unit mm)*
G04 Created by KiCad (PCBNEW (5.1.5)-3) date 2021-01-06 13:38:42*
%MOMM*%
%LPD*%
G04 APERTURE LIST*
%ADD10C,0.200000*%
%ADD11C,0.250000*%
%ADD12C,0.300000*%
%ADD13C,0.100000*%
G04 APERTURE END LIST*
D10*
X195986333Y-76180904D02*
X196253000Y-75799952D01*
X196443476Y-76180904D02*
X196443476Y-75380904D01*
X196138714Y-75380904D01*
X196062523Y-75419000D01*
X196024428Y-75457095D01*
X195986333Y-75533285D01*
X195986333Y-75647571D01*
X196024428Y-75723761D01*
X196062523Y-75761857D01*
X196138714Y-75799952D01*
X196443476Y-75799952D01*
X195719666Y-75380904D02*
X195186333Y-76180904D01*
X195186333Y-75380904D02*
X195719666Y-76180904D01*
X194881571Y-76180904D02*
X194881571Y-75380904D01*
X194691095Y-75380904D01*
X194576809Y-75419000D01*
X194500619Y-75495190D01*
X194462523Y-75571380D01*
X194424428Y-75723761D01*
X194424428Y-75838047D01*
X194462523Y-75990428D01*
X194500619Y-76066619D01*
X194576809Y-76142809D01*
X194691095Y-76180904D01*
X194881571Y-76180904D01*
X196462523Y-74110904D02*
X196005380Y-74110904D01*
X196233952Y-74910904D02*
X196233952Y-74110904D01*
X195814904Y-74110904D02*
X195281571Y-74910904D01*
X195281571Y-74110904D02*
X195814904Y-74910904D01*
X194976809Y-74910904D02*
X194976809Y-74110904D01*
X194786333Y-74110904D01*
X194672047Y-74149000D01*
X194595857Y-74225190D01*
X194557761Y-74301380D01*
X194519666Y-74453761D01*
X194519666Y-74568047D01*
X194557761Y-74720428D01*
X194595857Y-74796619D01*
X194672047Y-74872809D01*
X194786333Y-74910904D01*
X194976809Y-74910904D01*
X199701095Y-74910904D02*
X199967761Y-74529952D01*
X200158238Y-74910904D02*
X200158238Y-74110904D01*
X199853476Y-74110904D01*
X199777285Y-74149000D01*
X199739190Y-74187095D01*
X199701095Y-74263285D01*
X199701095Y-74377571D01*
X199739190Y-74453761D01*
X199777285Y-74491857D01*
X199853476Y-74529952D01*
X200158238Y-74529952D01*
X199396333Y-74872809D02*
X199282047Y-74910904D01*
X199091571Y-74910904D01*
X199015380Y-74872809D01*
X198977285Y-74834714D01*
X198939190Y-74758523D01*
X198939190Y-74682333D01*
X198977285Y-74606142D01*
X199015380Y-74568047D01*
X199091571Y-74529952D01*
X199243952Y-74491857D01*
X199320142Y-74453761D01*
X199358238Y-74415666D01*
X199396333Y-74339476D01*
X199396333Y-74263285D01*
X199358238Y-74187095D01*
X199320142Y-74149000D01*
X199243952Y-74110904D01*
X199053476Y-74110904D01*
X198939190Y-74149000D01*
X198710619Y-74110904D02*
X198253476Y-74110904D01*
X198482047Y-74910904D02*
X198482047Y-74110904D01*
X200443952Y-75419000D02*
X200520142Y-75380904D01*
X200634428Y-75380904D01*
X200748714Y-75419000D01*
X200824904Y-75495190D01*
X200863000Y-75571380D01*
X200901095Y-75723761D01*
X200901095Y-75838047D01*
X200863000Y-75990428D01*
X200824904Y-76066619D01*
X200748714Y-76142809D01*
X200634428Y-76180904D01*
X200558238Y-76180904D01*
X200443952Y-76142809D01*
X200405857Y-76104714D01*
X200405857Y-75838047D01*
X200558238Y-75838047D01*
X200063000Y-76180904D02*
X200063000Y-75380904D01*
X199758238Y-75380904D01*
X199682047Y-75419000D01*
X199643952Y-75457095D01*
X199605857Y-75533285D01*
X199605857Y-75647571D01*
X199643952Y-75723761D01*
X199682047Y-75761857D01*
X199758238Y-75799952D01*
X200063000Y-75799952D01*
X199263000Y-76180904D02*
X199263000Y-75380904D01*
X198729666Y-75380904D02*
X198577285Y-75380904D01*
X198501095Y-75419000D01*
X198424904Y-75495190D01*
X198386809Y-75647571D01*
X198386809Y-75914238D01*
X198424904Y-76066619D01*
X198501095Y-76142809D01*
X198577285Y-76180904D01*
X198729666Y-76180904D01*
X198805857Y-76142809D01*
X198882047Y-76066619D01*
X198920142Y-75914238D01*
X198920142Y-75647571D01*
X198882047Y-75495190D01*
X198805857Y-75419000D01*
X198729666Y-75380904D01*
X197891571Y-75380904D02*
X197815380Y-75380904D01*
X197739190Y-75419000D01*
X197701095Y-75457095D01*
X197663000Y-75533285D01*
X197624904Y-75685666D01*
X197624904Y-75876142D01*
X197663000Y-76028523D01*
X197701095Y-76104714D01*
X197739190Y-76142809D01*
X197815380Y-76180904D01*
X197891571Y-76180904D01*
X197967761Y-76142809D01*
X198005857Y-76104714D01*
X198043952Y-76028523D01*
X198082047Y-75876142D01*
X198082047Y-75685666D01*
X198043952Y-75533285D01*
X198005857Y-75457095D01*
X197967761Y-75419000D01*
X197891571Y-75380904D01*
X203682523Y-74149000D02*
X203758714Y-74110904D01*
X203873000Y-74110904D01*
X203987285Y-74149000D01*
X204063476Y-74225190D01*
X204101571Y-74301380D01*
X204139666Y-74453761D01*
X204139666Y-74568047D01*
X204101571Y-74720428D01*
X204063476Y-74796619D01*
X203987285Y-74872809D01*
X203873000Y-74910904D01*
X203796809Y-74910904D01*
X203682523Y-74872809D01*
X203644428Y-74834714D01*
X203644428Y-74568047D01*
X203796809Y-74568047D01*
X203301571Y-74910904D02*
X203301571Y-74110904D01*
X202844428Y-74910904D01*
X202844428Y-74110904D01*
X202463476Y-74910904D02*
X202463476Y-74110904D01*
X202273000Y-74110904D01*
X202158714Y-74149000D01*
X202082523Y-74225190D01*
X202044428Y-74301380D01*
X202006333Y-74453761D01*
X202006333Y-74568047D01*
X202044428Y-74720428D01*
X202082523Y-74796619D01*
X202158714Y-74872809D01*
X202273000Y-74910904D01*
X202463476Y-74910904D01*
D11*
X163742619Y-76166190D02*
X163742619Y-75918571D01*
X163695000Y-75794761D01*
X163599761Y-75670952D01*
X163409285Y-75609047D01*
X163075952Y-75609047D01*
X162885476Y-75670952D01*
X162790238Y-75794761D01*
X162742619Y-75918571D01*
X162742619Y-76166190D01*
X162790238Y-76290000D01*
X162885476Y-76413809D01*
X163075952Y-76475714D01*
X163409285Y-76475714D01*
X163599761Y-76413809D01*
X163695000Y-76290000D01*
X163742619Y-76166190D01*
X162742619Y-75051904D02*
X163742619Y-75051904D01*
X163266428Y-75051904D02*
X163266428Y-74309047D01*
X162742619Y-74309047D02*
X163742619Y-74309047D01*
X163647380Y-72761428D02*
X163695000Y-72699523D01*
X163742619Y-72575714D01*
X163742619Y-72266190D01*
X163695000Y-72142380D01*
X163647380Y-72080476D01*
X163552142Y-72018571D01*
X163456904Y-72018571D01*
X163314047Y-72080476D01*
X162742619Y-72823333D01*
X162742619Y-72018571D01*
X162742619Y-70780476D02*
X162742619Y-71523333D01*
X162742619Y-71151904D02*
X163742619Y-71151904D01*
X163599761Y-71275714D01*
X163504523Y-71399523D01*
X163456904Y-71523333D01*
X163742619Y-69975714D02*
X163742619Y-69851904D01*
X163695000Y-69728095D01*
X163647380Y-69666190D01*
X163552142Y-69604285D01*
X163361666Y-69542380D01*
X163123571Y-69542380D01*
X162933095Y-69604285D01*
X162837857Y-69666190D01*
X162790238Y-69728095D01*
X162742619Y-69851904D01*
X162742619Y-69975714D01*
X162790238Y-70099523D01*
X162837857Y-70161428D01*
X162933095Y-70223333D01*
X163123571Y-70285238D01*
X163361666Y-70285238D01*
X163552142Y-70223333D01*
X163647380Y-70161428D01*
X163695000Y-70099523D01*
X163742619Y-69975714D01*
X162742619Y-68304285D02*
X162742619Y-69047142D01*
X162742619Y-68675714D02*
X163742619Y-68675714D01*
X163599761Y-68799523D01*
X163504523Y-68923333D01*
X163456904Y-69047142D01*
D12*
X160747142Y-75068571D02*
X161947142Y-75068571D01*
X161947142Y-74497142D01*
X161890000Y-74354285D01*
X161832857Y-74282857D01*
X161718571Y-74211428D01*
X161547142Y-74211428D01*
X161432857Y-74282857D01*
X161375714Y-74354285D01*
X161318571Y-74497142D01*
X161318571Y-75068571D01*
X160747142Y-72711428D02*
X161318571Y-73211428D01*
X160747142Y-73568571D02*
X161947142Y-73568571D01*
X161947142Y-72997142D01*
X161890000Y-72854285D01*
X161832857Y-72782857D01*
X161718571Y-72711428D01*
X161547142Y-72711428D01*
X161432857Y-72782857D01*
X161375714Y-72854285D01*
X161318571Y-72997142D01*
X161318571Y-73568571D01*
X161947142Y-71782857D02*
X161947142Y-71497142D01*
X161890000Y-71354285D01*
X161775714Y-71211428D01*
X161547142Y-71140000D01*
X161147142Y-71140000D01*
X160918571Y-71211428D01*
X160804285Y-71354285D01*
X160747142Y-71497142D01*
X160747142Y-71782857D01*
X160804285Y-71925714D01*
X160918571Y-72068571D01*
X161147142Y-72140000D01*
X161547142Y-72140000D01*
X161775714Y-72068571D01*
X161890000Y-71925714D01*
X161947142Y-71782857D01*
X161890000Y-69711428D02*
X161947142Y-69854285D01*
X161947142Y-70068571D01*
X161890000Y-70282857D01*
X161775714Y-70425714D01*
X161661428Y-70497142D01*
X161432857Y-70568571D01*
X161261428Y-70568571D01*
X161032857Y-70497142D01*
X160918571Y-70425714D01*
X160804285Y-70282857D01*
X160747142Y-70068571D01*
X160747142Y-69925714D01*
X160804285Y-69711428D01*
X160861428Y-69640000D01*
X161261428Y-69640000D01*
X161261428Y-69925714D01*
D13*
G36*
X181487552Y-75512331D02*
G01*
X181569627Y-75546328D01*
X181569629Y-75546329D01*
X181590759Y-75560448D01*
X181643495Y-75595685D01*
X181706315Y-75658505D01*
X181755672Y-75732373D01*
X181789669Y-75814448D01*
X181807000Y-75901579D01*
X181807000Y-75990421D01*
X181789669Y-76077552D01*
X181769738Y-76125668D01*
X181755671Y-76159629D01*
X181706314Y-76233496D01*
X181643496Y-76296314D01*
X181569629Y-76345671D01*
X181569628Y-76345672D01*
X181569627Y-76345672D01*
X181487552Y-76379669D01*
X181400421Y-76397000D01*
X181311579Y-76397000D01*
X181224448Y-76379669D01*
X181142373Y-76345672D01*
X181142372Y-76345672D01*
X181142371Y-76345671D01*
X181068504Y-76296314D01*
X181005686Y-76233496D01*
X180956329Y-76159629D01*
X180942262Y-76125668D01*
X180922331Y-76077552D01*
X180905000Y-75990421D01*
X180905000Y-75901579D01*
X180922331Y-75814448D01*
X180956328Y-75732373D01*
X181005685Y-75658505D01*
X181068505Y-75595685D01*
X181121241Y-75560448D01*
X181142371Y-75546329D01*
X181142373Y-75546328D01*
X181224448Y-75512331D01*
X181311579Y-75495000D01*
X181400421Y-75495000D01*
X181487552Y-75512331D01*
G37*
G36*
X168660552Y-75258331D02*
G01*
X168742627Y-75292328D01*
X168742629Y-75292329D01*
X168779813Y-75317175D01*
X168816495Y-75341685D01*
X168879315Y-75404505D01*
X168928672Y-75478373D01*
X168962669Y-75560448D01*
X168980000Y-75647579D01*
X168980000Y-75736421D01*
X168962669Y-75823552D01*
X168930349Y-75901579D01*
X168928671Y-75905629D01*
X168879314Y-75979496D01*
X168816496Y-76042314D01*
X168742629Y-76091671D01*
X168742628Y-76091672D01*
X168742627Y-76091672D01*
X168660552Y-76125669D01*
X168573421Y-76143000D01*
X168484579Y-76143000D01*
X168397448Y-76125669D01*
X168315373Y-76091672D01*
X168315372Y-76091672D01*
X168315371Y-76091671D01*
X168241504Y-76042314D01*
X168178686Y-75979496D01*
X168129329Y-75905629D01*
X168127651Y-75901579D01*
X168095331Y-75823552D01*
X168080097Y-75746963D01*
X168072984Y-75723514D01*
X168061433Y-75701904D01*
X168053305Y-75692000D01*
X168061433Y-75682097D01*
X168072984Y-75660487D01*
X168080097Y-75637037D01*
X168095331Y-75560448D01*
X168129328Y-75478373D01*
X168178685Y-75404505D01*
X168241505Y-75341685D01*
X168278187Y-75317175D01*
X168315371Y-75292329D01*
X168315373Y-75292328D01*
X168397448Y-75258331D01*
X168484579Y-75241000D01*
X168573421Y-75241000D01*
X168660552Y-75258331D01*
G37*
G36*
X167398412Y-75224932D02*
G01*
X167420023Y-75236483D01*
X167443472Y-75243596D01*
X167517552Y-75258331D01*
X167599627Y-75292328D01*
X167599629Y-75292329D01*
X167636813Y-75317175D01*
X167673495Y-75341685D01*
X167736315Y-75404505D01*
X167785672Y-75478373D01*
X167819669Y-75560448D01*
X167834903Y-75637037D01*
X167842016Y-75660486D01*
X167853567Y-75682096D01*
X167861695Y-75692000D01*
X167853567Y-75701903D01*
X167842016Y-75723513D01*
X167834903Y-75746963D01*
X167819669Y-75823552D01*
X167787349Y-75901579D01*
X167785671Y-75905629D01*
X167736314Y-75979496D01*
X167673496Y-76042314D01*
X167599629Y-76091671D01*
X167599628Y-76091672D01*
X167599627Y-76091672D01*
X167517552Y-76125669D01*
X167430421Y-76143000D01*
X167341579Y-76143000D01*
X167254448Y-76125669D01*
X167172373Y-76091672D01*
X167172372Y-76091672D01*
X167172371Y-76091671D01*
X167098504Y-76042314D01*
X167035686Y-75979496D01*
X166986329Y-75905629D01*
X166984651Y-75901579D01*
X166952331Y-75823552D01*
X166935000Y-75736421D01*
X166935000Y-75647579D01*
X166952331Y-75560448D01*
X166986328Y-75478373D01*
X167035685Y-75404505D01*
X167098505Y-75341685D01*
X167135187Y-75317175D01*
X167172371Y-75292329D01*
X167172373Y-75292328D01*
X167254448Y-75258331D01*
X167328528Y-75243596D01*
X167351977Y-75236483D01*
X167373587Y-75224932D01*
X167386000Y-75214746D01*
X167398412Y-75224932D01*
G37*
G36*
X158974549Y-73801116D02*
G01*
X159085734Y-73823232D01*
X159295203Y-73909997D01*
X159483720Y-74035960D01*
X159644040Y-74196280D01*
X159770003Y-74384797D01*
X159770004Y-74384799D01*
X159791570Y-74436865D01*
X159836133Y-74544448D01*
X159856768Y-74594267D01*
X159901000Y-74816635D01*
X159901000Y-75043365D01*
X159879130Y-75153314D01*
X159856768Y-75265734D01*
X159770003Y-75475203D01*
X159644040Y-75663720D01*
X159483720Y-75824040D01*
X159295203Y-75950003D01*
X159085734Y-76036768D01*
X159057852Y-76042314D01*
X158863365Y-76081000D01*
X158636635Y-76081000D01*
X158442148Y-76042314D01*
X158414266Y-76036768D01*
X158204797Y-75950003D01*
X158016280Y-75824040D01*
X157855960Y-75663720D01*
X157729997Y-75475203D01*
X157643232Y-75265734D01*
X157620870Y-75153314D01*
X157599000Y-75043365D01*
X157599000Y-74816635D01*
X157643232Y-74594267D01*
X157663868Y-74544448D01*
X157708430Y-74436865D01*
X157729996Y-74384799D01*
X157729997Y-74384797D01*
X157855960Y-74196280D01*
X158016280Y-74035960D01*
X158204797Y-73909997D01*
X158414266Y-73823232D01*
X158525451Y-73801116D01*
X158636635Y-73779000D01*
X158863365Y-73779000D01*
X158974549Y-73801116D01*
G37*
G36*
X172851552Y-74369331D02*
G01*
X172933627Y-74403328D01*
X172933629Y-74403329D01*
X172944861Y-74410834D01*
X173007495Y-74452685D01*
X173070315Y-74515505D01*
X173119672Y-74589373D01*
X173153669Y-74671448D01*
X173171000Y-74758579D01*
X173171000Y-74847421D01*
X173153669Y-74934552D01*
X173128216Y-74996000D01*
X173119671Y-75016629D01*
X173070314Y-75090496D01*
X173007496Y-75153314D01*
X172933629Y-75202671D01*
X172933628Y-75202672D01*
X172933627Y-75202672D01*
X172851552Y-75236669D01*
X172764421Y-75254000D01*
X172675579Y-75254000D01*
X172588448Y-75236669D01*
X172506373Y-75202672D01*
X172506372Y-75202672D01*
X172506371Y-75202671D01*
X172432504Y-75153314D01*
X172369686Y-75090496D01*
X172320329Y-75016629D01*
X172311784Y-74996000D01*
X172286331Y-74934552D01*
X172269000Y-74847421D01*
X172269000Y-74758579D01*
X172286331Y-74671448D01*
X172320328Y-74589373D01*
X172369685Y-74515505D01*
X172432505Y-74452685D01*
X172495139Y-74410834D01*
X172506371Y-74403329D01*
X172506373Y-74403328D01*
X172588448Y-74369331D01*
X172675579Y-74352000D01*
X172764421Y-74352000D01*
X172851552Y-74369331D01*
G37*
G36*
X181841000Y-74238000D02*
G01*
X180950608Y-74238000D01*
X180926222Y-74240402D01*
X180902773Y-74247515D01*
X180881162Y-74259066D01*
X180862220Y-74274611D01*
X180846675Y-74293553D01*
X180835124Y-74315164D01*
X180828011Y-74338613D01*
X180825609Y-74362999D01*
X180828011Y-74387385D01*
X180835124Y-74410834D01*
X180846675Y-74432445D01*
X180864068Y-74458475D01*
X180866672Y-74462373D01*
X180900669Y-74544448D01*
X180918000Y-74631579D01*
X180918000Y-74720421D01*
X180900669Y-74807552D01*
X180866672Y-74889627D01*
X180866671Y-74889629D01*
X180849628Y-74915135D01*
X180817315Y-74963495D01*
X180754495Y-75026315D01*
X180728979Y-75043364D01*
X180680629Y-75075671D01*
X180680628Y-75075672D01*
X180680627Y-75075672D01*
X180598552Y-75109669D01*
X180511421Y-75127000D01*
X180422579Y-75127000D01*
X180335448Y-75109669D01*
X180253373Y-75075672D01*
X180253372Y-75075672D01*
X180253371Y-75075671D01*
X180205021Y-75043364D01*
X180179505Y-75026315D01*
X180116683Y-74963493D01*
X180069932Y-74893525D01*
X180054387Y-74874583D01*
X180035445Y-74859037D01*
X180013834Y-74847486D01*
X179990385Y-74840373D01*
X179965999Y-74837971D01*
X179941613Y-74840373D01*
X179918164Y-74847486D01*
X179896554Y-74859037D01*
X179877612Y-74874582D01*
X179862066Y-74893524D01*
X179850515Y-74915135D01*
X179843402Y-74938584D01*
X179841000Y-74962970D01*
X179841000Y-75188000D01*
X178839000Y-75188000D01*
X178839000Y-74286000D01*
X179841000Y-74286000D01*
X179841000Y-74389030D01*
X179843402Y-74413416D01*
X179850515Y-74436865D01*
X179862066Y-74458476D01*
X179877611Y-74477418D01*
X179896553Y-74492963D01*
X179918164Y-74504514D01*
X179941613Y-74511627D01*
X179965999Y-74514029D01*
X179990385Y-74511627D01*
X180013834Y-74504514D01*
X180035445Y-74492963D01*
X180054387Y-74477418D01*
X180069932Y-74458475D01*
X180116683Y-74388507D01*
X180179505Y-74325685D01*
X180251692Y-74277451D01*
X180253371Y-74276329D01*
X180253373Y-74276328D01*
X180335448Y-74242331D01*
X180422579Y-74225000D01*
X180511421Y-74225000D01*
X180598552Y-74242331D01*
X180666166Y-74270338D01*
X180689615Y-74277451D01*
X180714001Y-74279853D01*
X180738387Y-74277451D01*
X180761836Y-74270338D01*
X180783447Y-74258787D01*
X180802389Y-74243242D01*
X180817934Y-74224300D01*
X180829485Y-74202689D01*
X180836598Y-74179240D01*
X180839000Y-74154854D01*
X180839000Y-73336000D01*
X181841000Y-73336000D01*
X181841000Y-74238000D01*
G37*
G36*
X173921000Y-72477343D02*
G01*
X173923402Y-72501729D01*
X173930515Y-72525178D01*
X173942066Y-72546789D01*
X173957611Y-72565731D01*
X173976553Y-72581276D01*
X173998163Y-72592827D01*
X174076629Y-72625329D01*
X174146176Y-72671799D01*
X174150496Y-72674686D01*
X174213314Y-72737504D01*
X174258077Y-72804495D01*
X174262672Y-72811373D01*
X174296669Y-72893448D01*
X174314000Y-72980579D01*
X174314000Y-73069421D01*
X174296669Y-73156552D01*
X174262672Y-73238628D01*
X174255371Y-73249554D01*
X174243820Y-73271165D01*
X174236706Y-73294614D01*
X174234304Y-73319000D01*
X174236706Y-73343386D01*
X174243818Y-73366835D01*
X174255369Y-73388446D01*
X174270914Y-73407388D01*
X174289856Y-73422933D01*
X174311467Y-73434484D01*
X174334916Y-73441598D01*
X174359303Y-73444000D01*
X174771000Y-73444000D01*
X174771000Y-75146000D01*
X173669000Y-75146000D01*
X173669000Y-73504600D01*
X173666598Y-73480214D01*
X173659485Y-73456765D01*
X173647934Y-73435154D01*
X173632389Y-73416212D01*
X173613446Y-73400667D01*
X173575507Y-73375317D01*
X173512685Y-73312495D01*
X173463328Y-73238627D01*
X173429331Y-73156552D01*
X173412000Y-73069421D01*
X173412000Y-72980579D01*
X173429331Y-72893448D01*
X173442426Y-72861834D01*
X173449539Y-72838385D01*
X173451941Y-72813998D01*
X173449539Y-72789612D01*
X173442426Y-72766163D01*
X173430875Y-72744553D01*
X173415329Y-72725611D01*
X173396387Y-72710066D01*
X173374777Y-72698515D01*
X173351328Y-72691402D01*
X173326942Y-72689000D01*
X173019000Y-72689000D01*
X173019000Y-71837000D01*
X173921000Y-71837000D01*
X173921000Y-72477343D01*
G37*
G36*
X172421000Y-72689000D02*
G01*
X172367058Y-72689000D01*
X172342672Y-72691402D01*
X172319223Y-72698515D01*
X172297612Y-72710066D01*
X172278670Y-72725611D01*
X172263125Y-72744553D01*
X172251574Y-72766164D01*
X172244461Y-72789613D01*
X172242059Y-72813999D01*
X172244461Y-72838385D01*
X172251574Y-72861834D01*
X172264669Y-72893448D01*
X172282000Y-72980579D01*
X172282000Y-73069421D01*
X172264669Y-73156552D01*
X172230672Y-73238627D01*
X172181315Y-73312495D01*
X172118495Y-73375315D01*
X172081813Y-73399825D01*
X172044629Y-73424671D01*
X172044628Y-73424672D01*
X172044627Y-73424672D01*
X171962551Y-73458669D01*
X171871614Y-73476757D01*
X171848165Y-73483870D01*
X171826554Y-73495421D01*
X171807612Y-73510966D01*
X171792067Y-73529908D01*
X171780515Y-73551518D01*
X171773402Y-73574967D01*
X171771000Y-73599354D01*
X171771000Y-75146000D01*
X170669000Y-75146000D01*
X170669000Y-73444000D01*
X171334697Y-73444000D01*
X171359083Y-73441598D01*
X171382532Y-73434485D01*
X171404143Y-73422934D01*
X171423085Y-73407389D01*
X171438630Y-73388447D01*
X171450181Y-73366836D01*
X171457294Y-73343387D01*
X171459696Y-73319001D01*
X171457294Y-73294615D01*
X171450181Y-73271166D01*
X171438629Y-73249554D01*
X171431328Y-73238628D01*
X171397331Y-73156552D01*
X171380000Y-73069421D01*
X171380000Y-72980579D01*
X171397331Y-72893448D01*
X171431328Y-72811373D01*
X171435924Y-72804495D01*
X171480686Y-72737504D01*
X171482389Y-72735801D01*
X171497934Y-72716859D01*
X171509485Y-72695248D01*
X171516598Y-72671799D01*
X171519000Y-72647413D01*
X171519000Y-71837000D01*
X172421000Y-71837000D01*
X172421000Y-72689000D01*
G37*
G36*
X167980000Y-74996000D02*
G01*
X167467858Y-74996000D01*
X167443472Y-74998402D01*
X167420023Y-75005515D01*
X167398412Y-75017066D01*
X167386000Y-75027252D01*
X167373588Y-75017066D01*
X167351977Y-75005515D01*
X167328528Y-74998402D01*
X167304142Y-74996000D01*
X167178000Y-74996000D01*
X167178000Y-73594000D01*
X167980000Y-73594000D01*
X167980000Y-74996000D01*
G37*
G36*
X169880000Y-74996000D02*
G01*
X169078000Y-74996000D01*
X169078000Y-73594000D01*
X169880000Y-73594000D01*
X169880000Y-74996000D01*
G37*
G36*
X178301000Y-74838000D02*
G01*
X177299000Y-74838000D01*
X177299000Y-74236000D01*
X178301000Y-74236000D01*
X178301000Y-74838000D01*
G37*
G36*
X165907000Y-73718000D02*
G01*
X165055000Y-73718000D01*
X165055000Y-72816000D01*
X165907000Y-72816000D01*
X165907000Y-73718000D01*
G37*
G36*
X206361000Y-73341000D02*
G01*
X182259000Y-73341000D01*
X182259000Y-71439000D01*
X206361000Y-71439000D01*
X206361000Y-73341000D01*
G37*
G36*
X178301000Y-73338000D02*
G01*
X177299000Y-73338000D01*
X177299000Y-72736000D01*
X178301000Y-72736000D01*
X178301000Y-73338000D01*
G37*
G36*
X179841000Y-73288000D02*
G01*
X178839000Y-73288000D01*
X178839000Y-72386000D01*
X179841000Y-72386000D01*
X179841000Y-73288000D01*
G37*
G36*
X167009552Y-72083331D02*
G01*
X167091627Y-72117328D01*
X167091629Y-72117329D01*
X167165496Y-72166686D01*
X167228314Y-72229504D01*
X167273077Y-72296495D01*
X167277672Y-72303373D01*
X167311669Y-72385448D01*
X167329000Y-72472579D01*
X167329000Y-72561421D01*
X167311669Y-72648552D01*
X167277672Y-72730627D01*
X167277671Y-72730629D01*
X167228314Y-72804496D01*
X167165496Y-72867314D01*
X167091629Y-72916671D01*
X167091628Y-72916672D01*
X167091627Y-72916672D01*
X167009552Y-72950669D01*
X166922421Y-72968000D01*
X166833579Y-72968000D01*
X166746448Y-72950669D01*
X166664373Y-72916672D01*
X166664372Y-72916672D01*
X166664371Y-72916671D01*
X166590504Y-72867314D01*
X166527686Y-72804496D01*
X166478329Y-72730629D01*
X166478328Y-72730627D01*
X166444331Y-72648552D01*
X166427000Y-72561421D01*
X166427000Y-72472579D01*
X166444331Y-72385448D01*
X166478328Y-72303373D01*
X166482924Y-72296495D01*
X166527686Y-72229504D01*
X166590504Y-72166686D01*
X166664371Y-72117329D01*
X166664373Y-72117328D01*
X166746448Y-72083331D01*
X166833579Y-72066000D01*
X166922421Y-72066000D01*
X167009552Y-72083331D01*
G37*
G36*
X168484000Y-72816000D02*
G01*
X167582000Y-72816000D01*
X167582000Y-71964000D01*
X168484000Y-71964000D01*
X168484000Y-72816000D01*
G37*
G36*
X169984000Y-72816000D02*
G01*
X169082000Y-72816000D01*
X169082000Y-71964000D01*
X169984000Y-71964000D01*
X169984000Y-72816000D01*
G37*
G36*
X177931552Y-71575331D02*
G01*
X178013627Y-71609328D01*
X178013629Y-71609329D01*
X178050813Y-71634175D01*
X178087495Y-71658685D01*
X178150315Y-71721505D01*
X178199672Y-71795373D01*
X178233669Y-71877448D01*
X178251000Y-71964579D01*
X178251000Y-72053421D01*
X178233669Y-72140552D01*
X178199672Y-72222627D01*
X178199671Y-72222629D01*
X178150314Y-72296496D01*
X178087496Y-72359314D01*
X178013629Y-72408671D01*
X178013628Y-72408672D01*
X178013627Y-72408672D01*
X177931552Y-72442669D01*
X177844421Y-72460000D01*
X177755579Y-72460000D01*
X177668448Y-72442669D01*
X177586373Y-72408672D01*
X177586372Y-72408672D01*
X177586371Y-72408671D01*
X177512504Y-72359314D01*
X177449686Y-72296496D01*
X177400329Y-72222629D01*
X177400328Y-72222627D01*
X177366331Y-72140552D01*
X177349000Y-72053421D01*
X177349000Y-71964579D01*
X177366331Y-71877448D01*
X177400328Y-71795373D01*
X177449685Y-71721505D01*
X177512505Y-71658685D01*
X177549187Y-71634175D01*
X177586371Y-71609329D01*
X177586373Y-71609328D01*
X177668448Y-71575331D01*
X177755579Y-71558000D01*
X177844421Y-71558000D01*
X177931552Y-71575331D01*
G37*
G36*
X165907000Y-72218000D02*
G01*
X165055000Y-72218000D01*
X165055000Y-71316000D01*
X165907000Y-71316000D01*
X165907000Y-72218000D01*
G37*
G36*
X167009552Y-70813331D02*
G01*
X167091627Y-70847328D01*
X167091629Y-70847329D01*
X167125563Y-70870003D01*
X167165495Y-70896685D01*
X167228315Y-70959505D01*
X167277672Y-71033373D01*
X167311669Y-71115448D01*
X167329000Y-71202579D01*
X167329000Y-71291421D01*
X167311669Y-71378552D01*
X167286630Y-71439000D01*
X167277671Y-71460629D01*
X167228314Y-71534496D01*
X167165496Y-71597314D01*
X167091629Y-71646671D01*
X167091628Y-71646672D01*
X167091627Y-71646672D01*
X167009552Y-71680669D01*
X166922421Y-71698000D01*
X166833579Y-71698000D01*
X166746448Y-71680669D01*
X166664373Y-71646672D01*
X166664372Y-71646672D01*
X166664371Y-71646671D01*
X166590504Y-71597314D01*
X166527686Y-71534496D01*
X166478329Y-71460629D01*
X166469370Y-71439000D01*
X166444331Y-71378552D01*
X166427000Y-71291421D01*
X166427000Y-71202579D01*
X166444331Y-71115448D01*
X166478328Y-71033373D01*
X166527685Y-70959505D01*
X166590505Y-70896685D01*
X166630437Y-70870003D01*
X166664371Y-70847329D01*
X166664373Y-70847328D01*
X166746448Y-70813331D01*
X166833579Y-70796000D01*
X166922421Y-70796000D01*
X167009552Y-70813331D01*
G37*
G36*
X181391000Y-71367000D02*
G01*
X180789000Y-71367000D01*
X180789000Y-70365000D01*
X181391000Y-70365000D01*
X181391000Y-71367000D01*
G37*
G36*
X179891000Y-71367000D02*
G01*
X179289000Y-71367000D01*
X179289000Y-70365000D01*
X179891000Y-70365000D01*
X179891000Y-71367000D01*
G37*
G36*
X168484000Y-71165000D02*
G01*
X167582000Y-71165000D01*
X167582000Y-70313000D01*
X168484000Y-70313000D01*
X168484000Y-71165000D01*
G37*
G36*
X169984000Y-71165000D02*
G01*
X169082000Y-71165000D01*
X169082000Y-70313000D01*
X169984000Y-70313000D01*
X169984000Y-71165000D01*
G37*
G36*
X173921000Y-71038000D02*
G01*
X173019000Y-71038000D01*
X173019000Y-70186000D01*
X173921000Y-70186000D01*
X173921000Y-71038000D01*
G37*
G36*
X171835552Y-69289331D02*
G01*
X171917627Y-69323328D01*
X171917629Y-69323329D01*
X171954813Y-69348175D01*
X171991495Y-69372685D01*
X172054315Y-69435505D01*
X172056193Y-69438316D01*
X172102496Y-69507612D01*
X172103672Y-69509373D01*
X172137669Y-69591448D01*
X172155000Y-69678579D01*
X172155000Y-69767421D01*
X172137669Y-69854552D01*
X172103672Y-69936627D01*
X172066970Y-69991555D01*
X172055419Y-70013165D01*
X172048306Y-70036614D01*
X172045904Y-70061000D01*
X172048306Y-70085386D01*
X172055419Y-70108835D01*
X172066970Y-70130446D01*
X172082515Y-70149388D01*
X172101457Y-70164934D01*
X172123067Y-70176485D01*
X172146516Y-70183598D01*
X172170903Y-70186000D01*
X172421000Y-70186000D01*
X172421000Y-71038000D01*
X171519000Y-71038000D01*
X171519000Y-70208614D01*
X171516598Y-70184228D01*
X171509485Y-70160779D01*
X171497934Y-70139168D01*
X171482389Y-70120226D01*
X171463447Y-70104681D01*
X171416506Y-70073316D01*
X171353685Y-70010495D01*
X171304328Y-69936627D01*
X171270331Y-69854552D01*
X171253000Y-69767421D01*
X171253000Y-69678579D01*
X171270331Y-69591448D01*
X171304328Y-69509373D01*
X171305505Y-69507612D01*
X171351807Y-69438316D01*
X171353685Y-69435505D01*
X171416505Y-69372685D01*
X171453187Y-69348175D01*
X171490371Y-69323329D01*
X171490373Y-69323328D01*
X171572448Y-69289331D01*
X171659579Y-69272000D01*
X171748421Y-69272000D01*
X171835552Y-69289331D01*
G37*
G36*
X158974549Y-68721116D02*
G01*
X159085734Y-68743232D01*
X159295203Y-68829997D01*
X159483720Y-68955960D01*
X159644040Y-69116280D01*
X159770003Y-69304797D01*
X159856768Y-69514266D01*
X159859212Y-69526554D01*
X159901000Y-69736635D01*
X159901000Y-69963365D01*
X159891625Y-70010495D01*
X159856768Y-70185734D01*
X159804053Y-70313000D01*
X159771539Y-70391496D01*
X159770003Y-70395203D01*
X159644040Y-70583720D01*
X159483720Y-70744040D01*
X159295203Y-70870003D01*
X159085734Y-70956768D01*
X158974549Y-70978884D01*
X158863365Y-71001000D01*
X158636635Y-71001000D01*
X158525451Y-70978884D01*
X158414266Y-70956768D01*
X158204797Y-70870003D01*
X158016280Y-70744040D01*
X157855960Y-70583720D01*
X157729997Y-70395203D01*
X157728462Y-70391496D01*
X157695947Y-70313000D01*
X157643232Y-70185734D01*
X157608375Y-70010495D01*
X157599000Y-69963365D01*
X157599000Y-69736635D01*
X157640788Y-69526554D01*
X157643232Y-69514266D01*
X157729997Y-69304797D01*
X157855960Y-69116280D01*
X158016280Y-68955960D01*
X158204797Y-68829997D01*
X158414266Y-68743232D01*
X158525451Y-68721116D01*
X158636635Y-68699000D01*
X158863365Y-68699000D01*
X158974549Y-68721116D01*
G37*
G36*
X206361000Y-70801000D02*
G01*
X182259000Y-70801000D01*
X182259000Y-68899000D01*
X206361000Y-68899000D01*
X206361000Y-70801000D01*
G37*
G36*
X178693552Y-68654331D02*
G01*
X178775627Y-68688328D01*
X178775629Y-68688329D01*
X178791599Y-68699000D01*
X178849495Y-68737685D01*
X178912315Y-68800505D01*
X178961672Y-68874373D01*
X178995669Y-68956448D01*
X179013000Y-69043579D01*
X179013000Y-69132421D01*
X178995669Y-69219552D01*
X178961672Y-69301627D01*
X178912315Y-69375495D01*
X178849494Y-69438316D01*
X178769050Y-69492067D01*
X178750108Y-69507613D01*
X178734563Y-69526554D01*
X178723012Y-69548165D01*
X178715899Y-69571614D01*
X178713497Y-69596000D01*
X178715899Y-69620386D01*
X178723012Y-69643835D01*
X178734563Y-69665446D01*
X178750109Y-69684388D01*
X178769050Y-69699933D01*
X178849494Y-69753684D01*
X178912315Y-69816505D01*
X178961672Y-69890373D01*
X178995669Y-69972448D01*
X179013000Y-70059579D01*
X179013000Y-70148421D01*
X178995669Y-70235552D01*
X178961672Y-70317627D01*
X178961671Y-70317629D01*
X178912314Y-70391496D01*
X178849496Y-70454314D01*
X178775629Y-70503671D01*
X178775628Y-70503672D01*
X178775627Y-70503672D01*
X178693552Y-70537669D01*
X178606421Y-70555000D01*
X178517579Y-70555000D01*
X178430448Y-70537669D01*
X178348373Y-70503672D01*
X178348372Y-70503672D01*
X178348371Y-70503671D01*
X178274504Y-70454314D01*
X178211686Y-70391496D01*
X178162329Y-70317629D01*
X178162328Y-70317627D01*
X178128331Y-70235552D01*
X178111000Y-70148421D01*
X178111000Y-70059579D01*
X178128331Y-69972448D01*
X178162328Y-69890373D01*
X178211685Y-69816505D01*
X178274506Y-69753684D01*
X178354950Y-69699933D01*
X178373892Y-69684387D01*
X178389437Y-69665446D01*
X178400988Y-69643835D01*
X178408101Y-69620386D01*
X178410503Y-69596000D01*
X178408101Y-69571614D01*
X178400988Y-69548165D01*
X178389437Y-69526554D01*
X178373891Y-69507612D01*
X178354950Y-69492067D01*
X178274506Y-69438316D01*
X178211685Y-69375495D01*
X178162328Y-69301627D01*
X178128331Y-69219552D01*
X178111000Y-69132421D01*
X178111000Y-69043579D01*
X178128331Y-68956448D01*
X178162328Y-68874373D01*
X178211685Y-68800505D01*
X178274505Y-68737685D01*
X178332401Y-68699000D01*
X178348371Y-68688329D01*
X178348373Y-68688328D01*
X178430448Y-68654331D01*
X178517579Y-68637000D01*
X178606421Y-68637000D01*
X178693552Y-68654331D01*
G37*
G36*
X181391000Y-69716000D02*
G01*
X180789000Y-69716000D01*
X180789000Y-68714000D01*
X181391000Y-68714000D01*
X181391000Y-69716000D01*
G37*
G36*
X179891000Y-69716000D02*
G01*
X179289000Y-69716000D01*
X179289000Y-68714000D01*
X179891000Y-68714000D01*
X179891000Y-69716000D01*
G37*
G36*
X167263552Y-68654331D02*
G01*
X167345627Y-68688328D01*
X167345629Y-68688329D01*
X167361599Y-68699000D01*
X167419495Y-68737685D01*
X167482315Y-68800505D01*
X167531672Y-68874373D01*
X167565669Y-68956448D01*
X167583000Y-69043579D01*
X167583000Y-69132421D01*
X167565669Y-69219552D01*
X167531672Y-69301627D01*
X167482315Y-69375495D01*
X167419495Y-69438315D01*
X167382813Y-69462825D01*
X167345629Y-69487671D01*
X167345628Y-69487672D01*
X167345627Y-69487672D01*
X167263552Y-69521669D01*
X167176421Y-69539000D01*
X167087579Y-69539000D01*
X167000448Y-69521669D01*
X166918373Y-69487672D01*
X166918372Y-69487672D01*
X166918371Y-69487671D01*
X166881187Y-69462825D01*
X166844505Y-69438315D01*
X166781685Y-69375495D01*
X166732328Y-69301627D01*
X166698331Y-69219552D01*
X166681000Y-69132421D01*
X166681000Y-69043579D01*
X166698331Y-68956448D01*
X166732328Y-68874373D01*
X166781685Y-68800505D01*
X166844505Y-68737685D01*
X166902401Y-68699000D01*
X166918371Y-68688329D01*
X166918373Y-68688328D01*
X167000448Y-68654331D01*
X167087579Y-68637000D01*
X167176421Y-68637000D01*
X167263552Y-68654331D01*
G37*
M02*
