<svg width="24" height="24" xmlns="http://www.w3.org/2000/svg">

 <g>
  <title>background</title>
  <rect fill="none" id="canvas_background" height="402" width="582" y="-1" x="-1"/>
 </g>
 <g>
  <title>Layer 1</title>
  <path id="svg_1" fill="#999999" d="m23,15.0921l0,-0.5921c0.276369,0 0.5,-0.22363 0.5,-0.5s-0.223631,-0.5 -0.5,-0.5l-1,0c-0.276369,0 -0.5,0.22363 -0.5,0.5s0.223631,0.5 0.5,0.5l0,0.5l-1.248779,0c0.171509,-1.45215 0.248779,-2.79315 0.248779,-3c0,-3.55957 -0.83301,-6.2168 -0.96582,-6.61523c-0.029299,-0.13868 -0.117189,-0.25977 -0.24316,-0.33057c-0.14942,-0.08399 -3.724609,-2.0542 -9.291019,-2.0542s-9.1416,1.97021 -9.29102,2.0542c-0.10644,0.06006 -0.1875,0.15723 -0.22753,0.27295c-0.04004,0.11621 -0.98145,2.88916 -0.98145,6.67285c0,0.39746 0.28027,4.974609 0.97949,6.49951l-0.02539,0.00049c0,0.18066 0.09766,0.34668 0.25391,0.435551c0.06109,0.0343 0.69598,0.382629 1.79199,0.782959l0,0.78149c0,0.276369 0.22363,0.5 0.5,0.5l0.5,0c0.18945,0 0.3623,-0.10693 0.44727,-0.276369l0.23809,-0.476501c1.52466,0.407591 3.49305,0.752871 5.81464,0.752871c2.32867,0 4.2948,-0.347469 5.81262,-0.756901l0.24011,0.480532c0.084969,0.169439 0.25782,0.276369 0.447269,0.276369l0.5,0c0.276369,0 0.5,-0.223631 0.5,-0.5l0,-0.792179c1.07098,-0.396481 1.688601,-0.739681 1.748051,-0.773741l-0.01075,-0.018551c0.391668,-0.312809 0.679998,-1.561829 0.881779,-2.915529l1.88092,0c0.275391,0 0.5,0.224119 0.5,0.5l0,1c0,0.276369 0.223631,0.5 0.5,0.5s0.5,-0.223631 0.5,-0.5l0,-1c0,-0.651 -0.41925,-1.20081 -1,-1.4079zm-6,-3.0921c0,1.93945 -0.133789,3.96777 -0.24609,5.328131c-0.02149,0.26013 -0.040411,0.487909 -0.058661,0.704279c-0.80841,0.263731 -1.835259,0.529171 -3.046929,0.717649c0.14569,-1.6178 0.35168,-4.36554 0.35168,-6.750059c0,-2.40491 -0.21082,-5.13861 -0.35785,-6.75635c1.19995,0.18268 2.22321,0.44123 3.04334,0.70459c0.142941,1.54975 0.31451,3.863101 0.31451,6.05176zm-12.75391,5.33057c-0.1123,-1.36133 -0.24609,-3.39112 -0.24609,-5.33057c0,-2.1889 0.17163,-4.50244 0.31458,-6.05219c0.81994,-0.26342 1.84301,-0.52185 3.04327,-0.7044c-0.14703,1.61774 -0.35785,4.35156 -0.35785,6.75659c0,2.38623 0.20618,5.136539 0.35193,6.754271c-1.20209,-0.184261 -2.22632,-0.44507 -3.04651,-0.71039c-0.01843,-0.21862 -0.0376,-0.44982 -0.05933,-0.71331z"/>
 </g>
</svg>