M48
; DRILL file {KiCad (5.1.5)-3} date 25.3.2021 12:21:17
; FORMAT={-:-/ absolute / inch / decimal}
; #@! TF.CreationDate,2021-03-25T12:21:17+01:00
; #@! TF.GenerationSoftware,Kicad,Pcbnew,(5.1.5)-3
; #@! TF.FileFunction,Plated,1,2,PTH
FMAT,2
INCH
T1C0.0157
T2C0.0236
%
G90
G05
T1
X3.95Y-3.05
X3.95Y-3.1
X3.95Y-3.9
X3.95Y-3.95
X4.0Y-3.05
X4.0Y-3.95
X4.265Y-3.46
X4.265Y-3.57
X4.28Y-3.42
X4.315Y-3.315
X4.33Y-3.725
X4.355Y-3.34
X4.355Y-3.385
X4.375Y-3.735
X4.4Y-3.05
X4.465Y-3.72
X4.475Y-3.3
X4.62Y-3.195
X4.625Y-3.775
X4.7Y-3.775
X4.725Y-3.3
X4.725Y-3.6
X4.775Y-3.105
X4.785Y-3.04
X4.785Y-3.32
X4.805Y-3.36
X4.895Y-3.34
X4.955Y-3.725
X4.97Y-3.275
X5.0Y-3.38
X5.13Y-3.375
X5.15Y-3.075
X5.175Y-3.615
X5.25Y-3.925
X5.255Y-3.3
X5.275Y-3.615
X5.34Y-3.335
X5.34Y-3.37
X5.375Y-3.825
X5.405Y-3.29
X5.415Y-3.725
X5.45Y-3.725
X5.45Y-3.825
X5.475Y-3.25
X5.475Y-3.6
X5.51Y-3.4
X5.515Y-3.275
X5.535Y-3.345
X5.625Y-3.7
X5.8Y-3.525
X5.8Y-3.95
X5.85Y-3.05
X5.85Y-3.1
X5.85Y-3.9
X5.85Y-3.95
T2
X4.825Y-3.45
X4.825Y-3.55
X4.925Y-3.45
X4.925Y-3.55
X5.025Y-3.45
X5.025Y-3.55
T0
M30
